999
dxfrw 0.6.3
  0
SECTION
  2
HEADER
  9
$ACADVER
  1
AC1009
  9
$DWGCODEPAGE
  3
ANSI_1252
  9
$INSBASE
 10
0
 20
0
 30
0
  9
$EXTMIN
 10
-51.4
 20
52
 30
0
  9
$EXTMAX
 10
66
 20
130.55
 30
0
  9
$LIMMIN
 10
0
 20
0
  9
$LIMMAX
 10
12
 20
9
  9
$ORTHOMODE
 70
    0
  9
$REGENMODE
 70
    1
  9
$FILLMODE
 70
    1
  9
$QTEXTMODE
 70
    0
  9
$MIRRTEXT
 70
    1
  9
$DRAGMODE
 70
    2
  9
$LTSCALE
 40
1
  9
$OSMODE
 70
    0
  9
$ATTMODE
 70
    1
  9
$TEXTSIZE
 40
0.2
  9
$TRACEWID
 40
0.05
  9
$TEXTSTYLE
  7
STANDARD
  9
$CLAYER
  8
BASE PLATES
  9
$CELTYPE
  6
BYLAYER
  9
$CECOLOR
 62
  256
  9
$DIMSCALE
 40
1
  9
$DIMASZ
 40
0.18
  9
$DIMEXO
 40
0.0625
  9
$DIMDLI
 40
0.38
  9
$DIMRND
 40
0
  9
$DIMDLE
 40
0
  9
$DIMEXE
 40
0.18
  9
$DIMTP
 40
0
  9
$DIMTM
 40
0
  9
$DIMTXT
 40
0.18
  9
$DIMCEN
 40
0.09
  9
$DIMTSZ
 40
0
  9
$DIMTOL
 70
    0
  9
$DIMLIM
 70
    0
  9
$DIMTIH
 70
    1
  9
$DIMTOH
 70
    1
  9
$DIMSE1
 70
    0
  9
$DIMSE2
 70
    0
  9
$DIMTAD
 70
    0
  9
$DIMZIN
 70
    0
  9
$DIMBLK
  1

  9
$DIMASO
 70
    1
  9
$DIMSHO
 70
    1
  9
$DIMPOST
  1

  9
$DIMAPOST
  1

  9
$DIMALT
 70
    0
  9
$DIMALTD
 70
    2
  9
$DIMALTF
 40
25.4
  9
$DIMLFAC
 40
1
  9
$DIMTOFL
 70
    0
  9
$DIMTVP
 40
0
  9
$DIMTIX
 70
    0
  9
$DIMSOXD
 70
    0
  9
$DIMSAH
 70
    0
  9
$DIMBLK1
  1

  9
$DIMBLK2
  1

  9
$DIMSTYLE
  2
STANDARD
  9
$DIMCLRD
 70
    0
  9
$DIMCLRE
 70
    0
  9
$DIMCLRT
 70
    0
  9
$DIMTFAC
 40
1
  9
$DIMGAP
 40
0.09
  9
$LUNITS
 70
    2
  9
$LUPREC
 70
    3
  9
$SKETCHINC
 40
0.1
  9
$FILLETRAD
 40
0.5
  9
$AUNITS
 70
    0
  9
$AUPREC
 70
    0
  9
$MENU
  1
.
  9
$ELEVATION
 40
0
  9
$PELEVATION
 40
0
  9
$THICKNESS
 40
0
  9
$LIMCHECK
 70
    0
  9
$BLIPMODE
 70
    0
  9
$CHAMFERA
 40
0.5
  9
$CHAMFERB
 40
0.5
  9
$SKPOLY
 70
    0
  9
$USRTIMER
 70
    1
  9
$ANGBASE
 50
0
  9
$ANGDIR
 70
    0
  9
$PDMODE
 70
    0
  9
$PDSIZE
 40
0
  9
$PLINEWID
 40
0
  9
$COORDS
 70
    2
  9
$SPLFRAME
 70
    0
  9
$SPLINETYPE
 70
    6
  9
$SPLINESEGS
 70
    8
  9
$ATTDIA
 70
    1
  9
$ATTREQ
 70
    1
  9
$HANDLING
 70
    1
  9
$HANDSEED
  5
20000
  9
$SURFTAB1
 70
    6
  9
$SURFTAB2
 70
    6
  9
$SURFTYPE
 70
    6
  9
$SURFU
 70
    6
  9
$SURFV
 70
    6
  9
$UCSNAME
  2

  9
$UCSORG
 10
0
 20
0
 30
0
  9
$UCSXDIR
 10
1
 20
0
 30
0
  9
$UCSYDIR
 10
0
 20
1
 30
0
  9
$PUCSNAME
  2

  9
$PUCSORG
 10
0
 20
0
 30
0
  9
$PUCSXDIR
 10
1
 20
0
 30
0
  9
$PUCSYDIR
 10
0
 20
1
 30
0
  9
$USERI1
 70
    0
  9
$USERI2
 70
    0
  9
$USERI3
 70
    0
  9
$USERI4
 70
    0
  9
$USERI5
 70
    0
  9
$USERR1
 40
0
  9
$USERR2
 40
0
  9
$USERR3
 40
0
  9
$USERR4
 40
0
  9
$USERR5
 40
0
  9
$WORLDVIEW
 70
    1
  9
$SHADEDGE
 70
    3
  9
$SHADEDIF
 70
   70
  9
$TILEMODE
 70
    1
  9
$MAXACTVP
 70
   64
  9
$PLIMCHECK
 70
    0
  9
$PEXTMIN
 10
1e+020
 20
1e+020
 30
1e+020
  9
$PEXTMAX
 10
-1e+020
 20
-1e+020
 30
-1e+020
  9
$GRIDMODE
 70
    0
  9
$SNAPSTYLE
 70
    0
  9
$PLIMMIN
 10
0
 20
0
  9
$PLIMMAX
 10
12
 20
9
  9
$UNITMODE
 70
    0
  9
$VISRETAIN
 70
    1
  9
$PLINEGEN
 70
    0
  9
$PSLTSCALE
 70
    1
  0
ENDSEC
  0
SECTION
  2
TABLES
  0
TABLE
  2
VPORT
 70
    1
  0
VPORT
  2
*ACTIVE
 70
    0
 10
0
 20
0
 11
1
 21
1
 12
50.46320149532889
 22
80.56624991209686
 13
0
 23
0
 14
10
 24
10
 15
10
 25
10
 16
0
 26
0
 36
1
 17
0
 27
0
 37
0
 40
133.9023564430509
 41
1.955223880597015
 42
50
 43
0
 44
0
 50
0
 51
0
 71
    0
 72
  100
 73
    1
 74
    3
 75
    0
 76
    0
 77
    0
 78
    0
  0
ENDTAB
  0
TABLE
  2
LTYPE
 70
    4
  0
LTYPE
  2
BYBLOCK
 70
    0
  3

 72
   65
 73
    0
 40
0
  0
LTYPE
  2
BYLAYER
 70
    0
  3

 72
   65
 73
    0
 40
0
  0
LTYPE
  2
CONTINUOUS
 70
    0
  3
Solid line
 72
   65
 73
    0
 40
0
  0
LTYPE
  2
DOT
 70
    0
  3
Dot . . . . . . . . . . . . . . . . . . . . . .
 72
   65
 73
    2
 40
6.35
 49
0
 49
-6.35
  0
LTYPE
  2
DOTTINY
 70
    0
  3
Dot (.15x) .....................................
 72
   65
 73
    2
 40
0.9525
 49
0
 49
-0.9525
  0
LTYPE
  2
DOT2
 70
    0
  3
Dot (.5x) .....................................
 72
   65
 73
    2
 40
3.175
 49
0
 49
-3.175
  0
LTYPE
  2
DOTX2
 70
    0
  3
Dot (2x) .  .  .  .  .  .  .  .  .  .  .  .  .
 72
   65
 73
    2
 40
12.7
 49
0
 49
-12.7
  0
LTYPE
  2
DASHED
 70
    0
  3
Dashed _ _ _ _ _ _ _ _ _ _ _ _ _ _ _ _ _
 72
   65
 73
    2
 40
19.05
 49
12.7
 49
-6.35
  0
LTYPE
  2
DASHEDTINY
 70
    0
  3
Dashed (.15x) _ _ _ _ _ _ _ _ _ _ _ _ _ _ _ _ _
 72
   65
 73
    2
 40
2.8575
 49
1.905
 49
-0.9525
  0
LTYPE
  2
DASHED2
 70
    0
  3
Dashed (.5x) _ _ _ _ _ _ _ _ _ _ _ _ _ _ _ _ _
 72
   65
 73
    2
 40
9.524999999999999
 49
6.35
 49
-3.175
  0
LTYPE
  2
DASHEDX2
 70
    0
  3
Dashed (2x) ____  ____  ____  ____  ____  ___
 72
   65
 73
    2
 40
38.09999999999999
 49
25.4
 49
-12.7
  0
LTYPE
  2
DASHDOT
 70
    0
  3
Dash dot __ . __ . __ . __ . __ . __ . __ . __
 72
   65
 73
    4
 40
25.4
 49
12.7
 49
-6.35
 49
0
 49
-6.35
  0
LTYPE
  2
DASHDOTTINY
 70
    0
  3
Dash dot (.15x) _._._._._._._._._._._._._._._.
 72
   65
 73
    4
 40
3.81
 49
1.905
 49
-0.9525
 49
0
 49
-0.9525
  0
LTYPE
  2
DASHDOT2
 70
    0
  3
Dash dot (.5x) _._._._._._._._._._._._._._._.
 72
   65
 73
    4
 40
12.7
 49
6.35
 49
-3.175
 49
0
 49
-3.175
  0
LTYPE
  2
DASHDOTX2
 70
    0
  3
Dash dot (2x) ____  .  ____  .  ____  .  ___
 72
   65
 73
    4
 40
50.8
 49
25.4
 49
-12.7
 49
0
 49
-12.7
  0
LTYPE
  2
DIVIDE
 70
    0
  3
Divide ____ . . ____ . . ____ . . ____ . . ____
 72
   65
 73
    6
 40
31.75
 49
12.7
 49
-6.35
 49
0
 49
-6.35
 49
0
 49
-6.35
  0
LTYPE
  2
DIVIDETINY
 70
    0
  3
Divide (.15x) __..__..__..__..__..__..__..__.._
 72
   65
 73
    6
 40
4.7625
 49
1.905
 49
-0.9525
 49
0
 49
-0.9525
 49
0
 49
-0.9525
  0
LTYPE
  2
DIVIDE2
 70
    0
  3
Divide (.5x) __..__..__..__..__..__..__..__.._
 72
   65
 73
    6
 40
15.875
 49
6.35
 49
-3.175
 49
0
 49
-3.175
 49
0
 49
-3.175
  0
LTYPE
  2
DIVIDEX2
 70
    0
  3
Divide (2x) ________  .  .  ________  .  .  _
 72
   65
 73
    6
 40
63.5
 49
25.4
 49
-12.7
 49
0
 49
-12.7
 49
0
 49
-12.7
  0
LTYPE
  2
BORDER
 70
    0
  3
Border __ __ . __ __ . __ __ . __ __ . __ __ .
 72
   65
 73
    6
 40
44.45
 49
12.7
 49
-6.35
 49
12.7
 49
-6.35
 49
0
 49
-6.35
  0
LTYPE
  2
BORDERTINY
 70
    0
  3
Border (.15x) __.__.__.__.__.__.__.__.__.__.__.
 72
   65
 73
    6
 40
6.6675
 49
1.905
 49
-0.9525
 49
1.905
 49
-0.9525
 49
0
 49
-0.9525
  0
LTYPE
  2
BORDER2
 70
    0
  3
Border (.5x) __.__.__.__.__.__.__.__.__.__.__.
 72
   65
 73
    6
 40
22.225
 49
6.35
 49
-3.175
 49
6.35
 49
-3.175
 49
0
 49
-3.175
  0
LTYPE
  2
BORDERX2
 70
    0
  3
Border (2x) ____  ____  .  ____  ____  .  ___
 72
   65
 73
    6
 40
88.89999999999999
 49
25.4
 49
-12.7
 49
25.4
 49
-12.7
 49
0
 49
-12.7
  0
LTYPE
  2
CENTER
 70
    0
  3
Center ____ _ ____ _ ____ _ ____ _ ____ _ ____
 72
   65
 73
    4
 40
50.8
 49
31.75
 49
-6.35
 49
6.35
 49
-6.35
  0
LTYPE
  2
CENTERTINY
 70
    0
  3
Center (.15x) ___ _ ___ _ ___ _ ___ _ ___ _ ___
 72
   65
 73
    4
 40
7.62
 49
4.7625
 49
-0.9525
 49
0.9525
 49
-0.9525
  0
LTYPE
  2
CENTER2
 70
    0
  3
Center (.5x) ___ _ ___ _ ___ _ ___ _ ___ _ ___
 72
   65
 73
    4
 40
28.575
 49
19.05
 49
-3.175
 49
3.175
 49
-3.175
  0
LTYPE
  2
CENTERX2
 70
    0
  3
Center (2x) ________  __  ________  __  _____
 72
   65
 73
    4
 40
101.6
 49
63.5
 49
-12.7
 49
12.7
 49
-12.7
  0
ENDTAB
  0
TABLE
  2
LAYER
 70
    1
  0
LAYER
  2
0
 70
    0
 62
    7
  6
CONTINUOUS
  0
LAYER
  2
BASE PLATES
 70
    0
 62
    7
  6
CONTINUOUS
  0
ENDTAB
  0
TABLE
  2
STYLE
 70
    3
  0
STYLE
  2
STANDARD
 70
    0
 40
0
 41
1
 50
0
 71
    0
 42
1
  3
TXT
  4

  0
ENDTAB
  0
TABLE
  2
VIEW
 70
    0
  0
ENDTAB
  0
TABLE
  2
UCS
 70
    0
  0
ENDTAB
  0
TABLE
  2
APPID
 70
    1
  0
APPID
  2
ACAD
 70
    0
  0
APPID
  2
LIBRECAD
 70
    0
  0
ENDTAB
  0
TABLE
  2
DIMSTYLE
 70
    1
  0
DIMSTYLE
  2
STANDARD
 70
    0
  3

  4

  5

  6

  7

 40
1
 41
0.18
 42
0.0625
 43
0.38
 44
0.18
 45
0
 46
0
 47
0
 48
0
 49
1
140
0.18
141
0.09
142
0
143
25.4
144
1
145
0
146
1
147
0.09
 71
    0
 72
    0
 73
    1
 74
    1
 75
    0
 76
    0
 77
    0
 78
    0
170
    0
171
    2
172
    0
173
    0
174
    0
175
    0
176
    0
177
    0
178
    0
  0
ENDTAB
  0
ENDSEC
  0
SECTION
  2
BLOCKS
  0
BLOCK
  8
0
  2
$MODEL_SPACE
 70
    0
 10
0
 20
0
 30
0
  3
$MODEL_SPACE
  1

  0
ENDBLK
  8
0
  0
BLOCK
  8
0
  2
$PAPER_SPACE
 70
    0
 10
0
 20
0
 30
0
  3
$PAPER_SPACE
  1

  0
ENDBLK
  8
0
  0
ENDSEC
  0
SECTION
  2
ENTITIES
  0
POLYLINE
  5
31
  8
BASE PLATES
  6
BYLAYER
 62
  256
 66
    1
 10
0
 20
0
 30
0
 70
    0
  0
VERTEX
  5
32
  8
BASE PLATES
  6
BYLAYER
 62
  256
 10
43
 20
106.5000000000049
 30
0
  0
VERTEX
  5
33
  8
BASE PLATES
  6
BYLAYER
 62
  256
 10
49
 20
106.5000000000049
 30
0
  0
VERTEX
  5
34
  8
BASE PLATES
  6
BYLAYER
 62
  256
 10
49
 20
112.5000000000049
 30
0
  0
VERTEX
  5
35
  8
BASE PLATES
  6
BYLAYER
 62
  256
 10
43
 20
112.5000000000049
 30
0
  0
VERTEX
  5
36
  8
BASE PLATES
  6
BYLAYER
 62
  256
 10
43
 20
106.5000000000049
 30
0
  0
SEQEND
  5
37
  8
BASE PLATES
  6
BYLAYER
 62
  256
  0
CIRCLE
  5
38
  8
BASE PLATES
  6
BYLAYER
 62
  256
 10
7.300000000000004
 20
91.27500000000001
 40
1.5
  0
POLYLINE
  5
39
  8
BASE PLATES
  6
BYLAYER
 62
  256
 66
    1
 10
0
 20
0
 30
0
 70
    0
  0
VERTEX
  5
3A
  8
BASE PLATES
  6
BYLAYER
 62
  256
 10
-15.4
 20
59.75
 30
0
  0
VERTEX
  5
3B
  8
BASE PLATES
  6
BYLAYER
 62
  256
 10
-21.4
 20
59.75
 30
0
  0
VERTEX
  5
3C
  8
BASE PLATES
  6
BYLAYER
 62
  256
 10
-21.4
 20
68.75
 30
0
  0
VERTEX
  5
3D
  8
BASE PLATES
  6
BYLAYER
 62
  256
 10
-15.4
 20
68.75
 30
0
  0
VERTEX
  5
3E
  8
BASE PLATES
  6
BYLAYER
 62
  256
 10
-15.4
 20
62.75
 30
0
  0
SEQEND
  5
3F
  8
BASE PLATES
  6
BYLAYER
 62
  256
  0
LINE
  5
40
  8
BASE PLATES
  6
BYLAYER
 62
  256
 10
-15.4
 20
62.75
 11
-7.4
 21
62.75
  0
LINE
  5
41
  8
BASE PLATES
  6
BYLAYER
 62
  256
 10
-7.4
 20
62.75
 11
-7.4
 21
59.75
  0
LINE
  5
42
  8
BASE PLATES
  6
BYLAYER
 62
  256
 10
-7.4
 20
59.75
 11
-15.5
 21
59.75
  0
POLYLINE
  5
43
  8
BASE PLATES
  6
BYLAYER
 62
  256
 66
    1
 10
0
 20
0
 30
0
 70
    0
  0
VERTEX
  5
44
  8
BASE PLATES
  6
BYLAYER
 62
  256
 10
15.4
 20
59.75
 30
0
  0
VERTEX
  5
45
  8
BASE PLATES
  6
BYLAYER
 62
  256
 10
21.4
 20
59.75
 30
0
  0
VERTEX
  5
46
  8
BASE PLATES
  6
BYLAYER
 62
  256
 10
21.4
 20
68.75
 30
0
  0
VERTEX
  5
47
  8
BASE PLATES
  6
BYLAYER
 62
  256
 10
15.4
 20
68.75
 30
0
  0
VERTEX
  5
48
  8
BASE PLATES
  6
BYLAYER
 62
  256
 10
15.4
 20
62.75
 30
0
  0
SEQEND
  5
49
  8
BASE PLATES
  6
BYLAYER
 62
  256
  0
LINE
  5
4A
  8
BASE PLATES
  6
BYLAYER
 62
  256
 10
15.4
 20
62.75
 11
7.4
 21
62.75
  0
LINE
  5
4B
  8
BASE PLATES
  6
BYLAYER
 62
  256
 10
7.4
 20
62.75
 11
7.4
 21
59.75
  0
LINE
  5
4C
  8
BASE PLATES
  6
BYLAYER
 62
  256
 10
7.4
 20
59.75
 11
15.5
 21
59.75
  0
LINE
  5
4D
  8
BASE PLATES
  6
BYLAYER
 62
  256
 10
-51.4
 20
52
 11
66
 21
52
  0
POLYLINE
  5
4E
  8
BASE PLATES
  6
BYLAYER
 62
  256
 66
    1
 10
0
 20
0
 30
0
 70
    0
  0
VERTEX
  5
4F
  8
BASE PLATES
  6
BYLAYER
 62
  256
 10
66
 20
52
 30
0
  0
VERTEX
  5
50
  8
BASE PLATES
  6
BYLAYER
 62
  256
 10
66
 20
61.81875000000001
 30
0
  0
VERTEX
  5
51
  8
BASE PLATES
  6
BYLAYER
 62
  256
 10
66
 20
71.6375
 30
0
  0
VERTEX
  5
52
  8
BASE PLATES
  6
BYLAYER
 62
  256
 10
66
 20
81.45625000000001
 30
0
  0
VERTEX
  5
53
  8
BASE PLATES
  6
BYLAYER
 62
  256
 10
66
 20
91.27500000000001
 30
0
  0
VERTEX
  5
54
  8
BASE PLATES
  6
BYLAYER
 62
  256
 10
66
 20
101.09375
 30
0
  0
VERTEX
  5
55
  8
BASE PLATES
  6
BYLAYER
 62
  256
 10
66
 20
110.9125
 30
0
  0
VERTEX
  5
56
  8
BASE PLATES
  6
BYLAYER
 62
  256
 10
66
 20
120.73125
 30
0
  0
VERTEX
  5
57
  8
BASE PLATES
  6
BYLAYER
 62
  256
 10
66
 20
130.55
 30
0
  0
SEQEND
  5
58
  8
BASE PLATES
  6
BYLAYER
 62
  256
  0
LINE
  5
59
  8
BASE PLATES
  6
BYLAYER
 62
  256
 10
66
 20
130.55
 11
-51.39999999999999
 21
130.55
  0
POLYLINE
  5
5A
  8
BASE PLATES
  6
BYLAYER
 62
  256
 66
    1
 10
0
 20
0
 30
0
 70
    0
  0
VERTEX
  5
5B
  8
BASE PLATES
  6
BYLAYER
 62
  256
 10
-51.4
 20
130.55
 30
0
  0
VERTEX
  5
5C
  8
BASE PLATES
  6
BYLAYER
 62
  256
 10
-51.4
 20
120.73125
 30
0
  0
VERTEX
  5
5D
  8
BASE PLATES
  6
BYLAYER
 62
  256
 10
-51.4
 20
110.9125
 30
0
  0
VERTEX
  5
5E
  8
BASE PLATES
  6
BYLAYER
 62
  256
 10
-51.4
 20
101.09375
 30
0
  0
VERTEX
  5
5F
  8
BASE PLATES
  6
BYLAYER
 62
  256
 10
-51.4
 20
91.27500000000001
 30
0
  0
VERTEX
  5
60
  8
BASE PLATES
  6
BYLAYER
 62
  256
 10
-51.4
 20
81.45625
 30
0
  0
VERTEX
  5
61
  8
BASE PLATES
  6
BYLAYER
 62
  256
 10
-51.39999999999999
 20
71.6375
 30
0
  0
VERTEX
  5
62
  8
BASE PLATES
  6
BYLAYER
 62
  256
 10
-51.4
 20
61.81875
 30
0
  0
VERTEX
  5
63
  8
BASE PLATES
  6
BYLAYER
 62
  256
 10
-51.4
 20
52
 30
0
  0
SEQEND
  5
64
  8
BASE PLATES
  6
BYLAYER
 62
  256
  0
LINE
  5
65
  8
BASE PLATES
  6
BYLAYER
 62
  256
 10
57
 20
60
 11
58
 21
60
  0
LINE
  5
66
  8
BASE PLATES
  6
BYLAYER
 62
  256
 10
58
 20
60
 11
58
 21
63
  0
LINE
  5
67
  8
BASE PLATES
  6
BYLAYER
 62
  256
 10
58
 20
63
 11
49
 21
63
  0
LINE
  5
68
  8
BASE PLATES
  6
BYLAYER
 62
  256
 10
49
 20
63
 11
49
 21
60
  0
LINE
  5
69
  8
BASE PLATES
  6
BYLAYER
 62
  256
 10
49
 20
60
 11
57.1
 21
60
  0
CIRCLE
  5
6A
  8
BASE PLATES
  6
BYLAYER
 62
  256
 10
18.4
 20
78
 40
1.35
  0
CIRCLE
  5
6B
  8
BASE PLATES
  6
BYLAYER
 62
  256
 10
-18.4
 20
78
 40
1.35
  0
CIRCLE
  5
6C
  8
BASE PLATES
  6
BYLAYER
 62
  256
 10
46
 20
99
 40
1.35
  0
LINE
  5
6D
  8
BASE PLATES
  6
BYLAYER
 62
  256
 10
-32.9
 20
122.55
 11
-32.9
 21
116.55
  0
LINE
  5
6E
  8
BASE PLATES
  6
BYLAYER
 62
  256
 10
-32.9
 20
79.75
 11
-32.9
 21
85.75
  0
LINE
  5
6F
  8
BASE PLATES
  6
BYLAYER
 62
  256
 10
-23.9
 20
93.75
 11
-23.9
 21
85.64999999999999
  0
LINE
  5
70
  8
BASE PLATES
  6
BYLAYER
 62
  256
 10
-26.9
 20
93.75
 11
-23.9
 21
93.75
  0
LINE
  5
71
  8
BASE PLATES
  6
BYLAYER
 62
  256
 10
-26.9
 20
85.75
 11
-26.9
 21
93.75
  0
LINE
  5
72
  8
BASE PLATES
  6
BYLAYER
 62
  256
 10
-32.9
 20
85.75
 11
-26.9
 21
85.75
  0
LINE
  5
73
  8
BASE PLATES
  6
BYLAYER
 62
  256
 10
-23.9
 20
79.75
 11
-32.9
 21
79.75
  0
LINE
  5
74
  8
BASE PLATES
  6
BYLAYER
 62
  256
 10
-23.9
 20
85.75
 11
-23.9
 21
79.75
  0
LINE
  5
75
  8
BASE PLATES
  6
BYLAYER
 62
  256
 10
-23.9
 20
108.55
 11
-23.9
 21
116.65
  0
LINE
  5
76
  8
BASE PLATES
  6
BYLAYER
 62
  256
 10
-26.9
 20
108.55
 11
-23.9
 21
108.55
  0
LINE
  5
77
  8
BASE PLATES
  6
BYLAYER
 62
  256
 10
-26.9
 20
116.55
 11
-26.9
 21
108.55
  0
LINE
  5
78
  8
BASE PLATES
  6
BYLAYER
 62
  256
 10
-32.9
 20
116.55
 11
-26.9
 21
116.55
  0
LINE
  5
79
  8
BASE PLATES
  6
BYLAYER
 62
  256
 10
-23.9
 20
122.55
 11
-32.9
 21
122.55
  0
LINE
  5
7A
  8
BASE PLATES
  6
BYLAYER
 62
  256
 10
-23.9
 20
116.55
 11
-23.9
 21
122.55
  0
CIRCLE
  5
7B
  8
BASE PLATES
  6
BYLAYER
 62
  256
 10
-42.15
 20
82.75
 40
1.35
  0
CIRCLE
  5
7C
  8
BASE PLATES
  6
BYLAYER
 62
  256
 10
-42.15
 20
119.55
 40
1.35
  0
ENDSEC
  0
EOF
