  0
SECTION
  2
HEADER
  9
$ACADVER
  1
AC1009
  9
$INSBASE
 10
0.0
 20
0.0
 30
0.0
  9
$EXTMIN
 10
-51.3999999999999986
 20
36.9500000000000028
 30
-0.0000000000000022
  9
$EXTMAX
 10
66.0
 20
132.5500000000000114
 30
0.0
  9
$LIMMIN
 10
0.0
 20
0.0
  9
$LIMMAX
 10
12.0
 20
9.0
  9
$ORTHOMODE
 70
     0
  9
$REGENMODE
 70
     1
  9
$FILLMODE
 70
     1
  9
$QTEXTMODE
 70
     0
  9
$MIRRTEXT
 70
     1
  9
$DRAGMODE
 70
     2
  9
$LTSCALE
 40
1.0
  9
$OSMODE
 70
    37
  9
$ATTMODE
 70
     1
  9
$TEXTSIZE
 40
0.2
  9
$TRACEWID
 40
0.05
  9
$TEXTSTYLE
  7
STANDARD
  9
$CLAYER
  8
BASE_PLATES
  9
$CELTYPE
  6
BYLAYER
  9
$CECOLOR
 62
   256
  9
$DIMSCALE
 40
1.0
  9
$DIMASZ
 40
0.18
  9
$DIMEXO
 40
0.0625
  9
$DIMDLI
 40
0.38
  9
$DIMRND
 40
0.0
  9
$DIMDLE
 40
0.0
  9
$DIMEXE
 40
0.18
  9
$DIMTP
 40
0.0
  9
$DIMTM
 40
0.0
  9
$DIMTXT
 40
0.18
  9
$DIMCEN
 40
0.09
  9
$DIMTSZ
 40
0.0
  9
$DIMTOL
 70
     0
  9
$DIMLIM
 70
     0
  9
$DIMTIH
 70
     1
  9
$DIMTOH
 70
     1
  9
$DIMSE1
 70
     0
  9
$DIMSE2
 70
     0
  9
$DIMTAD
 70
     0
  9
$DIMZIN
 70
     0
  9
$DIMBLK
  1

  9
$DIMASO
 70
     1
  9
$DIMSHO
 70
     1
  9
$DIMPOST
  1

  9
$DIMAPOST
  1

  9
$DIMALT
 70
     0
  9
$DIMALTD
 70
     2
  9
$DIMALTF
 40
25.3999999999999986
  9
$DIMLFAC
 40
1.0
  9
$DIMTOFL
 70
     0
  9
$DIMTVP
 40
0.0
  9
$DIMTIX
 70
     0
  9
$DIMSOXD
 70
     0
  9
$DIMSAH
 70
     0
  9
$DIMBLK1
  1

  9
$DIMBLK2
  1

  9
$DIMSTYLE
  2
STANDARD
  9
$DIMCLRD
 70
     0
  9
$DIMCLRE
 70
     0
  9
$DIMCLRT
 70
     0
  9
$DIMTFAC
 40
1.0
  9
$DIMGAP
 40
0.09
  9
$LUNITS
 70
     2
  9
$LUPREC
 70
     3
  9
$SKETCHINC
 40
0.1
  9
$FILLETRAD
 40
0.5
  9
$AUNITS
 70
     0
  9
$AUPREC
 70
     0
  9
$MENU
  1
.
  9
$ELEVATION
 40
0.0
  9
$PELEVATION
 40
0.0
  9
$THICKNESS
 40
0.0
  9
$LIMCHECK
 70
     0
  9
$BLIPMODE
 70
     0
  9
$CHAMFERA
 40
0.5
  9
$CHAMFERB
 40
0.5
  9
$SKPOLY
 70
     0
  9
$TDCREATE
 40
2457584.5092013888061047
  9
$TDUPDATE
 40
2457584.7151736109517515
  9
$TDINDWG
 40
0.0077083449
  9
$TDUSRTIMER
 40
0.0077083449
  9
$USRTIMER
 70
     1
  9
$ANGBASE
 50
0.0
  9
$ANGDIR
 70
     0
  9
$PDMODE
 70
     0
  9
$PDSIZE
 40
0.0
  9
$PLINEWID
 40
0.0
  9
$COORDS
 70
     1
  9
$SPLFRAME
 70
     0
  9
$SPLINETYPE
 70
     6
  9
$SPLINESEGS
 70
     8
  9
$ATTDIA
 70
     1
  9
$ATTREQ
 70
     1
  9
$HANDLING
 70
     1
  9
$HANDSEED
  5
211
  9
$SURFTAB1
 70
     6
  9
$SURFTAB2
 70
     6
  9
$SURFTYPE
 70
     6
  9
$SURFU
 70
     6
  9
$SURFV
 70
     6
  9
$UCSNAME
  2

  9
$UCSORG
 10
0.0
 20
0.0
 30
0.0
  9
$UCSXDIR
 10
1.0
 20
0.0
 30
0.0
  9
$UCSYDIR
 10
0.0
 20
1.0
 30
0.0
  9
$PUCSNAME
  2

  9
$PUCSORG
 10
0.0
 20
0.0
 30
0.0
  9
$PUCSXDIR
 10
1.0
 20
0.0
 30
0.0
  9
$PUCSYDIR
 10
0.0
 20
1.0
 30
0.0
  9
$USERI1
 70
     0
  9
$USERI2
 70
     0
  9
$USERI3
 70
     0
  9
$USERI4
 70
     0
  9
$USERI5
 70
     0
  9
$USERR1
 40
0.0
  9
$USERR2
 40
0.0
  9
$USERR3
 40
0.0
  9
$USERR4
 40
0.0
  9
$USERR5
 40
0.0
  9
$WORLDVIEW
 70
     1
  9
$SHADEDGE
 70
     3
  9
$SHADEDIF
 70
    70
  9
$TILEMODE
 70
     1
  9
$MAXACTVP
 70
    64
  9
$PLIMCHECK
 70
     0
  9
$PEXTMIN
 10
1.0000000000000000E+20
 20
1.0000000000000000E+20
 30
1.0000000000000000E+20
  9
$PEXTMAX
 10
-1.0000000000000000E+20
 20
-1.0000000000000000E+20
 30
-1.0000000000000000E+20
  9
$PLIMMIN
 10
0.0
 20
0.0
  9
$PLIMMAX
 10
12.0
 20
9.0
  9
$UNITMODE
 70
     0
  9
$VISRETAIN
 70
     1
  9
$PLINEGEN
 70
     0
  9
$PSLTSCALE
 70
     1
  0
ENDSEC
  0
SECTION
  2
TABLES
  0
TABLE
  2
VPORT
 70
     1
  0
VPORT
  2
*ACTIVE
 70
     0
 10
0.0
 20
0.0
 11
1.0
 21
1.0
 12
7.1252769436022163
 22
-10.1891510165083599
 13
0.0
 23
0.0
 14
0.5
 24
0.5
 15
0.5
 25
0.5
 16
0.0
 26
0.0
 36
1.0
 17
7.299999999999998
 27
91.2750000000000057
 37
0.0
 40
90.4232732386580551
 41
2.6482213438735172
 42
50.0
 43
0.0
 44
0.0
 50
0.0
 51
0.0
 71
     0
 72
   100
 73
     1
 74
     3
 75
     0
 76
     0
 77
     0
 78
     0
  0
ENDTAB
  0
TABLE
  2
LTYPE
 70
     2
  0
LTYPE
  2
CONTINUOUS
 70
     0
  3
Solid line
 72
    65
 73
     0
 40
0.0
  0
ENDTAB
  0
TABLE
  2
LAYER
 70
     2
  0
LAYER
  2
0
 70
     0
 62
     7
  6
CONTINUOUS
  0
LAYER
  2
BASE_PLATES
 70
     0
 62
     7
  6
CONTINUOUS
  0
ENDTAB
  0
TABLE
  2
STYLE
 70
     1
  0
STYLE
  2
STANDARD
 70
     0
 40
0.0
 41
1.0
 50
0.0
 71
     0
 42
0.2
  3
txt
  4

  0
ENDTAB
  0
TABLE
  2
VIEW
 70
     0
  0
ENDTAB
  0
TABLE
  2
UCS
 70
     0
  0
ENDTAB
  0
TABLE
  2
APPID
 70
     4
  0
APPID
  2
ACAD
 70
     0
  0
APPID
  2
ACAD_EXEMPT_FROM_CAD_STANDARDS
 70
     0
  0
APPID
  2
ACAD_NAV_VCDISPLAY
 70
     0
  0
APPID
  2
ACAD_MLEADERVER
 70
     0
  0
ENDTAB
  0
TABLE
  2
DIMSTYLE
 70
     2
  0
DIMSTYLE
  2
STANDARD
 70
     0
  3

  4

  5

  6

  7

 40
1.0
 41
0.18
 42
0.0625
 43
0.38
 44
0.18
 45
0.0
 46
0.0
 47
0.0
 48
0.0
140
0.18
141
0.09
142
0.0
143
25.3999999999999986
144
1.0
145
0.0
146
1.0
147
0.09
 71
     0
 72
     0
 73
     1
 74
     1
 75
     0
 76
     0
 77
     0
 78
     0
170
     0
171
     2
172
     0
173
     0
174
     0
175
     0
176
     0
177
     0
178
     0
  0
ENDTAB
  0
ENDSEC
  0
SECTION
  2
BLOCKS
  0
BLOCK
  8
0
  2
$MODEL_SPACE
 70
     0
 10
0.0
 20
0.0
 30
0.0
  3
$MODEL_SPACE
  1

  0
ENDBLK
  5
21
  8
0
  0
BLOCK
 67
     1
  8
0
  2
$PAPER_SPACE
 70
     0
 10
0.0
 20
0.0
 30
0.0
  3
$PAPER_SPACE
  1

  0
ENDBLK
  5
1D
 67
     1
  8
0
  0
ENDSEC
  0
SECTION
  2
ENTITIES
  0
LINE
  5
5E
  8
BASE_PLATES
 10
-32.9000000000000128
 20
122.5499999999999972
 30
0.0
 11
-32.9000000000000128
 21
116.5499999999999972
 31
0.0
  0
LINE
  5
5F
  8
BASE_PLATES
 10
-32.9000000000000128
 20
79.75
 30
0.0
 11
-32.9000000000000128
 21
85.7500000000000142
 31
0.0
  0
LINE
  5
60
  8
BASE_PLATES
 10
-23.9000000000000092
 20
93.75
 30
0.0
 11
-23.9000000000000092
 21
85.6499999999999631
 31
0.0
  0
LINE
  5
61
  8
BASE_PLATES
 10
-26.9000000000000092
 20
93.75
 30
0.0
 11
-23.9000000000000092
 21
93.75
 31
0.0
  0
LINE
  5
62
  8
BASE_PLATES
 10
-26.9000000000000092
 20
85.7500000000000142
 30
0.0
 11
-26.9000000000000092
 21
93.75
 31
0.0
  0
LINE
  5
63
  8
BASE_PLATES
 10
-32.9000000000000128
 20
85.7500000000000142
 30
0.0
 11
-26.9000000000000092
 21
85.7500000000000142
 31
0.0
  0
LINE
  5
64
  8
BASE_PLATES
 10
-23.9000000000000092
 20
79.75
 30
0.0
 11
-32.9000000000000128
 21
79.75
 31
0.0
  0
LINE
  5
65
  8
BASE_PLATES
 10
-23.9000000000000092
 20
85.7500000000000142
 30
0.0
 11
-23.9000000000000092
 21
79.75
 31
0.0
  0
LINE
  5
66
  8
BASE_PLATES
 10
-23.9000000000000092
 20
108.5499999999999972
 30
0.0
 11
-23.9000000000000092
 21
116.6500000000000057
 31
0.0
  0
LINE
  5
67
  8
BASE_PLATES
 10
-26.9000000000000092
 20
108.5499999999999972
 30
0.0
 11
-23.9000000000000092
 21
108.5499999999999972
 31
0.0
  0
LINE
  5
68
  8
BASE_PLATES
 10
-26.9000000000000092
 20
116.5499999999999972
 30
0.0
 11
-26.9000000000000092
 21
108.5499999999999972
 31
0.0
  0
LINE
  5
69
  8
BASE_PLATES
 10
-32.9000000000000128
 20
116.5499999999999972
 30
0.0
 11
-26.9000000000000092
 21
116.5499999999999972
 31
0.0
  0
LINE
  5
6A
  8
BASE_PLATES
 10
-23.9000000000000092
 20
122.5499999999999972
 30
0.0
 11
-32.9000000000000128
 21
122.5499999999999972
 31
0.0
  0
LINE
  5
6B
  8
BASE_PLATES
 10
-23.9000000000000092
 20
116.5499999999999972
 30
0.0
 11
-23.9000000000000092
 21
122.5499999999999972
 31
0.0
  0
CIRCLE
  5
6C
  8
BASE_PLATES
 10
-42.1499999999999986
 20
82.75
 30
0.0
 40
1.3500000000000001
  0
CIRCLE
  5
6D
  8
BASE_PLATES
 10
-42.1499999999999986
 20
119.5499999999999972
 30
0.0
 40
1.3500000000000001
  0
POLYLINE
  5
6E
  8
BASE_PLATES
 66
     1
 10
0.0
 20
0.0
 30
0.0
  0
VERTEX
  5
70
  8
BASE_PLATES
 10
43.0
 20
106.5000000000049027
 30
0.0
  0
VERTEX
  5
71
  8
BASE_PLATES
 10
49.0
 20
106.5000000000049027
 30
0.0
  0
VERTEX
  5
72
  8
BASE_PLATES
 10
49.0
 20
112.5000000000049027
 30
0.0
  0
VERTEX
  5
73
  8
BASE_PLATES
 10
43.0
 20
112.5000000000049027
 30
0.0
  0
VERTEX
  5
74
  8
BASE_PLATES
 10
43.0
 20
106.5000000000049027
 30
0.0
  0
SEQEND
  5
6F
  8
BASE_PLATES
  0
CIRCLE
  5
75
  8
BASE_PLATES
 10
7.3000000000000034
 20
91.2750000000000057
 30
0.0
 40
1.5
  0
POLYLINE
  5
76
  8
BASE_PLATES
 66
     1
 10
0.0
 20
0.0
 30
0.0
  0
VERTEX
  5
78
  8
BASE_PLATES
 10
-15.4000000000000004
 20
59.75
 30
0.0
  0
VERTEX
  5
79
  8
BASE_PLATES
 10
-21.3999999999999986
 20
59.75
 30
0.0
  0
VERTEX
  5
7A
  8
BASE_PLATES
 10
-21.3999999999999986
 20
68.75
 30
0.0
  0
VERTEX
  5
7B
  8
BASE_PLATES
 10
-15.4000000000000004
 20
68.75
 30
0.0
  0
VERTEX
  5
7C
  8
BASE_PLATES
 10
-15.4000000000000004
 20
62.75
 30
0.0
  0
SEQEND
  5
77
  8
BASE_PLATES
  0
LINE
  5
7D
  8
BASE_PLATES
 10
-15.4000000000000004
 20
62.75
 30
0.0
 11
-7.4000000000000004
 21
62.75
 31
0.0
  0
LINE
  5
7E
  8
BASE_PLATES
 10
-7.4000000000000004
 20
62.75
 30
0.0
 11
-7.4000000000000004
 21
59.75
 31
0.0
  0
LINE
  5
7F
  8
BASE_PLATES
 10
-7.4000000000000004
 20
59.75
 30
0.0
 11
-15.5
 21
59.75
 31
0.0
  0
POLYLINE
  5
80
  8
BASE_PLATES
 66
     1
 10
0.0
 20
0.0
 30
0.0
  0
VERTEX
  5
82
  8
BASE_PLATES
 10
15.4000000000000004
 20
59.75
 30
0.0
  0
VERTEX
  5
83
  8
BASE_PLATES
 10
21.3999999999999986
 20
59.75
 30
0.0
  0
VERTEX
  5
84
  8
BASE_PLATES
 10
21.3999999999999986
 20
68.75
 30
0.0
  0
VERTEX
  5
85
  8
BASE_PLATES
 10
15.4000000000000004
 20
68.75
 30
0.0
  0
VERTEX
  5
86
  8
BASE_PLATES
 10
15.4000000000000004
 20
62.75
 30
0.0
  0
SEQEND
  5
81
  8
BASE_PLATES
  0
LINE
  5
87
  8
BASE_PLATES
 10
15.4000000000000004
 20
62.75
 30
0.0
 11
7.4000000000000004
 21
62.75
 31
0.0
  0
LINE
  5
88
  8
BASE_PLATES
 10
7.4000000000000004
 20
62.75
 30
0.0
 11
7.4000000000000004
 21
59.75
 31
0.0
  0
LINE
  5
89
  8
BASE_PLATES
 10
7.4000000000000004
 20
59.75
 30
0.0
 11
15.5
 21
59.75
 31
0.0
  0
LINE
  5
8A
  8
BASE_PLATES
 10
-51.3999999999999986
 20
52.0
 30
0.0
 11
66.0
 21
52.0
 31
0.0
  0
POLYLINE
  8
BASE_PLATES
  5
14D
  66
     1
 10
0.000000
 20
0.000000
 30
0.000000
  70
     8
  0
VERTEX
  8
BASE_PLATES
  5
14E
 10
66.0000
 20
52.0000
 30
0.000000
  70
    32
  0
VERTEX
  8
BASE_PLATES
  5
14F
 10
66.0000
 20
52.8268
 30
0.000000
  70
    32
  0
VERTEX
  8
BASE_PLATES
  5
150
 10
66.0000
 20
53.6537
 30
0.000000
  70
    32
  0
VERTEX
  8
BASE_PLATES
  5
151
 10
66.0000
 20
54.4805
 30
0.000000
  70
    32
  0
VERTEX
  8
BASE_PLATES
  5
152
 10
66.0000
 20
55.3074
 30
0.000000
  70
    32
  0
VERTEX
  8
BASE_PLATES
  5
153
 10
66.0000
 20
56.1342
 30
0.000000
  70
    32
  0
VERTEX
  8
BASE_PLATES
  5
154
 10
66.0000
 20
56.9611
 30
0.000000
  70
    32
  0
VERTEX
  8
BASE_PLATES
  5
155
 10
66.0000
 20
57.7879
 30
0.000000
  70
    32
  0
VERTEX
  8
BASE_PLATES
  5
156
 10
66.0000
 20
58.6147
 30
0.000000
  70
    32
  0
VERTEX
  8
BASE_PLATES
  5
157
 10
66.0000
 20
59.4416
 30
0.000000
  70
    32
  0
VERTEX
  8
BASE_PLATES
  5
158
 10
66.0000
 20
60.2684
 30
0.000000
  70
    32
  0
VERTEX
  8
BASE_PLATES
  5
159
 10
66.0000
 20
61.0953
 30
0.000000
  70
    32
  0
VERTEX
  8
BASE_PLATES
  5
15A
 10
66.0000
 20
61.9221
 30
0.000000
  70
    32
  0
VERTEX
  8
BASE_PLATES
  5
15B
 10
66.0000
 20
62.7489
 30
0.000000
  70
    32
  0
VERTEX
  8
BASE_PLATES
  5
15C
 10
66.0000
 20
63.5758
 30
0.000000
  70
    32
  0
VERTEX
  8
BASE_PLATES
  5
15D
 10
66.0000
 20
64.4026
 30
0.000000
  70
    32
  0
VERTEX
  8
BASE_PLATES
  5
15E
 10
66.0000
 20
65.2295
 30
0.000000
  70
    32
  0
VERTEX
  8
BASE_PLATES
  5
15F
 10
66.0000
 20
66.0563
 30
0.000000
  70
    32
  0
VERTEX
  8
BASE_PLATES
  5
160
 10
66.0000
 20
66.8832
 30
0.000000
  70
    32
  0
VERTEX
  8
BASE_PLATES
  5
161
 10
66.0000
 20
67.7100
 30
0.000000
  70
    32
  0
VERTEX
  8
BASE_PLATES
  5
162
 10
66.0000
 20
68.5368
 30
0.000000
  70
    32
  0
VERTEX
  8
BASE_PLATES
  5
163
 10
66.0000
 20
69.3637
 30
0.000000
  70
    32
  0
VERTEX
  8
BASE_PLATES
  5
164
 10
66.0000
 20
70.1905
 30
0.000000
  70
    32
  0
VERTEX
  8
BASE_PLATES
  5
165
 10
66.0000
 20
71.0174
 30
0.000000
  70
    32
  0
VERTEX
  8
BASE_PLATES
  5
166
 10
66.0000
 20
71.8442
 30
0.000000
  70
    32
  0
VERTEX
  8
BASE_PLATES
  5
167
 10
66.0000
 20
72.6711
 30
0.000000
  70
    32
  0
VERTEX
  8
BASE_PLATES
  5
168
 10
66.0000
 20
73.4979
 30
0.000000
  70
    32
  0
VERTEX
  8
BASE_PLATES
  5
169
 10
66.0000
 20
74.3247
 30
0.000000
  70
    32
  0
VERTEX
  8
BASE_PLATES
  5
16A
 10
66.0000
 20
75.1516
 30
0.000000
  70
    32
  0
VERTEX
  8
BASE_PLATES
  5
16B
 10
66.0000
 20
75.9784
 30
0.000000
  70
    32
  0
VERTEX
  8
BASE_PLATES
  5
16C
 10
66.0000
 20
76.8053
 30
0.000000
  70
    32
  0
VERTEX
  8
BASE_PLATES
  5
16D
 10
66.0000
 20
77.6321
 30
0.000000
  70
    32
  0
VERTEX
  8
BASE_PLATES
  5
16E
 10
66.0000
 20
78.4589
 30
0.000000
  70
    32
  0
VERTEX
  8
BASE_PLATES
  5
16F
 10
66.0000
 20
79.2858
 30
0.000000
  70
    32
  0
VERTEX
  8
BASE_PLATES
  5
170
 10
66.0000
 20
80.1126
 30
0.000000
  70
    32
  0
VERTEX
  8
BASE_PLATES
  5
171
 10
66.0000
 20
80.9395
 30
0.000000
  70
    32
  0
VERTEX
  8
BASE_PLATES
  5
172
 10
66.0000
 20
81.7663
 30
0.000000
  70
    32
  0
VERTEX
  8
BASE_PLATES
  5
173
 10
66.0000
 20
82.5932
 30
0.000000
  70
    32
  0
VERTEX
  8
BASE_PLATES
  5
174
 10
66.0000
 20
83.4200
 30
0.000000
  70
    32
  0
VERTEX
  8
BASE_PLATES
  5
175
 10
66.0000
 20
84.2468
 30
0.000000
  70
    32
  0
VERTEX
  8
BASE_PLATES
  5
176
 10
66.0000
 20
85.0737
 30
0.000000
  70
    32
  0
VERTEX
  8
BASE_PLATES
  5
177
 10
66.0000
 20
85.9005
 30
0.000000
  70
    32
  0
VERTEX
  8
BASE_PLATES
  5
178
 10
66.0000
 20
86.7274
 30
0.000000
  70
    32
  0
VERTEX
  8
BASE_PLATES
  5
179
 10
66.0000
 20
87.5542
 30
0.000000
  70
    32
  0
VERTEX
  8
BASE_PLATES
  5
17A
 10
66.0000
 20
88.3811
 30
0.000000
  70
    32
  0
VERTEX
  8
BASE_PLATES
  5
17B
 10
66.0000
 20
89.2079
 30
0.000000
  70
    32
  0
VERTEX
  8
BASE_PLATES
  5
17C
 10
66.0000
 20
90.0347
 30
0.000000
  70
    32
  0
VERTEX
  8
BASE_PLATES
  5
17D
 10
66.0000
 20
90.8616
 30
0.000000
  70
    32
  0
VERTEX
  8
BASE_PLATES
  5
17E
 10
66.0000
 20
91.6884
 30
0.000000
  70
    32
  0
VERTEX
  8
BASE_PLATES
  5
17F
 10
66.0000
 20
92.5153
 30
0.000000
  70
    32
  0
VERTEX
  8
BASE_PLATES
  5
180
 10
66.0000
 20
93.3421
 30
0.000000
  70
    32
  0
VERTEX
  8
BASE_PLATES
  5
181
 10
66.0000
 20
94.1689
 30
0.000000
  70
    32
  0
VERTEX
  8
BASE_PLATES
  5
182
 10
66.0000
 20
94.9958
 30
0.000000
  70
    32
  0
VERTEX
  8
BASE_PLATES
  5
183
 10
66.0000
 20
95.8226
 30
0.000000
  70
    32
  0
VERTEX
  8
BASE_PLATES
  5
184
 10
66.0000
 20
96.6495
 30
0.000000
  70
    32
  0
VERTEX
  8
BASE_PLATES
  5
185
 10
66.0000
 20
97.4763
 30
0.000000
  70
    32
  0
VERTEX
  8
BASE_PLATES
  5
186
 10
66.0000
 20
98.3032
 30
0.000000
  70
    32
  0
VERTEX
  8
BASE_PLATES
  5
187
 10
66.0000
 20
99.1300
 30
0.000000
  70
    32
  0
VERTEX
  8
BASE_PLATES
  5
188
 10
66.0000
 20
99.9568
 30
0.000000
  70
    32
  0
VERTEX
  8
BASE_PLATES
  5
189
 10
66.0000
 20
100.784
 30
0.000000
  70
    32
  0
VERTEX
  8
BASE_PLATES
  5
18A
 10
66.0000
 20
101.611
 30
0.000000
  70
    32
  0
VERTEX
  8
BASE_PLATES
  5
18B
 10
66.0000
 20
102.437
 30
0.000000
  70
    32
  0
VERTEX
  8
BASE_PLATES
  5
18C
 10
66.0000
 20
103.264
 30
0.000000
  70
    32
  0
VERTEX
  8
BASE_PLATES
  5
18D
 10
66.0000
 20
104.091
 30
0.000000
  70
    32
  0
VERTEX
  8
BASE_PLATES
  5
18E
 10
66.0000
 20
104.918
 30
0.000000
  70
    32
  0
VERTEX
  8
BASE_PLATES
  5
18F
 10
66.0000
 20
105.745
 30
0.000000
  70
    32
  0
VERTEX
  8
BASE_PLATES
  5
190
 10
66.0000
 20
106.572
 30
0.000000
  70
    32
  0
VERTEX
  8
BASE_PLATES
  5
191
 10
66.0000
 20
107.398
 30
0.000000
  70
    32
  0
VERTEX
  8
BASE_PLATES
  5
192
 10
66.0000
 20
108.225
 30
0.000000
  70
    32
  0
VERTEX
  8
BASE_PLATES
  5
193
 10
66.0000
 20
109.052
 30
0.000000
  70
    32
  0
VERTEX
  8
BASE_PLATES
  5
194
 10
66.0000
 20
109.879
 30
0.000000
  70
    32
  0
VERTEX
  8
BASE_PLATES
  5
195
 10
66.0000
 20
110.706
 30
0.000000
  70
    32
  0
VERTEX
  8
BASE_PLATES
  5
196
 10
66.0000
 20
111.533
 30
0.000000
  70
    32
  0
VERTEX
  8
BASE_PLATES
  5
197
 10
66.0000
 20
112.359
 30
0.000000
  70
    32
  0
VERTEX
  8
BASE_PLATES
  5
198
 10
66.0000
 20
113.186
 30
0.000000
  70
    32
  0
VERTEX
  8
BASE_PLATES
  5
199
 10
66.0000
 20
114.013
 30
0.000000
  70
    32
  0
VERTEX
  8
BASE_PLATES
  5
19A
 10
66.0000
 20
114.840
 30
0.000000
  70
    32
  0
VERTEX
  8
BASE_PLATES
  5
19B
 10
66.0000
 20
115.667
 30
0.000000
  70
    32
  0
VERTEX
  8
BASE_PLATES
  5
19C
 10
66.0000
 20
116.494
 30
0.000000
  70
    32
  0
VERTEX
  8
BASE_PLATES
  5
19D
 10
66.0000
 20
117.321
 30
0.000000
  70
    32
  0
VERTEX
  8
BASE_PLATES
  5
19E
 10
66.0000
 20
118.147
 30
0.000000
  70
    32
  0
VERTEX
  8
BASE_PLATES
  5
19F
 10
66.0000
 20
118.974
 30
0.000000
  70
    32
  0
VERTEX
  8
BASE_PLATES
  5
1A0
 10
66.0000
 20
119.801
 30
0.000000
  70
    32
  0
VERTEX
  8
BASE_PLATES
  5
1A1
 10
66.0000
 20
120.628
 30
0.000000
  70
    32
  0
VERTEX
  8
BASE_PLATES
  5
1A2
 10
66.0000
 20
121.455
 30
0.000000
  70
    32
  0
VERTEX
  8
BASE_PLATES
  5
1A3
 10
66.0000
 20
122.282
 30
0.000000
  70
    32
  0
VERTEX
  8
BASE_PLATES
  5
1A4
 10
66.0000
 20
123.108
 30
0.000000
  70
    32
  0
VERTEX
  8
BASE_PLATES
  5
1A5
 10
66.0000
 20
123.935
 30
0.000000
  70
    32
  0
VERTEX
  8
BASE_PLATES
  5
1A6
 10
66.0000
 20
124.762
 30
0.000000
  70
    32
  0
VERTEX
  8
BASE_PLATES
  5
1A7
 10
66.0000
 20
125.589
 30
0.000000
  70
    32
  0
VERTEX
  8
BASE_PLATES
  5
1A8
 10
66.0000
 20
126.416
 30
0.000000
  70
    32
  0
VERTEX
  8
BASE_PLATES
  5
1A9
 10
66.0000
 20
127.243
 30
0.000000
  70
    32
  0
VERTEX
  8
BASE_PLATES
  5
1AA
 10
66.0000
 20
128.069
 30
0.000000
  70
    32
  0
VERTEX
  8
BASE_PLATES
  5
1AB
 10
66.0000
 20
128.896
 30
0.000000
  70
    32
  0
VERTEX
  8
BASE_PLATES
  5
1AC
 10
66.0000
 20
129.723
 30
0.000000
  70
    32
  0
VERTEX
  8
BASE_PLATES
  5
1AD
 10
66.0000
 20
130.550
 30
0.000000
  70
    32
  0
SEQEND
  8
BASE_PLATES
  5
1AE
  0
LINE
  5
8C
  8
BASE_PLATES
 10
66.0
 20
130.5500000000000114
 30
0.0
 11
-51.3999999999999915
 21
130.5500000000000114
 31
0.0
  0
POLYLINE
  8
BASE_PLATES
  5
1AF
  66
     1
 10
0.000000
 20
0.000000
 30
0.000000
  70
     8
  0
VERTEX
  8
BASE_PLATES
  5
1B0
 10
-51.4000
 20
130.550
 30
0.000000
  70
    32
  0
VERTEX
  8
BASE_PLATES
  5
1B1
 10
-51.4000
 20
129.723
 30
0.000000
  70
    32
  0
VERTEX
  8
BASE_PLATES
  5
1B2
 10
-51.4000
 20
128.896
 30
0.000000
  70
    32
  0
VERTEX
  8
BASE_PLATES
  5
1B3
 10
-51.4000
 20
128.069
 30
0.000000
  70
    32
  0
VERTEX
  8
BASE_PLATES
  5
1B4
 10
-51.4000
 20
127.243
 30
0.000000
  70
    32
  0
VERTEX
  8
BASE_PLATES
  5
1B5
 10
-51.4000
 20
126.416
 30
0.000000
  70
    32
  0
VERTEX
  8
BASE_PLATES
  5
1B6
 10
-51.4000
 20
125.589
 30
0.000000
  70
    32
  0
VERTEX
  8
BASE_PLATES
  5
1B7
 10
-51.4000
 20
124.762
 30
0.000000
  70
    32
  0
VERTEX
  8
BASE_PLATES
  5
1B8
 10
-51.4000
 20
123.935
 30
0.000000
  70
    32
  0
VERTEX
  8
BASE_PLATES
  5
1B9
 10
-51.4000
 20
123.108
 30
0.000000
  70
    32
  0
VERTEX
  8
BASE_PLATES
  5
1BA
 10
-51.4000
 20
122.282
 30
0.000000
  70
    32
  0
VERTEX
  8
BASE_PLATES
  5
1BB
 10
-51.4000
 20
121.455
 30
0.000000
  70
    32
  0
VERTEX
  8
BASE_PLATES
  5
1BC
 10
-51.4000
 20
120.628
 30
0.000000
  70
    32
  0
VERTEX
  8
BASE_PLATES
  5
1BD
 10
-51.4000
 20
119.801
 30
0.000000
  70
    32
  0
VERTEX
  8
BASE_PLATES
  5
1BE
 10
-51.4000
 20
118.974
 30
0.000000
  70
    32
  0
VERTEX
  8
BASE_PLATES
  5
1BF
 10
-51.4000
 20
118.147
 30
0.000000
  70
    32
  0
VERTEX
  8
BASE_PLATES
  5
1C0
 10
-51.4000
 20
117.321
 30
0.000000
  70
    32
  0
VERTEX
  8
BASE_PLATES
  5
1C1
 10
-51.4000
 20
116.494
 30
0.000000
  70
    32
  0
VERTEX
  8
BASE_PLATES
  5
1C2
 10
-51.4000
 20
115.667
 30
0.000000
  70
    32
  0
VERTEX
  8
BASE_PLATES
  5
1C3
 10
-51.4000
 20
114.840
 30
0.000000
  70
    32
  0
VERTEX
  8
BASE_PLATES
  5
1C4
 10
-51.4000
 20
114.013
 30
0.000000
  70
    32
  0
VERTEX
  8
BASE_PLATES
  5
1C5
 10
-51.4000
 20
113.186
 30
0.000000
  70
    32
  0
VERTEX
  8
BASE_PLATES
  5
1C6
 10
-51.4000
 20
112.359
 30
0.000000
  70
    32
  0
VERTEX
  8
BASE_PLATES
  5
1C7
 10
-51.4000
 20
111.533
 30
0.000000
  70
    32
  0
VERTEX
  8
BASE_PLATES
  5
1C8
 10
-51.4000
 20
110.706
 30
0.000000
  70
    32
  0
VERTEX
  8
BASE_PLATES
  5
1C9
 10
-51.4000
 20
109.879
 30
0.000000
  70
    32
  0
VERTEX
  8
BASE_PLATES
  5
1CA
 10
-51.4000
 20
109.052
 30
0.000000
  70
    32
  0
VERTEX
  8
BASE_PLATES
  5
1CB
 10
-51.4000
 20
108.225
 30
0.000000
  70
    32
  0
VERTEX
  8
BASE_PLATES
  5
1CC
 10
-51.4000
 20
107.398
 30
0.000000
  70
    32
  0
VERTEX
  8
BASE_PLATES
  5
1CD
 10
-51.4000
 20
106.572
 30
0.000000
  70
    32
  0
VERTEX
  8
BASE_PLATES
  5
1CE
 10
-51.4000
 20
105.745
 30
0.000000
  70
    32
  0
VERTEX
  8
BASE_PLATES
  5
1CF
 10
-51.4000
 20
104.918
 30
0.000000
  70
    32
  0
VERTEX
  8
BASE_PLATES
  5
1D0
 10
-51.4000
 20
104.091
 30
0.000000
  70
    32
  0
VERTEX
  8
BASE_PLATES
  5
1D1
 10
-51.4000
 20
103.264
 30
0.000000
  70
    32
  0
VERTEX
  8
BASE_PLATES
  5
1D2
 10
-51.4000
 20
102.437
 30
0.000000
  70
    32
  0
VERTEX
  8
BASE_PLATES
  5
1D3
 10
-51.4000
 20
101.611
 30
0.000000
  70
    32
  0
VERTEX
  8
BASE_PLATES
  5
1D4
 10
-51.4000
 20
100.784
 30
0.000000
  70
    32
  0
VERTEX
  8
BASE_PLATES
  5
1D5
 10
-51.4000
 20
99.9568
 30
0.000000
  70
    32
  0
VERTEX
  8
BASE_PLATES
  5
1D6
 10
-51.4000
 20
99.1300
 30
0.000000
  70
    32
  0
VERTEX
  8
BASE_PLATES
  5
1D7
 10
-51.4000
 20
98.3032
 30
0.000000
  70
    32
  0
VERTEX
  8
BASE_PLATES
  5
1D8
 10
-51.4000
 20
97.4763
 30
0.000000
  70
    32
  0
VERTEX
  8
BASE_PLATES
  5
1D9
 10
-51.4000
 20
96.6495
 30
0.000000
  70
    32
  0
VERTEX
  8
BASE_PLATES
  5
1DA
 10
-51.4000
 20
95.8226
 30
0.000000
  70
    32
  0
VERTEX
  8
BASE_PLATES
  5
1DB
 10
-51.4000
 20
94.9958
 30
0.000000
  70
    32
  0
VERTEX
  8
BASE_PLATES
  5
1DC
 10
-51.4000
 20
94.1689
 30
0.000000
  70
    32
  0
VERTEX
  8
BASE_PLATES
  5
1DD
 10
-51.4000
 20
93.3421
 30
0.000000
  70
    32
  0
VERTEX
  8
BASE_PLATES
  5
1DE
 10
-51.4000
 20
92.5153
 30
0.000000
  70
    32
  0
VERTEX
  8
BASE_PLATES
  5
1DF
 10
-51.4000
 20
91.6884
 30
0.000000
  70
    32
  0
VERTEX
  8
BASE_PLATES
  5
1E0
 10
-51.4000
 20
90.8616
 30
0.000000
  70
    32
  0
VERTEX
  8
BASE_PLATES
  5
1E1
 10
-51.4000
 20
90.0347
 30
0.000000
  70
    32
  0
VERTEX
  8
BASE_PLATES
  5
1E2
 10
-51.4000
 20
89.2079
 30
0.000000
  70
    32
  0
VERTEX
  8
BASE_PLATES
  5
1E3
 10
-51.4000
 20
88.3811
 30
0.000000
  70
    32
  0
VERTEX
  8
BASE_PLATES
  5
1E4
 10
-51.4000
 20
87.5542
 30
0.000000
  70
    32
  0
VERTEX
  8
BASE_PLATES
  5
1E5
 10
-51.4000
 20
86.7274
 30
0.000000
  70
    32
  0
VERTEX
  8
BASE_PLATES
  5
1E6
 10
-51.4000
 20
85.9005
 30
0.000000
  70
    32
  0
VERTEX
  8
BASE_PLATES
  5
1E7
 10
-51.4000
 20
85.0737
 30
0.000000
  70
    32
  0
VERTEX
  8
BASE_PLATES
  5
1E8
 10
-51.4000
 20
84.2468
 30
0.000000
  70
    32
  0
VERTEX
  8
BASE_PLATES
  5
1E9
 10
-51.4000
 20
83.4200
 30
0.000000
  70
    32
  0
VERTEX
  8
BASE_PLATES
  5
1EA
 10
-51.4000
 20
82.5932
 30
0.000000
  70
    32
  0
VERTEX
  8
BASE_PLATES
  5
1EB
 10
-51.4000
 20
81.7663
 30
0.000000
  70
    32
  0
VERTEX
  8
BASE_PLATES
  5
1EC
 10
-51.4000
 20
80.9395
 30
0.000000
  70
    32
  0
VERTEX
  8
BASE_PLATES
  5
1ED
 10
-51.4000
 20
80.1126
 30
0.000000
  70
    32
  0
VERTEX
  8
BASE_PLATES
  5
1EE
 10
-51.4000
 20
79.2858
 30
0.000000
  70
    32
  0
VERTEX
  8
BASE_PLATES
  5
1EF
 10
-51.4000
 20
78.4589
 30
0.000000
  70
    32
  0
VERTEX
  8
BASE_PLATES
  5
1F0
 10
-51.4000
 20
77.6321
 30
0.000000
  70
    32
  0
VERTEX
  8
BASE_PLATES
  5
1F1
 10
-51.4000
 20
76.8053
 30
0.000000
  70
    32
  0
VERTEX
  8
BASE_PLATES
  5
1F2
 10
-51.4000
 20
75.9784
 30
0.000000
  70
    32
  0
VERTEX
  8
BASE_PLATES
  5
1F3
 10
-51.4000
 20
75.1516
 30
0.000000
  70
    32
  0
VERTEX
  8
BASE_PLATES
  5
1F4
 10
-51.4000
 20
74.3247
 30
0.000000
  70
    32
  0
VERTEX
  8
BASE_PLATES
  5
1F5
 10
-51.4000
 20
73.4979
 30
0.000000
  70
    32
  0
VERTEX
  8
BASE_PLATES
  5
1F6
 10
-51.4000
 20
72.6711
 30
0.000000
  70
    32
  0
VERTEX
  8
BASE_PLATES
  5
1F7
 10
-51.4000
 20
71.8442
 30
0.000000
  70
    32
  0
VERTEX
  8
BASE_PLATES
  5
1F8
 10
-51.4000
 20
71.0174
 30
0.000000
  70
    32
  0
VERTEX
  8
BASE_PLATES
  5
1F9
 10
-51.4000
 20
70.1905
 30
0.000000
  70
    32
  0
VERTEX
  8
BASE_PLATES
  5
1FA
 10
-51.4000
 20
69.3637
 30
0.000000
  70
    32
  0
VERTEX
  8
BASE_PLATES
  5
1FB
 10
-51.4000
 20
68.5368
 30
0.000000
  70
    32
  0
VERTEX
  8
BASE_PLATES
  5
1FC
 10
-51.4000
 20
67.7100
 30
0.000000
  70
    32
  0
VERTEX
  8
BASE_PLATES
  5
1FD
 10
-51.4000
 20
66.8832
 30
0.000000
  70
    32
  0
VERTEX
  8
BASE_PLATES
  5
1FE
 10
-51.4000
 20
66.0563
 30
0.000000
  70
    32
  0
VERTEX
  8
BASE_PLATES
  5
1FF
 10
-51.4000
 20
65.2295
 30
0.000000
  70
    32
  0
VERTEX
  8
BASE_PLATES
  5
200
 10
-51.4000
 20
64.4026
 30
0.000000
  70
    32
  0
VERTEX
  8
BASE_PLATES
  5
201
 10
-51.4000
 20
63.5758
 30
0.000000
  70
    32
  0
VERTEX
  8
BASE_PLATES
  5
202
 10
-51.4000
 20
62.7489
 30
0.000000
  70
    32
  0
VERTEX
  8
BASE_PLATES
  5
203
 10
-51.4000
 20
61.9221
 30
0.000000
  70
    32
  0
VERTEX
  8
BASE_PLATES
  5
204
 10
-51.4000
 20
61.0953
 30
0.000000
  70
    32
  0
VERTEX
  8
BASE_PLATES
  5
205
 10
-51.4000
 20
60.2684
 30
0.000000
  70
    32
  0
VERTEX
  8
BASE_PLATES
  5
206
 10
-51.4000
 20
59.4416
 30
0.000000
  70
    32
  0
VERTEX
  8
BASE_PLATES
  5
207
 10
-51.4000
 20
58.6147
 30
0.000000
  70
    32
  0
VERTEX
  8
BASE_PLATES
  5
208
 10
-51.4000
 20
57.7879
 30
0.000000
  70
    32
  0
VERTEX
  8
BASE_PLATES
  5
209
 10
-51.4000
 20
56.9611
 30
0.000000
  70
    32
  0
VERTEX
  8
BASE_PLATES
  5
20A
 10
-51.4000
 20
56.1342
 30
0.000000
  70
    32
  0
VERTEX
  8
BASE_PLATES
  5
20B
 10
-51.4000
 20
55.3074
 30
0.000000
  70
    32
  0
VERTEX
  8
BASE_PLATES
  5
20C
 10
-51.4000
 20
54.4805
 30
0.000000
  70
    32
  0
VERTEX
  8
BASE_PLATES
  5
20D
 10
-51.4000
 20
53.6537
 30
0.000000
  70
    32
  0
VERTEX
  8
BASE_PLATES
  5
20E
 10
-51.4000
 20
52.8268
 30
0.000000
  70
    32
  0
VERTEX
  8
BASE_PLATES
  5
20F
 10
-51.4000
 20
52.0000
 30
0.000000
  70
    32
  0
SEQEND
  8
BASE_PLATES
  5
210
  0
LINE
  5
8E
  8
BASE_PLATES
 10
57.0
 20
60.0
 30
-0.0000000000000022
 11
58.0
 21
60.0
 31
-0.0000000000000022
  0
LINE
  5
8F
  8
BASE_PLATES
 10
58.0
 20
60.0
 30
-0.0000000000000022
 11
58.0
 21
63.0
 31
-0.0000000000000021
  0
LINE
  5
90
  8
BASE_PLATES
 10
58.0
 20
63.0
 30
-0.0000000000000021
 11
49.0
 21
63.0
 31
-0.0000000000000022
  0
LINE
  5
91
  8
BASE_PLATES
 10
49.0
 20
63.0
 30
-0.0000000000000022
 11
49.0
 21
60.0
 31
-0.0000000000000022
  0
LINE
  5
92
  8
BASE_PLATES
 10
49.0
 20
60.0
 30
-0.0000000000000022
 11
57.1000000000000014
 21
60.0
 31
-0.0000000000000022
  0
CIRCLE
  5
93
  8
BASE_PLATES
 10
18.3999999999999986
 20
78.0
 30
0.0
 40
1.3500000000000001
  0
CIRCLE
  5
94
  8
BASE_PLATES
 10
-18.3999999999999986
 20
78.0
 30
0.0
 40
1.3500000000000001
  0
ENDSEC
  0
EOF
