999
dxfrw 0.6.3
  0
SECTION
  2
HEADER
  9
$ACADVER
  1
AC1009
  9
$DWGCODEPAGE
  3
ANSI_1252
  9
$INSBASE
 10
0
 20
0
 30
0
  9
$EXTMIN
 10
-36
 20
-12.50000000000009
 30
0
  9
$EXTMAX
 10
12.50000000000017
 20
473.5000000000002
 30
0
  9
$LIMMIN
 10
0
 20
0
  9
$LIMMAX
 10
12
 20
9
  9
$ORTHOMODE
 70
    0
  9
$REGENMODE
 70
    1
  9
$FILLMODE
 70
    1
  9
$QTEXTMODE
 70
    0
  9
$MIRRTEXT
 70
    1
  9
$DRAGMODE
 70
    2
  9
$LTSCALE
 40
1
  9
$OSMODE
 70
   37
  9
$ATTMODE
 70
    1
  9
$TEXTSIZE
 40
0.2
  9
$TRACEWID
 40
0.05
  9
$TEXTSTYLE
  7
STANDARD
  9
$CLAYER
  8
MOTOR_RAIL
  9
$CELTYPE
  6
BYLAYER
  9
$CECOLOR
 62
  256
  9
$DIMSCALE
 40
1
  9
$DIMASZ
 40
0.18
  9
$DIMEXO
 40
0.0625
  9
$DIMDLI
 40
0.38
  9
$DIMRND
 40
0
  9
$DIMDLE
 40
0
  9
$DIMEXE
 40
0.18
  9
$DIMTP
 40
0
  9
$DIMTM
 40
0
  9
$DIMTXT
 40
0.18
  9
$DIMCEN
 40
0.09
  9
$DIMTSZ
 40
0
  9
$DIMTOL
 70
    0
  9
$DIMLIM
 70
    0
  9
$DIMTIH
 70
    1
  9
$DIMTOH
 70
    1
  9
$DIMSE1
 70
    0
  9
$DIMSE2
 70
    0
  9
$DIMTAD
 70
    0
  9
$DIMZIN
 70
    0
  9
$DIMBLK
  1

  9
$DIMASO
 70
    1
  9
$DIMSHO
 70
    1
  9
$DIMPOST
  1

  9
$DIMAPOST
  1

  9
$DIMALT
 70
    0
  9
$DIMALTD
 70
    2
  9
$DIMALTF
 40
25.4
  9
$DIMLFAC
 40
1
  9
$DIMTOFL
 70
    0
  9
$DIMTVP
 40
0
  9
$DIMTIX
 70
    0
  9
$DIMSOXD
 70
    0
  9
$DIMSAH
 70
    0
  9
$DIMBLK1
  1

  9
$DIMBLK2
  1

  9
$DIMSTYLE
  2
STANDARD
  9
$DIMCLRD
 70
    0
  9
$DIMCLRE
 70
    0
  9
$DIMCLRT
 70
    0
  9
$DIMTFAC
 40
1
  9
$DIMGAP
 40
0.09
  9
$LUNITS
 70
    2
  9
$LUPREC
 70
    3
  9
$SKETCHINC
 40
0.1
  9
$FILLETRAD
 40
0.5
  9
$AUNITS
 70
    0
  9
$AUPREC
 70
    0
  9
$MENU
  1
.
  9
$ELEVATION
 40
0
  9
$PELEVATION
 40
0
  9
$THICKNESS
 40
0
  9
$LIMCHECK
 70
    0
  9
$BLIPMODE
 70
    0
  9
$CHAMFERA
 40
0.5
  9
$CHAMFERB
 40
0.5
  9
$SKPOLY
 70
    0
  9
$USRTIMER
 70
    1
  9
$ANGBASE
 50
0
  9
$ANGDIR
 70
    0
  9
$PDMODE
 70
    0
  9
$PDSIZE
 40
0
  9
$PLINEWID
 40
0
  9
$COORDS
 70
    1
  9
$SPLFRAME
 70
    0
  9
$SPLINETYPE
 70
    6
  9
$SPLINESEGS
 70
    8
  9
$ATTDIA
 70
    1
  9
$ATTREQ
 70
    1
  9
$HANDLING
 70
    1
  9
$HANDSEED
  5
20000
  9
$SURFTAB1
 70
    6
  9
$SURFTAB2
 70
    6
  9
$SURFTYPE
 70
    6
  9
$SURFU
 70
    6
  9
$SURFV
 70
    6
  9
$UCSNAME
  2

  9
$UCSORG
 10
0
 20
0
 30
0
  9
$UCSXDIR
 10
1
 20
0
 30
0
  9
$UCSYDIR
 10
0
 20
1
 30
0
  9
$PUCSNAME
  2

  9
$PUCSORG
 10
0
 20
0
 30
0
  9
$PUCSXDIR
 10
1
 20
0
 30
0
  9
$PUCSYDIR
 10
0
 20
1
 30
0
  9
$USERI1
 70
    0
  9
$USERI2
 70
    0
  9
$USERI3
 70
    0
  9
$USERI4
 70
    0
  9
$USERI5
 70
    0
  9
$USERR1
 40
0
  9
$USERR2
 40
0
  9
$USERR3
 40
0
  9
$USERR4
 40
0
  9
$USERR5
 40
0
  9
$WORLDVIEW
 70
    1
  9
$SHADEDGE
 70
    3
  9
$SHADEDIF
 70
   70
  9
$TILEMODE
 70
    1
  9
$MAXACTVP
 70
   64
  9
$PLIMCHECK
 70
    0
  9
$PEXTMIN
 10
1e+020
 20
1e+020
 30
1e+020
  9
$PEXTMAX
 10
-1e+020
 20
-1e+020
 30
-1e+020
  9
$GRIDMODE
 70
    0
  9
$SNAPSTYLE
 70
    0
  9
$PLIMMIN
 10
0
 20
0
  9
$PLIMMAX
 10
12
 20
9
  9
$UNITMODE
 70
    0
  9
$VISRETAIN
 70
    1
  9
$PLINEGEN
 70
    0
  9
$PSLTSCALE
 70
    1
  0
ENDSEC
  0
SECTION
  2
TABLES
  0
TABLE
  2
VPORT
 70
    1
  0
VPORT
  2
*ACTIVE
 70
    0
 10
0
 20
0
 11
1
 21
1
 12
10.13945553058911
 22
27.17374082197882
 13
0
 23
0
 14
10
 24
10
 15
10
 25
10
 16
0
 26
0
 36
1
 17
0
 27
0
 37
0
 40
62.11140759309443
 41
1.955223880597015
 42
50
 43
0
 44
0
 50
0
 51
0
 71
    0
 72
  100
 73
    1
 74
    3
 75
    0
 76
    0
 77
    0
 78
    0
  0
ENDTAB
  0
TABLE
  2
LTYPE
 70
    4
  0
LTYPE
  2
BYBLOCK
 70
    0
  3

 72
   65
 73
    0
 40
0
  0
LTYPE
  2
BYLAYER
 70
    0
  3

 72
   65
 73
    0
 40
0
  0
LTYPE
  2
CONTINUOUS
 70
    0
  3
Solid line
 72
   65
 73
    0
 40
0
  0
LTYPE
  2
DOT
 70
    0
  3
Dot . . . . . . . . . . . . . . . . . . . . . .
 72
   65
 73
    2
 40
6.35
 49
0
 49
-6.35
  0
LTYPE
  2
DOTTINY
 70
    0
  3
Dot (.15x) .....................................
 72
   65
 73
    2
 40
0.9525
 49
0
 49
-0.9525
  0
LTYPE
  2
DOT2
 70
    0
  3
Dot (.5x) .....................................
 72
   65
 73
    2
 40
3.175
 49
0
 49
-3.175
  0
LTYPE
  2
DOTX2
 70
    0
  3
Dot (2x) .  .  .  .  .  .  .  .  .  .  .  .  .
 72
   65
 73
    2
 40
12.7
 49
0
 49
-12.7
  0
LTYPE
  2
DASHED
 70
    0
  3
Dashed _ _ _ _ _ _ _ _ _ _ _ _ _ _ _ _ _
 72
   65
 73
    2
 40
19.05
 49
12.7
 49
-6.35
  0
LTYPE
  2
DASHEDTINY
 70
    0
  3
Dashed (.15x) _ _ _ _ _ _ _ _ _ _ _ _ _ _ _ _ _
 72
   65
 73
    2
 40
2.8575
 49
1.905
 49
-0.9525
  0
LTYPE
  2
DASHED2
 70
    0
  3
Dashed (.5x) _ _ _ _ _ _ _ _ _ _ _ _ _ _ _ _ _
 72
   65
 73
    2
 40
9.524999999999999
 49
6.35
 49
-3.175
  0
LTYPE
  2
DASHEDX2
 70
    0
  3
Dashed (2x) ____  ____  ____  ____  ____  ___
 72
   65
 73
    2
 40
38.09999999999999
 49
25.4
 49
-12.7
  0
LTYPE
  2
DASHDOT
 70
    0
  3
Dash dot __ . __ . __ . __ . __ . __ . __ . __
 72
   65
 73
    4
 40
25.4
 49
12.7
 49
-6.35
 49
0
 49
-6.35
  0
LTYPE
  2
DASHDOTTINY
 70
    0
  3
Dash dot (.15x) _._._._._._._._._._._._._._._.
 72
   65
 73
    4
 40
3.81
 49
1.905
 49
-0.9525
 49
0
 49
-0.9525
  0
LTYPE
  2
DASHDOT2
 70
    0
  3
Dash dot (.5x) _._._._._._._._._._._._._._._.
 72
   65
 73
    4
 40
12.7
 49
6.35
 49
-3.175
 49
0
 49
-3.175
  0
LTYPE
  2
DASHDOTX2
 70
    0
  3
Dash dot (2x) ____  .  ____  .  ____  .  ___
 72
   65
 73
    4
 40
50.8
 49
25.4
 49
-12.7
 49
0
 49
-12.7
  0
LTYPE
  2
DIVIDE
 70
    0
  3
Divide ____ . . ____ . . ____ . . ____ . . ____
 72
   65
 73
    6
 40
31.75
 49
12.7
 49
-6.35
 49
0
 49
-6.35
 49
0
 49
-6.35
  0
LTYPE
  2
DIVIDETINY
 70
    0
  3
Divide (.15x) __..__..__..__..__..__..__..__.._
 72
   65
 73
    6
 40
4.7625
 49
1.905
 49
-0.9525
 49
0
 49
-0.9525
 49
0
 49
-0.9525
  0
LTYPE
  2
DIVIDE2
 70
    0
  3
Divide (.5x) __..__..__..__..__..__..__..__.._
 72
   65
 73
    6
 40
15.875
 49
6.35
 49
-3.175
 49
0
 49
-3.175
 49
0
 49
-3.175
  0
LTYPE
  2
DIVIDEX2
 70
    0
  3
Divide (2x) ________  .  .  ________  .  .  _
 72
   65
 73
    6
 40
63.5
 49
25.4
 49
-12.7
 49
0
 49
-12.7
 49
0
 49
-12.7
  0
LTYPE
  2
BORDER
 70
    0
  3
Border __ __ . __ __ . __ __ . __ __ . __ __ .
 72
   65
 73
    6
 40
44.45
 49
12.7
 49
-6.35
 49
12.7
 49
-6.35
 49
0
 49
-6.35
  0
LTYPE
  2
BORDERTINY
 70
    0
  3
Border (.15x) __.__.__.__.__.__.__.__.__.__.__.
 72
   65
 73
    6
 40
6.6675
 49
1.905
 49
-0.9525
 49
1.905
 49
-0.9525
 49
0
 49
-0.9525
  0
LTYPE
  2
BORDER2
 70
    0
  3
Border (.5x) __.__.__.__.__.__.__.__.__.__.__.
 72
   65
 73
    6
 40
22.225
 49
6.35
 49
-3.175
 49
6.35
 49
-3.175
 49
0
 49
-3.175
  0
LTYPE
  2
BORDERX2
 70
    0
  3
Border (2x) ____  ____  .  ____  ____  .  ___
 72
   65
 73
    6
 40
88.89999999999999
 49
25.4
 49
-12.7
 49
25.4
 49
-12.7
 49
0
 49
-12.7
  0
LTYPE
  2
CENTER
 70
    0
  3
Center ____ _ ____ _ ____ _ ____ _ ____ _ ____
 72
   65
 73
    4
 40
50.8
 49
31.75
 49
-6.35
 49
6.35
 49
-6.35
  0
LTYPE
  2
CENTERTINY
 70
    0
  3
Center (.15x) ___ _ ___ _ ___ _ ___ _ ___ _ ___
 72
   65
 73
    4
 40
7.62
 49
4.7625
 49
-0.9525
 49
0.9525
 49
-0.9525
  0
LTYPE
  2
CENTER2
 70
    0
  3
Center (.5x) ___ _ ___ _ ___ _ ___ _ ___ _ ___
 72
   65
 73
    4
 40
28.575
 49
19.05
 49
-3.175
 49
3.175
 49
-3.175
  0
LTYPE
  2
CENTERX2
 70
    0
  3
Center (2x) ________  __  ________  __  _____
 72
   65
 73
    4
 40
101.6
 49
63.5
 49
-12.7
 49
12.7
 49
-12.7
  0
ENDTAB
  0
TABLE
  2
LAYER
 70
    1
  0
LAYER
  2
0
 70
    0
 62
    7
  6
CONTINUOUS
  0
LAYER
  2
DEFPOINTS
 70
    0
 62
    7
  6
CONTINUOUS
  0
LAYER
  2
MOTOR_RAIL
 70
    0
 62
    1
  6
CONTINUOUS
  0
LAYER
  2
MOTOR_RAIL_380
 70
    0
 62
    1
  6
CONTINUOUS
  0
ENDTAB
  0
TABLE
  2
STYLE
 70
    3
  0
STYLE
  2
STANDARD
 70
    0
 40
0
 41
1
 50
0
 71
    0
 42
1
  3
STANDARD
  4

  0
ENDTAB
  0
TABLE
  2
VIEW
 70
    0
  0
ENDTAB
  0
TABLE
  2
UCS
 70
    0
  0
ENDTAB
  0
TABLE
  2
APPID
 70
    1
  0
APPID
  2
ACAD
 70
    0
  0
APPID
  2
LIBRECAD
 70
    0
  0
ENDTAB
  0
TABLE
  2
DIMSTYLE
 70
    1
  0
DIMSTYLE
  2
STANDARD
 70
    0
  3

  4

  5

  6

  7

 40
1
 41
0.18
 42
0.0625
 43
0.38
 44
0.18
 45
0
 46
0
 47
0
 48
0
 49
1
140
0.18
141
0.09
142
0
143
25.4
144
1
145
0
146
1
147
0.09
 71
    0
 72
    0
 73
    1
 74
    1
 75
    0
 76
    0
 77
    0
 78
    0
170
    0
171
    2
172
    0
173
    0
174
    0
175
    0
176
    0
177
    0
178
    0
  0
ENDTAB
  0
ENDSEC
  0
SECTION
  2
BLOCKS
  0
BLOCK
  8
0
  2
$MODEL_SPACE
 70
    0
 10
0
 20
0
 30
0
  3
$MODEL_SPACE
  1

  0
ENDBLK
  8
0
  0
BLOCK
  8
0
  2
$PAPER_SPACE
 70
    0
 10
0
 20
0
 30
0
  3
$PAPER_SPACE
  1

  0
ENDBLK
  8
0
  0
BLOCK
  8
0
  2
*D2
 70
    0
 10
0
 20
0
  3
*D2
  1

  0
LINE
  5
31
  8
MOTOR_RAIL
  6
BYLAYER
 62
    0
 10
-5.600000000000001
 20
16.8125
 11
-5.600000000000001
 21
18.05662646186074
  0
LINE
  5
32
  8
MOTOR_RAIL
  6
BYLAYER
 62
    0
 10
-2.000000000002643
 20
16.8125
 11
-2.000000000002643
 21
18.05662646186074
  0
LINE
  5
33
  8
MOTOR_RAIL
  6
BYLAYER
 62
    0
 10
-5.420000000000001
 20
17.87662646186074
 11
-4.295000000001322
 21
17.87662646186074
  0
LINE
  5
34
  8
MOTOR_RAIL
  6
BYLAYER
 62
    0
 10
-2.180000000002643
 20
17.87662646186074
 11
-3.305000000001322
 21
17.87662646186074
  0
SOLID
  5
35
  8
MOTOR_RAIL
  6
BYLAYER
 62
    0
 10
-5.420000000000001
 20
17.90662646186074
 30
0
 11
-5.420000000000001
 21
17.84662646186073
 31
0
 12
-5.600000000000001
 22
17.87662646186074
 32
0
 13
-5.600000000000001
 23
17.87662646186074
 33
0
  0
SOLID
  5
36
  8
MOTOR_RAIL
  6
BYLAYER
 62
    0
 10
-2.180000000002643
 20
17.90662646186074
 30
0
 11
-2.180000000002643
 21
17.84662646186073
 31
0
 12
-2.000000000002643
 22
17.87662646186074
 32
0
 13
-2.000000000002643
 23
17.87662646186074
 33
0
  0
INSERT
  5
37
  8
MOTOR_RAIL
  6
BYLAYER
 62
  256
  2
*U7
 10
0
 20
0
 30
0
 41
1
 42
1
 43
0
 50
0
 70
    1
 71
    1
 44
0
 45
0
  0
POINT
  5
38
  8
DEFPOINTS
  6
BYLAYER
 62
    0
 10
-5.600000000000001
 20
16.75
  0
POINT
  5
39
  8
DEFPOINTS
  6
BYLAYER
 62
    0
 10
-2.000000000002643
 20
16.75
  0
POINT
  5
3A
  8
DEFPOINTS
  6
BYLAYER
 62
    0
 10
-2.000000000002643
 20
17.87662646186074
  0
ENDBLK
  8
0
  0
BLOCK
  8
0
  2
*D3
 70
    0
 10
0
 20
0
  3
*D3
  1

  0
LINE
  5
3B
  8
MOTOR_RAIL
  6
BYLAYER
 62
    0
 10
-1.937500000002644
 20
16.75
 11
-0.2633956078319151
 21
16.75
  0
LINE
  5
3C
  8
MOTOR_RAIL
  6
BYLAYER
 62
    0
 10
-1.9375
 20
19.25
 11
-0.2633956078319159
 21
19.25
  0
LINE
  5
3D
  8
MOTOR_RAIL
  6
BYLAYER
 62
    0
 10
-0.4433956078319153
 20
16.93
 11
-0.4433956078319154
 21
17.82000000000001
  0
LINE
  5
3E
  8
MOTOR_RAIL
  6
BYLAYER
 62
    0
 10
-0.4433956078319157
 20
19.07000000000001
 11
-0.4433956078319155
 21
18.18000000000001
  0
SOLID
  5
3F
  8
MOTOR_RAIL
  6
BYLAYER
 62
    0
 10
-0.4733956078319153
 20
16.93
 30
0
 11
-0.4133956078319152
 21
16.93
 31
0
 12
-0.4433956078319152
 22
16.75
 32
0
 13
-0.4433956078319152
 23
16.75
 33
0
  0
SOLID
  5
40
  8
MOTOR_RAIL
  6
BYLAYER
 62
    0
 10
-0.4733956078319157
 20
19.07000000000001
 30
0
 11
-0.4133956078319157
 21
19.07000000000001
 31
0
 12
-0.4433956078319158
 22
19.25
 32
0
 13
-0.4433956078319158
 23
19.25
 33
0
  0
INSERT
  5
41
  8
MOTOR_RAIL
  6
BYLAYER
 62
  256
  2
*U8
 10
0
 20
0
 30
0
 41
1
 42
1
 43
0
 50
0
 70
    1
 71
    1
 44
0
 45
0
  0
POINT
  5
42
  8
DEFPOINTS
  6
BYLAYER
 62
    0
 10
-2.000000000002644
 20
16.75
  0
POINT
  5
43
  8
DEFPOINTS
  6
BYLAYER
 62
    0
 10
-2
 20
19.25
  0
POINT
  5
44
  8
DEFPOINTS
  6
BYLAYER
 62
    0
 10
-0.4433956078319158
 20
19.25
  0
ENDBLK
  8
0
  0
BLOCK
  8
0
  2
*D4
 70
    0
 10
0
 20
0
  3
*D4
  1

  0
LINE
  5
45
  8
MOTOR_RAIL
  6
BYLAYER
 62
    0
 10
-5.537500000000004
 20
19.25
 11
-2.493362022252149
 21
19.25
  0
LINE
  5
46
  8
MOTOR_RAIL
  6
BYLAYER
 62
    0
 10
-5.537500000000004
 20
21.30000000000002
 11
-2.49336202225215
 21
21.30000000000002
  0
LINE
  5
47
  8
MOTOR_RAIL
  6
BYLAYER
 62
    0
 10
-2.673362022252149
 20
19.43000000000001
 11
-2.673362022252149
 21
20.09500000000001
  0
LINE
  5
48
  8
MOTOR_RAIL
  6
BYLAYER
 62
    0
 10
-2.67336202225215
 20
21.12000000000002
 11
-2.673362022252149
 21
20.45500000000001
  0
SOLID
  5
49
  8
MOTOR_RAIL
  6
BYLAYER
 62
    0
 10
-2.703362022252149
 20
19.43000000000001
 30
0
 11
-2.64336202225215
 21
19.43000000000001
 31
0
 12
-2.673362022252149
 22
19.25
 32
0
 13
-2.673362022252149
 23
19.25
 33
0
  0
SOLID
  5
4A
  8
MOTOR_RAIL
  6
BYLAYER
 62
    0
 10
-2.70336202225215
 20
21.12000000000002
 30
0
 11
-2.64336202225215
 21
21.12000000000002
 31
0
 12
-2.67336202225215
 22
21.30000000000002
 32
0
 13
-2.67336202225215
 23
21.30000000000002
 33
0
  0
INSERT
  5
4B
  8
MOTOR_RAIL
  6
BYLAYER
 62
  256
  2
*U9
 10
0
 20
0
 30
0
 41
1
 42
1
 43
0
 50
0
 70
    1
 71
    1
 44
0
 45
0
  0
POINT
  5
4C
  8
DEFPOINTS
  6
BYLAYER
 62
    0
 10
-5.600000000000004
 20
19.25
  0
POINT
  5
4D
  8
DEFPOINTS
  6
BYLAYER
 62
    0
 10
-5.600000000000004
 20
21.30000000000002
  0
POINT
  5
4E
  8
DEFPOINTS
  6
BYLAYER
 62
    0
 10
-2.67336202225215
 20
21.30000000000002
  0
ENDBLK
  8
0
  0
BLOCK
  8
0
  2
*D5
 70
    0
 10
0
 20
0
  3
*D5
  1

  0
LINE
  5
4F
  8
MOTOR_RAIL
  6
BYLAYER
 62
    0
 10
-5.6
 20
21.36250000000001
 11
-5.6
 21
22.99263963773062
  0
LINE
  5
50
  8
MOTOR_RAIL
  6
BYLAYER
 62
    0
 10
-7.800000000000001
 20
21.36250000000001
 11
-7.800000000000001
 21
22.99263963773062
  0
LINE
  5
51
  8
MOTOR_RAIL
  6
BYLAYER
 62
    0
 10
-5.78
 20
22.81263963773063
 11
-6.205
 21
22.81263963773063
  0
LINE
  5
52
  8
MOTOR_RAIL
  6
BYLAYER
 62
    0
 10
-7.620000000000001
 20
22.81263963773063
 11
-7.195000000000001
 21
22.81263963773063
  0
SOLID
  5
53
  8
MOTOR_RAIL
  6
BYLAYER
 62
    0
 10
-5.78
 20
22.84263963773063
 30
0
 11
-5.78
 21
22.78263963773063
 31
0
 12
-5.6
 22
22.81263963773063
 32
0
 13
-5.6
 23
22.81263963773063
 33
0
  0
SOLID
  5
54
  8
MOTOR_RAIL
  6
BYLAYER
 62
    0
 10
-7.620000000000001
 20
22.84263963773063
 30
0
 11
-7.620000000000001
 21
22.78263963773063
 31
0
 12
-7.800000000000001
 22
22.81263963773063
 32
0
 13
-7.800000000000001
 23
22.81263963773063
 33
0
  0
INSERT
  5
55
  8
MOTOR_RAIL
  6
BYLAYER
 62
  256
  2
*U10
 10
0
 20
0
 30
0
 41
1
 42
1
 43
0
 50
0
 70
    1
 71
    1
 44
0
 45
0
  0
POINT
  5
56
  8
DEFPOINTS
  6
BYLAYER
 62
    0
 10
-5.6
 20
21.30000000000001
  0
POINT
  5
57
  8
DEFPOINTS
  6
BYLAYER
 62
    0
 10
-7.800000000000001
 20
21.30000000000001
  0
POINT
  5
58
  8
DEFPOINTS
  6
BYLAYER
 62
    0
 10
-7.800000000000001
 20
22.81263963773063
  0
ENDBLK
  8
0
  0
BLOCK
  8
0
  2
*D6
 70
    0
 10
0
 20
0
  3
*D6
  1

  0
LINE
  5
59
  8
MOTOR_RAIL
  6
BYLAYER
 62
    0
 10
-7.8
 20
19.3125
 11
-7.8
 21
20.14599324614726
  0
LINE
  5
5A
  8
MOTOR_RAIL
  6
BYLAYER
 62
    0
 10
-9.600000000000003
 20
19.3125
 11
-9.600000000000003
 21
20.14599324614726
  0
LINE
  5
5B
  8
MOTOR_RAIL
  6
BYLAYER
 62
    0
 10
-7.98
 20
19.96599324614726
 11
-8.235000000000001
 21
19.96599324614726
  0
LINE
  5
5C
  8
MOTOR_RAIL
  6
BYLAYER
 62
    0
 10
-9.420000000000003
 20
19.96599324614726
 11
-9.165000000000003
 21
19.96599324614726
  0
SOLID
  5
5D
  8
MOTOR_RAIL
  6
BYLAYER
 62
    0
 10
-7.98
 20
19.99599324614726
 30
0
 11
-7.98
 21
19.93599324614726
 31
0
 12
-7.8
 22
19.96599324614726
 32
0
 13
-7.8
 23
19.96599324614726
 33
0
  0
SOLID
  5
5E
  8
MOTOR_RAIL
  6
BYLAYER
 62
    0
 10
-9.420000000000003
 20
19.99599324614726
 30
0
 11
-9.420000000000003
 21
19.93599324614726
 31
0
 12
-9.600000000000003
 22
19.96599324614726
 32
0
 13
-9.600000000000003
 23
19.96599324614726
 33
0
  0
INSERT
  5
5F
  8
MOTOR_RAIL
  6
BYLAYER
 62
  256
  2
*U11
 10
0
 20
0
 30
0
 41
1
 42
1
 43
0
 50
0
 70
    1
 71
    1
 44
0
 45
0
  0
POINT
  5
60
  8
DEFPOINTS
  6
BYLAYER
 62
    0
 10
-7.8
 20
19.25
  0
POINT
  5
61
  8
DEFPOINTS
  6
BYLAYER
 62
    0
 10
-9.600000000000003
 20
19.25
  0
POINT
  5
62
  8
DEFPOINTS
  6
BYLAYER
 62
    0
 10
-9.600000000000003
 20
19.96599324614726
  0
ENDBLK
  8
0
  0
BLOCK
  8
0
  2
*U7
 70
    0
 10
0
 20
0
  3
*U7
  1

  0
TEXT
  5
63
  8
MOTOR_RAIL
  6
BYLAYER
 62
    0
 10
-4.205000000001322
 20
17.78662646186074
 30
0
 40
0.18
  1
3.6000
 50
0
 41
1
 51
0
  7
STANDARD
 71
    0
210
0
220
0
230
1
  0
ENDBLK
  8
0
  0
BLOCK
  8
0
  2
*U8
 70
    0
 10
0
 20
0
  3
*U8
  1

  0
TEXT
  5
64
  8
MOTOR_RAIL
  6
BYLAYER
 62
    0
 10
-0.8483956078319103
 20
17.91
 30
0
 40
0.18
  1
2.5000
 50
0
 41
1
 51
0
  7
STANDARD
 71
    0
210
0
220
0
230
1
  0
ENDBLK
  8
0
  0
BLOCK
  8
0
  2
*U9
 70
    0
 10
0
 20
0
  3
*U9
  1

  0
TEXT
  5
65
  8
MOTOR_RAIL
  6
BYLAYER
 62
    0
 10
-3.078362022252143
 20
20.18500000000001
 30
0
 40
0.18
  1
2.0500
 50
0
 41
1
 51
0
  7
STANDARD
 71
    0
210
0
220
0
230
1
  0
ENDBLK
  8
0
  0
BLOCK
  8
0
  2
*U10
 70
    0
 10
0
 20
0
  3
*U10
  1

  0
TEXT
  5
66
  8
MOTOR_RAIL
  6
BYLAYER
 62
    0
 10
-7.105000000000001
 20
22.72263963773063
 30
0
 40
0.18
  1
2.2000
 50
0
 41
1
 51
0
  7
STANDARD
 71
    0
210
0
220
0
230
1
  0
ENDBLK
  8
0
  0
BLOCK
  8
0
  2
*U11
 70
    0
 10
0
 20
0
  3
*U11
  1

  0
TEXT
  5
67
  8
MOTOR_RAIL
  6
BYLAYER
 62
    0
 10
-9.075000000000003
 20
19.87599324614726
 30
0
 40
0.18
  1
1.8000
 50
0
 41
1
 51
0
  7
STANDARD
 71
    0
210
0
220
0
230
1
  0
ENDBLK
  8
0
  0
ENDSEC
  0
SECTION
  2
ENTITIES
  0
CIRCLE
  5
68
  8
MOTOR_RAIL
  6
BYLAYER
 62
  256
 10
-1
 20
8.5
 40
1.5
  0
CIRCLE
  5
69
  8
MOTOR_RAIL
  6
BYLAYER
 62
  256
 10
-1
 20
-8.5
 40
1.5
  0
CIRCLE
  5
6A
  8
MOTOR_RAIL
  6
BYLAYER
 62
  256
 10
-1
 20
0
 40
3.2
  0
CIRCLE
  5
6B
  8
MOTOR_RAIL
  6
BYLAYER
 62
  256
 10
-10
 20
43
 40
1.35
  0
CIRCLE
  5
6C
  8
MOTOR_RAIL_380
  6
BYLAYER
 62
  256
 10
-1
 20
0
 40
5
  0
CIRCLE
  5
6D
  8
MOTOR_RAIL_380
  6
BYLAYER
 62
  256
 10
-1
 20
8
 40
1.3
  0
CIRCLE
  5
6E
  8
MOTOR_RAIL_380
  6
BYLAYER
 62
  256
 10
-1
 20
-8
 40
1.3
  0
LINE
  5
6F
  8
MOTOR_RAIL
  6
BYLAYER
 62
  256
 10
-2.43713e-011
 20
50.49999999997095
 11
-8.34078e-011
 21
44.49999999997539
  0
LINE
  5
70
  8
MOTOR_RAIL
  6
BYLAYER
 62
  256
 10
-8.34078e-011
 20
44.49999999997539
 11
-2.000000000083407
 21
44.5
  0
LINE
  5
71
  8
MOTOR_RAIL
  6
BYLAYER
 62
  256
 10
-2.000000000083407
 20
44.5
 11
-2.000000000016112
 21
38.25
  0
LINE
  5
72
  8
MOTOR_RAIL
  6
BYLAYER
 62
  256
 10
-2.000000000016112
 20
38.25
 11
-5.600000000000002
 21
38.25
  0
LINE
  5
73
  8
MOTOR_RAIL
  6
BYLAYER
 62
  256
 10
-5.600000000000002
 20
38.25
 11
-5.599999999999999
 21
40.30000000000001
  0
LINE
  5
74
  8
MOTOR_RAIL
  6
BYLAYER
 62
  256
 10
-5.599999999999999
 20
40.30000000000001
 11
-7.799999999999998
 21
40.30000000000001
  0
LINE
  5
75
  8
MOTOR_RAIL
  6
BYLAYER
 62
  256
 10
-7.799999999999998
 20
40.30000000000001
 11
-7.800000000000001
 21
38.25
  0
LINE
  5
76
  8
MOTOR_RAIL
  6
BYLAYER
 62
  256
 10
-7.800000000000001
 20
38.25
 11
-9.600000000000003
 21
38.25
  0
LINE
  5
77
  8
MOTOR_RAIL
  6
BYLAYER
 62
  256
 10
-9.600000000000003
 20
38.25
 11
-9.600000000000003
 21
35.75
  0
LINE
  5
78
  8
MOTOR_RAIL
  6
BYLAYER
 62
  256
 10
-9.600000000000003
 20
35.75
 11
-7.800000000000001
 21
35.75
  0
LINE
  5
79
  8
MOTOR_RAIL
  6
BYLAYER
 62
  256
 10
-7.800000000000001
 20
35.75
 11
-7.800000000000001
 21
33.69999999999999
  0
LINE
  5
7A
  8
MOTOR_RAIL
  6
BYLAYER
 62
  256
 10
-7.800000000000001
 20
33.69999999999999
 11
-5.600000000000001
 21
33.69999999999999
  0
LINE
  5
7B
  8
MOTOR_RAIL
  6
BYLAYER
 62
  256
 10
-5.600000000000001
 20
33.69999999999999
 11
-5.600000000000002
 21
35.75
  0
LINE
  5
7C
  8
MOTOR_RAIL
  6
BYLAYER
 62
  256
 10
-5.600000000000002
 20
35.75
 11
-2.000000000016245
 21
35.75
  0
LINE
  5
7D
  8
MOTOR_RAIL
  6
BYLAYER
 62
  256
 10
-2.000000000016245
 20
35.75
 11
-2
 21
19.25
  0
LINE
  5
7E
  8
MOTOR_RAIL
  6
BYLAYER
 62
  256
 10
-2
 20
19.25
 11
-5.600000000000002
 21
19.25
  0
LINE
  5
7F
  8
MOTOR_RAIL
  6
BYLAYER
 62
  256
 10
-5.600000000000002
 20
19.25
 11
-5.600000000000001
 21
21.30000000000001
  0
LINE
  5
80
  8
MOTOR_RAIL
  6
BYLAYER
 62
  256
 10
-5.600000000000001
 20
21.30000000000001
 11
-7.800000000000001
 21
21.30000000000001
  0
LINE
  5
81
  8
MOTOR_RAIL
  6
BYLAYER
 62
  256
 10
-7.800000000000001
 20
21.30000000000001
 11
-7.800000000000001
 21
19.25
  0
LINE
  5
82
  8
MOTOR_RAIL
  6
BYLAYER
 62
  256
 10
-7.800000000000001
 20
19.25
 11
-9.600000000000003
 21
19.25
  0
LINE
  5
83
  8
MOTOR_RAIL
  6
BYLAYER
 62
  256
 10
-9.600000000000003
 20
19.25
 11
-9.600000000000003
 21
16.75
  0
LINE
  5
84
  8
MOTOR_RAIL
  6
BYLAYER
 62
  256
 10
-9.600000000000003
 20
16.75
 11
-7.800000000000001
 21
16.75
  0
LINE
  5
85
  8
MOTOR_RAIL
  6
BYLAYER
 62
  256
 10
-7.800000000000001
 20
16.75
 11
-7.799999999999998
 21
14.69999999999999
  0
LINE
  5
86
  8
MOTOR_RAIL
  6
BYLAYER
 62
  256
 10
-7.799999999999998
 20
14.69999999999999
 11
-5.599999999999999
 21
14.69999999999999
  0
LINE
  5
87
  8
MOTOR_RAIL
  6
BYLAYER
 62
  256
 10
-5.599999999999999
 20
14.69999999999999
 11
-5.600000000000002
 21
16.75
  0
LINE
  5
88
  8
MOTOR_RAIL
  6
BYLAYER
 62
  256
 10
-5.600000000000002
 20
16.75
 11
-2.000000000002643
 21
16.75
  0
LINE
  5
89
  8
MOTOR_RAIL
  6
BYLAYER
 62
  256
 10
-2.000000000002643
 20
16.75
 11
-2.000000000000003
 21
12.5
  0
LINE
  5
8A
  8
MOTOR_RAIL
  6
BYLAYER
 62
  256
 10
-2.000000000000003
 20
12.5
 11
-0.9999999999999888
 21
12.50000000000001
  0
ARC
  5
8B
  8
MOTOR_RAIL
  6
BYLAYER
 62
  256
 10
-0.9999999999999811
 20
-4.17e-014
 40
12.50000000000005
 50
208.8657274150072
 51
90.00000000000001
  0
ARC
  5
8C
  8
MOTOR_RAIL
  6
BYLAYER
 62
  256
 10
-13.69842509920042
 20
-7.000000000000103
 40
2.000000000000104
 50
28.86572741500639
 51
90
  0
LINE
  5
8D
  8
MOTOR_RAIL
  6
BYLAYER
 62
  256
 10
-13.69842509920042
 20
-5
 11
-15
 21
-5
  0
ARC
  5
8E
  8
MOTOR_RAIL
  6
BYLAYER
 62
  256
 10
-15
 20
-3.000000000000003
 40
1.999999999999998
 50
179.9999999999999
 51
269.9999999999999
  0
LINE
  5
8F
  8
MOTOR_RAIL
  6
BYLAYER
 62
  256
 10
-17
 20
-2.999999999999998
 11
-17
 21
1
  0
LINE
  5
90
  8
MOTOR_RAIL
  6
BYLAYER
 62
  256
 10
-17
 20
1
 11
-19.75
 21
0.9999999999983232
  0
LINE
  5
91
  8
MOTOR_RAIL
  6
BYLAYER
 62
  256
 10
-19.75
 20
0.9999999999983232
 11
-19.75
 21
4.599999999996668
  0
LINE
  5
92
  8
MOTOR_RAIL
  6
BYLAYER
 62
  256
 10
-19.75
 20
4.599999999996668
 11
-17.69999999999999
 21
4.599999999996668
  0
LINE
  5
93
  8
MOTOR_RAIL
  6
BYLAYER
 62
  256
 10
-17.69999999999999
 20
4.599999999996668
 11
-17.69999999999999
 21
6.799999999996657
  0
LINE
  5
94
  8
MOTOR_RAIL
  6
BYLAYER
 62
  256
 10
-17.69999999999999
 20
6.799999999996657
 11
-19.75
 21
6.799999999996657
  0
LINE
  5
95
  8
MOTOR_RAIL
  6
BYLAYER
 62
  256
 10
-19.75
 20
6.799999999996657
 11
-19.75
 21
8.599999999996667
  0
LINE
  5
96
  8
MOTOR_RAIL
  6
BYLAYER
 62
  256
 10
-19.75
 20
8.599999999996667
 11
-22.25
 21
8.599999999996667
  0
LINE
  5
97
  8
MOTOR_RAIL
  6
BYLAYER
 62
  256
 10
-22.25
 20
8.599999999996667
 11
-22.25
 21
6.799999999996657
  0
LINE
  5
98
  8
MOTOR_RAIL
  6
BYLAYER
 62
  256
 10
-22.25
 20
6.799999999996657
 11
-24.30000000000001
 21
6.799999999996657
  0
LINE
  5
99
  8
MOTOR_RAIL
  6
BYLAYER
 62
  256
 10
-24.30000000000001
 20
6.799999999996657
 11
-24.30000000000001
 21
4.599999999996668
  0
LINE
  5
9A
  8
MOTOR_RAIL
  6
BYLAYER
 62
  256
 10
-24.30000000000001
 20
4.599999999996668
 11
-22.25
 21
4.599999999996668
  0
LINE
  5
9B
  8
MOTOR_RAIL
  6
BYLAYER
 62
  256
 10
-22.25
 20
4.599999999996668
 11
-22.25
 21
0.9999999999983232
  0
LINE
  5
9C
  8
MOTOR_RAIL
  6
BYLAYER
 62
  256
 10
-22.25
 20
0.9999999999983232
 11
-25
 21
1
  0
LINE
  5
9D
  8
MOTOR_RAIL
  6
BYLAYER
 62
  256
 10
-25
 20
1
 11
-25.00000000000293
 21
-2.000000000000909
  0
LINE
  5
9E
  8
MOTOR_RAIL
  6
BYLAYER
 62
  256
 10
-25.00000000000293
 20
-2.000000000000909
 11
-28.00000000000293
 21
-2
  0
LINE
  5
9F
  8
MOTOR_RAIL
  6
BYLAYER
 62
  256
 10
-28.00000000000017
 20
44.5
 11
-36
 21
44.50000000000486
  0
LINE
  5
A0
  8
MOTOR_RAIL
  6
BYLAYER
 62
  256
 10
-36
 20
44.50000000000486
 11
-36
 21
50.5
  0
LINE
  5
A1
  8
MOTOR_RAIL
  6
BYLAYER
 62
  256
 10
-36
 20
50.5
 11
-2.43716e-011
 21
50.49999999964578
  0
CIRCLE
  5
A2
  8
MOTOR_RAIL
  6
BYLAYER
 62
  256
 10
0
 20
452.4999999999998
 40
1.5
  0
CIRCLE
  5
A3
  8
MOTOR_RAIL
  6
BYLAYER
 62
  256
 10
0
 20
469.4999999999998
 40
1.5
  0
CIRCLE
  5
A4
  8
MOTOR_RAIL
  6
BYLAYER
 62
  256
 10
0
 20
460.9999999999998
 40
3.5
  0
LINE
  5
A5
  8
MOTOR_RAIL
  6
BYLAYER
 62
  256
 10
0
 20
423.5000000000724
 11
0
 21
423.5000000000288
  0
LINE
  5
A6
  8
MOTOR_RAIL
  6
BYLAYER
 62
  256
 10
0
 20
423.5000000000288
 11
0
 21
429.5000000000245
  0
LINE
  5
A7
  8
MOTOR_RAIL
  6
BYLAYER
 62
  256
 10
0
 20
429.5000000000245
 11
0
 21
429.4999999999998
  0
LINE
  5
A8
  8
MOTOR_RAIL
  6
BYLAYER
 62
  256
 10
0
 20
429.4999999999998
 11
0
 21
430.7499999999998
  0
LINE
  5
A9
  8
MOTOR_RAIL
  6
BYLAYER
 62
  256
 10
0
 20
430.7499999999998
 11
1.4e-015
 21
430.7499999999998
  0
LINE
  5
AA
  8
MOTOR_RAIL
  6
BYLAYER
 62
  256
 10
1.4e-015
 20
430.7499999999998
 11
1.3e-015
 21
428.6999999999999
  0
LINE
  5
AB
  8
MOTOR_RAIL
  6
BYLAYER
 62
  256
 10
1.3e-015
 20
428.6999999999999
 11
1.3e-015
 21
428.6999999999999
  0
LINE
  5
AC
  8
MOTOR_RAIL
  6
BYLAYER
 62
  256
 10
1.3e-015
 20
428.6999999999999
 11
1.4e-015
 21
430.7499999999998
  0
LINE
  5
AD
  8
MOTOR_RAIL
  6
BYLAYER
 62
  256
 10
1.4e-015
 20
430.7499999999998
 11
1.4e-015
 21
430.7499999999998
  0
LINE
  5
AE
  8
MOTOR_RAIL
  6
BYLAYER
 62
  256
 10
1.4e-015
 20
430.7499999999998
 11
1.5e-015
 21
433.2499999999998
  0
LINE
  5
AF
  8
MOTOR_RAIL
  6
BYLAYER
 62
  256
 10
1.5e-015
 20
433.2499999999998
 11
1.5e-015
 21
433.2499999999998
  0
LINE
  5
B0
  8
MOTOR_RAIL
  6
BYLAYER
 62
  256
 10
1.5e-015
 20
433.2499999999998
 11
1.7e-015
 21
435.2999999999998
  0
LINE
  5
B1
  8
MOTOR_RAIL
  6
BYLAYER
 62
  256
 10
1.7e-015
 20
435.2999999999998
 11
1.7e-015
 21
435.2999999999998
  0
LINE
  5
B2
  8
MOTOR_RAIL
  6
BYLAYER
 62
  256
 10
1.7e-015
 20
435.2999999999998
 11
1.5e-015
 21
433.2499999999998
  0
LINE
  5
B3
  8
MOTOR_RAIL
  6
BYLAYER
 62
  256
 10
1.5e-015
 20
433.2499999999998
 11
0
 21
433.2499999999998
  0
LINE
  5
B4
  8
MOTOR_RAIL
  6
BYLAYER
 62
  256
 10
0
 20
433.2499999999998
 11
0
 21
441.7499999999998
  0
LINE
  5
B5
  8
MOTOR_RAIL
  6
BYLAYER
 62
  256
 10
0
 20
441.7499999999998
 11
1.5e-015
 21
441.7499999999998
  0
LINE
  5
B6
  8
MOTOR_RAIL
  6
BYLAYER
 62
  256
 10
1.5e-015
 20
441.7499999999998
 11
1.7e-015
 21
439.6999999999998
  0
LINE
  5
B7
  8
MOTOR_RAIL
  6
BYLAYER
 62
  256
 10
1.7e-015
 20
439.6999999999998
 11
1.7e-015
 21
439.6999999999998
  0
LINE
  5
B8
  8
MOTOR_RAIL
  6
BYLAYER
 62
  256
 10
1.7e-015
 20
439.6999999999998
 11
1.5e-015
 21
441.7499999999998
  0
LINE
  5
B9
  8
MOTOR_RAIL
  6
BYLAYER
 62
  256
 10
1.5e-015
 20
441.7499999999998
 11
1.5e-015
 21
441.7499999999998
  0
LINE
  5
BA
  8
MOTOR_RAIL
  6
BYLAYER
 62
  256
 10
1.5e-015
 20
441.7499999999998
 11
1.4e-015
 21
444.2499999999998
  0
LINE
  5
BB
  8
MOTOR_RAIL
  6
BYLAYER
 62
  256
 10
1.4e-015
 20
444.2499999999998
 11
1.4e-015
 21
444.2499999999998
  0
LINE
  5
BC
  8
MOTOR_RAIL
  6
BYLAYER
 62
  256
 10
1.4e-015
 20
444.2499999999998
 11
1.3e-015
 21
446.2999999999998
  0
LINE
  5
BD
  8
MOTOR_RAIL
  6
BYLAYER
 62
  256
 10
1.3e-015
 20
446.2999999999998
 11
1.3e-015
 21
446.2999999999998
  0
LINE
  5
BE
  8
MOTOR_RAIL
  6
BYLAYER
 62
  256
 10
1.3e-015
 20
446.2999999999998
 11
1.4e-015
 21
444.2499999999998
  0
LINE
  5
BF
  8
MOTOR_RAIL
  6
BYLAYER
 62
  256
 10
1.4e-015
 20
444.2499999999998
 11
0
 21
444.2499999999998
  0
LINE
  5
C0
  8
MOTOR_RAIL
  6
BYLAYER
 62
  256
 10
0
 20
444.2499999999998
 11
0
 21
448.4999999999998
  0
ARC
  5
C1
  8
MOTOR_RAIL
  6
BYLAYER
 62
  256
 10
0
 20
461
 40
12.50000000000017
 50
298.8657274150068
 51
180.0000000000002
  0
ARC
  5
C2
  8
MOTOR_RAIL
  6
BYLAYER
 62
  256
 10
0
 20
468.0000000000001
 40
2.000000000000338
 50
118.8657274150109
 51
179.999999999998
  0
LINE
  5
C3
  8
MOTOR_RAIL
  6
BYLAYER
 62
  256
 10
0
 20
465.9999999999998
 11
0
 21
465.9999999999998
  0
ARC
  5
C4
  8
MOTOR_RAIL
  6
BYLAYER
 62
  256
 10
0
 20
463.9999999999998
 40
2
 50
270
 51
0
  0
LINE
  5
C5
  8
MOTOR_RAIL
  6
BYLAYER
 62
  256
 10
0
 20
463.9999999999998
 11
0
 21
459.9999999999998
  0
LINE
  5
C6
  8
MOTOR_RAIL
  6
BYLAYER
 62
  256
 10
0
 20
459.9999999999998
 11
-6e-016
 21
460.0000000000015
  0
LINE
  5
C7
  8
MOTOR_RAIL
  6
BYLAYER
 62
  256
 10
-6e-016
 20
460.0000000000015
 11
-1.16e-014
 21
456.4000000000032
  0
LINE
  5
C8
  8
MOTOR_RAIL
  6
BYLAYER
 62
  256
 10
-1.16e-014
 20
456.4000000000032
 11
-1.15e-014
 21
456.4000000000032
  0
LINE
  5
C9
  8
MOTOR_RAIL
  6
BYLAYER
 62
  256
 10
-1.15e-014
 20
456.4000000000032
 11
-1.12e-014
 21
454.2000000000032
  0
LINE
  5
CA
  8
MOTOR_RAIL
  6
BYLAYER
 62
  256
 10
-1.12e-014
 20
454.2000000000032
 11
-1.13e-014
 21
454.2000000000032
  0
LINE
  5
CB
  8
MOTOR_RAIL
  6
BYLAYER
 62
  256
 10
-1.13e-014
 20
454.2000000000032
 11
-1.11e-014
 21
452.4000000000031
  0
LINE
  5
CC
  8
MOTOR_RAIL
  6
BYLAYER
 62
  256
 10
-1.11e-014
 20
452.4000000000031
 11
-1.13e-014
 21
452.4000000000031
  0
LINE
  5
CD
  8
MOTOR_RAIL
  6
BYLAYER
 62
  256
 10
-1.13e-014
 20
452.4000000000031
 11
-1.15e-014
 21
454.2000000000032
  0
LINE
  5
CE
  8
MOTOR_RAIL
  6
BYLAYER
 62
  256
 10
-1.15e-014
 20
454.2000000000032
 11
-1.16e-014
 21
454.2000000000032
  0
LINE
  5
CF
  8
MOTOR_RAIL
  6
BYLAYER
 62
  256
 10
-1.16e-014
 20
454.2000000000032
 11
-1.19e-014
 21
456.4000000000032
  0
LINE
  5
D0
  8
MOTOR_RAIL
  6
BYLAYER
 62
  256
 10
-1.19e-014
 20
456.4000000000032
 11
-1.18e-014
 21
456.4000000000032
  0
LINE
  5
D1
  8
MOTOR_RAIL
  6
BYLAYER
 62
  256
 10
-1.18e-014
 20
456.4000000000032
 11
-3.1e-015
 21
460.0000000000015
  0
LINE
  5
D2
  8
MOTOR_RAIL
  6
BYLAYER
 62
  256
 10
-3.1e-015
 20
460.0000000000015
 11
0
 21
459.9999999999998
  0
LINE
  5
D3
  8
MOTOR_RAIL
  6
BYLAYER
 62
  256
 10
0
 20
459.9999999999998
 11
-2.8e-015
 21
463.0000000000008
  0
LINE
  5
D4
  8
MOTOR_RAIL
  6
BYLAYER
 62
  256
 10
-2.8e-015
 20
463.0000000000008
 11
-1.4e-015
 21
462.9999999999998
  0
LINE
  5
D5
  8
MOTOR_RAIL
  6
BYLAYER
 62
  256
 10
-1.4e-015
 20
462.9999999999998
 11
-2e-016
 21
423.5000000000288
  0
CIRCLE
  5
D6
  8
MOTOR_RAIL
  6
BYLAYER
 62
  256
 10
0
 20
433.9999999999955
 40
2.5
  0
LINE
  5
D7
  8
MOTOR_RAIL
  6
BYLAYER
 62
  256
 10
-28.00000000000083
 20
35.75
 11
-24.40000000000083
 21
35.75
  0
LINE
  5
D8
  8
MOTOR_RAIL
  6
BYLAYER
 62
  256
 10
-28.00000000000083
 20
38.25
 11
-24.40000000000083
 21
38.25
  0
LINE
  5
D9
  8
MOTOR_RAIL
  6
BYLAYER
 62
  256
 10
-24.40000000000083
 20
38.25
 11
-24.40000000000083
 21
40.3
  0
LINE
  5
DA
  8
MOTOR_RAIL
  6
BYLAYER
 62
  256
 10
-24.40000000000083
 20
40.3
 11
-22.20000000000083
 21
40.3
  0
LINE
  5
DB
  8
MOTOR_RAIL
  6
BYLAYER
 62
  256
 10
-22.20000000000083
 20
40.3
 11
-22.20000000000083
 21
38.25
  0
LINE
  5
DC
  8
MOTOR_RAIL
  6
BYLAYER
 62
  256
 10
-22.20000000000083
 20
38.25
 11
-20.40000000000083
 21
38.25
  0
LINE
  5
DD
  8
MOTOR_RAIL
  6
BYLAYER
 62
  256
 10
-20.40000000000083
 20
38.25
 11
-20.40000000000083
 21
35.75
  0
LINE
  5
DE
  8
MOTOR_RAIL
  6
BYLAYER
 62
  256
 10
-20.40000000000083
 20
35.75
 11
-22.20000000000083
 21
35.75
  0
LINE
  5
DF
  8
MOTOR_RAIL
  6
BYLAYER
 62
  256
 10
-22.20000000000083
 20
35.75
 11
-22.20000000000083
 21
33.7
  0
LINE
  5
E0
  8
MOTOR_RAIL
  6
BYLAYER
 62
  256
 10
-22.20000000000083
 20
33.7
 11
-24.40000000000083
 21
33.7
  0
LINE
  5
E1
  8
MOTOR_RAIL
  6
BYLAYER
 62
  256
 10
-24.40000000000083
 20
33.7
 11
-24.40000000000083
 21
35.75
  0
LINE
  5
E2
  8
MOTOR_RAIL
  6
BYLAYER
 62
  256
 10
-28.00000000000017
 20
44.5
 11
-28.00000000000083
 21
38.25
  0
LINE
  5
E3
  8
MOTOR_RAIL
  6
BYLAYER
 62
  256
 10
-28.00000000000083
 20
35.75
 11
-28.00000000000293
 21
-2
  0
ENDSEC
  0
EOF
