  0
SECTION
  2
HEADER
  9
$ACADVER
  1
AC1009
  9
$INSBASE
 10
0.0
 20
0.0
 30
0.0
  9
$EXTMIN
 10
-36.0
 20
-12.5000000000000906
 30
-31.000000000002931
  9
$EXTMAX
 10
11.5000000000000693
 20
473.1841535236715117
 30
10.42078739544929
  9
$LIMMIN
 10
0.0
 20
0.0
  9
$LIMMAX
 10
12.0
 20
9.0
  9
$ORTHOMODE
 70
     0
  9
$REGENMODE
 70
     1
  9
$FILLMODE
 70
     1
  9
$QTEXTMODE
 70
     0
  9
$MIRRTEXT
 70
     1
  9
$DRAGMODE
 70
     2
  9
$LTSCALE
 40
1.0
  9
$OSMODE
 70
    37
  9
$ATTMODE
 70
     1
  9
$TEXTSIZE
 40
0.2
  9
$TRACEWID
 40
0.05
  9
$TEXTSTYLE
  7
STANDARD
  9
$CLAYER
  8
MOTOR_RAIL
  9
$CELTYPE
  6
BYLAYER
  9
$CECOLOR
 62
   256
  9
$DIMSCALE
 40
1.0
  9
$DIMASZ
 40
0.18
  9
$DIMEXO
 40
0.0625
  9
$DIMDLI
 40
0.38
  9
$DIMRND
 40
0.0
  9
$DIMDLE
 40
0.0
  9
$DIMEXE
 40
0.18
  9
$DIMTP
 40
0.0
  9
$DIMTM
 40
0.0
  9
$DIMTXT
 40
0.18
  9
$DIMCEN
 40
0.09
  9
$DIMTSZ
 40
0.0
  9
$DIMTOL
 70
     0
  9
$DIMLIM
 70
     0
  9
$DIMTIH
 70
     1
  9
$DIMTOH
 70
     1
  9
$DIMSE1
 70
     0
  9
$DIMSE2
 70
     0
  9
$DIMTAD
 70
     0
  9
$DIMZIN
 70
     0
  9
$DIMBLK
  1

  9
$DIMASO
 70
     1
  9
$DIMSHO
 70
     1
  9
$DIMPOST
  1

  9
$DIMAPOST
  1

  9
$DIMALT
 70
     0
  9
$DIMALTD
 70
     2
  9
$DIMALTF
 40
25.3999999999999986
  9
$DIMLFAC
 40
1.0
  9
$DIMTOFL
 70
     0
  9
$DIMTVP
 40
0.0
  9
$DIMTIX
 70
     0
  9
$DIMSOXD
 70
     0
  9
$DIMSAH
 70
     0
  9
$DIMBLK1
  1

  9
$DIMBLK2
  1

  9
$DIMSTYLE
  2
STANDARD
  9
$DIMCLRD
 70
     0
  9
$DIMCLRE
 70
     0
  9
$DIMCLRT
 70
     0
  9
$DIMTFAC
 40
1.0
  9
$DIMGAP
 40
0.09
  9
$LUNITS
 70
     2
  9
$LUPREC
 70
     3
  9
$SKETCHINC
 40
0.1
  9
$FILLETRAD
 40
0.5
  9
$AUNITS
 70
     0
  9
$AUPREC
 70
     0
  9
$MENU
  1
.
  9
$ELEVATION
 40
0.0
  9
$PELEVATION
 40
0.0
  9
$THICKNESS
 40
0.0
  9
$LIMCHECK
 70
     0
  9
$BLIPMODE
 70
     0
  9
$CHAMFERA
 40
0.5
  9
$CHAMFERB
 40
0.5
  9
$SKPOLY
 70
     0
  9
$TDCREATE
 40
2457581.5956365740858018
  9
$TDUPDATE
 40
2457584.8727430561557412
  9
$TDINDWG
 40
0.0137037153
  9
$TDUSRTIMER
 40
0.0137037153
  9
$USRTIMER
 70
     1
  9
$ANGBASE
 50
0.0
  9
$ANGDIR
 70
     0
  9
$PDMODE
 70
     0
  9
$PDSIZE
 40
0.0
  9
$PLINEWID
 40
0.0
  9
$COORDS
 70
     1
  9
$SPLFRAME
 70
     0
  9
$SPLINETYPE
 70
     6
  9
$SPLINESEGS
 70
     8
  9
$ATTDIA
 70
     1
  9
$ATTREQ
 70
     1
  9
$HANDLING
 70
     1
  9
$HANDSEED
  5
225
  9
$SURFTAB1
 70
     6
  9
$SURFTAB2
 70
     6
  9
$SURFTYPE
 70
     6
  9
$SURFU
 70
     6
  9
$SURFV
 70
     6
  9
$UCSNAME
  2

  9
$UCSORG
 10
0.0
 20
0.0
 30
0.0
  9
$UCSXDIR
 10
1.0
 20
0.0
 30
0.0
  9
$UCSYDIR
 10
0.0
 20
1.0
 30
0.0
  9
$PUCSNAME
  2

  9
$PUCSORG
 10
0.0
 20
0.0
 30
0.0
  9
$PUCSXDIR
 10
1.0
 20
0.0
 30
0.0
  9
$PUCSYDIR
 10
0.0
 20
1.0
 30
0.0
  9
$USERI1
 70
     0
  9
$USERI2
 70
     0
  9
$USERI3
 70
     0
  9
$USERI4
 70
     0
  9
$USERI5
 70
     0
  9
$USERR1
 40
0.0
  9
$USERR2
 40
0.0
  9
$USERR3
 40
0.0
  9
$USERR4
 40
0.0
  9
$USERR5
 40
0.0
  9
$WORLDVIEW
 70
     1
  9
$SHADEDGE
 70
     3
  9
$SHADEDIF
 70
    70
  9
$TILEMODE
 70
     1
  9
$MAXACTVP
 70
    64
  9
$PLIMCHECK
 70
     0
  9
$PEXTMIN
 10
1.0000000000000000E+20
 20
1.0000000000000000E+20
 30
1.0000000000000000E+20
  9
$PEXTMAX
 10
-1.0000000000000000E+20
 20
-1.0000000000000000E+20
 30
-1.0000000000000000E+20
  9
$PLIMMIN
 10
0.0
 20
0.0
  9
$PLIMMAX
 10
12.0
 20
9.0
  9
$UNITMODE
 70
     0
  9
$VISRETAIN
 70
     1
  9
$PLINEGEN
 70
     0
  9
$PSLTSCALE
 70
     1
  0
ENDSEC
  0
SECTION
  2
TABLES
  0
TABLE
  2
VPORT
 70
     1
  0
VPORT
  2
*ACTIVE
 70
     0
 10
0.0
 20
0.0
 11
1.0
 21
1.0
 12
-7.5282638197750202
 22
-209.427587638899297
 13
0.0
 23
0.0
 14
0.5
 24
0.5
 15
0.5
 25
0.5
 16
0.000000000000318
 26
0.0
 36
1428.3247137725240918
 17
-12.2551002502441406
 27
230.5000061988831135
 37
-10.2551002502441406
 40
81.3133873989518179
 41
2.1952662721893481
 42
50.0
 43
0.0
 44
0.0
 50
0.0
 51
0.0
 71
     0
 72
   100
 73
     1
 74
     3
 75
     0
 76
     0
 77
     0
 78
     0
  0
ENDTAB
  0
TABLE
  2
LTYPE
 70
     2
  0
LTYPE
  2
CONTINUOUS
 70
     0
  3
Solid line
 72
    65
 73
     0
 40
0.0
  0
ENDTAB
  0
TABLE
  2
LAYER
 70
     4
  0
LAYER
  2
0
 70
     0
 62
     7
  6
CONTINUOUS
  0
LAYER
  2
MOTOR_RAIL
 70
     0
 62
     1
  6
CONTINUOUS
  0
LAYER
  2
MOTOR_RAIL_380
 70
     0
 62
     1
  6
CONTINUOUS
  0
LAYER
  2
DEFPOINTS
 70
     0
 62
     7
  6
CONTINUOUS
  0
ENDTAB
  0
TABLE
  2
STYLE
 70
     1
  0
STYLE
  2
STANDARD
 70
     0
 40
0.0
 41
1.0
 50
0.0
 71
     0
 42
0.2
  3
txt
  4

  0
ENDTAB
  0
TABLE
  2
VIEW
 70
     0
  0
ENDTAB
  0
TABLE
  2
UCS
 70
     0
  0
ENDTAB
  0
TABLE
  2
APPID
 70
     4
  0
APPID
  2
ACAD
 70
     0
  0
APPID
  2
ACAD_EXEMPT_FROM_CAD_STANDARDS
 70
     0
  0
APPID
  2
ACAD_NAV_VCDISPLAY
 70
     0
  0
APPID
  2
ACAD_MLEADERVER
 70
     0
  0
ENDTAB
  0
TABLE
  2
DIMSTYLE
 70
     2
  0
DIMSTYLE
  2
STANDARD
 70
     0
  3

  4

  5

  6

  7

 40
1.0
 41
0.18
 42
0.0625
 43
0.38
 44
0.18
 45
0.0
 46
0.0
 47
0.0
 48
0.0
140
0.18
141
0.09
142
0.0
143
25.3999999999999986
144
1.0
145
0.0
146
1.0
147
0.09
 71
     0
 72
     0
 73
     1
 74
     1
 75
     0
 76
     0
 77
     0
 78
     0
170
     0
171
     2
172
     0
173
     0
174
     0
175
     0
176
     0
177
     0
178
     0
  0
ENDTAB
  0
ENDSEC
  0
SECTION
  2
BLOCKS
  0
BLOCK
  8
0
  2
$MODEL_SPACE
 70
     0
 10
0.0
 20
0.0
 30
0.0
  3
$MODEL_SPACE
  1

  0
ENDBLK
  5
21
  8
0
  0
BLOCK
 67
     1
  8
0
  2
$PAPER_SPACE
 70
     0
 10
0.0
 20
0.0
 30
0.0
  3
$PAPER_SPACE
  1

  0
ENDBLK
  5
1D
 67
     1
  8
0
  0
BLOCK
  8
0
  2
*D2
 70
     1
 10
0.0
 20
0.0
 30
0.0
  3
*D2
  1

  0
LINE
  5
11D
  8
MOTOR_RAIL
 62
     0
 10
-5.6000000000000014
 20
16.8125
 30
0.0
 11
-5.6000000000000014
 21
18.0566264618607413
 31
0.0
  0
LINE
  5
11E
  8
MOTOR_RAIL
 62
     0
 10
-2.0000000000026432
 20
16.8125
 30
0.0
 11
-2.0000000000026432
 21
18.0566264618607413
 31
0.0
  0
LINE
  5
11F
  8
MOTOR_RAIL
 62
     0
 10
-5.4200000000000008
 20
17.8766264618607416
 30
0.0
 11
-4.2950000000013224
 21
17.8766264618607416
 31
0.0
  0
LINE
  5
120
  8
MOTOR_RAIL
 62
     0
 10
-2.1800000000026429
 20
17.8766264618607416
 30
0.0
 11
-3.3050000000013222
 21
17.8766264618607416
 31
0.0
  0
SOLID
  5
121
  8
MOTOR_RAIL
 62
     0
 10
-5.4200000000000008
 20
17.9066264618607391
 30
0.0
 11
-5.4200000000000008
 21
17.8466264618607298
 31
0.0
 12
-5.6000000000000014
 22
17.8766264618607416
 32
0.0
 13
-5.6000000000000014
 23
17.8766264618607416
 33
0.0
  0
SOLID
  5
122
  8
MOTOR_RAIL
 62
     0
 10
-2.1800000000026429
 20
17.9066264618607391
 30
0.0
 11
-2.1800000000026429
 21
17.8466264618607298
 31
0.0
 12
-2.0000000000026432
 22
17.8766264618607416
 32
0.0
 13
-2.0000000000026432
 23
17.8766264618607416
 33
0.0
  0
INSERT
  5
123
  8
MOTOR_RAIL
  2
*U7
 10
0.0
 20
0.0
 30
0.0
  0
POINT
  5
124
  8
DEFPOINTS
 62
     0
 10
-5.6000000000000014
 20
16.75
 30
0.0
  0
POINT
  5
125
  8
DEFPOINTS
 62
     0
 10
-2.0000000000026432
 20
16.75
 30
0.0
  0
POINT
  5
126
  8
DEFPOINTS
 62
     0
 10
-2.0000000000026432
 20
17.8766264618607416
 30
0.0
  0
ENDBLK
  5
111
  8
0
  0
BLOCK
  8
0
  2
*D3
 70
     1
 10
0.0
 20
0.0
 30
0.0
  3
*D3
  1

  0
LINE
  5
148
  8
MOTOR_RAIL
 62
     0
 10
-1.9375000000026441
 20
16.75
 30
0.0
 11
-0.2633956078319151
 21
16.75
 31
0.0
  0
LINE
  5
149
  8
MOTOR_RAIL
 62
     0
 10
-1.9375
 20
19.25
 30
0.0
 11
-0.2633956078319159
 21
19.25
 31
0.0
  0
LINE
  5
14A
  8
MOTOR_RAIL
 62
     0
 10
-0.4433956078319153
 20
16.9299999999999997
 30
0.0
 11
-0.4433956078319154
 21
17.8200000000000109
 31
0.0
  0
LINE
  5
14B
  8
MOTOR_RAIL
 62
     0
 10
-0.4433956078319157
 20
19.0700000000000109
 30
0.0
 11
-0.4433956078319155
 21
18.1800000000000104
 31
0.0
  0
SOLID
  5
14C
  8
MOTOR_RAIL
 62
     0
 10
-0.4733956078319153
 20
16.9299999999999997
 30
0.0
 11
-0.4133956078319152
 21
16.9299999999999997
 31
0.0
 12
-0.4433956078319152
 22
16.75
 32
0.0
 13
-0.4433956078319152
 23
16.75
 33
0.0
  0
SOLID
  5
14D
  8
MOTOR_RAIL
 62
     0
 10
-0.4733956078319157
 20
19.0700000000000109
 30
0.0
 11
-0.4133956078319157
 21
19.0700000000000109
 31
0.0
 12
-0.4433956078319158
 22
19.25
 32
0.0
 13
-0.4433956078319158
 23
19.25
 33
0.0
  0
INSERT
  5
14E
  8
MOTOR_RAIL
  2
*U8
 10
0.0
 20
0.0
 30
0.0
  0
POINT
  5
14F
  8
DEFPOINTS
 62
     0
 10
-2.0000000000026441
 20
16.75
 30
0.0
  0
POINT
  5
150
  8
DEFPOINTS
 62
     0
 10
-2.0
 20
19.25
 30
0.0
  0
POINT
  5
151
  8
DEFPOINTS
 62
     0
 10
-0.4433956078319158
 20
19.25
 30
0.0
  0
ENDBLK
  5
13C
  8
0
  0
BLOCK
  8
0
  2
*D4
 70
     1
 10
0.0
 20
0.0
 30
0.0
  3
*D4
  1

  0
LINE
  5
164
  8
MOTOR_RAIL
 62
     0
 10
-5.5375000000000041
 20
19.25
 30
0.0
 11
-2.4933620222521489
 21
19.25
 31
0.0
  0
LINE
  5
165
  8
MOTOR_RAIL
 62
     0
 10
-5.5375000000000041
 20
21.3000000000000185
 30
0.0
 11
-2.4933620222521502
 21
21.3000000000000185
 31
0.0
  0
LINE
  5
166
  8
MOTOR_RAIL
 62
     0
 10
-2.673362022252149
 20
19.4300000000000104
 30
0.0
 11
-2.673362022252149
 21
20.0950000000000095
 31
0.0
  0
LINE
  5
167
  8
MOTOR_RAIL
 62
     0
 10
-2.6733620222521499
 20
21.1200000000000188
 30
0.0
 11
-2.673362022252149
 21
20.455000000000009
 31
0.0
  0
SOLID
  5
168
  8
MOTOR_RAIL
 62
     0
 10
-2.7033620222521488
 20
19.4300000000000104
 30
0.0
 11
-2.6433620222521501
 21
19.4300000000000104
 31
0.0
 12
-2.673362022252149
 22
19.25
 32
0.0
 13
-2.673362022252149
 23
19.25
 33
0.0
  0
SOLID
  5
169
  8
MOTOR_RAIL
 62
     0
 10
-2.7033620222521502
 20
21.1200000000000188
 30
0.0
 11
-2.6433620222521501
 21
21.1200000000000188
 31
0.0
 12
-2.6733620222521499
 22
21.3000000000000185
 32
0.0
 13
-2.6733620222521499
 23
21.3000000000000185
 33
0.0
  0
INSERT
  5
16A
  8
MOTOR_RAIL
  2
*U9
 10
0.0
 20
0.0
 30
0.0
  0
POINT
  5
16B
  8
DEFPOINTS
 62
     0
 10
-5.6000000000000041
 20
19.25
 30
-0.0000000000000015
  0
POINT
  5
16C
  8
DEFPOINTS
 62
     0
 10
-5.6000000000000041
 20
21.3000000000000185
 30
-0.0000000000000017
  0
POINT
  5
16D
  8
DEFPOINTS
 62
     0
 10
-2.6733620222521499
 20
21.3000000000000185
 30
0.0
  0
ENDBLK
  5
158
  8
0
  0
BLOCK
  8
0
  2
*D5
 70
     1
 10
0.0
 20
0.0
 30
0.0
  3
*D5
  1

  0
LINE
  5
181
  8
MOTOR_RAIL
 62
     0
 10
-5.5999999999999996
 20
21.3625000000000114
 30
0.0
 11
-5.5999999999999996
 21
22.992639637730619
 31
0.0
  0
LINE
  5
182
  8
MOTOR_RAIL
 62
     0
 10
-7.8000000000000007
 20
21.3625000000000114
 30
0.0
 11
-7.8000000000000007
 21
22.992639637730619
 31
0.0
  0
LINE
  5
183
  8
MOTOR_RAIL
 62
     0
 10
-5.7800000000000002
 20
22.81263963773063
 30
0.0
 11
-6.2050000000000001
 21
22.81263963773063
 31
0.0
  0
LINE
  5
184
  8
MOTOR_RAIL
 62
     0
 10
-7.620000000000001
 20
22.81263963773063
 30
0.0
 11
-7.1950000000000012
 21
22.81263963773063
 31
0.0
  0
SOLID
  5
185
  8
MOTOR_RAIL
 62
     0
 10
-5.7800000000000002
 20
22.8426396377306311
 30
0.0
 11
-5.7800000000000002
 21
22.7826396377306288
 31
0.0
 12
-5.5999999999999996
 22
22.81263963773063
 32
0.0
 13
-5.5999999999999996
 23
22.81263963773063
 33
0.0
  0
SOLID
  5
186
  8
MOTOR_RAIL
 62
     0
 10
-7.620000000000001
 20
22.8426396377306311
 30
0.0
 11
-7.620000000000001
 21
22.7826396377306288
 31
0.0
 12
-7.8000000000000007
 22
22.81263963773063
 32
0.0
 13
-7.8000000000000007
 23
22.81263963773063
 33
0.0
  0
INSERT
  5
187
  8
MOTOR_RAIL
  2
*U10
 10
0.0
 20
0.0
 30
0.0
  0
POINT
  5
188
  8
DEFPOINTS
 62
     0
 10
-5.5999999999999996
 20
21.3000000000000114
 30
0.0
  0
POINT
  5
189
  8
DEFPOINTS
 62
     0
 10
-7.8000000000000007
 20
21.3000000000000114
 30
-0.0000000000000017
  0
POINT
  5
18A
  8
DEFPOINTS
 62
     0
 10
-7.8000000000000007
 20
22.81263963773063
 30
0.0
  0
ENDBLK
  5
175
  8
0
  0
BLOCK
  8
0
  2
*D6
 70
     1
 10
0.0
 20
0.0
 30
0.0
  3
*D6
  1

  0
LINE
  5
19D
  8
MOTOR_RAIL
 62
     0
 10
-7.7999999999999998
 20
19.3125
 30
0.0
 11
-7.7999999999999998
 21
20.1459932461472597
 31
0.0
  0
LINE
  5
19E
  8
MOTOR_RAIL
 62
     0
 10
-9.6000000000000032
 20
19.3125
 30
0.0
 11
-9.6000000000000032
 21
20.1459932461472597
 31
0.0
  0
LINE
  5
19F
  8
MOTOR_RAIL
 62
     0
 10
-7.9800000000000004
 20
19.96599324614726
 30
0.0
 11
-8.2350000000000012
 21
19.96599324614726
 31
0.0
  0
LINE
  5
1A0
  8
MOTOR_RAIL
 62
     0
 10
-9.4200000000000035
 20
19.96599324614726
 30
0.0
 11
-9.1650000000000027
 21
19.96599324614726
 31
0.0
  0
SOLID
  5
1A1
  8
MOTOR_RAIL
 62
     0
 10
-7.9800000000000004
 20
19.9959932461472611
 30
0.0
 11
-7.9800000000000004
 21
19.9359932461472589
 31
0.0
 12
-7.7999999999999998
 22
19.96599324614726
 32
0.0
 13
-7.7999999999999998
 23
19.96599324614726
 33
0.0
  0
SOLID
  5
1A2
  8
MOTOR_RAIL
 62
     0
 10
-9.4200000000000035
 20
19.9959932461472611
 30
0.0
 11
-9.4200000000000035
 21
19.9359932461472589
 31
0.0
 12
-9.6000000000000032
 22
19.96599324614726
 32
0.0
 13
-9.6000000000000032
 23
19.96599324614726
 33
0.0
  0
INSERT
  5
1A3
  8
MOTOR_RAIL
  2
*U11
 10
0.0
 20
0.0
 30
0.0
  0
POINT
  5
1A4
  8
DEFPOINTS
 62
     0
 10
-7.7999999999999998
 20
19.25
 30
0.0
  0
POINT
  5
1A5
  8
DEFPOINTS
 62
     0
 10
-9.6000000000000032
 20
19.25
 30
-0.0000000000000015
  0
POINT
  5
1A6
  8
DEFPOINTS
 62
     0
 10
-9.6000000000000032
 20
19.96599324614726
 30
0.0
  0
ENDBLK
  5
191
  8
0
  0
BLOCK
  8
0
  2
*U7
 70
     1
 10
0.0
 20
0.0
 30
0.0
  3
*U7
  1

  0
TEXT
  5
212
  8
MOTOR_RAIL
 62
     0
 10
-4.2050000000013217
 20
17.7866264618607417
 30
0.0
 40
0.18
  1
3.6000
  0
ENDBLK
  5
214
  8
0
  0
BLOCK
  8
0
  2
*U8
 70
     1
 10
0.0
 20
0.0
 30
0.0
  3
*U8
  1

  0
TEXT
  5
216
  8
MOTOR_RAIL
 62
     0
 10
-0.8483956078319103
 20
17.9100000000000001
 30
0.0
 40
0.18
  1
2.5000
  0
ENDBLK
  5
218
  8
0
  0
BLOCK
  8
0
  2
*U9
 70
     1
 10
0.0
 20
0.0
 30
0.0
  3
*U9
  1

  0
TEXT
  5
21A
  8
MOTOR_RAIL
 62
     0
 10
-3.0783620222521431
 20
20.1850000000000094
 30
0.0
 40
0.18
  1
2.0500
  0
ENDBLK
  5
21C
  8
0
  0
BLOCK
  8
0
  2
*U10
 70
     1
 10
0.0
 20
0.0
 30
0.0
  3
*U10
  1

  0
TEXT
  5
21E
  8
MOTOR_RAIL
 62
     0
 10
-7.1050000000000013
 20
22.7226396377306301
 30
0.0
 40
0.18
  1
2.2000
  0
ENDBLK
  5
220
  8
0
  0
BLOCK
  8
0
  2
*U11
 70
     1
 10
0.0
 20
0.0
 30
0.0
  3
*U11
  1

  0
TEXT
  5
222
  8
MOTOR_RAIL
 62
     0
 10
-9.0750000000000028
 20
19.8759932461472602
 30
0.0
 40
0.18
  1
1.8000
  0
ENDBLK
  5
224
  8
0
  0
ENDSEC
  0
SECTION
  2
ENTITIES
  0
CIRCLE
  5
5E
  8
MOTOR_RAIL
 10
-1.0
 20
8.5
 30
0.0
 40
1.5
  0
CIRCLE
  5
5F
  8
MOTOR_RAIL
 10
-1.0
 20
-8.5
 30
0.0
 40
1.5
  0
CIRCLE
  5
60
  8
MOTOR_RAIL
 10
-1.0
 20
0.0
 30
0.0
 40
3.2000000000000002
  0
CIRCLE
  5
61
  8
MOTOR_RAIL
 10
-10.0
 20
43.0
 30
0.0
 40
1.3500000000000001
  0
CIRCLE
  5
63
  8
MOTOR_RAIL_380
 10
-1.0
 20
0.0
 30
0.0
 40
5.0
  0
CIRCLE
  5
64
  8
MOTOR_RAIL_380
 10
-1.0
 20
8.0
 30
0.0
 40
1.3
  0
CIRCLE
  5
65
  8
MOTOR_RAIL_380
 10
-1.0
 20
-8.0
 30
0.0
 40
1.3
  0
LINE
  5
66
  8
MOTOR_RAIL
 10
-0.0000000000243713
 20
50.499999999970953
 30
0.0
 11
-0.0000000000834078
 21
44.4999999999753868
 31
0.0
  0
LINE
  5
67
  8
MOTOR_RAIL
 10
-0.0000000000834078
 20
44.4999999999753868
 30
0.0
 11
-2.0000000000834071
 21
44.5
 31
0.0
  0
LINE
  5
68
  8
MOTOR_RAIL
 10
-2.0000000000834071
 20
44.5
 30
0.0
 11
-2.000000000016112
 21
38.25
 31
0.0
  0
LINE
  5
69
  8
MOTOR_RAIL
 10
-2.000000000016112
 20
38.25
 30
0.0
 11
-5.6000000000000023
 21
38.25
 31
-0.0000000000000014
  0
LINE
  5
6A
  8
MOTOR_RAIL
 10
-5.6000000000000023
 20
38.25
 30
-0.0000000000000014
 11
-5.5999999999999988
 21
40.3000000000000114
 31
-0.0000000000000013
  0
LINE
  5
6B
  8
MOTOR_RAIL
 10
-5.5999999999999988
 20
40.3000000000000114
 30
-0.0000000000000013
 11
-7.799999999999998
 21
40.3000000000000114
 31
-0.0000000000000013
  0
LINE
  5
6C
  8
MOTOR_RAIL
 10
-7.799999999999998
 20
40.3000000000000114
 30
-0.0000000000000013
 11
-7.8000000000000007
 21
38.25
 31
-0.0000000000000014
  0
LINE
  5
6D
  8
MOTOR_RAIL
 10
-7.8000000000000007
 20
38.25
 30
-0.0000000000000014
 11
-9.6000000000000032
 21
38.25
 31
-0.0000000000000014
  0
LINE
  5
6E
  8
MOTOR_RAIL
 10
-9.6000000000000032
 20
38.25
 30
-0.0000000000000014
 11
-9.6000000000000032
 21
35.75
 31
-0.0000000000000015
  0
LINE
  5
6F
  8
MOTOR_RAIL
 10
-9.6000000000000032
 20
35.75
 30
-0.0000000000000015
 11
-7.8000000000000007
 21
35.75
 31
-0.0000000000000015
  0
LINE
  5
70
  8
MOTOR_RAIL
 10
-7.8000000000000007
 20
35.75
 30
-0.0000000000000015
 11
-7.8000000000000007
 21
33.6999999999999886
 31
-0.0000000000000017
  0
LINE
  5
71
  8
MOTOR_RAIL
 10
-7.8000000000000007
 20
33.6999999999999886
 30
-0.0000000000000017
 11
-5.6000000000000014
 21
33.6999999999999886
 31
-0.0000000000000017
  0
LINE
  5
72
  8
MOTOR_RAIL
 10
-5.6000000000000014
 20
33.6999999999999886
 30
-0.0000000000000017
 11
-5.6000000000000023
 21
35.75
 31
-0.0000000000000015
  0
LINE
  5
73
  8
MOTOR_RAIL
 10
-5.6000000000000023
 20
35.75
 30
-0.0000000000000015
 11
-2.0000000000162448
 21
35.75
 31
0.0
  0
LINE
  5
74
  8
MOTOR_RAIL
 10
-2.0000000000162448
 20
35.75
 30
0.0
 11
-2.0
 21
19.25
 31
0.0
  0
LINE
  5
75
  8
MOTOR_RAIL
 10
-2.0
 20
19.25
 30
0.0
 11
-5.6000000000000023
 21
19.25
 31
-0.0000000000000015
  0
LINE
  5
76
  8
MOTOR_RAIL
 10
-5.6000000000000023
 20
19.25
 30
-0.0000000000000015
 11
-5.6000000000000014
 21
21.3000000000000114
 31
-0.0000000000000017
  0
LINE
  5
77
  8
MOTOR_RAIL
 10
-5.6000000000000014
 20
21.3000000000000114
 30
-0.0000000000000017
 11
-7.8000000000000007
 21
21.3000000000000114
 31
-0.0000000000000017
  0
LINE
  5
78
  8
MOTOR_RAIL
 10
-7.8000000000000007
 20
21.3000000000000114
 30
-0.0000000000000017
 11
-7.8000000000000007
 21
19.25
 31
-0.0000000000000015
  0
LINE
  5
79
  8
MOTOR_RAIL
 10
-7.8000000000000007
 20
19.25
 30
-0.0000000000000015
 11
-9.6000000000000032
 21
19.25
 31
-0.0000000000000015
  0
LINE
  5
7A
  8
MOTOR_RAIL
 10
-9.6000000000000032
 20
19.25
 30
-0.0000000000000015
 11
-9.6000000000000032
 21
16.75
 31
-0.0000000000000014
  0
LINE
  5
7B
  8
MOTOR_RAIL
 10
-9.6000000000000032
 20
16.75
 30
-0.0000000000000014
 11
-7.8000000000000007
 21
16.75
 31
-0.0000000000000014
  0
LINE
  5
7C
  8
MOTOR_RAIL
 10
-7.8000000000000007
 20
16.75
 30
-0.0000000000000014
 11
-7.799999999999998
 21
14.6999999999999904
 31
-0.0000000000000013
  0
LINE
  5
7D
  8
MOTOR_RAIL
 10
-7.799999999999998
 20
14.6999999999999904
 30
-0.0000000000000013
 11
-5.5999999999999988
 21
14.6999999999999904
 31
-0.0000000000000013
  0
LINE
  5
7E
  8
MOTOR_RAIL
 10
-5.5999999999999988
 20
14.6999999999999904
 30
-0.0000000000000013
 11
-5.6000000000000023
 21
16.75
 31
-0.0000000000000014
  0
LINE
  5
7F
  8
MOTOR_RAIL
 10
-5.6000000000000023
 20
16.75
 30
-0.0000000000000014
 11
-2.0000000000026432
 21
16.75
 31
0.0
  0
LINE
  5
80
  8
MOTOR_RAIL
 10
-2.0000000000026432
 20
16.75
 30
0.0
 11
-2.0000000000000031
 21
12.5
 31
0.0
  0
LINE
  5
81
  8
MOTOR_RAIL
 10
-2.0000000000000031
 20
12.5
 30
0.0
 11
-0.9999999999999888
 21
12.5000000000000107
 31
0.0
  0
ARC
  5
82
  8
MOTOR_RAIL
 10
-0.9999999999999811
 20
-0.0000000000000417
 30
0.0
 40
12.5000000000000497
 50
208.8657274150071999
 51
90.0000000000000142
  0
ARC
  5
83
  8
MOTOR_RAIL
 10
-13.6984250992004206
 20
-7.000000000000103
 30
0.0
 40
2.0000000000001039
 50
28.8657274150063898
 51
90.0
  0
LINE
  5
84
  8
MOTOR_RAIL
 10
-13.6984250992004206
 20
-5.0
 30
0.0
 11
-15.0
 21
-5.0
 31
0.0
  0
ARC
  5
85
  8
MOTOR_RAIL
 10
-15.0
 20
-3.0000000000000031
 30
0.0
 40
1.999999999999998
 50
179.9999999999998863
 51
269.9999999999998863
  0
LINE
  5
86
  8
MOTOR_RAIL
 10
-17.0
 20
-2.9999999999999978
 30
0.0
 11
-17.0
 21
1.0
 31
0.0
  0
LINE
  5
87
  8
MOTOR_RAIL
 10
-17.0
 20
1.0
 30
0.0
 11
-19.75
 21
0.9999999999983232
 31
0.0000000000000006
  0
LINE
  5
88
  8
MOTOR_RAIL
 10
-19.75
 20
0.9999999999983232
 30
0.0000000000000006
 11
-19.75
 21
4.5999999999966681
 31
0.0000000000000116
  0
LINE
  5
89
  8
MOTOR_RAIL
 10
-19.75
 20
4.5999999999966681
 30
0.0000000000000116
 11
-17.6999999999999886
 21
4.5999999999966681
 31
0.0000000000000115
  0
LINE
  5
8A
  8
MOTOR_RAIL
 10
-17.6999999999999886
 20
4.5999999999966681
 30
0.0000000000000115
 11
-17.6999999999999886
 21
6.7999999999966567
 31
0.0000000000000112
  0
LINE
  5
8B
  8
MOTOR_RAIL
 10
-17.6999999999999886
 20
6.7999999999966567
 30
0.0000000000000112
 11
-19.75
 21
6.7999999999966567
 31
0.0000000000000113
  0
LINE
  5
8C
  8
MOTOR_RAIL
 10
-19.75
 20
6.7999999999966567
 30
0.0000000000000113
 11
-19.75
 21
8.5999999999966672
 31
0.0000000000000111
  0
LINE
  5
8D
  8
MOTOR_RAIL
 10
-19.75
 20
8.5999999999966672
 30
0.0000000000000111
 11
-22.25
 21
8.5999999999966672
 31
0.0000000000000113
  0
LINE
  5
8E
  8
MOTOR_RAIL
 10
-22.25
 20
8.5999999999966672
 30
0.0000000000000113
 11
-22.25
 21
6.7999999999966567
 31
0.0000000000000115
  0
LINE
  5
8F
  8
MOTOR_RAIL
 10
-22.25
 20
6.7999999999966567
 30
0.0000000000000115
 11
-24.3000000000000114
 21
6.7999999999966567
 31
0.0000000000000116
  0
LINE
  5
90
  8
MOTOR_RAIL
 10
-24.3000000000000114
 20
6.7999999999966567
 30
0.0000000000000116
 11
-24.3000000000000114
 21
4.5999999999966681
 31
0.0000000000000119
  0
LINE
  5
91
  8
MOTOR_RAIL
 10
-24.3000000000000114
 20
4.5999999999966681
 30
0.0000000000000119
 11
-22.25
 21
4.5999999999966681
 31
0.0000000000000118
  0
LINE
  5
92
  8
MOTOR_RAIL
 10
-22.25
 20
4.5999999999966681
 30
0.0000000000000118
 11
-22.25
 21
0.9999999999983232
 31
0.0000000000000031
  0
LINE
  5
93
  8
MOTOR_RAIL
 10
-22.25
 20
0.9999999999983232
 30
0.0000000000000031
 11
-25.0
 21
1.0
 31
0.0
  0
LINE
  5
94
  8
MOTOR_RAIL
 10
-25.0
 20
1.0
 30
0.0
 11
-25.000000000002931
 21
-2.0000000000009091
 31
0.0000000000000028
  0
LINE
  5
95
  8
MOTOR_RAIL
 10
-25.000000000002931
 20
-2.0000000000009091
 30
0.0000000000000028
 11
-28.000000000002931
 21
-2.0
 31
0.0000000000000014
  0
LINE
  5
97
  8
MOTOR_RAIL
 10
-28.0000000000001705
 20
44.5
 30
0.0
 11
-36.0
 21
44.5000000000048601
 31
0.0
  0
LINE
  5
98
  8
MOTOR_RAIL
 10
-36.0
 20
44.5000000000048601
 30
0.0
 11
-36.0
 21
50.5
 31
0.0
  0
LINE
  5
99
  8
MOTOR_RAIL
 10
-36.0
 20
50.5
 30
0.0
 11
-0.0000000000243716
 21
50.4999999996457802
 31
0.0
  0
CIRCLE
  5
9A
  8
MOTOR_RAIL
 10
452.4999999999997726
 20
-2.0
 30
0.0
 40
1.5
210
1.0
220
0.0
230
0.0
  0
CIRCLE
  5
9B
  8
MOTOR_RAIL
 10
469.4999999999997726
 20
-2.0
 30
0.0
 40
1.5
210
1.0
220
0.0
230
0.0
  0
CIRCLE
  5
9C
  8
MOTOR_RAIL
 10
460.9999999999997726
 20
-2.0
 30
0.0
 40
3.5
210
1.0
220
0.0
230
0.0
  0
LINE
  5
9D
  8
MOTOR_RAIL
 10
0.0
 20
423.5000000000724185
 30
-31.0000000000005791
 11
0.0
 21
423.5000000000288196
 31
-0.0000000000243713
  0
LINE
  5
9E
  8
MOTOR_RAIL
 10
0.0
 20
423.5000000000288196
 30
-0.0000000000243713
 11
0.0
 21
429.5000000000244995
 31
-0.0000000000834078
  0
LINE
  5
9F
  8
MOTOR_RAIL
 10
0.0
 20
429.5000000000244995
 30
-0.0000000000834078
 11
0.0
 21
429.4999999999997726
 31
-2.0000000000834071
  0
LINE
  5
A0
  8
MOTOR_RAIL
 10
0.0
 20
429.4999999999997726
 30
-2.0000000000834071
 11
0.0
 21
430.7499999999997726
 31
-2.000000000016112
  0
LINE
  5
A1
  8
MOTOR_RAIL
 10
0.0
 20
430.7499999999997726
 30
-2.000000000016112
 11
0.0000000000000014
 21
430.7499999999997726
 31
-5.6000000000000023
  0
LINE
  5
A2
  8
MOTOR_RAIL
 10
0.0000000000000014
 20
430.7499999999997726
 30
-5.6000000000000023
 11
0.0000000000000013
 21
428.6999999999998749
 31
-5.5999999999999988
  0
LINE
  5
A3
  8
MOTOR_RAIL
 10
0.0000000000000013
 20
428.6999999999998749
 30
-5.5999999999999988
 11
0.0000000000000013
 21
428.6999999999998749
 31
-7.799999999999998
  0
LINE
  5
A4
  8
MOTOR_RAIL
 10
0.0000000000000013
 20
428.6999999999998749
 30
-7.799999999999998
 11
0.0000000000000014
 21
430.7499999999997726
 31
-7.8000000000000007
  0
LINE
  5
A5
  8
MOTOR_RAIL
 10
0.0000000000000014
 20
430.7499999999997726
 30
-7.8000000000000007
 11
0.0000000000000014
 21
430.7499999999997726
 31
-9.6000000000000032
  0
LINE
  5
A6
  8
MOTOR_RAIL
 10
0.0000000000000014
 20
430.7499999999997726
 30
-9.6000000000000032
 11
0.0000000000000015
 21
433.2499999999997726
 31
-9.6000000000000032
  0
LINE
  5
A7
  8
MOTOR_RAIL
 10
0.0000000000000015
 20
433.2499999999997726
 30
-9.6000000000000032
 11
0.0000000000000015
 21
433.2499999999997726
 31
-7.8000000000000007
  0
LINE
  5
A8
  8
MOTOR_RAIL
 10
0.0000000000000015
 20
433.2499999999997726
 30
-7.8000000000000007
 11
0.0000000000000017
 21
435.299999999999784
 31
-7.8000000000000007
  0
LINE
  5
A9
  8
MOTOR_RAIL
 10
0.0000000000000017
 20
435.299999999999784
 30
-7.8000000000000007
 11
0.0000000000000017
 21
435.299999999999784
 31
-5.6000000000000014
  0
LINE
  5
AA
  8
MOTOR_RAIL
 10
0.0000000000000017
 20
435.299999999999784
 30
-5.6000000000000014
 11
0.0000000000000015
 21
433.2499999999997726
 31
-5.6000000000000023
  0
LINE
  5
AB
  8
MOTOR_RAIL
 10
0.0000000000000015
 20
433.2499999999997726
 30
-5.6000000000000023
 11
0.0
 21
433.2499999999997726
 31
-2.0000000000162448
  0
LINE
  5
AC
  8
MOTOR_RAIL
 10
0.0
 20
433.2499999999997726
 30
-2.0000000000162448
 11
0.0
 21
441.7499999999997726
 31
-2.0
  0
LINE
  5
AD
  8
MOTOR_RAIL
 10
0.0
 20
441.7499999999997726
 30
-2.0
 11
0.0000000000000015
 21
441.7499999999997726
 31
-5.6000000000000023
  0
LINE
  5
AE
  8
MOTOR_RAIL
 10
0.0000000000000015
 20
441.7499999999997726
 30
-5.6000000000000023
 11
0.0000000000000017
 21
439.6999999999998181
 31
-5.6000000000000014
  0
LINE
  5
AF
  8
MOTOR_RAIL
 10
0.0000000000000017
 20
439.6999999999998181
 30
-5.6000000000000014
 11
0.0000000000000017
 21
439.6999999999998181
 31
-7.8000000000000007
  0
LINE
  5
B0
  8
MOTOR_RAIL
 10
0.0000000000000017
 20
439.6999999999998181
 30
-7.8000000000000007
 11
0.0000000000000015
 21
441.7499999999997726
 31
-7.8000000000000007
  0
LINE
  5
B1
  8
MOTOR_RAIL
 10
0.0000000000000015
 20
441.7499999999997726
 30
-7.8000000000000007
 11
0.0000000000000015
 21
441.7499999999997726
 31
-9.6000000000000032
  0
LINE
  5
B2
  8
MOTOR_RAIL
 10
0.0000000000000015
 20
441.7499999999997726
 30
-9.6000000000000032
 11
0.0000000000000014
 21
444.2499999999997726
 31
-9.6000000000000032
  0
LINE
  5
B3
  8
MOTOR_RAIL
 10
0.0000000000000014
 20
444.2499999999997726
 30
-9.6000000000000032
 11
0.0000000000000014
 21
444.2499999999997726
 31
-7.8000000000000007
  0
LINE
  5
B4
  8
MOTOR_RAIL
 10
0.0000000000000014
 20
444.2499999999997726
 30
-7.8000000000000007
 11
0.0000000000000013
 21
446.299999999999784
 31
-7.799999999999998
  0
LINE
  5
B5
  8
MOTOR_RAIL
 10
0.0000000000000013
 20
446.299999999999784
 30
-7.799999999999998
 11
0.0000000000000013
 21
446.299999999999784
 31
-5.5999999999999988
  0
LINE
  5
B6
  8
MOTOR_RAIL
 10
0.0000000000000013
 20
446.299999999999784
 30
-5.5999999999999988
 11
0.0000000000000014
 21
444.2499999999997726
 31
-5.6000000000000023
  0
LINE
  5
B7
  8
MOTOR_RAIL
 10
0.0000000000000014
 20
444.2499999999997726
 30
-5.6000000000000023
 11
0.0
 21
444.2499999999997726
 31
-2.0000000000026432
  0
LINE
  5
B8
  8
MOTOR_RAIL
 10
0.0
 20
444.2499999999997726
 30
-2.0000000000026432
 11
0.0
 21
448.4999999999997726
 31
-1.9999999999999949
  0
ARC
  5
B9
  8
MOTOR_RAIL
 10
461.0
 20
-1.999999999999948
 30
0.0
 40
12.5000000000001705
210
1.0
220
0.0
230
0.0
 50
298.8657274150068019
 51
180.000000000000199
  0
ARC
  5
BA
  8
MOTOR_RAIL
 10
468.0000000000001137
 20
-14.6984250992005894
 30
0.0
 40
2.000000000000338
210
1.0
220
0.0
230
0.0
 50
118.8657274150108947
 51
179.9999999999980105
  0
LINE
  5
BB
  8
MOTOR_RAIL
 10
0.0
 20
465.9999999999997726
 30
-14.6984250992005201
 11
0.0
 21
465.9999999999997726
 31
-18.0
  0
ARC
  5
BC
  8
MOTOR_RAIL
 10
463.9999999999997726
 20
-18.0
 30
0.0
 40
2.0
210
1.0
220
0.0
230
0.0
 50
270.0
 51
0.0
  0
LINE
  5
BD
  8
MOTOR_RAIL
 10
0.0
 20
463.9999999999997726
 30
-20.0
 11
0.0
 21
459.9999999999997726
 31
-20.0
  0
LINE
  5
BE
  8
MOTOR_RAIL
 10
0.0
 20
459.9999999999997726
 30
-20.0
 11
-0.0000000000000006
 21
460.0000000000014779
 31
-22.75
  0
LINE
  5
BF
  8
MOTOR_RAIL
 10
-0.0000000000000006
 20
460.0000000000014779
 30
-22.75
 11
-0.0000000000000116
 21
456.4000000000032173
 31
-22.75
  0
LINE
  5
C0
  8
MOTOR_RAIL
 10
-0.0000000000000116
 20
456.4000000000032173
 30
-22.75
 11
-0.0000000000000115
 21
456.4000000000032173
 31
-20.6999999999999886
  0
LINE
  5
C1
  8
MOTOR_RAIL
 10
-0.0000000000000115
 20
456.4000000000032173
 30
-20.6999999999999886
 11
-0.0000000000000112
 21
454.2000000000031719
 31
-20.6999999999999886
  0
LINE
  5
C2
  8
MOTOR_RAIL
 10
-0.0000000000000112
 20
454.2000000000031719
 30
-20.6999999999999886
 11
-0.0000000000000113
 21
454.2000000000031719
 31
-22.75
  0
LINE
  5
C3
  8
MOTOR_RAIL
 10
-0.0000000000000113
 20
454.2000000000031719
 30
-22.75
 11
-0.0000000000000111
 21
452.4000000000031037
 31
-22.75
  0
LINE
  5
C4
  8
MOTOR_RAIL
 10
-0.0000000000000111
 20
452.4000000000031037
 30
-22.75
 11
-0.0000000000000113
 21
452.4000000000031037
 31
-25.25
  0
LINE
  5
C5
  8
MOTOR_RAIL
 10
-0.0000000000000113
 20
452.4000000000031037
 30
-25.25
 11
-0.0000000000000115
 21
454.2000000000031719
 31
-25.25
  0
LINE
  5
C6
  8
MOTOR_RAIL
 10
-0.0000000000000115
 20
454.2000000000031719
 30
-25.25
 11
-0.0000000000000116
 21
454.2000000000031719
 31
-27.3000000000000114
  0
LINE
  5
C7
  8
MOTOR_RAIL
 10
-0.0000000000000116
 20
454.2000000000031719
 30
-27.3000000000000114
 11
-0.0000000000000119
 21
456.4000000000032173
 31
-27.3000000000000114
  0
LINE
  5
C8
  8
MOTOR_RAIL
 10
-0.0000000000000119
 20
456.4000000000032173
 30
-27.3000000000000114
 11
-0.0000000000000118
 21
456.4000000000032173
 31
-25.25
  0
LINE
  5
C9
  8
MOTOR_RAIL
 10
-0.0000000000000118
 20
456.4000000000032173
 30
-25.25
 11
-0.0000000000000031
 21
460.0000000000014779
 31
-25.25
  0
LINE
  5
CA
  8
MOTOR_RAIL
 10
-0.0000000000000031
 20
460.0000000000014779
 30
-25.25
 11
0.0
 21
459.9999999999997726
 31
-28.0
  0
LINE
  5
CB
  8
MOTOR_RAIL
 10
0.0
 20
459.9999999999997726
 30
-28.0
 11
-0.0000000000000028
 21
463.0000000000007958
 31
-28.000000000002931
  0
LINE
  5
CC
  8
MOTOR_RAIL
 10
-0.0000000000000028
 20
463.0000000000007958
 30
-28.000000000002931
 11
-0.0000000000000014
 21
462.9999999999997726
 31
-31.000000000002931
  0
LINE
  5
CD
  8
MOTOR_RAIL
 10
-0.0000000000000014
 20
462.9999999999997726
 30
-31.000000000002931
 11
-0.0000000000000002
 21
423.5000000000288196
 31
-31.0000000000005791
  0
CIRCLE
  5
CE
  8
MOTOR_RAIL
 10
433.9999999999955094
 20
-20.0
 30
0.0
 40
2.5
210
1.0
220
0.0
230
0.0
  0
LINE
  5
128
  8
MOTOR_RAIL
 10
-28.000000000002931
 20
16.75
 30
0.0000000000000014
 11
-24.4000000000029296
 21
16.75
 31
0.0000000000000014
  0
LINE
  5
154
  8
MOTOR_RAIL
 10
-28.000000000002931
 20
19.25
 30
0.0000000000000014
 11
-24.4000000000029296
 21
19.25
 31
0.0000000000000014
  0
LINE
  5
16F
  8
MOTOR_RAIL
 10
-24.4000000000029296
 20
19.25
 30
0.0000000000000014
 11
-24.4000000000029296
 21
21.3000000000000007
 31
0.0000000000000014
  0
LINE
  5
18C
  8
MOTOR_RAIL
 10
-24.4000000000029296
 20
21.3000000000000007
 30
0.0000000000000014
 11
-22.2000000000029303
 21
21.3000000000000007
 31
0.0000000000000014
  0
LINE
  5
18D
  8
MOTOR_RAIL
 10
-22.2000000000029303
 20
21.3000000000000007
 30
0.0000000000000014
 11
-22.2000000000029303
 21
19.25
 31
0.0000000000000014
  0
LINE
  5
1A8
  8
MOTOR_RAIL
 10
-22.2000000000029303
 20
19.25
 30
0.0000000000000014
 11
-20.4000000000029296
 21
19.25
 31
0.0000000000000014
  0
LINE
  5
1A9
  8
MOTOR_RAIL
 10
-20.4000000000029296
 20
19.25
 30
0.0000000000000014
 11
-20.4000000000029296
 21
16.75
 31
0.0000000000000014
  0
LINE
  5
1AA
  8
MOTOR_RAIL
 10
-20.4000000000029296
 20
16.75
 30
0.0000000000000014
 11
-22.2000000000029303
 21
16.75
 31
0.0000000000000014
  0
LINE
  5
1AB
  8
MOTOR_RAIL
 10
-22.2000000000029303
 20
16.75
 30
0.0000000000000014
 11
-22.2000000000029303
 21
14.6999999999999993
 31
0.0000000000000014
  0
LINE
  5
1AC
  8
MOTOR_RAIL
 10
-22.2000000000029303
 20
14.6999999999999993
 30
0.0000000000000014
 11
-24.4000000000029296
 21
14.6999999999999993
 31
0.0000000000000014
  0
LINE
  5
1AD
  8
MOTOR_RAIL
 10
-24.4000000000029296
 20
14.6999999999999993
 30
0.0000000000000014
 11
-24.4000000000029296
 21
16.75
 31
0.0000000000000014
  0
LINE
  5
1AE
  8
MOTOR_RAIL
 10
-28.000000000002931
 20
-2.0
 30
0.0000000000000014
 11
-28.000000000002931
 21
16.75
 31
0.0000000000000014
  0
LINE
  5
1AF
  8
MOTOR_RAIL
 10
-28.000000000002931
 20
19.25
 30
0.0000000000000014
 11
-28.0000000000001705
 21
44.5
 31
0.0
  0
ENDSEC
  0
EOF
