  0
SECTION
  2
HEADER
  9
$ACADVER
  1
AC1018
  9
$ACADMAINTVER
 70
     0
  9
$DWGCODEPAGE
  3
ANSI_1252
  9
$INSBASE
 10
0.0
 20
0.0
 30
0.0
  9
$EXTMIN
 10
-0.0000000000000119
 20
-4.0
 30
-36.00000000000145
  9
$EXTMAX
 10
0.0000000000000017
 20
236.0
 30
3.000000000000001
  9
$LIMMIN
 10
0.0
 20
0.0
  9
$LIMMAX
 10
12.0
 20
9.0
  9
$ORTHOMODE
 70
     0
  9
$REGENMODE
 70
     1
  9
$FILLMODE
 70
     1
  9
$QTEXTMODE
 70
     0
  9
$MIRRTEXT
 70
     1
  9
$LTSCALE
 40
1.0
  9
$ATTMODE
 70
     1
  9
$TEXTSIZE
 40
0.2
  9
$TRACEWID
 40
0.05
  9
$TEXTSTYLE
  7
Standard
  9
$CLAYER
  8
SIDE RAIL MIDDLE
  9
$CELTYPE
  6
ByLayer
  9
$CECOLOR
 62
   256
  9
$CELTSCALE
 40
1.0
  9
$DISPSILH
 70
     0
  9
$DIMSCALE
 40
1.0
  9
$DIMASZ
 40
0.18
  9
$DIMEXO
 40
0.0625
  9
$DIMDLI
 40
0.38
  9
$DIMRND
 40
0.0
  9
$DIMDLE
 40
0.0
  9
$DIMEXE
 40
0.18
  9
$DIMTP
 40
0.0
  9
$DIMTM
 40
0.0
  9
$DIMTXT
 40
0.18
  9
$DIMCEN
 40
0.09
  9
$DIMTSZ
 40
0.0
  9
$DIMTOL
 70
     0
  9
$DIMLIM
 70
     0
  9
$DIMTIH
 70
     1
  9
$DIMTOH
 70
     1
  9
$DIMSE1
 70
     0
  9
$DIMSE2
 70
     0
  9
$DIMTAD
 70
     0
  9
$DIMZIN
 70
     0
  9
$DIMBLK
  1

  9
$DIMASO
 70
     1
  9
$DIMSHO
 70
     1
  9
$DIMPOST
  1

  9
$DIMAPOST
  1

  9
$DIMALT
 70
     0
  9
$DIMALTD
 70
     2
  9
$DIMALTF
 40
25.4
  9
$DIMLFAC
 40
1.0
  9
$DIMTOFL
 70
     0
  9
$DIMTVP
 40
0.0
  9
$DIMTIX
 70
     0
  9
$DIMSOXD
 70
     0
  9
$DIMSAH
 70
     0
  9
$DIMBLK1
  1

  9
$DIMBLK2
  1

  9
$DIMSTYLE
  2
Standard
  9
$DIMCLRD
 70
     0
  9
$DIMCLRE
 70
     0
  9
$DIMCLRT
 70
     0
  9
$DIMTFAC
 40
1.0
  9
$DIMGAP
 40
0.09
  9
$DIMJUST
 70
     0
  9
$DIMSD1
 70
     0
  9
$DIMSD2
 70
     0
  9
$DIMTOLJ
 70
     1
  9
$DIMTZIN
 70
     0
  9
$DIMALTZ
 70
     0
  9
$DIMALTTZ
 70
     0
  9
$DIMUPT
 70
     0
  9
$DIMDEC
 70
     4
  9
$DIMTDEC
 70
     4
  9
$DIMALTU
 70
     2
  9
$DIMALTTD
 70
     2
  9
$DIMTXSTY
  7
Standard
  9
$DIMAUNIT
 70
     0
  9
$DIMADEC
 70
     0
  9
$DIMALTRND
 40
0.0
  9
$DIMAZIN
 70
     0
  9
$DIMDSEP
 70
    46
  9
$DIMATFIT
 70
     3
  9
$DIMFRAC
 70
     0
  9
$DIMLDRBLK
  1

  9
$DIMLUNIT
 70
     2
  9
$DIMLWD
 70
    -2
  9
$DIMLWE
 70
    -2
  9
$DIMTMOVE
 70
     0
  9
$LUNITS
 70
     2
  9
$LUPREC
 70
     3
  9
$SKETCHINC
 40
0.1
  9
$FILLETRAD
 40
0.5
  9
$AUNITS
 70
     0
  9
$AUPREC
 70
     0
  9
$MENU
  1
.
  9
$ELEVATION
 40
0.0
  9
$PELEVATION
 40
0.0
  9
$THICKNESS
 40
0.0
  9
$LIMCHECK
 70
     0
  9
$CHAMFERA
 40
0.5
  9
$CHAMFERB
 40
0.5
  9
$CHAMFERC
 40
1.0
  9
$CHAMFERD
 40
0.0
  9
$SKPOLY
 70
     0
  9
$TDCREATE
 40
2457581.503108484
  9
$TDUCREATE
 40
2457581.711441817
  9
$TDUPDATE
 40
2457581.503108495
  9
$TDUUPDATE
 40
2457581.711441829
  9
$TDINDWG
 40
0.0000000116
  9
$TDUSRTIMER
 40
0.0000000116
  9
$USRTIMER
 70
     1
  9
$ANGBASE
 50
0.0
  9
$ANGDIR
 70
     0
  9
$PDMODE
 70
     0
  9
$PDSIZE
 40
0.0
  9
$PLINEWID
 40
0.0
  9
$SPLFRAME
 70
     0
  9
$SPLINETYPE
 70
     6
  9
$SPLINESEGS
 70
     8
  9
$HANDSEED
  5
11C
  9
$SURFTAB1
 70
     6
  9
$SURFTAB2
 70
     6
  9
$SURFTYPE
 70
     6
  9
$SURFU
 70
     6
  9
$SURFV
 70
     6
  9
$UCSBASE
  2

  9
$UCSNAME
  2

  9
$UCSORG
 10
0.0
 20
0.0
 30
0.0
  9
$UCSXDIR
 10
1.0
 20
0.0
 30
0.0
  9
$UCSYDIR
 10
0.0
 20
1.0
 30
0.0
  9
$UCSORTHOREF
  2

  9
$UCSORTHOVIEW
 70
     0
  9
$UCSORGTOP
 10
0.0
 20
0.0
 30
0.0
  9
$UCSORGBOTTOM
 10
0.0
 20
0.0
 30
0.0
  9
$UCSORGLEFT
 10
0.0
 20
0.0
 30
0.0
  9
$UCSORGRIGHT
 10
0.0
 20
0.0
 30
0.0
  9
$UCSORGFRONT
 10
0.0
 20
0.0
 30
0.0
  9
$UCSORGBACK
 10
0.0
 20
0.0
 30
0.0
  9
$PUCSBASE
  2

  9
$PUCSNAME
  2

  9
$PUCSORG
 10
0.0
 20
0.0
 30
0.0
  9
$PUCSXDIR
 10
1.0
 20
0.0
 30
0.0
  9
$PUCSYDIR
 10
0.0
 20
1.0
 30
0.0
  9
$PUCSORTHOREF
  2

  9
$PUCSORTHOVIEW
 70
     0
  9
$PUCSORGTOP
 10
0.0
 20
0.0
 30
0.0
  9
$PUCSORGBOTTOM
 10
0.0
 20
0.0
 30
0.0
  9
$PUCSORGLEFT
 10
0.0
 20
0.0
 30
0.0
  9
$PUCSORGRIGHT
 10
0.0
 20
0.0
 30
0.0
  9
$PUCSORGFRONT
 10
0.0
 20
0.0
 30
0.0
  9
$PUCSORGBACK
 10
0.0
 20
0.0
 30
0.0
  9
$USERI1
 70
     0
  9
$USERI2
 70
     0
  9
$USERI3
 70
     0
  9
$USERI4
 70
     0
  9
$USERI5
 70
     0
  9
$USERR1
 40
0.0
  9
$USERR2
 40
0.0
  9
$USERR3
 40
0.0
  9
$USERR4
 40
0.0
  9
$USERR5
 40
0.0
  9
$WORLDVIEW
 70
     1
  9
$SHADEDGE
 70
     3
  9
$SHADEDIF
 70
    70
  9
$TILEMODE
 70
     1
  9
$MAXACTVP
 70
    64
  9
$PINSBASE
 10
0.0
 20
0.0
 30
0.0
  9
$PLIMCHECK
 70
     0
  9
$PEXTMIN
 10
1.000000000000000E+20
 20
1.000000000000000E+20
 30
1.000000000000000E+20
  9
$PEXTMAX
 10
-1.000000000000000E+20
 20
-1.000000000000000E+20
 30
-1.000000000000000E+20
  9
$PLIMMIN
 10
0.0
 20
0.0
  9
$PLIMMAX
 10
12.0
 20
9.0
  9
$UNITMODE
 70
     0
  9
$VISRETAIN
 70
     1
  9
$PLINEGEN
 70
     0
  9
$PSLTSCALE
 70
     1
  9
$TREEDEPTH
 70
  3020
  9
$CMLSTYLE
  2
Standard
  9
$CMLJUST
 70
     0
  9
$CMLSCALE
 40
1.0
  9
$PROXYGRAPHICS
 70
     1
  9
$MEASUREMENT
 70
     0
  9
$CELWEIGHT
370
    -1
  9
$ENDCAPS
280
     0
  9
$JOINSTYLE
280
     0
  9
$LWDISPLAY
290
     0
  9
$INSUNITS
 70
     4
  9
$HYPERLINKBASE
  1

  9
$STYLESHEET
  1

  9
$XEDIT
290
     1
  9
$CEPSNTYPE
380
     0
  9
$PSTYLEMODE
290
     1
  9
$FINGERPRINTGUID
  2
{1D2DFBAF-C1C4-455E-9982-FA3A6C1878BE}
  9
$VERSIONGUID
  2
{FAEB1C32-E019-11D5-929B-00C0DF256EC4}
  9
$EXTNAMES
290
     1
  9
$PSVPSCALE
 40
0.0
  9
$OLESTARTUP
290
     0
  9
$SORTENTS
280
   127
  9
$INDEXCTL
280
     0
  9
$HIDETEXT
280
     1
  9
$XCLIPFRAME
290
     0
  9
$HALOGAP
280
     0
  9
$OBSCOLOR
 70
   257
  9
$OBSLTYPE
280
     0
  9
$INTERSECTIONDISPLAY
280
     0
  9
$INTERSECTIONCOLOR
 70
   257
  9
$DIMASSOC
280
     2
  9
$PROJECTNAME
  1

  0
ENDSEC
  0
SECTION
  2
CLASSES
  0
CLASS
  1
ACDBDICTIONARYWDFLT
  2
AcDbDictionaryWithDefault
  3
ObjectDBX Classes
 90
        0
 91
        3
280
     0
281
     0
  0
CLASS
  1
VISUALSTYLE
  2
AcDbVisualStyle
  3
ObjectDBX Classes
 90
     4095
 91
        3
280
     0
281
     0
  0
CLASS
  1
SCALE
  2
AcDbScale
  3
ObjectDBX Classes
 90
     1153
 91
        3
280
     0
281
     0
  0
ENDSEC
  0
SECTION
  2
TABLES
  0
TABLE
  2
VPORT
  5
8
330
0
100
AcDbSymbolTable
 70
     1
  0
VPORT
  5
29
330
8
100
AcDbSymbolTableRecord
100
AcDbViewportTableRecord
  2
*Active
 70
     0
 10
0.0
 20
0.0
 11
1.0
 21
1.0
 12
0.0
 22
0.0
 13
0.0
 23
0.0
 14
0.5
 24
0.5
 15
0.5
 25
0.5
 16
0.0
 26
0.0
 36
1.0
 17
-0.0000000000000051
 27
116.0
 37
0.0
 40
244.8
 41
0.0000000000000001
 42
50.0
 43
0.0
 44
0.0
 50
0.0
 51
0.0
 71
     0
 72
   100
 73
     1
 74
     3
 75
     0
 76
     0
 77
     0
 78
     0
281
     0
 65
     1
110
0.0
120
0.0
130
0.0
111
1.0
121
0.0
131
0.0
112
0.0
122
1.0
132
0.0
 79
     0
146
0.0
  0
ENDTAB
  0
TABLE
  2
LTYPE
  5
5
330
0
100
AcDbSymbolTable
 70
     1
  0
LTYPE
  5
14
330
5
100
AcDbSymbolTableRecord
100
AcDbLinetypeTableRecord
  2
ByBlock
 70
     0
  3

 72
    65
 73
     0
 40
0.0
  0
LTYPE
  5
15
330
5
100
AcDbSymbolTableRecord
100
AcDbLinetypeTableRecord
  2
ByLayer
 70
     0
  3

 72
    65
 73
     0
 40
0.0
  0
LTYPE
  5
16
330
5
100
AcDbSymbolTableRecord
100
AcDbLinetypeTableRecord
  2
Continuous
 70
     0
  3
Solid line
 72
    65
 73
     0
 40
0.0
  0
ENDTAB
  0
TABLE
  2
LAYER
  5
2
330
0
100
AcDbSymbolTable
 70
     2
  0
LAYER
  5
10
330
2
100
AcDbSymbolTableRecord
100
AcDbLayerTableRecord
  2
0
 70
     0
 62
     7
  6
Continuous
370
    -3
390
F
  0
LAYER
  5
5D
330
2
100
AcDbSymbolTableRecord
100
AcDbLayerTableRecord
  2
SIDE RAIL MIDDLE
 70
     0
 62
     1
  6
Continuous
370
    -3
390
F
  0
ENDTAB
  0
TABLE
  2
STYLE
  5
3
330
0
100
AcDbSymbolTable
 70
     1
  0
STYLE
  5
11
330
3
100
AcDbSymbolTableRecord
100
AcDbTextStyleTableRecord
  2
Standard
 70
     0
 40
0.0
 41
1.0
 50
0.0
 71
     0
 42
0.2
  3
txt
  4

  0
ENDTAB
  0
TABLE
  2
VIEW
  5
6
330
0
100
AcDbSymbolTable
 70
     0
  0
ENDTAB
  0
TABLE
  2
UCS
  5
7
330
0
100
AcDbSymbolTable
 70
     0
  0
ENDTAB
  0
TABLE
  2
APPID
  5
9
330
0
100
AcDbSymbolTable
 70
     1
  0
APPID
  5
12
330
9
100
AcDbSymbolTableRecord
100
AcDbRegAppTableRecord
  2
ACAD
 70
     0
  0
ENDTAB
  0
TABLE
  2
DIMSTYLE
  5
A
330
0
100
AcDbSymbolTable
 70
     1
100
AcDbDimStyleTable
  0
DIMSTYLE
105
27
330
A
100
AcDbSymbolTableRecord
100
AcDbDimStyleTableRecord
  2
Standard
 70
     0
340
11
  0
ENDTAB
  0
TABLE
  2
BLOCK_RECORD
  5
1
330
0
100
AcDbSymbolTable
 70
     1
  0
BLOCK_RECORD
  5
1F
330
1
100
AcDbSymbolTableRecord
100
AcDbBlockTableRecord
  2
*Model_Space
340
22
  0
BLOCK_RECORD
  5
1B
330
1
100
AcDbSymbolTableRecord
100
AcDbBlockTableRecord
  2
*Paper_Space
340
1E
  0
BLOCK_RECORD
  5
23
330
1
100
AcDbSymbolTableRecord
100
AcDbBlockTableRecord
  2
*Paper_Space0
340
26
  0
ENDTAB
  0
ENDSEC
  0
SECTION
  2
BLOCKS
  0
BLOCK
  5
20
330
1F
100
AcDbEntity
  8
0
100
AcDbBlockBegin
  2
*Model_Space
 70
     0
 10
0.0
 20
0.0
 30
0.0
  3
*Model_Space
  1

  0
ENDBLK
  5
21
330
1F
100
AcDbEntity
  8
0
100
AcDbBlockEnd
  0
BLOCK
  5
1C
330
1B
100
AcDbEntity
 67
     1
  8
0
100
AcDbBlockBegin
  2
*Paper_Space
 70
     0
 10
0.0
 20
0.0
 30
0.0
  3
*Paper_Space
  1

  0
ENDBLK
  5
1D
330
1B
100
AcDbEntity
 67
     1
  8
0
100
AcDbBlockEnd
  0
BLOCK
  5
24
330
23
100
AcDbEntity
  8
0
100
AcDbBlockBegin
  2
*Paper_Space0
 70
     0
 10
0.0
 20
0.0
 30
0.0
  3
*Paper_Space0
  1

  0
ENDBLK
  5
25
330
23
100
AcDbEntity
  8
0
100
AcDbBlockEnd
  0
ENDSEC
  0
SECTION
  2
ENTITIES
  0
CIRCLE
  5
5E
330
1F
100
AcDbEntity
  8
SIDE RAIL MIDDLE
100
AcDbCircle
 10
234.0
 20
-2.0
 30
0.0
 40
0.95
210
1.0
220
0.0
230
0.0
  0
LINE
  5
5F
330
1F
100
AcDbEntity
  8
SIDE RAIL MIDDLE
100
AcDbLine
 10
0.0
 20
17.25000000000001
 30
-27.99999999999999
 11
0.0
 21
214.75
 31
-28.00000000000122
  0
LINE
  5
60
330
1F
100
AcDbEntity
  8
SIDE RAIL MIDDLE
100
AcDbLine
 10
0.0
 20
214.75
 30
-2.000000000002951
 11
0.0
 21
197.25
 31
-2.000000000000343
  0
LINE
  5
61
330
1F
100
AcDbEntity
  8
SIDE RAIL MIDDLE
100
AcDbLine
 10
0.0
 20
197.25
 30
-2.000000000000343
 11
0.0000000000000004
 21
197.25
 31
-3.800000000000001
  0
LINE
  5
62
330
1F
100
AcDbEntity
  8
SIDE RAIL MIDDLE
100
AcDbLine
 10
0.0000000000000004
 20
197.25
 30
-3.800000000000001
 11
0.0
 21
196.0
 31
-5.600000000000003
  0
LINE
  5
63
330
1F
100
AcDbEntity
  8
SIDE RAIL MIDDLE
100
AcDbLine
 10
0.0
 20
196.0
 30
-5.600000000000003
 11
0.0000000000000004
 21
194.75
 31
-3.800000000000002
  0
LINE
  5
64
330
1F
100
AcDbEntity
  8
SIDE RAIL MIDDLE
100
AcDbLine
 10
0.0000000000000004
 20
194.75
 30
-3.800000000000002
 11
0.0
 21
194.75
 31
-2.000000000000295
  0
LINE
  5
65
330
1F
100
AcDbEntity
  8
SIDE RAIL MIDDLE
100
AcDbLine
 10
0.0
 20
194.75
 30
-2.000000000000295
 11
0.0000000000000001
 21
177.25
 31
-2.0
  0
LINE
  5
66
330
1F
100
AcDbEntity
  8
SIDE RAIL MIDDLE
100
AcDbLine
 10
0.0000000000000001
 20
177.25
 30
-2.0
 11
0.0000000000000014
 21
177.25
 31
-5.600000000000002
  0
LINE
  5
67
330
1F
100
AcDbEntity
  8
SIDE RAIL MIDDLE
100
AcDbLine
 10
0.0000000000000014
 20
177.25
 30
-5.600000000000002
 11
0.0000000000000013
 21
179.3
 31
-5.6
  0
LINE
  5
68
330
1F
100
AcDbEntity
  8
SIDE RAIL MIDDLE
100
AcDbLine
 10
0.0000000000000013
 20
179.3
 30
-5.6
 11
0.0000000000000013
 21
179.3
 31
-7.799999999999999
  0
LINE
  5
69
330
1F
100
AcDbEntity
  8
SIDE RAIL MIDDLE
100
AcDbLine
 10
0.0000000000000013
 20
179.3
 30
-7.799999999999999
 11
0.0000000000000014
 21
177.25
 31
-7.800000000000001
  0
LINE
  5
6A
330
1F
100
AcDbEntity
  8
SIDE RAIL MIDDLE
100
AcDbLine
 10
0.0000000000000014
 20
177.25
 30
-7.800000000000001
 11
0.0000000000000014
 21
177.25
 31
-9.600000000000005
  0
LINE
  5
6B
330
1F
100
AcDbEntity
  8
SIDE RAIL MIDDLE
100
AcDbLine
 10
0.0000000000000014
 20
177.25
 30
-9.600000000000005
 11
0.0000000000000015
 21
174.75
 31
-9.600000000000005
  0
LINE
  5
6C
330
1F
100
AcDbEntity
  8
SIDE RAIL MIDDLE
100
AcDbLine
 10
0.0000000000000015
 20
174.75
 30
-9.600000000000005
 11
0.0000000000000015
 21
174.75
 31
-7.800000000000001
  0
LINE
  5
6D
330
1F
100
AcDbEntity
  8
SIDE RAIL MIDDLE
100
AcDbLine
 10
0.0000000000000015
 20
174.75
 30
-7.800000000000001
 11
0.0000000000000017
 21
172.7
 31
-7.800000000000001
  0
LINE
  5
6E
330
1F
100
AcDbEntity
  8
SIDE RAIL MIDDLE
100
AcDbLine
 10
0.0000000000000017
 20
172.7
 30
-7.800000000000001
 11
0.0000000000000017
 21
172.7
 31
-5.600000000000001
  0
LINE
  5
6F
330
1F
100
AcDbEntity
  8
SIDE RAIL MIDDLE
100
AcDbLine
 10
0.0000000000000017
 20
172.7
 30
-5.600000000000001
 11
0.0000000000000015
 21
174.75
 31
-5.600000000000003
  0
LINE
  5
70
330
1F
100
AcDbEntity
  8
SIDE RAIL MIDDLE
100
AcDbLine
 10
0.0000000000000015
 20
174.75
 30
-5.600000000000003
 11
0.0
 21
174.75
 31
-2.000000000002951
  0
LINE
  5
71
330
1F
100
AcDbEntity
  8
SIDE RAIL MIDDLE
100
AcDbLine
 10
0.0
 20
174.75
 30
-2.000000000002951
 11
0.0
 21
157.25
 31
-2.000000000000343
  0
LINE
  5
72
330
1F
100
AcDbEntity
  8
SIDE RAIL MIDDLE
100
AcDbLine
 10
0.0
 20
157.25
 30
-2.000000000000343
 11
0.0000000000000004
 21
157.25
 31
-3.800000000000001
  0
LINE
  5
73
330
1F
100
AcDbEntity
  8
SIDE RAIL MIDDLE
100
AcDbLine
 10
0.0000000000000004
 20
157.25
 30
-3.800000000000001
 11
0.0
 21
156.0
 31
-5.600000000000003
  0
LINE
  5
74
330
1F
100
AcDbEntity
  8
SIDE RAIL MIDDLE
100
AcDbLine
 10
0.0
 20
156.0
 30
-5.600000000000003
 11
0.0000000000000004
 21
154.75
 31
-3.800000000000002
  0
LINE
  5
75
330
1F
100
AcDbEntity
  8
SIDE RAIL MIDDLE
100
AcDbLine
 10
0.0000000000000004
 20
154.75
 30
-3.800000000000002
 11
0.0
 21
154.75
 31
-2.000000000000295
  0
LINE
  5
76
330
1F
100
AcDbEntity
  8
SIDE RAIL MIDDLE
100
AcDbLine
 10
0.0
 20
154.75
 30
-2.000000000000295
 11
0.0000000000000001
 21
137.25
 31
-2.0
  0
LINE
  5
77
330
1F
100
AcDbEntity
  8
SIDE RAIL MIDDLE
100
AcDbLine
 10
0.0000000000000001
 20
137.25
 30
-2.0
 11
0.0000000000000014
 21
137.25
 31
-5.600000000000002
  0
LINE
  5
78
330
1F
100
AcDbEntity
  8
SIDE RAIL MIDDLE
100
AcDbLine
 10
0.0000000000000014
 20
137.25
 30
-5.600000000000002
 11
0.0000000000000013
 21
139.3
 31
-5.6
  0
LINE
  5
79
330
1F
100
AcDbEntity
  8
SIDE RAIL MIDDLE
100
AcDbLine
 10
0.0000000000000013
 20
139.3
 30
-5.6
 11
0.0000000000000013
 21
139.3
 31
-7.799999999999999
  0
LINE
  5
7A
330
1F
100
AcDbEntity
  8
SIDE RAIL MIDDLE
100
AcDbLine
 10
0.0000000000000013
 20
139.3
 30
-7.799999999999999
 11
0.0000000000000014
 21
137.25
 31
-7.800000000000001
  0
LINE
  5
7B
330
1F
100
AcDbEntity
  8
SIDE RAIL MIDDLE
100
AcDbLine
 10
0.0000000000000014
 20
137.25
 30
-7.800000000000001
 11
0.0000000000000014
 21
137.25
 31
-9.600000000000005
  0
LINE
  5
7C
330
1F
100
AcDbEntity
  8
SIDE RAIL MIDDLE
100
AcDbLine
 10
0.0000000000000014
 20
137.25
 30
-9.600000000000005
 11
0.0000000000000015
 21
134.75
 31
-9.600000000000005
  0
LINE
  5
7D
330
1F
100
AcDbEntity
  8
SIDE RAIL MIDDLE
100
AcDbLine
 10
0.0000000000000015
 20
134.75
 30
-9.600000000000005
 11
0.0000000000000015
 21
134.75
 31
-7.800000000000001
  0
LINE
  5
7E
330
1F
100
AcDbEntity
  8
SIDE RAIL MIDDLE
100
AcDbLine
 10
0.0000000000000015
 20
134.75
 30
-7.800000000000001
 11
0.0000000000000017
 21
132.7
 31
-7.800000000000001
  0
LINE
  5
7F
330
1F
100
AcDbEntity
  8
SIDE RAIL MIDDLE
100
AcDbLine
 10
0.0000000000000017
 20
132.7
 30
-7.800000000000001
 11
0.0000000000000017
 21
132.7
 31
-5.600000000000001
  0
LINE
  5
80
330
1F
100
AcDbEntity
  8
SIDE RAIL MIDDLE
100
AcDbLine
 10
0.0000000000000017
 20
132.7
 30
-5.600000000000001
 11
0.0000000000000015
 21
134.75
 31
-5.600000000000003
  0
LINE
  5
81
330
1F
100
AcDbEntity
  8
SIDE RAIL MIDDLE
100
AcDbLine
 10
0.0000000000000015
 20
134.75
 30
-5.600000000000003
 11
0.0
 21
134.75
 31
-2.000000000002951
  0
LINE
  5
82
330
1F
100
AcDbEntity
  8
SIDE RAIL MIDDLE
100
AcDbLine
 10
0.0
 20
134.75
 30
-2.000000000002951
 11
0.0
 21
117.25
 31
-2.000000000000343
  0
LINE
  5
83
330
1F
100
AcDbEntity
  8
SIDE RAIL MIDDLE
100
AcDbLine
 10
0.0
 20
117.25
 30
-2.000000000000343
 11
0.0000000000000004
 21
117.25
 31
-3.800000000000001
  0
LINE
  5
84
330
1F
100
AcDbEntity
  8
SIDE RAIL MIDDLE
100
AcDbLine
 10
0.0000000000000004
 20
117.25
 30
-3.800000000000001
 11
0.0
 21
116.0
 31
-5.600000000000003
  0
LINE
  5
85
330
1F
100
AcDbEntity
  8
SIDE RAIL MIDDLE
100
AcDbLine
 10
0.0
 20
116.0
 30
-5.600000000000003
 11
0.0000000000000004
 21
114.75
 31
-3.800000000000002
  0
LINE
  5
86
330
1F
100
AcDbEntity
  8
SIDE RAIL MIDDLE
100
AcDbLine
 10
0.0000000000000004
 20
114.75
 30
-3.800000000000002
 11
0.0
 21
114.75
 31
-2.000000000000295
  0
LINE
  5
87
330
1F
100
AcDbEntity
  8
SIDE RAIL MIDDLE
100
AcDbLine
 10
0.0
 20
114.75
 30
-2.000000000000295
 11
0.0000000000000001
 21
97.25
 31
-2.0
  0
LINE
  5
88
330
1F
100
AcDbEntity
  8
SIDE RAIL MIDDLE
100
AcDbLine
 10
0.0000000000000001
 20
97.25
 30
-2.0
 11
0.0000000000000014
 21
97.25
 31
-5.600000000000002
  0
LINE
  5
89
330
1F
100
AcDbEntity
  8
SIDE RAIL MIDDLE
100
AcDbLine
 10
0.0000000000000014
 20
97.25
 30
-5.600000000000002
 11
0.0000000000000013
 21
99.30000000000001
 31
-5.6
  0
LINE
  5
8A
330
1F
100
AcDbEntity
  8
SIDE RAIL MIDDLE
100
AcDbLine
 10
0.0000000000000013
 20
99.30000000000001
 30
-5.6
 11
0.0000000000000013
 21
99.30000000000001
 31
-7.799999999999999
  0
LINE
  5
8B
330
1F
100
AcDbEntity
  8
SIDE RAIL MIDDLE
100
AcDbLine
 10
0.0000000000000013
 20
99.30000000000001
 30
-7.799999999999999
 11
0.0000000000000014
 21
97.25
 31
-7.800000000000001
  0
LINE
  5
8C
330
1F
100
AcDbEntity
  8
SIDE RAIL MIDDLE
100
AcDbLine
 10
0.0000000000000014
 20
97.25
 30
-7.800000000000001
 11
0.0000000000000014
 21
97.25
 31
-9.600000000000005
  0
LINE
  5
8D
330
1F
100
AcDbEntity
  8
SIDE RAIL MIDDLE
100
AcDbLine
 10
0.0000000000000014
 20
97.25
 30
-9.600000000000005
 11
0.0000000000000015
 21
94.75
 31
-9.600000000000005
  0
LINE
  5
8E
330
1F
100
AcDbEntity
  8
SIDE RAIL MIDDLE
100
AcDbLine
 10
0.0000000000000015
 20
94.75
 30
-9.600000000000005
 11
0.0000000000000015
 21
94.75
 31
-7.800000000000001
  0
LINE
  5
8F
330
1F
100
AcDbEntity
  8
SIDE RAIL MIDDLE
100
AcDbLine
 10
0.0000000000000015
 20
94.75
 30
-7.800000000000001
 11
0.0000000000000017
 21
92.69999999999999
 31
-7.800000000000001
  0
LINE
  5
90
330
1F
100
AcDbEntity
  8
SIDE RAIL MIDDLE
100
AcDbLine
 10
0.0000000000000017
 20
92.69999999999999
 30
-7.800000000000001
 11
0.0000000000000017
 21
92.69999999999999
 31
-5.600000000000001
  0
LINE
  5
91
330
1F
100
AcDbEntity
  8
SIDE RAIL MIDDLE
100
AcDbLine
 10
0.0000000000000017
 20
92.69999999999999
 30
-5.600000000000001
 11
0.0000000000000015
 21
94.75
 31
-5.600000000000003
  0
LINE
  5
92
330
1F
100
AcDbEntity
  8
SIDE RAIL MIDDLE
100
AcDbLine
 10
0.0000000000000015
 20
94.75
 30
-5.600000000000003
 11
0.0
 21
94.75
 31
-2.000000000002951
  0
LINE
  5
93
330
1F
100
AcDbEntity
  8
SIDE RAIL MIDDLE
100
AcDbLine
 10
0.0
 20
214.75
 30
-28.00000000000122
 11
0.0000000000000015
 21
214.75
 31
-24.40000000000417
  0
LINE
  5
94
330
1F
100
AcDbEntity
  8
SIDE RAIL MIDDLE
100
AcDbLine
 10
0.0000000000000015
 20
214.75
 30
-24.40000000000417
 11
0.0000000000000017
 21
212.7
 31
-24.40000000000417
  0
LINE
  5
95
330
1F
100
AcDbEntity
  8
SIDE RAIL MIDDLE
100
AcDbLine
 10
0.0000000000000017
 20
212.7
 30
-24.40000000000417
 11
0.0000000000000017
 21
212.7
 31
-22.20000000000417
  0
LINE
  5
96
330
1F
100
AcDbEntity
  8
SIDE RAIL MIDDLE
100
AcDbLine
 10
0.0000000000000017
 20
212.7
 30
-22.20000000000417
 11
0.0000000000000015
 21
214.75
 31
-22.20000000000417
  0
LINE
  5
97
330
1F
100
AcDbEntity
  8
SIDE RAIL MIDDLE
100
AcDbLine
 10
0.0000000000000015
 20
214.75
 30
-22.20000000000417
 11
0.0000000000000015
 21
214.75
 31
-20.40000000000417
  0
LINE
  5
98
330
1F
100
AcDbEntity
  8
SIDE RAIL MIDDLE
100
AcDbLine
 10
0.0000000000000015
 20
214.75
 30
-20.40000000000417
 11
0.0000000000000014
 21
217.25
 31
-20.40000000000417
  0
LINE
  5
99
330
1F
100
AcDbEntity
  8
SIDE RAIL MIDDLE
100
AcDbLine
 10
0.0000000000000014
 20
217.25
 30
-20.40000000000417
 11
0.0000000000000014
 21
217.25
 31
-22.20000000000417
  0
LINE
  5
9A
330
1F
100
AcDbEntity
  8
SIDE RAIL MIDDLE
100
AcDbLine
 10
0.0000000000000014
 20
217.25
 30
-22.20000000000417
 11
0.0000000000000013
 21
219.3
 31
-22.20000000000418
  0
LINE
  5
9B
330
1F
100
AcDbEntity
  8
SIDE RAIL MIDDLE
100
AcDbLine
 10
0.0000000000000013
 20
219.3
 30
-22.20000000000418
 11
0.0000000000000013
 21
219.3
 31
-24.40000000000417
  0
LINE
  5
9C
330
1F
100
AcDbEntity
  8
SIDE RAIL MIDDLE
100
AcDbLine
 10
0.0000000000000013
 20
219.3
 30
-24.40000000000417
 11
0.0000000000000014
 21
217.25
 31
-24.40000000000417
  0
LINE
  5
9D
330
1F
100
AcDbEntity
  8
SIDE RAIL MIDDLE
100
AcDbLine
 10
0.0000000000000014
 20
217.25
 30
-24.40000000000417
 11
0.0000000000000001
 21
217.25
 31
-28.00000000000417
  0
ARC
  5
9E
330
1F
100
AcDbEntity
  8
SIDE RAIL MIDDLE
100
AcDbCircle
 10
234.0
 20
-7.0
 30
0.0
 40
2.0
210
1.0
220
0.0
230
0.0
100
AcDbArc
 50
270.0000000000065
 51
0.0000000000065392
  0
LINE
  5
9F
330
1F
100
AcDbEntity
  8
SIDE RAIL MIDDLE
100
AcDbLine
 10
0.0
 20
236.0
 30
-6.999999999999772
 11
0.0
 21
236.0
 31
-2.0
  0
ARC
  5
A0
330
1F
100
AcDbEntity
  8
SIDE RAIL MIDDLE
100
AcDbCircle
 10
234.0
 20
-1.999999999999999
 30
-0.0000000000003856
 40
2.0
210
1.0
220
-1.634084103381734E-15
230
-2.366582715663035E-30
100
AcDbArc
 50
0.0
 51
90.0
  0
LINE
  5
A1
330
1F
100
AcDbEntity
  8
SIDE RAIL MIDDLE
100
AcDbLine
 10
-0.0000000000000033
 20
234.0
 30
0.0000000000000005
 11
-0.0000000000000089
 21
228.0
 31
0.0000000000000016
  0
LINE
  5
A2
330
1F
100
AcDbEntity
  8
SIDE RAIL MIDDLE
100
AcDbLine
 10
-0.0000000000000089
 20
228.0
 30
0.0000000000000016
 11
-0.0000000000000024
 21
228.0
 31
-1.999999999998201
  0
LINE
  5
A3
330
1F
100
AcDbEntity
  8
SIDE RAIL MIDDLE
100
AcDbLine
 10
-0.0000000000000024
 20
228.0
 30
-1.999999999998201
 11
0.0000000000000002
 21
217.25
 31
-2.0
  0
LINE
  5
A4
330
1F
100
AcDbEntity
  8
SIDE RAIL MIDDLE
100
AcDbLine
 10
0.0000000000000002
 20
217.25
 30
-2.0
 11
0.0000000000000014
 21
217.25
 31
-5.600000000000002
  0
LINE
  5
A5
330
1F
100
AcDbEntity
  8
SIDE RAIL MIDDLE
100
AcDbLine
 10
0.0000000000000014
 20
217.25
 30
-5.600000000000002
 11
0.0000000000000013
 21
219.3
 31
-5.6
  0
LINE
  5
A6
330
1F
100
AcDbEntity
  8
SIDE RAIL MIDDLE
100
AcDbLine
 10
0.0000000000000013
 20
219.3
 30
-5.6
 11
0.0000000000000013
 21
219.3
 31
-7.799999999999999
  0
LINE
  5
A7
330
1F
100
AcDbEntity
  8
SIDE RAIL MIDDLE
100
AcDbLine
 10
0.0000000000000013
 20
219.3
 30
-7.799999999999999
 11
0.0000000000000014
 21
217.25
 31
-7.800000000000001
  0
LINE
  5
A8
330
1F
100
AcDbEntity
  8
SIDE RAIL MIDDLE
100
AcDbLine
 10
0.0000000000000014
 20
217.25
 30
-7.800000000000001
 11
0.0000000000000014
 21
217.25
 31
-9.600000000000005
  0
LINE
  5
A9
330
1F
100
AcDbEntity
  8
SIDE RAIL MIDDLE
100
AcDbLine
 10
0.0000000000000014
 20
217.25
 30
-9.600000000000005
 11
0.0000000000000015
 21
214.75
 31
-9.600000000000005
  0
LINE
  5
AA
330
1F
100
AcDbEntity
  8
SIDE RAIL MIDDLE
100
AcDbLine
 10
0.0000000000000015
 20
214.75
 30
-9.600000000000005
 11
0.0000000000000015
 21
214.75
 31
-7.800000000000001
  0
LINE
  5
AB
330
1F
100
AcDbEntity
  8
SIDE RAIL MIDDLE
100
AcDbLine
 10
0.0000000000000015
 20
214.75
 30
-7.800000000000001
 11
0.0000000000000017
 21
212.7
 31
-7.800000000000001
  0
LINE
  5
AC
330
1F
100
AcDbEntity
  8
SIDE RAIL MIDDLE
100
AcDbLine
 10
0.0000000000000017
 20
212.7
 30
-7.800000000000001
 11
0.0000000000000017
 21
212.7
 31
-5.600000000000001
  0
LINE
  5
AD
330
1F
100
AcDbEntity
  8
SIDE RAIL MIDDLE
100
AcDbLine
 10
0.0000000000000017
 20
212.7
 30
-5.600000000000001
 11
0.0000000000000015
 21
214.75
 31
-5.600000000000003
  0
LINE
  5
AE
330
1F
100
AcDbEntity
  8
SIDE RAIL MIDDLE
100
AcDbLine
 10
0.0000000000000015
 20
214.75
 30
-5.600000000000003
 11
0.0
 21
214.75
 31
-2.000000000002951
  0
LINE
  5
AF
330
1F
100
AcDbEntity
  8
SIDE RAIL MIDDLE
100
AcDbLine
 10
0.0000000000000001
 20
217.25
 30
-28.00000000000417
 11
0.0
 21
224.9999999999983
 31
-28.00000000000145
  0
LINE
  5
B0
330
1F
100
AcDbEntity
  8
SIDE RAIL MIDDLE
100
AcDbLine
 10
0.0
 20
224.9999999999983
 30
-28.00000000000145
 11
0.0
 21
225.0000000000038
 31
-36.00000000000145
  0
LINE
  5
B1
330
1F
100
AcDbEntity
  8
SIDE RAIL MIDDLE
100
AcDbLine
 10
0.0
 20
225.0000000000038
 30
-36.00000000000145
 11
0.0
 21
233.9999999999952
 31
-36.00000000000145
  0
LINE
  5
B2
330
1F
100
AcDbEntity
  8
SIDE RAIL MIDDLE
100
AcDbLine
 10
0.0
 20
233.9999999999952
 30
-36.00000000000145
 11
0.0
 21
234.0
 31
-22.0
  0
LINE
  5
B3
330
1F
100
AcDbEntity
  8
SIDE RAIL MIDDLE
100
AcDbLine
 10
0.0
 20
234.0
 30
-22.0
 11
0.0
 21
231.0000000000018
 31
-22.0
  0
LINE
  5
B4
330
1F
100
AcDbEntity
  8
SIDE RAIL MIDDLE
100
AcDbLine
 10
0.0
 20
231.0000000000018
 30
-22.0
 11
-0.0000000000000008
 21
231.0
 31
-16.25
  0
LINE
  5
B5
330
1F
100
AcDbEntity
  8
SIDE RAIL MIDDLE
100
AcDbLine
 10
-0.0000000000000008
 20
231.0
 30
-16.25
 11
-0.0000000000000118
 21
227.4
 31
-16.25
  0
LINE
  5
B6
330
1F
100
AcDbEntity
  8
SIDE RAIL MIDDLE
100
AcDbLine
 10
-0.0000000000000118
 20
227.4
 30
-16.25
 11
-0.0000000000000119
 21
227.4
 31
-18.30000000000001
  0
LINE
  5
B7
330
1F
100
AcDbEntity
  8
SIDE RAIL MIDDLE
100
AcDbLine
 10
-0.0000000000000119
 20
227.4
 30
-18.30000000000001
 11
-0.0000000000000116
 21
225.2
 31
-18.30000000000001
  0
LINE
  5
B8
330
1F
100
AcDbEntity
  8
SIDE RAIL MIDDLE
100
AcDbLine
 10
-0.0000000000000116
 20
225.2
 30
-18.30000000000001
 11
-0.0000000000000115
 21
225.2
 31
-16.25
  0
LINE
  5
B9
330
1F
100
AcDbEntity
  8
SIDE RAIL MIDDLE
100
AcDbLine
 10
-0.0000000000000115
 20
225.2
 30
-16.25
 11
-0.0000000000000113
 21
223.4
 31
-16.25
  0
LINE
  5
BA
330
1F
100
AcDbEntity
  8
SIDE RAIL MIDDLE
100
AcDbLine
 10
-0.0000000000000113
 20
223.4
 30
-16.25
 11
-0.0000000000000111
 21
223.4
 31
-13.75
  0
LINE
  5
BB
330
1F
100
AcDbEntity
  8
SIDE RAIL MIDDLE
100
AcDbLine
 10
-0.0000000000000111
 20
223.4
 30
-13.75
 11
-0.0000000000000113
 21
225.2
 31
-13.75
  0
LINE
  5
BC
330
1F
100
AcDbEntity
  8
SIDE RAIL MIDDLE
100
AcDbLine
 10
-0.0000000000000113
 20
225.2
 30
-13.75
 11
-0.0000000000000112
 21
225.2
 31
-11.69999999999999
  0
LINE
  5
BD
330
1F
100
AcDbEntity
  8
SIDE RAIL MIDDLE
100
AcDbLine
 10
-0.0000000000000112
 20
225.2
 30
-11.69999999999999
 11
-0.0000000000000115
 21
227.4
 31
-11.69999999999999
  0
LINE
  5
BE
330
1F
100
AcDbEntity
  8
SIDE RAIL MIDDLE
100
AcDbLine
 10
-0.0000000000000115
 20
227.4
 30
-11.69999999999999
 11
-0.0000000000000116
 21
227.4
 31
-13.75
  0
LINE
  5
BF
330
1F
100
AcDbEntity
  8
SIDE RAIL MIDDLE
100
AcDbLine
 10
-0.0000000000000116
 20
227.4
 30
-13.75
 11
-0.0000000000000003
 21
230.9999999999971
 31
-13.75
  0
LINE
  5
C0
330
1F
100
AcDbEntity
  8
SIDE RAIL MIDDLE
100
AcDbLine
 10
-0.0000000000000003
 20
230.9999999999971
 30
-13.75
 11
0.0
 21
231.0
 31
-9.0
  0
LINE
  5
C1
330
1F
100
AcDbEntity
  8
SIDE RAIL MIDDLE
100
AcDbLine
 10
0.0
 20
231.0
 30
-9.0
 11
0.0
 21
234.0000000000002
 31
-9.0
  0
LINE
  5
C2
330
1F
100
AcDbEntity
  8
SIDE RAIL MIDDLE
100
AcDbLine
 10
0.0
 20
-2.0
 30
-9.0
 11
0.0
 21
1.0
 31
-9.0
  0
LINE
  5
C3
330
1F
100
AcDbEntity
  8
SIDE RAIL MIDDLE
100
AcDbLine
 10
0.0
 20
0.9999999999997726
 30
-22.00000000000293
 11
0.0
 21
-2.0
 31
-22.00000000000059
  0
LINE
  5
C4
330
1F
100
AcDbEntity
  8
SIDE RAIL MIDDLE
100
AcDbLine
 10
0.0
 20
-2.0
 30
-36.00000000000009
 11
0.0
 21
7.0
 31
-36.00000000000009
  0
LINE
  5
C5
330
1F
100
AcDbEntity
  8
SIDE RAIL MIDDLE
100
AcDbLine
 10
-0.0000000000000118
 20
4.600000000000023
 30
-16.25
 11
-0.0000000000000015
 21
1.0
 31
-16.25
  0
LINE
  5
C6
330
1F
100
AcDbEntity
  8
SIDE RAIL MIDDLE
100
AcDbLine
 10
-0.0000000000000119
 20
4.600000000000023
 30
-18.30000000000001
 11
-0.0000000000000118
 21
4.600000000000023
 31
-16.25
  0
LINE
  5
C7
330
1F
100
AcDbEntity
  8
SIDE RAIL MIDDLE
100
AcDbLine
 10
-0.0000000000000116
 20
6.800000000000011
 30
-18.30000000000001
 11
-0.0000000000000119
 21
4.600000000000023
 31
-18.30000000000001
  0
LINE
  5
C8
330
1F
100
AcDbEntity
  8
SIDE RAIL MIDDLE
100
AcDbLine
 10
-0.0000000000000115
 20
6.800000000000011
 30
-16.25
 11
-0.0000000000000116
 21
6.800000000000011
 31
-18.30000000000001
  0
LINE
  5
C9
330
1F
100
AcDbEntity
  8
SIDE RAIL MIDDLE
100
AcDbLine
 10
-0.0000000000000113
 20
8.600000000000023
 30
-16.25
 11
-0.0000000000000115
 21
6.800000000000011
 31
-16.25
  0
LINE
  5
CA
330
1F
100
AcDbEntity
  8
SIDE RAIL MIDDLE
100
AcDbLine
 10
-0.0000000000000111
 20
8.600000000000023
 30
-13.75
 11
-0.0000000000000113
 21
8.600000000000023
 31
-16.25
  0
LINE
  5
CB
330
1F
100
AcDbEntity
  8
SIDE RAIL MIDDLE
100
AcDbLine
 10
-0.0000000000000113
 20
6.800000000000011
 30
-13.75
 11
-0.0000000000000111
 21
8.600000000000023
 31
-13.75
  0
LINE
  5
CC
330
1F
100
AcDbEntity
  8
SIDE RAIL MIDDLE
100
AcDbLine
 10
-0.0000000000000112
 20
6.800000000000011
 30
-11.69999999999999
 11
-0.0000000000000113
 21
6.800000000000011
 31
-13.75
  0
LINE
  5
CD
330
1F
100
AcDbEntity
  8
SIDE RAIL MIDDLE
100
AcDbLine
 10
-0.0000000000000115
 20
4.600000000000023
 30
-11.69999999999999
 11
-0.0000000000000112
 21
6.800000000000011
 31
-11.69999999999999
  0
LINE
  5
CE
330
1F
100
AcDbEntity
  8
SIDE RAIL MIDDLE
100
AcDbLine
 10
-0.0000000000000116
 20
4.600000000000023
 30
-13.75
 11
-0.0000000000000115
 21
4.600000000000023
 31
-11.69999999999999
  0
LINE
  5
CF
330
1F
100
AcDbEntity
  8
SIDE RAIL MIDDLE
100
AcDbLine
 10
-0.0000000000000006
 20
1.0
 30
-13.75
 11
-0.0000000000000116
 21
4.600000000000023
 31
-13.75
  0
LINE
  5
D0
330
1F
100
AcDbEntity
  8
SIDE RAIL MIDDLE
100
AcDbLine
 10
0.0
 20
1.0
 30
-9.0
 11
0.0
 21
1.000000000005163
 31
-13.75
  0
LINE
  5
D1
330
1F
100
AcDbEntity
  8
SIDE RAIL MIDDLE
100
AcDbLine
 10
0.0
 20
1.0
 30
-16.25
 11
0.0
 21
0.9999999999997726
 31
-22.00000000000293
  0
LINE
  5
D2
330
1F
100
AcDbEntity
  8
SIDE RAIL MIDDLE
100
AcDbLine
 10
0.0
 20
-2.0
 30
-22.00000000000059
 11
0.0
 21
-2.0
 31
-36.00000000000009
  0
LINE
  5
D3
330
1F
100
AcDbEntity
  8
SIDE RAIL MIDDLE
100
AcDbLine
 10
0.0
 20
7.0
 30
-28.0
 11
0.0
 21
7.0
 31
-36.00000000000009
  0
LINE
  5
D4
330
1F
100
AcDbEntity
  8
SIDE RAIL MIDDLE
100
AcDbLine
 10
0.0
 20
-4.0
 30
-0.9999999999956088
 11
0.0
 21
-4.0
 31
-6.999999999999999
  0
ARC
  5
D5
330
1F
100
AcDbEntity
  8
SIDE RAIL MIDDLE
100
AcDbCircle
 10
0.0000000000000024
 20
-1.000000000000002
 30
0.0
 40
4.000000000000003
210
1.0
220
0.0
230
0.0
100
AcDbArc
 50
89.99999999987435
 51
179.9999999999371
  0
LINE
  5
D6
330
1F
100
AcDbEntity
  8
SIDE RAIL MIDDLE
100
AcDbLine
 10
0.0
 20
7.500000000000004
 30
2.999999999999995
 11
0.0
 21
0.0000000000087755
 31
3.0
  0
ARC
  5
D7
330
1F
100
AcDbEntity
  8
SIDE RAIL MIDDLE
100
AcDbCircle
 10
7.500000000000001
 20
-2.000000000000008
 30
0.0
 40
5.000000000000003
210
1.0
220
4.622231866529370E-34
230
3.957357180320924E-19
100
AcDbArc
 50
0.0000000000000509
 51
89.99999999999997
  0
LINE
  5
D8
330
1F
100
AcDbEntity
  8
SIDE RAIL MIDDLE
100
AcDbLine
 10
0.0
 20
14.75
 30
-2.0
 11
0.0
 21
12.5
 31
-2.000000000000004
  0
LINE
  5
D9
330
1F
100
AcDbEntity
  8
SIDE RAIL MIDDLE
100
AcDbLine
 10
0.0000000000000014
 20
14.75
 30
-5.600000000000002
 11
0.0
 21
14.75
 31
-2.0
  0
LINE
  5
DA
330
1F
100
AcDbEntity
  8
SIDE RAIL MIDDLE
100
AcDbLine
 10
0.0000000000000013
 20
12.69999999999999
 30
-5.6
 11
0.0000000000000014
 21
14.75
 31
-5.600000000000002
  0
LINE
  5
DB
330
1F
100
AcDbEntity
  8
SIDE RAIL MIDDLE
100
AcDbLine
 10
0.0000000000000013
 20
12.69999999999999
 30
-7.799999999999999
 11
0.0000000000000013
 21
12.69999999999999
 31
-5.6
  0
LINE
  5
DC
330
1F
100
AcDbEntity
  8
SIDE RAIL MIDDLE
100
AcDbLine
 10
0.0000000000000014
 20
14.75
 30
-7.800000000000001
 11
0.0000000000000013
 21
12.69999999999999
 31
-7.799999999999999
  0
LINE
  5
DD
330
1F
100
AcDbEntity
  8
SIDE RAIL MIDDLE
100
AcDbLine
 10
0.0000000000000014
 20
14.75
 30
-9.600000000000005
 11
0.0000000000000014
 21
14.75
 31
-7.800000000000001
  0
LINE
  5
DE
330
1F
100
AcDbEntity
  8
SIDE RAIL MIDDLE
100
AcDbLine
 10
0.0000000000000015
 20
17.25
 30
-9.600000000000005
 11
0.0000000000000014
 21
14.75
 31
-9.600000000000005
  0
LINE
  5
DF
330
1F
100
AcDbEntity
  8
SIDE RAIL MIDDLE
100
AcDbLine
 10
0.0000000000000015
 20
17.25
 30
-7.800000000000001
 11
0.0000000000000015
 21
17.25
 31
-9.600000000000005
  0
LINE
  5
E0
330
1F
100
AcDbEntity
  8
SIDE RAIL MIDDLE
100
AcDbLine
 10
0.0000000000000017
 20
19.30000000000001
 30
-7.800000000000001
 11
0.0000000000000015
 21
17.25
 31
-7.800000000000001
  0
LINE
  5
E1
330
1F
100
AcDbEntity
  8
SIDE RAIL MIDDLE
100
AcDbLine
 10
0.0000000000000017
 20
19.30000000000001
 30
-5.600000000000001
 11
0.0000000000000017
 21
19.30000000000001
 31
-7.800000000000001
  0
LINE
  5
E2
330
1F
100
AcDbEntity
  8
SIDE RAIL MIDDLE
100
AcDbLine
 10
0.0000000000000015
 20
17.25
 30
-5.600000000000003
 11
0.0000000000000017
 21
19.30000000000001
 31
-5.600000000000001
  0
LINE
  5
E3
330
1F
100
AcDbEntity
  8
SIDE RAIL MIDDLE
100
AcDbLine
 10
0.0
 20
17.25
 30
-2.0
 11
0.0000000000000015
 21
17.25
 31
-5.600000000000003
  0
LINE
  5
E4
330
1F
100
AcDbEntity
  8
SIDE RAIL MIDDLE
100
AcDbLine
 10
0.0
 20
34.75
 30
-2.000000000000295
 11
0.0
 21
17.25
 31
-2.0
  0
LINE
  5
E5
330
1F
100
AcDbEntity
  8
SIDE RAIL MIDDLE
100
AcDbLine
 10
0.0000000000000004
 20
34.75
 30
-3.800000000000002
 11
0.0
 21
34.75
 31
-2.000000000000295
  0
LINE
  5
E6
330
1F
100
AcDbEntity
  8
SIDE RAIL MIDDLE
100
AcDbLine
 10
0.0
 20
36.0
 30
-5.600000000000003
 11
0.0000000000000004
 21
34.75
 31
-3.800000000000002
  0
LINE
  5
E7
330
1F
100
AcDbEntity
  8
SIDE RAIL MIDDLE
100
AcDbLine
 10
0.0000000000000004
 20
37.25
 30
-3.800000000000001
 11
0.0
 21
36.0
 31
-5.600000000000003
  0
LINE
  5
E8
330
1F
100
AcDbEntity
  8
SIDE RAIL MIDDLE
100
AcDbLine
 10
0.0
 20
37.25
 30
-2.000000000000343
 11
0.0000000000000004
 21
37.25
 31
-3.800000000000001
  0
LINE
  5
E9
330
1F
100
AcDbEntity
  8
SIDE RAIL MIDDLE
100
AcDbLine
 10
0.0
 20
54.75
 30
-2.000000000002951
 11
0.0
 21
37.25
 31
-2.000000000000343
  0
LINE
  5
EA
330
1F
100
AcDbEntity
  8
SIDE RAIL MIDDLE
100
AcDbLine
 10
0.0000000000000015
 20
54.75
 30
-5.600000000000003
 11
0.0
 21
54.75
 31
-2.000000000002951
  0
LINE
  5
EB
330
1F
100
AcDbEntity
  8
SIDE RAIL MIDDLE
100
AcDbLine
 10
0.0000000000000017
 20
52.69999999999999
 30
-5.600000000000001
 11
0.0000000000000015
 21
54.75
 31
-5.600000000000003
  0
LINE
  5
EC
330
1F
100
AcDbEntity
  8
SIDE RAIL MIDDLE
100
AcDbLine
 10
0.0000000000000017
 20
52.69999999999999
 30
-7.800000000000001
 11
0.0000000000000017
 21
52.69999999999999
 31
-5.600000000000001
  0
LINE
  5
ED
330
1F
100
AcDbEntity
  8
SIDE RAIL MIDDLE
100
AcDbLine
 10
0.0000000000000015
 20
54.75
 30
-7.800000000000001
 11
0.0000000000000017
 21
52.69999999999999
 31
-7.800000000000001
  0
LINE
  5
EE
330
1F
100
AcDbEntity
  8
SIDE RAIL MIDDLE
100
AcDbLine
 10
0.0000000000000015
 20
54.75
 30
-9.600000000000005
 11
0.0000000000000015
 21
54.75
 31
-7.800000000000001
  0
LINE
  5
EF
330
1F
100
AcDbEntity
  8
SIDE RAIL MIDDLE
100
AcDbLine
 10
0.0000000000000014
 20
57.25
 30
-9.600000000000005
 11
0.0000000000000015
 21
54.75
 31
-9.600000000000005
  0
LINE
  5
F0
330
1F
100
AcDbEntity
  8
SIDE RAIL MIDDLE
100
AcDbLine
 10
0.0000000000000014
 20
57.25
 30
-7.800000000000001
 11
0.0000000000000014
 21
57.25
 31
-9.600000000000005
  0
LINE
  5
F1
330
1F
100
AcDbEntity
  8
SIDE RAIL MIDDLE
100
AcDbLine
 10
0.0000000000000013
 20
59.30000000000001
 30
-7.799999999999999
 11
0.0000000000000014
 21
57.25
 31
-7.800000000000001
  0
LINE
  5
F2
330
1F
100
AcDbEntity
  8
SIDE RAIL MIDDLE
100
AcDbLine
 10
0.0000000000000013
 20
59.30000000000001
 30
-5.6
 11
0.0000000000000013
 21
59.30000000000001
 31
-7.799999999999999
  0
LINE
  5
F3
330
1F
100
AcDbEntity
  8
SIDE RAIL MIDDLE
100
AcDbLine
 10
0.0000000000000014
 20
57.25
 30
-5.600000000000002
 11
0.0000000000000013
 21
59.30000000000001
 31
-5.6
  0
LINE
  5
F4
330
1F
100
AcDbEntity
  8
SIDE RAIL MIDDLE
100
AcDbLine
 10
0.0000000000000001
 20
57.25
 30
-2.0
 11
0.0000000000000014
 21
57.25
 31
-5.600000000000002
  0
LINE
  5
F5
330
1F
100
AcDbEntity
  8
SIDE RAIL MIDDLE
100
AcDbLine
 10
0.0
 20
74.75
 30
-2.000000000000295
 11
0.0000000000000001
 21
57.25
 31
-2.0
  0
LINE
  5
F6
330
1F
100
AcDbEntity
  8
SIDE RAIL MIDDLE
100
AcDbLine
 10
0.0000000000000004
 20
74.75
 30
-3.800000000000002
 11
0.0
 21
74.75
 31
-2.000000000000295
  0
LINE
  5
F7
330
1F
100
AcDbEntity
  8
SIDE RAIL MIDDLE
100
AcDbLine
 10
0.0
 20
76.0
 30
-5.600000000000003
 11
0.0000000000000004
 21
74.75
 31
-3.800000000000002
  0
LINE
  5
F8
330
1F
100
AcDbEntity
  8
SIDE RAIL MIDDLE
100
AcDbLine
 10
0.0000000000000004
 20
77.25
 30
-3.800000000000001
 11
0.0
 21
76.0
 31
-5.600000000000003
  0
LINE
  5
F9
330
1F
100
AcDbEntity
  8
SIDE RAIL MIDDLE
100
AcDbLine
 10
0.0
 20
77.25
 30
-2.000000000000343
 11
0.0000000000000004
 21
77.25
 31
-3.800000000000001
  0
LINE
  5
FA
330
1F
100
AcDbEntity
  8
SIDE RAIL MIDDLE
100
AcDbLine
 10
0.0
 20
94.75
 30
-2.000000000002951
 11
0.0
 21
77.25
 31
-2.000000000000343
  0
LINE
  5
FB
330
1F
100
AcDbEntity
  8
SIDE RAIL MIDDLE
100
AcDbLine
 10
0.0000000000000015
 20
17.25
 30
-24.4
 11
0.0
 21
17.25
 31
-28.0
  0
LINE
  5
FC
330
1F
100
AcDbEntity
  8
SIDE RAIL MIDDLE
100
AcDbLine
 10
0.0000000000000017
 20
19.30000000000001
 30
-24.4
 11
0.0000000000000015
 21
17.25
 31
-24.4
  0
LINE
  5
FD
330
1F
100
AcDbEntity
  8
SIDE RAIL MIDDLE
100
AcDbLine
 10
0.0000000000000017
 20
19.30000000000001
 30
-22.2
 11
0.0000000000000017
 21
19.30000000000001
 31
-24.4
  0
LINE
  5
FE
330
1F
100
AcDbEntity
  8
SIDE RAIL MIDDLE
100
AcDbLine
 10
0.0000000000000015
 20
17.25
 30
-22.2
 11
0.0000000000000017
 21
19.30000000000001
 31
-22.2
  0
LINE
  5
FF
330
1F
100
AcDbEntity
  8
SIDE RAIL MIDDLE
100
AcDbLine
 10
0.0000000000000015
 20
17.25
 30
-20.4
 11
0.0000000000000015
 21
17.25
 31
-22.2
  0
LINE
  5
100
330
1F
100
AcDbEntity
  8
SIDE RAIL MIDDLE
100
AcDbLine
 10
0.0000000000000014
 20
14.75
 30
-20.4
 11
0.0000000000000015
 21
17.25
 31
-20.4
  0
LINE
  5
101
330
1F
100
AcDbEntity
  8
SIDE RAIL MIDDLE
100
AcDbLine
 10
0.0000000000000014
 20
14.75
 30
-22.2
 11
0.0000000000000014
 21
14.75
 31
-20.4
  0
LINE
  5
102
330
1F
100
AcDbEntity
  8
SIDE RAIL MIDDLE
100
AcDbLine
 10
0.0000000000000013
 20
12.69999999999999
 30
-22.2
 11
0.0000000000000014
 21
14.75
 31
-22.2
  0
LINE
  5
103
330
1F
100
AcDbEntity
  8
SIDE RAIL MIDDLE
100
AcDbLine
 10
0.0000000000000013
 20
12.69999999999999
 30
-24.4
 11
0.0000000000000013
 21
12.69999999999999
 31
-22.2
  0
LINE
  5
104
330
1F
100
AcDbEntity
  8
SIDE RAIL MIDDLE
100
AcDbLine
 10
0.0000000000000014
 20
14.75
 30
-24.4
 11
0.0000000000000013
 21
12.69999999999999
 31
-24.4
  0
LINE
  5
105
330
1F
100
AcDbEntity
  8
SIDE RAIL MIDDLE
100
AcDbLine
 10
0.0
 20
14.75
 30
-28.0
 11
0.0000000000000014
 21
14.75
 31
-24.4
  0
LINE
  5
106
330
1F
100
AcDbEntity
  8
SIDE RAIL MIDDLE
100
AcDbLine
 10
0.0
 20
7.0
 30
-28.0
 11
0.0
 21
14.75
 31
-28.0
  0
LINE
  5
107
330
1F
100
AcDbEntity
  8
SIDE RAIL MIDDLE
100
AcDbLine
 10
0.0
 20
-2.0
 30
-9.0
 11
0.0
 21
1.0
 31
-9.0
  0
ARC
  5
108
330
1F
100
AcDbEntity
  8
SIDE RAIL MIDDLE
100
AcDbCircle
 10
-1.999999999999998
 20
-6.999999999999998
 30
0.0
 40
2.000000000000001
210
1.0
220
0.0
230
0.0
100
AcDbArc
 50
180.0000000000001
 51
269.9999999999999
  0
CIRCLE
  5
109
330
1F
100
AcDbEntity
  8
SIDE RAIL MIDDLE
100
AcDbCircle
 10
0.0
 20
-1.0
 30
0.0
 40
2.25
210
1.0
220
0.0
230
0.0
  0
POLYLINE
  5
10A
330
1F
100
AcDbEntity
  8
SIDE RAIL MIDDLE
100
AcDb2dPolyline
 66
     1
 10
0.0
 20
0.0
 30
0.0
210
1.0
220
0.0
230
0.0
  0
VERTEX
  5
10C
330
10A
100
AcDbEntity
  8
SIDE RAIL MIDDLE
100
AcDbVertex
100
AcDb2dVertex
 10
37.0
 20
-13.0
 30
0.0
  0
VERTEX
  5
10D
330
10A
100
AcDbEntity
  8
SIDE RAIL MIDDLE
100
AcDbVertex
100
AcDb2dVertex
 10
43.0
 20
-13.0
 30
0.0
  0
VERTEX
  5
10E
330
10A
100
AcDbEntity
  8
SIDE RAIL MIDDLE
100
AcDbVertex
100
AcDb2dVertex
 10
43.0
 20
-7.0
 30
0.0
  0
VERTEX
  5
10F
330
10A
100
AcDbEntity
  8
SIDE RAIL MIDDLE
100
AcDbVertex
100
AcDb2dVertex
 10
37.0
 20
-7.0
 30
0.0
  0
VERTEX
  5
110
330
10A
100
AcDbEntity
  8
SIDE RAIL MIDDLE
100
AcDbVertex
100
AcDb2dVertex
 10
37.0
 20
-13.0
 30
0.0
  0
SEQEND
  5
10B
330
10A
100
AcDbEntity
  8
SIDE RAIL MIDDLE
  0
CIRCLE
  5
111
330
1F
100
AcDbEntity
  8
SIDE RAIL MIDDLE
100
AcDbCircle
 10
49.0
 20
-10.0
 30
0.0
 40
1.35
210
1.0
220
0.0
230
0.0
  0
CIRCLE
  5
112
330
1F
100
AcDbEntity
  8
SIDE RAIL MIDDLE
100
AcDbCircle
 10
7.0
 20
0.6
 30
0.0
 40
0.5
210
1.0
220
0.0
230
0.0
  0
POLYLINE
  5
113
330
1F
100
AcDbEntity
  8
SIDE RAIL MIDDLE
100
AcDb2dPolyline
 66
     1
 10
0.0
 20
0.0
 30
0.0
210
1.0
220
0.0
230
0.0
  0
VERTEX
  5
115
330
113
100
AcDbEntity
  8
SIDE RAIL MIDDLE
100
AcDbVertex
100
AcDb2dVertex
 10
65.0
 20
-13.0
 30
0.0
  0
VERTEX
  5
116
330
113
100
AcDbEntity
  8
SIDE RAIL MIDDLE
100
AcDbVertex
100
AcDb2dVertex
 10
71.0
 20
-13.0
 30
0.0
  0
VERTEX
  5
117
330
113
100
AcDbEntity
  8
SIDE RAIL MIDDLE
100
AcDbVertex
100
AcDb2dVertex
 10
71.0
 20
-7.0
 30
0.0
  0
VERTEX
  5
118
330
113
100
AcDbEntity
  8
SIDE RAIL MIDDLE
100
AcDbVertex
100
AcDb2dVertex
 10
65.0
 20
-7.0
 30
0.0
  0
VERTEX
  5
119
330
113
100
AcDbEntity
  8
SIDE RAIL MIDDLE
100
AcDbVertex
100
AcDb2dVertex
 10
65.0
 20
-13.0
 30
0.0
  0
SEQEND
  5
114
330
113
100
AcDbEntity
  8
SIDE RAIL MIDDLE
  0
ENDSEC
  0
SECTION
  2
OBJECTS
  0
DICTIONARY
  5
C
330
0
100
AcDbDictionary
281
     1
  3
ACAD_GROUP
350
D
  3
ACAD_LAYOUT
350
1A
  3
ACAD_MLEADERSTYLE
350
11B
  3
ACAD_MLINESTYLE
350
17
  3
ACAD_PLOTSETTINGS
350
19
  3
ACAD_PLOTSTYLENAME
350
E
  3
ACAD_SCALELIST
350
3B
  3
ACAD_TABLESTYLE
350
11A
  3
ACAD_VISUALSTYLE
350
2A
  0
DICTIONARY
  5
D
102
{ACAD_REACTORS
330
C
102
}
330
C
100
AcDbDictionary
281
     1
  0
DICTIONARY
  5
1A
102
{ACAD_REACTORS
330
C
102
}
330
C
100
AcDbDictionary
281
     1
  3
Layout1
350
1E
  3
Layout2
350
26
  3
Model
350
22
  0
DICTIONARY
  5
11B
102
{ACAD_REACTORS
330
C
102
}
330
C
100
AcDbDictionary
281
     1
  0
DICTIONARY
  5
17
102
{ACAD_REACTORS
330
C
102
}
330
C
100
AcDbDictionary
281
     1
  3
Standard
350
18
  0
DICTIONARY
  5
19
102
{ACAD_REACTORS
330
C
102
}
330
C
100
AcDbDictionary
281
     1
  0
ACDBDICTIONARYWDFLT
  5
E
102
{ACAD_REACTORS
330
C
102
}
330
C
100
AcDbDictionary
281
     1
  3
Normal
350
F
100
AcDbDictionaryWithDefault
340
F
  0
DICTIONARY
  5
3B
102
{ACAD_REACTORS
330
C
102
}
330
C
100
AcDbDictionary
281
     1
  3
A0
350
3C
  3
A1
350
3D
  3
A2
350
3E
  3
A3
350
3F
  3
A4
350
40
  3
A5
350
41
  3
A6
350
42
  3
A7
350
43
  3
A8
350
44
  3
A9
350
45
  3
B0
350
46
  3
B1
350
47
  3
B2
350
48
  3
B3
350
49
  3
B4
350
4A
  3
B5
350
4B
  3
B6
350
4C
  3
B7
350
4D
  3
B8
350
4E
  3
B9
350
4F
  3
C0
350
50
  3
C1
350
51
  3
C2
350
52
  3
C3
350
53
  3
C4
350
54
  3
C5
350
55
  3
C6
350
56
  3
C7
350
57
  3
C8
350
58
  3
C9
350
59
  3
D0
350
5A
  3
D1
350
5B
  3
D2
350
5C
  0
DICTIONARY
  5
11A
102
{ACAD_REACTORS
330
C
102
}
330
C
100
AcDbDictionary
281
     1
  0
DICTIONARY
  5
2A
102
{ACAD_REACTORS
330
C
102
}
330
C
100
AcDbDictionary
281
     1
  3
2dWireframe
350
2F
  3
3D Hidden
350
31
  3
3dWireframe
350
30
  3
Basic
350
32
  3
Brighten
350
36
  3
ColorChange
350
3A
  3
Conceptual
350
34
  3
Dim
350
35
  3
Facepattern
350
39
  3
Flat
350
2B
  3
FlatWithEdges
350
2C
  3
Gouraud
350
2D
  3
GouraudWithEdges
350
2E
  3
Linepattern
350
38
  3
Realistic
350
33
  3
Thicken
350
37
  0
LAYOUT
  5
1E
102
{ACAD_REACTORS
330
1A
102
}
330
1A
100
AcDbPlotSettings
  1

  2
none_device
  4

  6

 40
0.0
 41
0.0
 42
0.0
 43
0.0
 44
0.0
 45
0.0
 46
0.0
 47
0.0
 48
0.0
 49
0.0
140
0.0
141
0.0
142
1.0
143
1.0
 70
   688
 72
     0
 73
     0
 74
     5
  7

 75
    16
 76
     0
 77
     2
 78
   300
147
1.0
148
0.0
149
0.0
100
AcDbLayout
  1
Layout1
 70
     1
 71
     1
 10
0.0
 20
0.0
 11
12.0
 21
9.0
 12
0.0
 22
0.0
 32
0.0
 14
1.000000000000000E+20
 24
1.000000000000000E+20
 34
1.000000000000000E+20
 15
-1.000000000000000E+20
 25
-1.000000000000000E+20
 35
-1.000000000000000E+20
146
0.0
 13
0.0
 23
0.0
 33
0.0
 16
1.0
 26
0.0
 36
0.0
 17
0.0
 27
1.0
 37
0.0
 76
     0
330
1B
  0
LAYOUT
  5
26
102
{ACAD_REACTORS
330
1A
102
}
330
1A
100
AcDbPlotSettings
  1

  2
none_device
  4

  6

 40
0.0
 41
0.0
 42
0.0
 43
0.0
 44
0.0
 45
0.0
 46
0.0
 47
0.0
 48
0.0
 49
0.0
140
0.0
141
0.0
142
1.0
143
1.0
 70
   688
 72
     0
 73
     0
 74
     5
  7

 75
    16
 76
     0
 77
     2
 78
   300
147
1.0
148
0.0
149
0.0
100
AcDbLayout
  1
Layout2
 70
     1
 71
     2
 10
0.0
 20
0.0
 11
0.0
 21
0.0
 12
0.0
 22
0.0
 32
0.0
 14
0.0
 24
0.0
 34
0.0
 15
0.0
 25
0.0
 35
0.0
146
0.0
 13
0.0
 23
0.0
 33
0.0
 16
1.0
 26
0.0
 36
0.0
 17
0.0
 27
1.0
 37
0.0
 76
     0
330
23
  0
LAYOUT
  5
22
102
{ACAD_REACTORS
330
1A
102
}
330
1A
100
AcDbPlotSettings
  1

  2
none_device
  4

  6

 40
0.0
 41
0.0
 42
0.0
 43
0.0
 44
0.0
 45
0.0
 46
0.0
 47
0.0
 48
0.0
 49
0.0
140
0.0
141
0.0
142
1.0
143
1.0
 70
  1712
 72
     0
 73
     0
 74
     0
  7

 75
     0
 76
     0
 77
     2
 78
   300
147
1.0
148
0.0
149
0.0
100
AcDbLayout
  1
Model
 70
     1
 71
     0
 10
0.0
 20
0.0
 11
12.0
 21
9.0
 12
0.0
 22
0.0
 32
0.0
 14
-0.0000000000000119
 24
-4.0
 34
-36.00000000000145
 15
0.0000000000000017
 25
236.0
 35
3.000000000000001
146
0.0
 13
0.0
 23
0.0
 33
0.0
 16
1.0
 26
0.0
 36
0.0
 17
0.0
 27
1.0
 37
0.0
 76
     0
330
1F
331
29
  0
MLINESTYLE
  5
18
102
{ACAD_REACTORS
330
17
102
}
330
17
100
AcDbMlineStyle
  2
Standard
 70
     0
  3

 62
   256
 51
90.0
 52
90.0
 71
     2
 49
0.5
 62
   256
  6
BYLAYER
 49
-0.5
 62
   256
  6
BYLAYER
  0
ACDBPLACEHOLDER
  5
F
102
{ACAD_REACTORS
330
E
102
}
330
E
  0
SCALE
  5
3C
102
{ACAD_REACTORS
330
3B
102
}
330
3B
100
AcDbScale
 70
     0
300
1:1
140
1.0
141
1.0
290
     1
  0
SCALE
  5
3D
102
{ACAD_REACTORS
330
3B
102
}
330
3B
100
AcDbScale
 70
     0
300
1:2
140
1.0
141
2.0
290
     0
  0
SCALE
  5
3E
102
{ACAD_REACTORS
330
3B
102
}
330
3B
100
AcDbScale
 70
     0
300
1:4
140
1.0
141
4.0
290
     0
  0
SCALE
  5
3F
102
{ACAD_REACTORS
330
3B
102
}
330
3B
100
AcDbScale
 70
     0
300
1:5
140
1.0
141
5.0
290
     0
  0
SCALE
  5
40
102
{ACAD_REACTORS
330
3B
102
}
330
3B
100
AcDbScale
 70
     0
300
1:8
140
1.0
141
8.0
290
     0
  0
SCALE
  5
41
102
{ACAD_REACTORS
330
3B
102
}
330
3B
100
AcDbScale
 70
     0
300
1:10
140
1.0
141
10.0
290
     0
  0
SCALE
  5
42
102
{ACAD_REACTORS
330
3B
102
}
330
3B
100
AcDbScale
 70
     0
300
1:16
140
1.0
141
16.0
290
     0
  0
SCALE
  5
43
102
{ACAD_REACTORS
330
3B
102
}
330
3B
100
AcDbScale
 70
     0
300
1:20
140
1.0
141
20.0
290
     0
  0
SCALE
  5
44
102
{ACAD_REACTORS
330
3B
102
}
330
3B
100
AcDbScale
 70
     0
300
1:30
140
1.0
141
30.0
290
     0
  0
SCALE
  5
45
102
{ACAD_REACTORS
330
3B
102
}
330
3B
100
AcDbScale
 70
     0
300
1:40
140
1.0
141
40.0
290
     0
  0
SCALE
  5
46
102
{ACAD_REACTORS
330
3B
102
}
330
3B
100
AcDbScale
 70
     0
300
1:50
140
1.0
141
50.0
290
     0
  0
SCALE
  5
47
102
{ACAD_REACTORS
330
3B
102
}
330
3B
100
AcDbScale
 70
     0
300
1:100
140
1.0
141
100.0
290
     0
  0
SCALE
  5
48
102
{ACAD_REACTORS
330
3B
102
}
330
3B
100
AcDbScale
 70
     0
300
2:1
140
2.0
141
1.0
290
     0
  0
SCALE
  5
49
102
{ACAD_REACTORS
330
3B
102
}
330
3B
100
AcDbScale
 70
     0
300
4:1
140
4.0
141
1.0
290
     0
  0
SCALE
  5
4A
102
{ACAD_REACTORS
330
3B
102
}
330
3B
100
AcDbScale
 70
     0
300
8:1
140
8.0
141
1.0
290
     0
  0
SCALE
  5
4B
102
{ACAD_REACTORS
330
3B
102
}
330
3B
100
AcDbScale
 70
     0
300
10:1
140
10.0
141
1.0
290
     0
  0
SCALE
  5
4C
102
{ACAD_REACTORS
330
3B
102
}
330
3B
100
AcDbScale
 70
     0
300
100:1
140
100.0
141
1.0
290
     0
  0
SCALE
  5
4D
102
{ACAD_REACTORS
330
3B
102
}
330
3B
100
AcDbScale
 70
     0
300
1/128" = 1'-0"
140
0.0078125
141
12.0
290
     0
  0
SCALE
  5
4E
102
{ACAD_REACTORS
330
3B
102
}
330
3B
100
AcDbScale
 70
     0
300
1/64" = 1'-0"
140
0.015625
141
12.0
290
     0
  0
SCALE
  5
4F
102
{ACAD_REACTORS
330
3B
102
}
330
3B
100
AcDbScale
 70
     0
300
1/32" = 1'-0"
140
0.03125
141
12.0
290
     0
  0
SCALE
  5
50
102
{ACAD_REACTORS
330
3B
102
}
330
3B
100
AcDbScale
 70
     0
300
1/16" = 1'-0"
140
0.0625
141
12.0
290
     0
  0
SCALE
  5
51
102
{ACAD_REACTORS
330
3B
102
}
330
3B
100
AcDbScale
 70
     0
300
3/32" = 1'-0"
140
0.09375
141
12.0
290
     0
  0
SCALE
  5
52
102
{ACAD_REACTORS
330
3B
102
}
330
3B
100
AcDbScale
 70
     0
300
1/8" = 1'-0"
140
0.125
141
12.0
290
     0
  0
SCALE
  5
53
102
{ACAD_REACTORS
330
3B
102
}
330
3B
100
AcDbScale
 70
     0
300
3/16" = 1'-0"
140
0.1875
141
12.0
290
     0
  0
SCALE
  5
54
102
{ACAD_REACTORS
330
3B
102
}
330
3B
100
AcDbScale
 70
     0
300
1/4" = 1'-0"
140
0.25
141
12.0
290
     0
  0
SCALE
  5
55
102
{ACAD_REACTORS
330
3B
102
}
330
3B
100
AcDbScale
 70
     0
300
3/8" = 1'-0"
140
0.375
141
12.0
290
     0
  0
SCALE
  5
56
102
{ACAD_REACTORS
330
3B
102
}
330
3B
100
AcDbScale
 70
     0
300
1/2" = 1'-0"
140
0.5
141
12.0
290
     0
  0
SCALE
  5
57
102
{ACAD_REACTORS
330
3B
102
}
330
3B
100
AcDbScale
 70
     0
300
3/4" = 1'-0"
140
0.75
141
12.0
290
     0
  0
SCALE
  5
58
102
{ACAD_REACTORS
330
3B
102
}
330
3B
100
AcDbScale
 70
     0
300
1" = 1'-0"
140
1.0
141
12.0
290
     0
  0
SCALE
  5
59
102
{ACAD_REACTORS
330
3B
102
}
330
3B
100
AcDbScale
 70
     0
300
1-1/2" = 1'-0"
140
1.5
141
12.0
290
     0
  0
SCALE
  5
5A
102
{ACAD_REACTORS
330
3B
102
}
330
3B
100
AcDbScale
 70
     0
300
3" = 1'-0"
140
3.0
141
12.0
290
     0
  0
SCALE
  5
5B
102
{ACAD_REACTORS
330
3B
102
}
330
3B
100
AcDbScale
 70
     0
300
6" = 1'-0"
140
6.0
141
12.0
290
     0
  0
SCALE
  5
5C
102
{ACAD_REACTORS
330
3B
102
}
330
3B
100
AcDbScale
 70
     0
300
1'-0" = 1'-0"
140
12.0
141
12.0
290
     0
  0
VISUALSTYLE
  5
2F
102
{ACAD_REACTORS
330
2A
102
}
330
2A
100
AcDbVisualStyle
  2
2dWireframe
 70
     4
 71
     0
 72
     2
 73
     0
 90
        0
 40
-0.6
 41
-30.0
 62
     5
 63
     7
421
 16777215
 74
     1
 91
        4
 64
     7
 65
   257
 75
     1
175
     1
 42
1.0
 92
        0
 66
   257
 43
1.0
 76
     1
 77
     6
 78
     2
 67
     7
 79
     5
170
     0
171
     0
290
     0
174
     0
 93
        1
 44
0.0
173
     0
291
     0
 45
0.0
1001
ACAD
1000
AcDbSavedByObjectVersion
1070
     0
  0
VISUALSTYLE
  5
31
102
{ACAD_REACTORS
330
2A
102
}
330
2A
100
AcDbVisualStyle
  2
3D Hidden
 70
     6
 71
     1
 72
     2
 73
     2
 90
        0
 40
-0.6
 41
-30.0
 62
     5
 63
     7
421
 16777215
 74
     2
 91
        2
 64
     7
 65
   257
 75
     2
175
     1
 42
40.0
 92
        0
 66
   257
 43
1.0
 76
     1
 77
     6
 78
     2
 67
     7
 79
     3
170
     0
171
     0
290
     0
174
     0
 93
        1
 44
0.0
173
     0
291
     0
 45
0.0
1001
ACAD
1000
AcDbSavedByObjectVersion
1070
     0
  0
VISUALSTYLE
  5
30
102
{ACAD_REACTORS
330
2A
102
}
330
2A
100
AcDbVisualStyle
  2
3dWireframe
 70
     5
 71
     0
 72
     2
 73
     0
 90
        0
 40
-0.6
 41
-30.0
 62
     5
 63
     7
421
 16777215
 74
     1
 91
        4
 64
     7
 65
   257
 75
     1
175
     1
 42
1.0
 92
        0
 66
   257
 43
1.0
 76
     1
 77
     6
 78
     2
 67
     7
 79
     5
170
     0
171
     0
290
     0
174
     0
 93
        1
 44
0.0
173
     0
291
     0
 45
0.0
1001
ACAD
1000
AcDbSavedByObjectVersion
1070
     0
  0
VISUALSTYLE
  5
32
102
{ACAD_REACTORS
330
2A
102
}
330
2A
100
AcDbVisualStyle
  2
Basic
 70
     7
 71
     1
 72
     0
 73
     1
 90
        0
 40
-0.6
 41
-30.0
 62
     5
 63
     7
421
 16777215
 74
     0
 91
        4
 64
     7
 65
   257
 75
     1
175
     1
 42
1.0
 92
        8
 66
     7
 43
1.0
 76
     1
 77
     6
 78
     2
 67
     7
 79
     5
170
     0
171
     0
290
     0
174
     0
 93
        1
 44
0.0
173
     0
291
     1
 45
0.0
1001
ACAD
1000
AcDbSavedByObjectVersion
1070
     0
  0
VISUALSTYLE
  5
36
102
{ACAD_REACTORS
330
2A
102
}
330
2A
100
AcDbVisualStyle
  2
Brighten
 70
    12
 71
     2
 72
     2
 73
     0
 90
        0
 40
-0.6
 41
-30.0
 62
     5
 63
     7
421
 16777215
 74
     1
 91
        4
 64
     7
 65
   257
 75
     1
175
     1
 42
1.0
 92
        8
 66
     7
 43
1.0
 76
     1
 77
     6
 78
     2
 67
     7
 79
     5
170
     0
171
     0
290
     0
174
     0
 93
        1
 44
50.0
173
     0
291
     1
 45
0.0
1001
ACAD
1000
AcDbSavedByObjectVersion
1070
     0
  0
VISUALSTYLE
  5
3A
102
{ACAD_REACTORS
330
2A
102
}
330
2A
100
AcDbVisualStyle
  2
ColorChange
 70
    16
 71
     2
 72
     2
 73
     3
 90
        0
 40
-0.6
 41
-30.0
 62
     5
 63
     8
421
  8421504
 74
     1
 91
        4
 64
     7
 65
   257
 75
     1
175
     1
 42
1.0
 92
        8
 66
     8
424
  8421504
 43
1.0
 76
     1
 77
     6
 78
     2
 67
     7
 79
     5
170
     0
171
     0
290
     0
174
     0
 93
        1
 44
0.0
173
     0
291
     1
 45
0.0
1001
ACAD
1000
AcDbSavedByObjectVersion
1070
     0
  0
VISUALSTYLE
  5
34
102
{ACAD_REACTORS
330
2A
102
}
330
2A
100
AcDbVisualStyle
  2
Conceptual
 70
     9
 71
     3
 72
     2
 73
     0
 90
        0
 40
-0.6
 41
-30.0
 62
     5
 63
     7
421
 16777215
 74
     2
 91
        2
 64
     7
 65
   257
 75
     1
175
     1
 42
40.0
 92
        8
 66
     7
 43
1.0
 76
     1
 77
     6
 78
     2
 67
     7
 79
     3
170
     0
171
     0
290
     0
174
     0
 93
        1
 44
0.0
173
     0
291
     0
 45
0.0
1001
ACAD
1000
AcDbSavedByObjectVersion
1070
     0
  0
VISUALSTYLE
  5
35
102
{ACAD_REACTORS
330
2A
102
}
330
2A
100
AcDbVisualStyle
  2
Dim
 70
    11
 71
     2
 72
     2
 73
     0
 90
        0
 40
-0.6
 41
-30.0
 62
     5
 63
     7
421
 16777215
 74
     1
 91
        4
 64
     7
 65
   257
 75
     1
175
     1
 42
1.0
 92
        8
 66
     7
 43
1.0
 76
     1
 77
     6
 78
     2
 67
     7
 79
     5
170
     0
171
     0
290
     0
174
     0
 93
        1
 44
-50.0
173
     0
291
     1
 45
0.0
1001
ACAD
1000
AcDbSavedByObjectVersion
1070
     0
  0
VISUALSTYLE
  5
39
102
{ACAD_REACTORS
330
2A
102
}
330
2A
100
AcDbVisualStyle
  2
Facepattern
 70
    15
 71
     2
 72
     2
 73
     0
 90
        0
 40
-0.6
 41
-30.0
 62
     5
 63
     7
421
 16777215
 74
     1
 91
        4
 64
     7
 65
   257
 75
     1
175
     1
 42
1.0
 92
        8
 66
     7
 43
1.0
 76
     1
 77
     6
 78
     2
 67
     7
 79
     5
170
     0
171
     0
290
     0
174
     0
 93
        1
 44
0.0
173
     0
291
     1
 45
0.0
1001
ACAD
1000
AcDbSavedByObjectVersion
1070
     0
  0
VISUALSTYLE
  5
2B
102
{ACAD_REACTORS
330
2A
102
}
330
2A
100
AcDbVisualStyle
  2
Flat
 70
     0
 71
     2
 72
     1
 73
     1
 90
        2
 40
-0.6
 41
30.0
 62
     5
 63
     7
421
 16777215
 74
     0
 91
        4
 64
     7
 65
   257
 75
     1
175
     1
 42
1.0
 92
        8
 66
     7
 43
1.0
 76
     1
 77
     6
 78
     2
 67
     7
 79
     5
170
     0
171
     0
290
     0
174
     0
 93
       13
 44
0.0
173
     0
291
     1
 45
0.0
1001
ACAD
1000
AcDbSavedByObjectVersion
1070
     0
  0
VISUALSTYLE
  5
2C
102
{ACAD_REACTORS
330
2A
102
}
330
2A
100
AcDbVisualStyle
  2
FlatWithEdges
 70
     1
 71
     2
 72
     1
 73
     1
 90
        2
 40
-0.6
 41
30.0
 62
     5
 63
     7
421
 16777215
 74
     1
 91
        4
 64
     7
 65
   257
 75
     1
175
     1
 42
1.0
 92
        0
 66
   257
 43
1.0
 76
     1
 77
     6
 78
     2
 67
     7
 79
     5
170
     0
171
     0
290
     0
174
     0
 93
       13
 44
0.0
173
     0
291
     1
 45
0.0
1001
ACAD
1000
AcDbSavedByObjectVersion
1070
     0
  0
VISUALSTYLE
  5
2D
102
{ACAD_REACTORS
330
2A
102
}
330
2A
100
AcDbVisualStyle
  2
Gouraud
 70
     2
 71
     2
 72
     2
 73
     1
 90
        2
 40
-0.6
 41
30.0
 62
     5
 63
     7
421
 16777215
 74
     0
 91
        4
 64
     7
 65
   257
 75
     1
175
     1
 42
1.0
 92
        0
 66
     7
 43
1.0
 76
     1
 77
     6
 78
     2
 67
     7
 79
     5
170
     0
171
     0
290
     0
174
     0
 93
       13
 44
0.0
173
     0
291
     1
 45
0.0
1001
ACAD
1000
AcDbSavedByObjectVersion
1070
     0
  0
VISUALSTYLE
  5
2E
102
{ACAD_REACTORS
330
2A
102
}
330
2A
100
AcDbVisualStyle
  2
GouraudWithEdges
 70
     3
 71
     2
 72
     2
 73
     1
 90
        2
 40
-0.6
 41
30.0
 62
     5
 63
     7
421
 16777215
 74
     1
 91
        4
 64
     7
 65
   257
 75
     1
175
     1
 42
1.0
 92
        0
 66
   257
 43
1.0
 76
     1
 77
     6
 78
     2
 67
     7
 79
     5
170
     0
171
     0
290
     0
174
     0
 93
       13
 44
0.0
173
     0
291
     1
 45
0.0
1001
ACAD
1000
AcDbSavedByObjectVersion
1070
     0
  0
VISUALSTYLE
  5
38
102
{ACAD_REACTORS
330
2A
102
}
330
2A
100
AcDbVisualStyle
  2
Linepattern
 70
    14
 71
     2
 72
     2
 73
     0
 90
        0
 40
-0.6
 41
-30.0
 62
     5
 63
     7
421
 16777215
 74
     1
 91
        4
 64
     7
 65
   257
 75
     7
175
     7
 42
1.0
 92
        8
 66
     7
 43
1.0
 76
     1
 77
     6
 78
     2
 67
     7
 79
     5
170
     0
171
     0
290
     0
174
     0
 93
        1
 44
0.0
173
     0
291
     1
 45
0.0
1001
ACAD
1000
AcDbSavedByObjectVersion
1070
     0
  0
VISUALSTYLE
  5
33
102
{ACAD_REACTORS
330
2A
102
}
330
2A
100
AcDbVisualStyle
  2
Realistic
 70
     8
 71
     2
 72
     2
 73
     0
 90
        0
 40
-0.6
 41
-30.0
 62
     5
 63
     7
421
 16777215
 74
     1
 91
        0
 64
     7
 65
   257
 75
     1
175
     1
 42
1.0
 92
        8
 66
     8
424
  7895160
 43
1.0
 76
     1
 77
     6
 78
     2
 67
     7
 79
     5
170
     0
171
     0
290
     0
174
     0
 93
       13
 44
0.0
173
     0
291
     0
 45
0.0
1001
ACAD
1000
AcDbSavedByObjectVersion
1070
     0
  0
VISUALSTYLE
  5
37
102
{ACAD_REACTORS
330
2A
102
}
330
2A
100
AcDbVisualStyle
  2
Thicken
 70
    13
 71
     2
 72
     2
 73
     0
 90
        0
 40
-0.6
 41
-30.0
 62
     5
 63
     7
421
 16777215
 74
     1
 91
        4
 64
     7
 65
   257
 75
     1
175
     1
 42
1.0
 92
       12
 66
     7
 43
1.0
 76
     1
 77
     6
 78
     2
 67
     7
 79
     5
170
     0
171
     0
290
     0
174
     0
 93
        1
 44
0.0
173
     0
291
     1
 45
0.0
1001
ACAD
1000
AcDbSavedByObjectVersion
1070
     0
  0
ENDSEC
  0
EOF
