  0
SECTION
  2
HEADER
  9
$ACADVER
  1
AC1009
  9
$DWGCODEPAGE
  3
ansi_1252
  9
$INSBASE
 10
0.0
 20
0.0
 30
0.0
  9
$EXTMIN
 10
-101.0
 20
-73.0
 30
-0.0000000000000022
  9
$EXTMAX
 10
81.19999999999999
 20
143.4
 30
0.0
  9
$LIMMIN
 10
0.0
 20
0.0
  9
$LIMMAX
 10
12.0
 20
9.0
  9
$ORTHOMODE
 70
     0
  9
$REGENMODE
 70
     1
  9
$FILLMODE
 70
     1
  9
$QTEXTMODE
 70
     0
  9
$MIRRTEXT
 70
     1
  9
$DRAGMODE
 70
     2
  9
$LTSCALE
 40
1.0
  9
$OSMODE
 70
    37
  9
$ATTMODE
 70
     1
  9
$TEXTSIZE
 40
0.2
  9
$TRACEWID
 40
0.05
  9
$TEXTSTYLE
  7
STANDARD
  9
$CLAYER
  8
DEFAULT
  9
$CELTYPE
  6
BYLAYER
  9
$CECOLOR
 62
   256
  9
$DIMSCALE
 40
1.0
  9
$DIMASZ
 40
0.18
  9
$DIMEXO
 40
0.0625
  9
$DIMDLI
 40
0.38
  9
$DIMRND
 40
0.0
  9
$DIMDLE
 40
0.0
  9
$DIMEXE
 40
0.18
  9
$DIMTP
 40
0.0
  9
$DIMTM
 40
0.0
  9
$DIMTXT
 40
0.18
  9
$DIMCEN
 40
0.09
  9
$DIMTSZ
 40
0.0
  9
$DIMTOL
 70
     0
  9
$DIMLIM
 70
     0
  9
$DIMTIH
 70
     1
  9
$DIMTOH
 70
     1
  9
$DIMSE1
 70
     0
  9
$DIMSE2
 70
     0
  9
$DIMTAD
 70
     0
  9
$DIMZIN
 70
     0
  9
$DIMBLK
  1

  9
$DIMASO
 70
     1
  9
$DIMSHO
 70
     1
  9
$DIMPOST
  1

  9
$DIMAPOST
  1

  9
$DIMALT
 70
     0
  9
$DIMALTD
 70
     2
  9
$DIMALTF
 40
25.4
  9
$DIMLFAC
 40
1.0
  9
$DIMTOFL
 70
     0
  9
$DIMTVP
 40
0.0
  9
$DIMTIX
 70
     0
  9
$DIMSOXD
 70
     0
  9
$DIMSAH
 70
     0
  9
$DIMBLK1
  1

  9
$DIMBLK2
  1

  9
$DIMSTYLE
  2
STANDARD
  9
$DIMCLRD
 70
     0
  9
$DIMCLRE
 70
     0
  9
$DIMCLRT
 70
     0
  9
$DIMTFAC
 40
1.0
  9
$DIMGAP
 40
0.09
  9
$LUNITS
 70
     2
  9
$LUPREC
 70
     3
  9
$SKETCHINC
 40
0.1
  9
$FILLETRAD
 40
0.5
  9
$AUNITS
 70
     0
  9
$AUPREC
 70
     0
  9
$MENU
  1
.
  9
$ELEVATION
 40
0.0
  9
$PELEVATION
 40
0.0
  9
$THICKNESS
 40
0.0
  9
$LIMCHECK
 70
     0
  9
$CHAMFERA
 40
0.5
  9
$CHAMFERB
 40
0.5
  9
$SKPOLY
 70
     0
  9
$TDCREATE
 40
2457808.862911898
  9
$TDUPDATE
 40
2457808.86291191
  9
$TDINDWG
 40
0.0000000116
  9
$TDUSRTIMER
 40
0.0000000116
  9
$USRTIMER
 70
     1
  9
$ANGBASE
 50
0.0
  9
$ANGDIR
 70
     0
  9
$PDMODE
 70
     0
  9
$PDSIZE
 40
0.0
  9
$PLINEWID
 40
0.0
  9
$COORDS
 70
     1
  9
$SPLFRAME
 70
     0
  9
$SPLINETYPE
 70
     6
  9
$SPLINESEGS
 70
     8
  9
$ATTDIA
 70
     0
  9
$ATTREQ
 70
     1
  9
$HANDLING
 70
     1
  9
$HANDSEED
  5
259
  9
$SURFTAB1
 70
     6
  9
$SURFTAB2
 70
     6
  9
$SURFTYPE
 70
     6
  9
$SURFU
 70
     6
  9
$SURFV
 70
     6
  9
$UCSNAME
  2

  9
$UCSORG
 10
0.0
 20
0.0
 30
0.0
  9
$UCSXDIR
 10
1.0
 20
0.0
 30
0.0
  9
$UCSYDIR
 10
0.0
 20
1.0
 30
0.0
  9
$PUCSNAME
  2

  9
$PUCSORG
 10
0.0
 20
0.0
 30
0.0
  9
$PUCSXDIR
 10
1.0
 20
0.0
 30
0.0
  9
$PUCSYDIR
 10
0.0
 20
1.0
 30
0.0
  9
$USERI1
 70
     0
  9
$USERI2
 70
     0
  9
$USERI3
 70
     0
  9
$USERI4
 70
     0
  9
$USERI5
 70
     0
  9
$USERR1
 40
0.0
  9
$USERR2
 40
0.0
  9
$USERR3
 40
0.0
  9
$USERR4
 40
0.0
  9
$USERR5
 40
0.0
  9
$WORLDVIEW
 70
     1
  9
$SHADEDGE
 70
     3
  9
$SHADEDIF
 70
    70
  9
$TILEMODE
 70
     1
  9
$MAXACTVP
 70
    64
  9
$PLIMCHECK
 70
     0
  9
$PEXTMIN
 10
1.000000000000000E+20
 20
1.000000000000000E+20
 30
1.000000000000000E+20
  9
$PEXTMAX
 10
-1.000000000000000E+20
 20
-1.000000000000000E+20
 30
-1.000000000000000E+20
  9
$PLIMMIN
 10
0.0
 20
0.0
  9
$PLIMMAX
 10
12.0
 20
9.0
  9
$UNITMODE
 70
     0
  9
$VISRETAIN
 70
     1
  9
$PLINEGEN
 70
     0
  9
$PSLTSCALE
 70
     1
  0
ENDSEC
  0
SECTION
  2
TABLES
  0
TABLE
  2
VPORT
 70
     1
  0
VPORT
  2
*ACTIVE
 70
     0
 10
0.0
 20
0.0
 11
1.0
 21
1.0
 12
0.0
 22
0.0
 13
0.0
 23
0.0
 14
0.5
 24
0.5
 15
0.5
 25
0.5
 16
0.0
 26
0.0
 36
1.0
 17
-9.900000000000006
 27
35.2
 37
0.0
 40
220.728
 41
0.8419593345656191
 42
50.0
 43
0.0
 44
0.0
 50
0.0
 51
0.0
 71
     0
 72
   100
 73
     1
 74
     3
 75
     0
 76
     0
 77
     0
 78
     0
  0
ENDTAB
  0
TABLE
  2
LTYPE
 70
     1
  0
LTYPE
  2
CONTINUOUS
 70
     0
  3
Solid line
 72
    65
 73
     0
 40
0.0
  0
ENDTAB
  0
TABLE
  2
LAYER
 70
     2
  0
LAYER
  2
0
 70
     0
 62
     7
  6
CONTINUOUS
  0
LAYER
  2
DEFAULT
 70
     0
 62
     7
  6
CONTINUOUS
  0
ENDTAB
  0
TABLE
  2
STYLE
 70
     1
  0
STYLE
  2
STANDARD
 70
     0
 40
0.0
 41
1.0
 50
0.0
 71
     0
 42
0.2
  3
txt
  4

  0
ENDTAB
  0
TABLE
  2
VIEW
 70
     0
  0
ENDTAB
  0
TABLE
  2
UCS
 70
     0
  0
ENDTAB
  0
TABLE
  2
APPID
 70
     1
  0
APPID
  2
ACAD
 70
     0
  0
ENDTAB
  0
TABLE
  2
DIMSTYLE
 70
     1
  0
DIMSTYLE
  2
STANDARD
 70
     0
  3

  4

  5

  6

  7

 40
1.0
 41
0.18
 42
0.0625
 43
0.38
 44
0.18
 45
0.0
 46
0.0
 47
0.0
 48
0.0
140
0.18
141
0.09
142
0.0
143
25.4
144
1.0
145
0.0
146
1.0
147
0.09
 71
     0
 72
     0
 73
     1
 74
     1
 75
     0
 76
     0
 77
     0
 78
     0
170
     0
171
     2
172
     0
173
     0
174
     0
175
     0
176
     0
177
     0
178
     0
  0
ENDTAB
  0
ENDSEC
  0
SECTION
  2
BLOCKS
  0
BLOCK
  8
0
  2
$MODEL_SPACE
 70
     0
 10
0.0
 20
0.0
 30
0.0
  3
$MODEL_SPACE
  1

  0
ENDBLK
  5
21
  8
0
  0
BLOCK
 67
     1
  8
0
  2
$PAPER_SPACE
 70
     0
 10
0.0
 20
0.0
 30
0.0
  3
$PAPER_SPACE
  1

  0
ENDBLK
  5
1D
 67
     1
  8
0
  0
ENDSEC
  0
SECTION
  2
ENTITIES
  0
POLYLINE
  5
5E
  8
DEFAULT
 66
     1
 10
0.0
 20
0.0
 30
-0.0000000000000013
  0
VERTEX
  5
60
  8
DEFAULT
 10
-19.80000000000555
 20
-53.90000000000001
 30
-0.0000000000000013
  0
VERTEX
  5
61
  8
DEFAULT
 10
-19.80000000000001
 20
-39.90000000000896
 30
-0.0000000000000004
  0
VERTEX
  5
62
  8
DEFAULT
 10
-9.900000000000006
 20
-39.90000000000001
 30
0.0000000000000005
  0
VERTEX
  5
63
  8
DEFAULT
 10
-9.900000000000006
 20
-18.90000000000001
 30
0.0000000000000005
  0
VERTEX
  5
64
  8
DEFAULT
 10
-13.90000000000001
 20
-18.90000000000001
 30
0.0000000000000005
  0
VERTEX
  5
65
  8
DEFAULT
 10
-13.90000000000001
 20
-26.90000000000001
 30
0.0000000000000003
  0
VERTEX
  5
66
  8
DEFAULT
 10
-19.80000000000001
 20
-26.89999999999871
 30
0.0000000000000003
  0
VERTEX
  5
67
  8
DEFAULT
 10
-19.80000000000001
 20
-24.90000000000001
 30
0.0000000000000005
  0
VERTEX
  5
68
  8
DEFAULT
 10
-50.0
 20
-24.90000000000001
 30
0.0000000000000005
  0
VERTEX
  5
69
  8
DEFAULT
 10
-50.0
 20
-26.89999999999871
 30
0.0000000000000003
  0
VERTEX
  5
6A
  8
DEFAULT
 10
-55.90000000000001
 20
-26.90000000000001
 30
0.0000000000000003
  0
VERTEX
  5
6B
  8
DEFAULT
 10
-55.89999999999999
 20
-18.89999999999998
 30
0.0000000000000005
  0
VERTEX
  5
6C
  8
DEFAULT
 10
-59.89999999999998
 20
-18.89999999999998
 30
0.0000000000000005
  0
VERTEX
  5
6D
  8
DEFAULT
 10
-59.90000000000002
 20
-39.89999999999998
 30
0.0000000000000005
  0
VERTEX
  5
6E
  8
DEFAULT
 10
-50.0
 20
-39.90000000000896
 30
-0.0000000000000004
  0
VERTEX
  5
6F
  8
DEFAULT
 10
-50.0
 20
-53.90000000000001
 30
-0.0000000000000013
  0
VERTEX
  5
70
  8
DEFAULT
 10
-41.90000000000001
 20
-53.89999999999358
 30
-0.0000000000000013
  0
VERTEX
  5
71
  8
DEFAULT
 10
-41.90000000000001
 20
-39.90000000000001
 30
-0.0000000000000004
  0
VERTEX
  5
72
  8
DEFAULT
 10
-27.90000000000001
 20
-39.90000000000001
 30
-0.0000000000000004
  0
VERTEX
  5
73
  8
DEFAULT
 10
-27.89999999999415
 20
-53.89999999999358
 30
-0.0000000000000013
  0
VERTEX
  5
74
  8
DEFAULT
 10
-19.80000000000555
 20
-53.90000000000001
 30
-0.0000000000000013
  0
SEQEND
  5
5F
  8
DEFAULT
  0
POLYLINE
  5
75
  8
DEFAULT
 66
     1
 10
0.0
 20
0.0
 30
-0.0000000000000004
  0
VERTEX
  5
77
  8
DEFAULT
 10
71.29999999999998
 20
-39.90000000000896
 30
-0.0000000000000004
  0
VERTEX
  5
78
  8
DEFAULT
 10
71.29999999999444
 20
-53.90000000000001
 30
-0.0000000000000013
  0
VERTEX
  5
79
  8
DEFAULT
 10
63.20000000000584
 20
-53.89999999999358
 30
-0.0000000000000013
  0
VERTEX
  5
7A
  8
DEFAULT
 10
63.19999999999999
 20
-39.90000000000001
 30
-0.0000000000000004
  0
VERTEX
  5
7B
  8
DEFAULT
 10
49.19999999999999
 20
-39.90000000000001
 30
-0.0000000000000004
  0
VERTEX
  5
7C
  8
DEFAULT
 10
49.19999999999999
 20
-53.89999999999358
 30
-0.0000000000000013
  0
VERTEX
  5
7D
  8
DEFAULT
 10
41.09999999999999
 20
-53.90000000000001
 30
-0.0000000000000013
  0
VERTEX
  5
7E
  8
DEFAULT
 10
55.09999999999999
 20
-53.90000000000001
 30
-0.0000000000000013
  0
VERTEX
  5
7F
  8
DEFAULT
 10
55.09999999999999
 20
-40.00000000000642
 30
-0.0000000000000022
  0
VERTEX
  5
80
  8
DEFAULT
 10
63.19999999999999
 20
-40.0
 30
-0.0000000000000022
  0
VERTEX
  5
81
  8
DEFAULT
 10
63.19999999999999
 20
-53.89999999999105
 30
-0.0000000000000013
  0
VERTEX
  5
82
  8
DEFAULT
 10
73.1
 20
-53.90000000000001
 30
-0.0000000000000013
  0
VERTEX
  5
83
  8
DEFAULT
 10
73.1
 20
-72.9999999999987
 30
-0.0000000000000003
  0
VERTEX
  5
84
  8
DEFAULT
 10
69.1
 20
-72.9999999999987
 30
-0.0000000000000003
  0
VERTEX
  5
85
  8
DEFAULT
 10
69.1
 20
-67.10000000000001
 30
-0.0000000000000006
  0
VERTEX
  5
86
  8
DEFAULT
 10
63.19999999999999
 20
-67.1000000000013
 30
-0.0000000000000006
  0
VERTEX
  5
87
  8
DEFAULT
 10
63.19999999999999
 20
-73.0
 30
-0.0000000000000003
  0
VERTEX
  5
88
  8
DEFAULT
 10
33.00000000000001
 20
-73.0
 30
-0.0000000000000003
  0
VERTEX
  5
89
  8
DEFAULT
 10
33.0
 20
-67.10000000000001
 30
-0.0000000000000006
  0
VERTEX
  5
8A
  8
DEFAULT
 10
27.09999999999999
 20
-67.10000000000001
 30
-0.0000000000000006
  0
VERTEX
  5
8B
  8
DEFAULT
 10
27.09999999999999
 20
-73.0
 30
-0.0000000000000003
  0
VERTEX
  5
8C
  8
DEFAULT
 10
24.09999999999999
 20
-73.0
 30
-0.0000000000000003
  0
VERTEX
  5
8D
  8
DEFAULT
 10
24.09999999999999
 20
-71.0
 30
-0.0000000000000003
  0
VERTEX
  5
8E
  8
DEFAULT
 10
5.099999999999994
 20
-71.0
 30
-0.0000000000000004
  0
VERTEX
  5
8F
  8
DEFAULT
 10
5.099999999999994
 20
-59.10000000000001
 30
-0.000000000000001
  0
VERTEX
  5
90
  8
DEFAULT
 10
-0.9000000000000057
 20
-59.10000000000001
 30
-0.000000000000001
  0
VERTEX
  5
91
  8
DEFAULT
 10
-0.9000000000000057
 20
-61.0
 30
-0.0000000000000009
  0
VERTEX
  5
92
  8
DEFAULT
 10
-9.900000000000006
 20
-61.0
 30
-0.0000000000000009
  0
VERTEX
  5
93
  8
DEFAULT
 10
-9.900000000000006
 20
-40.0
 30
-0.0000000000000022
  0
VERTEX
  5
94
  8
DEFAULT
 10
-0.9000000000000057
 20
-40.0
 30
-0.0000000000000022
  0
VERTEX
  5
95
  8
DEFAULT
 10
-0.9000000000000057
 20
-50.90000000000001
 30
-0.0000000000000015
  0
VERTEX
  5
96
  8
DEFAULT
 10
5.099999999999966
 20
-50.90000000000001
 30
-0.0000000000000015
  0
VERTEX
  5
97
  8
DEFAULT
 10
5.099999999999994
 20
-48.0
 30
-0.0000000000000017
  0
VERTEX
  5
98
  8
DEFAULT
 10
27.09999999999999
 20
-48.0
 30
-0.0000000000000017
  0
VERTEX
  5
99
  8
DEFAULT
 10
27.09999999999999
 20
-53.90000000000001
 30
-0.0000000000000013
  0
VERTEX
  5
9A
  8
DEFAULT
 10
33.0
 20
-53.89999999999105
 30
-0.0000000000000013
  0
VERTEX
  5
9B
  8
DEFAULT
 10
33.0
 20
-40.0
 30
-0.0000000000000022
  0
VERTEX
  5
9C
  8
DEFAULT
 10
41.09999999999999
 20
-40.00000000000642
 30
-0.0000000000000022
  0
VERTEX
  5
9D
  8
DEFAULT
 10
41.09999999999999
 20
-53.90000000000001
 30
-0.0000000000000013
  0
VERTEX
  5
9E
  8
DEFAULT
 10
41.09999999999999
 20
-39.90000000000896
 30
-0.0000000000000004
  0
VERTEX
  5
9F
  8
DEFAULT
 10
31.19999999999997
 20
-39.89999999999998
 30
0.0000000000000005
  0
VERTEX
  5
A0
  8
DEFAULT
 10
31.20000000000002
 20
-18.89999999999998
 30
0.0000000000000005
  0
VERTEX
  5
A1
  8
DEFAULT
 10
35.2
 20
-18.89999999999998
 30
0.0000000000000005
  0
VERTEX
  5
A2
  8
DEFAULT
 10
35.2
 20
-26.89999999999998
 30
0.0000000000000003
  0
VERTEX
  5
A3
  8
DEFAULT
 10
41.09999999999999
 20
-26.89999999999871
 30
0.0000000000000003
  0
VERTEX
  5
A4
  8
DEFAULT
 10
41.09999999999999
 20
-24.90000000000001
 30
0.0000000000000005
  0
VERTEX
  5
A5
  8
DEFAULT
 10
71.29999999999998
 20
-24.90000000000001
 30
0.0000000000000005
  0
VERTEX
  5
A6
  8
DEFAULT
 10
71.29999999999998
 20
-26.89999999999871
 30
0.0000000000000003
  0
VERTEX
  5
A7
  8
DEFAULT
 10
77.19999999999999
 20
-26.90000000000001
 30
0.0000000000000003
  0
VERTEX
  5
A8
  8
DEFAULT
 10
77.19999999999999
 20
-18.90000000000001
 30
0.0000000000000005
  0
VERTEX
  5
A9
  8
DEFAULT
 10
81.19999999999999
 20
-18.90000000000001
 30
0.0000000000000005
  0
VERTEX
  5
AA
  8
DEFAULT
 10
81.19999999999999
 20
-39.90000000000001
 30
0.0000000000000005
  0
VERTEX
  5
AB
  8
DEFAULT
 10
71.29999999999998
 20
-39.90000000000896
 30
-0.0000000000000004
  0
SEQEND
  5
76
  8
DEFAULT
  0
POLYLINE
  5
AC
  8
DEFAULT
 66
     1
 10
0.0
 20
0.0
 30
-0.0000000000000004
  0
VERTEX
  5
AE
  8
DEFAULT
 10
-19.80000000000001
 20
14.19999999999104
 30
-0.0000000000000004
  0
VERTEX
  5
AF
  8
DEFAULT
 10
-19.80000000000555
 20
0.1999999999999886
 30
-0.0000000000000013
  0
VERTEX
  5
B0
  8
DEFAULT
 10
-27.89999999999415
 20
0.2000000000064119
 30
-0.0000000000000013
  0
VERTEX
  5
B1
  8
DEFAULT
 10
-27.90000000000001
 20
14.19999999999999
 30
-0.0000000000000004
  0
VERTEX
  5
B2
  8
DEFAULT
 10
-41.90000000000001
 20
14.19999999999999
 30
-0.0000000000000004
  0
VERTEX
  5
B3
  8
DEFAULT
 10
-41.90000000000001
 20
0.2000000000064119
 30
-0.0000000000000013
  0
VERTEX
  5
B4
  8
DEFAULT
 10
-50.0
 20
0.1999999999999886
 30
-0.0000000000000013
  0
VERTEX
  5
B5
  8
DEFAULT
 10
-36.0
 20
0.1999999999999886
 30
-0.0000000000000013
  0
VERTEX
  5
B6
  8
DEFAULT
 10
-36.0
 20
14.09999999999357
 30
-0.0000000000000022
  0
VERTEX
  5
B7
  8
DEFAULT
 10
-27.90000000000001
 20
14.09999999999999
 30
-0.0000000000000022
  0
VERTEX
  5
B8
  8
DEFAULT
 10
-27.90000000000001
 20
0.2000000000089415
 30
-0.0000000000000013
  0
VERTEX
  5
B9
  8
DEFAULT
 10
-18.0
 20
0.1999999999999886
 30
-0.0000000000000013
  0
VERTEX
  5
BA
  8
DEFAULT
 10
-18.0
 20
-18.89999999999871
 30
-0.0000000000000003
  0
VERTEX
  5
BB
  8
DEFAULT
 10
-22.0
 20
-18.89999999999871
 30
-0.0000000000000003
  0
VERTEX
  5
BC
  8
DEFAULT
 10
-22.0
 20
-13.00000000000001
 30
-0.0000000000000006
  0
VERTEX
  5
BD
  8
DEFAULT
 10
-27.90000000000001
 20
-13.00000000000131
 30
-0.0000000000000006
  0
VERTEX
  5
BE
  8
DEFAULT
 10
-27.90000000000001
 20
-18.90000000000001
 30
-0.0000000000000003
  0
VERTEX
  5
BF
  8
DEFAULT
 10
-58.09999999999998
 20
-18.90000000000001
 30
-0.0000000000000003
  0
VERTEX
  5
C0
  8
DEFAULT
 10
-58.09999999999999
 20
-13.00000000000001
 30
-0.0000000000000006
  0
VERTEX
  5
C1
  8
DEFAULT
 10
-64.0
 20
-13.00000000000001
 30
-0.0000000000000006
  0
VERTEX
  5
C2
  8
DEFAULT
 10
-64.0
 20
-18.90000000000001
 30
-0.0000000000000003
  0
VERTEX
  5
C3
  8
DEFAULT
 10
-67.0
 20
-18.90000000000001
 30
-0.0000000000000003
  0
VERTEX
  5
C4
  8
DEFAULT
 10
-67.0
 20
-16.90000000000001
 30
-0.0000000000000003
  0
VERTEX
  5
C5
  8
DEFAULT
 10
-86.0
 20
-16.90000000000001
 30
-0.0000000000000004
  0
VERTEX
  5
C6
  8
DEFAULT
 10
-86.0
 20
-5.000000000000014
 30
-0.000000000000001
  0
VERTEX
  5
C7
  8
DEFAULT
 10
-92.0
 20
-5.000000000000014
 30
-0.000000000000001
  0
VERTEX
  5
C8
  8
DEFAULT
 10
-92.0
 20
-6.900000000000006
 30
-0.0000000000000009
  0
VERTEX
  5
C9
  8
DEFAULT
 10
-101.0
 20
-6.900000000000006
 30
-0.0000000000000009
  0
VERTEX
  5
CA
  8
DEFAULT
 10
-101.0
 20
14.09999999999999
 30
-0.0000000000000022
  0
VERTEX
  5
CB
  8
DEFAULT
 10
-92.0
 20
14.09999999999999
 30
-0.0000000000000022
  0
VERTEX
  5
CC
  8
DEFAULT
 10
-92.0
 20
3.199999999999989
 30
-0.0000000000000015
  0
VERTEX
  5
CD
  8
DEFAULT
 10
-86.00000000000003
 20
3.199999999999989
 30
-0.0000000000000015
  0
VERTEX
  5
CE
  8
DEFAULT
 10
-86.0
 20
6.099999999999994
 30
-0.0000000000000017
  0
VERTEX
  5
CF
  8
DEFAULT
 10
-64.0
 20
6.099999999999994
 30
-0.0000000000000017
  0
VERTEX
  5
D0
  8
DEFAULT
 10
-64.0
 20
0.1999999999999886
 30
-0.0000000000000013
  0
VERTEX
  5
D1
  8
DEFAULT
 10
-58.09999999999999
 20
0.2000000000089415
 30
-0.0000000000000013
  0
VERTEX
  5
D2
  8
DEFAULT
 10
-58.09999999999999
 20
14.09999999999999
 30
-0.0000000000000022
  0
VERTEX
  5
D3
  8
DEFAULT
 10
-50.0
 20
14.09999999999357
 30
-0.0000000000000022
  0
VERTEX
  5
D4
  8
DEFAULT
 10
-50.0
 20
0.1999999999999886
 30
-0.0000000000000013
  0
VERTEX
  5
D5
  8
DEFAULT
 10
-50.0
 20
14.19999999999104
 30
-0.0000000000000004
  0
VERTEX
  5
D6
  8
DEFAULT
 10
-59.90000000000002
 20
14.20000000000001
 30
0.0000000000000005
  0
VERTEX
  5
D7
  8
DEFAULT
 10
-59.89999999999998
 20
35.20000000000002
 30
0.0000000000000005
  0
VERTEX
  5
D8
  8
DEFAULT
 10
-55.89999999999999
 20
35.20000000000001
 30
0.0000000000000005
  0
VERTEX
  5
D9
  8
DEFAULT
 10
-55.89999999999999
 20
27.20000000000001
 30
0.0000000000000003
  0
VERTEX
  5
DA
  8
DEFAULT
 10
-50.0
 20
27.20000000000128
 30
0.0000000000000003
  0
VERTEX
  5
DB
  8
DEFAULT
 10
-50.0
 20
29.19999999999999
 30
0.0000000000000005
  0
VERTEX
  5
DC
  8
DEFAULT
 10
-19.80000000000001
 20
29.19999999999999
 30
0.0000000000000005
  0
VERTEX
  5
DD
  8
DEFAULT
 10
-19.80000000000001
 20
27.20000000000128
 30
0.0000000000000003
  0
VERTEX
  5
DE
  8
DEFAULT
 10
-13.90000000000001
 20
27.19999999999999
 30
0.0000000000000003
  0
VERTEX
  5
DF
  8
DEFAULT
 10
-13.90000000000001
 20
35.19999999999999
 30
0.0000000000000005
  0
VERTEX
  5
E0
  8
DEFAULT
 10
-9.900000000000006
 20
35.19999999999999
 30
0.0000000000000005
  0
VERTEX
  5
E1
  8
DEFAULT
 10
-9.900000000000006
 20
14.19999999999999
 30
0.0000000000000005
  0
VERTEX
  5
E2
  8
DEFAULT
 10
-19.80000000000001
 20
14.19999999999104
 30
-0.0000000000000004
  0
SEQEND
  5
AD
  8
DEFAULT
  0
POLYLINE
  5
E3
  8
DEFAULT
 66
     1
 10
0.0
 20
0.0
 30
-0.0000000000000004
  0
VERTEX
  5
E5
  8
DEFAULT
 10
71.29999999999998
 20
14.19999999999104
 30
-0.0000000000000004
  0
VERTEX
  5
E6
  8
DEFAULT
 10
71.29999999999444
 20
0.1999999999999886
 30
-0.0000000000000013
  0
VERTEX
  5
E7
  8
DEFAULT
 10
63.20000000000584
 20
0.2000000000064119
 30
-0.0000000000000013
  0
VERTEX
  5
E8
  8
DEFAULT
 10
63.19999999999999
 20
14.19999999999999
 30
-0.0000000000000004
  0
VERTEX
  5
E9
  8
DEFAULT
 10
49.19999999999999
 20
14.19999999999999
 30
-0.0000000000000004
  0
VERTEX
  5
EA
  8
DEFAULT
 10
49.19999999999999
 20
0.2000000000064119
 30
-0.0000000000000013
  0
VERTEX
  5
EB
  8
DEFAULT
 10
41.09999999999999
 20
0.1999999999999886
 30
-0.0000000000000013
  0
VERTEX
  5
EC
  8
DEFAULT
 10
55.09999999999999
 20
0.1999999999999886
 30
-0.0000000000000013
  0
VERTEX
  5
ED
  8
DEFAULT
 10
55.09999999999999
 20
14.09999999999357
 30
-0.0000000000000022
  0
VERTEX
  5
EE
  8
DEFAULT
 10
63.19999999999999
 20
14.09999999999999
 30
-0.0000000000000022
  0
VERTEX
  5
EF
  8
DEFAULT
 10
63.19999999999999
 20
0.2000000000089415
 30
-0.0000000000000013
  0
VERTEX
  5
F0
  8
DEFAULT
 10
73.1
 20
0.1999999999999886
 30
-0.0000000000000013
  0
VERTEX
  5
F1
  8
DEFAULT
 10
73.1
 20
-18.89999999999871
 30
-0.0000000000000003
  0
VERTEX
  5
F2
  8
DEFAULT
 10
69.1
 20
-18.89999999999871
 30
-0.0000000000000003
  0
VERTEX
  5
F3
  8
DEFAULT
 10
69.1
 20
-13.00000000000001
 30
-0.0000000000000006
  0
VERTEX
  5
F4
  8
DEFAULT
 10
63.19999999999999
 20
-13.00000000000131
 30
-0.0000000000000006
  0
VERTEX
  5
F5
  8
DEFAULT
 10
63.19999999999999
 20
-18.90000000000001
 30
-0.0000000000000003
  0
VERTEX
  5
F6
  8
DEFAULT
 10
33.00000000000001
 20
-18.90000000000001
 30
-0.0000000000000003
  0
VERTEX
  5
F7
  8
DEFAULT
 10
33.0
 20
-13.00000000000001
 30
-0.0000000000000006
  0
VERTEX
  5
F8
  8
DEFAULT
 10
27.09999999999999
 20
-13.00000000000001
 30
-0.0000000000000006
  0
VERTEX
  5
F9
  8
DEFAULT
 10
27.09999999999999
 20
-18.90000000000001
 30
-0.0000000000000003
  0
VERTEX
  5
FA
  8
DEFAULT
 10
24.09999999999999
 20
-18.90000000000001
 30
-0.0000000000000003
  0
VERTEX
  5
FB
  8
DEFAULT
 10
24.09999999999999
 20
-16.90000000000001
 30
-0.0000000000000003
  0
VERTEX
  5
FC
  8
DEFAULT
 10
5.099999999999994
 20
-16.90000000000001
 30
-0.0000000000000004
  0
VERTEX
  5
FD
  8
DEFAULT
 10
5.099999999999994
 20
-5.000000000000014
 30
-0.000000000000001
  0
VERTEX
  5
FE
  8
DEFAULT
 10
-0.9000000000000057
 20
-5.000000000000014
 30
-0.000000000000001
  0
VERTEX
  5
FF
  8
DEFAULT
 10
-0.9000000000000057
 20
-6.900000000000006
 30
-0.0000000000000009
  0
VERTEX
  5
100
  8
DEFAULT
 10
-9.900000000000006
 20
-6.900000000000006
 30
-0.0000000000000009
  0
VERTEX
  5
101
  8
DEFAULT
 10
-9.900000000000006
 20
14.09999999999999
 30
-0.0000000000000022
  0
VERTEX
  5
102
  8
DEFAULT
 10
-0.9000000000000057
 20
14.09999999999999
 30
-0.0000000000000022
  0
VERTEX
  5
103
  8
DEFAULT
 10
-0.9000000000000057
 20
3.199999999999989
 30
-0.0000000000000015
  0
VERTEX
  5
104
  8
DEFAULT
 10
5.099999999999966
 20
3.199999999999989
 30
-0.0000000000000015
  0
VERTEX
  5
105
  8
DEFAULT
 10
5.099999999999994
 20
6.099999999999994
 30
-0.0000000000000017
  0
VERTEX
  5
106
  8
DEFAULT
 10
27.09999999999999
 20
6.099999999999994
 30
-0.0000000000000017
  0
VERTEX
  5
107
  8
DEFAULT
 10
27.09999999999999
 20
0.1999999999999886
 30
-0.0000000000000013
  0
VERTEX
  5
108
  8
DEFAULT
 10
33.0
 20
0.2000000000089415
 30
-0.0000000000000013
  0
VERTEX
  5
109
  8
DEFAULT
 10
33.0
 20
14.09999999999999
 30
-0.0000000000000022
  0
VERTEX
  5
10A
  8
DEFAULT
 10
41.09999999999999
 20
14.09999999999357
 30
-0.0000000000000022
  0
VERTEX
  5
10B
  8
DEFAULT
 10
41.09999999999999
 20
0.1999999999999886
 30
-0.0000000000000013
  0
VERTEX
  5
10C
  8
DEFAULT
 10
41.09999999999999
 20
14.19999999999104
 30
-0.0000000000000004
  0
VERTEX
  5
10D
  8
DEFAULT
 10
31.19999999999997
 20
14.20000000000001
 30
0.0000000000000005
  0
VERTEX
  5
10E
  8
DEFAULT
 10
31.20000000000002
 20
35.20000000000002
 30
0.0000000000000005
  0
VERTEX
  5
10F
  8
DEFAULT
 10
35.2
 20
35.20000000000001
 30
0.0000000000000005
  0
VERTEX
  5
110
  8
DEFAULT
 10
35.2
 20
27.20000000000001
 30
0.0000000000000003
  0
VERTEX
  5
111
  8
DEFAULT
 10
41.09999999999999
 20
27.20000000000128
 30
0.0000000000000003
  0
VERTEX
  5
112
  8
DEFAULT
 10
41.09999999999999
 20
29.19999999999999
 30
0.0000000000000005
  0
VERTEX
  5
113
  8
DEFAULT
 10
71.29999999999998
 20
29.19999999999999
 30
0.0000000000000005
  0
VERTEX
  5
114
  8
DEFAULT
 10
71.29999999999998
 20
27.20000000000128
 30
0.0000000000000003
  0
VERTEX
  5
115
  8
DEFAULT
 10
77.19999999999999
 20
27.19999999999999
 30
0.0000000000000003
  0
VERTEX
  5
116
  8
DEFAULT
 10
77.19999999999999
 20
35.19999999999999
 30
0.0000000000000005
  0
VERTEX
  5
117
  8
DEFAULT
 10
81.19999999999999
 20
35.19999999999999
 30
0.0000000000000005
  0
VERTEX
  5
118
  8
DEFAULT
 10
81.19999999999999
 20
14.19999999999999
 30
0.0000000000000005
  0
VERTEX
  5
119
  8
DEFAULT
 10
71.29999999999998
 20
14.19999999999104
 30
-0.0000000000000004
  0
SEQEND
  5
E4
  8
DEFAULT
  0
POLYLINE
  5
11A
  8
DEFAULT
 66
     1
 10
0.0
 20
0.0
 30
-0.0000000000000013
  0
VERTEX
  5
11C
  8
DEFAULT
 10
-50.0
 20
54.29999999999998
 30
-0.0000000000000013
  0
VERTEX
  5
11D
  8
DEFAULT
 10
-36.0
 20
54.29999999999998
 30
-0.0000000000000013
  0
VERTEX
  5
11E
  8
DEFAULT
 10
-36.0
 20
68.19999999999357
 30
-0.0000000000000022
  0
VERTEX
  5
11F
  8
DEFAULT
 10
-27.90000000000001
 20
68.19999999999999
 30
-0.0000000000000022
  0
VERTEX
  5
120
  8
DEFAULT
 10
-27.90000000000001
 20
54.30000000000894
 30
-0.0000000000000013
  0
VERTEX
  5
121
  8
DEFAULT
 10
-18.0
 20
54.29999999999998
 30
-0.0000000000000013
  0
VERTEX
  5
122
  8
DEFAULT
 10
-18.0
 20
35.20000000000128
 30
-0.0000000000000003
  0
VERTEX
  5
123
  8
DEFAULT
 10
-22.0
 20
35.20000000000128
 30
-0.0000000000000003
  0
VERTEX
  5
124
  8
DEFAULT
 10
-22.0
 20
41.09999999999998
 30
-0.0000000000000006
  0
VERTEX
  5
125
  8
DEFAULT
 10
-27.90000000000001
 20
41.09999999999869
 30
-0.0000000000000006
  0
VERTEX
  5
126
  8
DEFAULT
 10
-27.90000000000001
 20
35.19999999999999
 30
-0.0000000000000003
  0
VERTEX
  5
127
  8
DEFAULT
 10
-58.09999999999998
 20
35.19999999999999
 30
-0.0000000000000003
  0
VERTEX
  5
128
  8
DEFAULT
 10
-58.09999999999999
 20
41.09999999999998
 30
-0.0000000000000006
  0
VERTEX
  5
129
  8
DEFAULT
 10
-64.0
 20
41.09999999999998
 30
-0.0000000000000006
  0
VERTEX
  5
12A
  8
DEFAULT
 10
-64.0
 20
35.19999999999999
 30
-0.0000000000000003
  0
VERTEX
  5
12B
  8
DEFAULT
 10
-67.0
 20
35.19999999999999
 30
-0.0000000000000003
  0
VERTEX
  5
12C
  8
DEFAULT
 10
-67.0
 20
37.19999999999999
 30
-0.0000000000000003
  0
VERTEX
  5
12D
  8
DEFAULT
 10
-86.0
 20
37.19999999999999
 30
-0.0000000000000004
  0
VERTEX
  5
12E
  8
DEFAULT
 10
-86.0
 20
49.09999999999998
 30
-0.000000000000001
  0
VERTEX
  5
12F
  8
DEFAULT
 10
-92.0
 20
49.09999999999998
 30
-0.000000000000001
  0
VERTEX
  5
130
  8
DEFAULT
 10
-92.0
 20
47.19999999999999
 30
-0.0000000000000009
  0
VERTEX
  5
131
  8
DEFAULT
 10
-101.0
 20
47.19999999999999
 30
-0.0000000000000009
  0
VERTEX
  5
132
  8
DEFAULT
 10
-101.0
 20
68.19999999999999
 30
-0.0000000000000022
  0
VERTEX
  5
133
  8
DEFAULT
 10
-92.0
 20
68.19999999999999
 30
-0.0000000000000022
  0
VERTEX
  5
134
  8
DEFAULT
 10
-92.0
 20
57.29999999999998
 30
-0.0000000000000015
  0
VERTEX
  5
135
  8
DEFAULT
 10
-86.00000000000003
 20
57.29999999999998
 30
-0.0000000000000015
  0
VERTEX
  5
136
  8
DEFAULT
 10
-86.0
 20
60.19999999999999
 30
-0.0000000000000017
  0
VERTEX
  5
137
  8
DEFAULT
 10
-64.0
 20
60.19999999999999
 30
-0.0000000000000017
  0
VERTEX
  5
138
  8
DEFAULT
 10
-64.0
 20
54.29999999999998
 30
-0.0000000000000013
  0
VERTEX
  5
139
  8
DEFAULT
 10
-58.09999999999999
 20
54.30000000000894
 30
-0.0000000000000013
  0
VERTEX
  5
13A
  8
DEFAULT
 10
-58.09999999999999
 20
68.19999999999999
 30
-0.0000000000000022
  0
VERTEX
  5
13B
  8
DEFAULT
 10
-50.0
 20
68.19999999999357
 30
-0.0000000000000022
  0
VERTEX
  5
13C
  8
DEFAULT
 10
-50.0
 20
54.29999999999998
 30
-0.0000000000000013
  0
SEQEND
  5
11B
  8
DEFAULT
  0
POLYLINE
  5
13D
  8
DEFAULT
 66
     1
 10
0.0
 20
0.0
 30
-0.0000000000000013
  0
VERTEX
  5
13F
  8
DEFAULT
 10
-19.80000000000555
 20
54.29999999999998
 30
-0.0000000000000013
  0
VERTEX
  5
140
  8
DEFAULT
 10
-19.80000000000001
 20
68.29999999999103
 30
-0.0000000000000004
  0
VERTEX
  5
141
  8
DEFAULT
 10
-9.900000000000006
 20
68.29999999999998
 30
0.0000000000000005
  0
VERTEX
  5
142
  8
DEFAULT
 10
-9.900000000000006
 20
89.29999999999998
 30
0.0000000000000005
  0
VERTEX
  5
143
  8
DEFAULT
 10
-13.90000000000001
 20
89.29999999999998
 30
0.0000000000000005
  0
VERTEX
  5
144
  8
DEFAULT
 10
-13.90000000000001
 20
81.29999999999998
 30
0.0000000000000003
  0
VERTEX
  5
145
  8
DEFAULT
 10
-19.80000000000001
 20
81.30000000000128
 30
0.0000000000000003
  0
VERTEX
  5
146
  8
DEFAULT
 10
-19.80000000000001
 20
83.29999999999998
 30
0.0000000000000005
  0
VERTEX
  5
147
  8
DEFAULT
 10
-50.0
 20
83.29999999999998
 30
0.0000000000000005
  0
VERTEX
  5
148
  8
DEFAULT
 10
-50.0
 20
81.30000000000128
 30
0.0000000000000003
  0
VERTEX
  5
149
  8
DEFAULT
 10
-55.90000000000001
 20
81.29999999999998
 30
0.0000000000000003
  0
VERTEX
  5
14A
  8
DEFAULT
 10
-55.89999999999999
 20
89.30000000000001
 30
0.0000000000000005
  0
VERTEX
  5
14B
  8
DEFAULT
 10
-59.89999999999998
 20
89.30000000000001
 30
0.0000000000000005
  0
VERTEX
  5
14C
  8
DEFAULT
 10
-59.90000000000002
 20
68.30000000000001
 30
0.0000000000000005
  0
VERTEX
  5
14D
  8
DEFAULT
 10
-50.0
 20
68.29999999999103
 30
-0.0000000000000004
  0
VERTEX
  5
14E
  8
DEFAULT
 10
-50.0
 20
54.29999999999998
 30
-0.0000000000000013
  0
VERTEX
  5
14F
  8
DEFAULT
 10
-41.90000000000001
 20
54.30000000000641
 30
-0.0000000000000013
  0
VERTEX
  5
150
  8
DEFAULT
 10
-41.90000000000001
 20
68.29999999999998
 30
-0.0000000000000004
  0
VERTEX
  5
151
  8
DEFAULT
 10
-27.90000000000001
 20
68.29999999999998
 30
-0.0000000000000004
  0
VERTEX
  5
152
  8
DEFAULT
 10
-27.89999999999415
 20
54.30000000000641
 30
-0.0000000000000013
  0
VERTEX
  5
153
  8
DEFAULT
 10
-19.80000000000555
 20
54.29999999999998
 30
-0.0000000000000013
  0
SEQEND
  5
13E
  8
DEFAULT
  0
POLYLINE
  5
154
  8
DEFAULT
 66
     1
 10
0.0
 20
0.0
 30
-0.0000000000000013
  0
VERTEX
  5
156
  8
DEFAULT
 10
41.09999999999999
 20
54.29999999999998
 30
-0.0000000000000013
  0
VERTEX
  5
157
  8
DEFAULT
 10
55.09999999999999
 20
54.29999999999998
 30
-0.0000000000000013
  0
VERTEX
  5
158
  8
DEFAULT
 10
55.09999999999999
 20
68.19999999999357
 30
-0.0000000000000022
  0
VERTEX
  5
159
  8
DEFAULT
 10
63.19999999999999
 20
68.19999999999999
 30
-0.0000000000000022
  0
VERTEX
  5
15A
  8
DEFAULT
 10
63.19999999999999
 20
54.30000000000894
 30
-0.0000000000000013
  0
VERTEX
  5
15B
  8
DEFAULT
 10
73.1
 20
54.29999999999998
 30
-0.0000000000000013
  0
VERTEX
  5
15C
  8
DEFAULT
 10
73.1
 20
35.20000000000128
 30
-0.0000000000000003
  0
VERTEX
  5
15D
  8
DEFAULT
 10
69.1
 20
35.20000000000128
 30
-0.0000000000000003
  0
VERTEX
  5
15E
  8
DEFAULT
 10
69.1
 20
41.09999999999998
 30
-0.0000000000000006
  0
VERTEX
  5
15F
  8
DEFAULT
 10
63.19999999999999
 20
41.09999999999869
 30
-0.0000000000000006
  0
VERTEX
  5
160
  8
DEFAULT
 10
63.19999999999999
 20
35.19999999999999
 30
-0.0000000000000003
  0
VERTEX
  5
161
  8
DEFAULT
 10
33.00000000000001
 20
35.19999999999999
 30
-0.0000000000000003
  0
VERTEX
  5
162
  8
DEFAULT
 10
33.0
 20
41.09999999999998
 30
-0.0000000000000006
  0
VERTEX
  5
163
  8
DEFAULT
 10
27.09999999999999
 20
41.09999999999998
 30
-0.0000000000000006
  0
VERTEX
  5
164
  8
DEFAULT
 10
27.09999999999999
 20
35.19999999999999
 30
-0.0000000000000003
  0
VERTEX
  5
165
  8
DEFAULT
 10
24.09999999999999
 20
35.19999999999999
 30
-0.0000000000000003
  0
VERTEX
  5
166
  8
DEFAULT
 10
24.09999999999999
 20
37.19999999999999
 30
-0.0000000000000003
  0
VERTEX
  5
167
  8
DEFAULT
 10
5.099999999999994
 20
37.19999999999999
 30
-0.0000000000000004
  0
VERTEX
  5
168
  8
DEFAULT
 10
5.099999999999994
 20
49.09999999999998
 30
-0.000000000000001
  0
VERTEX
  5
169
  8
DEFAULT
 10
-0.9000000000000057
 20
49.09999999999998
 30
-0.000000000000001
  0
VERTEX
  5
16A
  8
DEFAULT
 10
-0.9000000000000057
 20
47.19999999999999
 30
-0.0000000000000009
  0
VERTEX
  5
16B
  8
DEFAULT
 10
-9.900000000000006
 20
47.19999999999999
 30
-0.0000000000000009
  0
VERTEX
  5
16C
  8
DEFAULT
 10
-9.900000000000006
 20
68.19999999999999
 30
-0.0000000000000022
  0
VERTEX
  5
16D
  8
DEFAULT
 10
-0.9000000000000057
 20
68.19999999999999
 30
-0.0000000000000022
  0
VERTEX
  5
16E
  8
DEFAULT
 10
-0.9000000000000057
 20
57.29999999999998
 30
-0.0000000000000015
  0
VERTEX
  5
16F
  8
DEFAULT
 10
5.099999999999966
 20
57.29999999999998
 30
-0.0000000000000015
  0
VERTEX
  5
170
  8
DEFAULT
 10
5.099999999999994
 20
60.19999999999999
 30
-0.0000000000000017
  0
VERTEX
  5
171
  8
DEFAULT
 10
27.09999999999999
 20
60.19999999999999
 30
-0.0000000000000017
  0
VERTEX
  5
172
  8
DEFAULT
 10
27.09999999999999
 20
54.29999999999998
 30
-0.0000000000000013
  0
VERTEX
  5
173
  8
DEFAULT
 10
33.0
 20
54.30000000000894
 30
-0.0000000000000013
  0
VERTEX
  5
174
  8
DEFAULT
 10
33.0
 20
68.19999999999999
 30
-0.0000000000000022
  0
VERTEX
  5
175
  8
DEFAULT
 10
41.09999999999999
 20
68.19999999999357
 30
-0.0000000000000022
  0
VERTEX
  5
176
  8
DEFAULT
 10
41.09999999999999
 20
54.29999999999998
 30
-0.0000000000000013
  0
SEQEND
  5
155
  8
DEFAULT
  0
POLYLINE
  5
177
  8
DEFAULT
 66
     1
 10
0.0
 20
0.0
 30
-0.0000000000000013
  0
VERTEX
  5
179
  8
DEFAULT
 10
71.29999999999444
 20
54.29999999999998
 30
-0.0000000000000013
  0
VERTEX
  5
17A
  8
DEFAULT
 10
71.29999999999998
 20
68.29999999999103
 30
-0.0000000000000004
  0
VERTEX
  5
17B
  8
DEFAULT
 10
81.19999999999999
 20
68.29999999999998
 30
0.0000000000000005
  0
VERTEX
  5
17C
  8
DEFAULT
 10
81.19999999999999
 20
89.29999999999998
 30
0.0000000000000005
  0
VERTEX
  5
17D
  8
DEFAULT
 10
77.19999999999999
 20
89.29999999999998
 30
0.0000000000000005
  0
VERTEX
  5
17E
  8
DEFAULT
 10
77.19999999999999
 20
81.29999999999998
 30
0.0000000000000003
  0
VERTEX
  5
17F
  8
DEFAULT
 10
71.29999999999998
 20
81.30000000000128
 30
0.0000000000000003
  0
VERTEX
  5
180
  8
DEFAULT
 10
71.29999999999998
 20
83.29999999999998
 30
0.0000000000000005
  0
VERTEX
  5
181
  8
DEFAULT
 10
41.09999999999999
 20
83.29999999999998
 30
0.0000000000000005
  0
VERTEX
  5
182
  8
DEFAULT
 10
41.09999999999999
 20
81.30000000000128
 30
0.0000000000000003
  0
VERTEX
  5
183
  8
DEFAULT
 10
35.19999999999999
 20
81.29999999999998
 30
0.0000000000000003
  0
VERTEX
  5
184
  8
DEFAULT
 10
35.2
 20
89.30000000000001
 30
0.0000000000000005
  0
VERTEX
  5
185
  8
DEFAULT
 10
31.20000000000002
 20
89.30000000000001
 30
0.0000000000000005
  0
VERTEX
  5
186
  8
DEFAULT
 10
31.19999999999997
 20
68.30000000000001
 30
0.0000000000000005
  0
VERTEX
  5
187
  8
DEFAULT
 10
41.09999999999999
 20
68.29999999999103
 30
-0.0000000000000004
  0
VERTEX
  5
188
  8
DEFAULT
 10
41.09999999999999
 20
54.29999999999998
 30
-0.0000000000000013
  0
VERTEX
  5
189
  8
DEFAULT
 10
49.19999999999999
 20
54.30000000000641
 30
-0.0000000000000013
  0
VERTEX
  5
18A
  8
DEFAULT
 10
49.19999999999999
 20
68.29999999999998
 30
-0.0000000000000004
  0
VERTEX
  5
18B
  8
DEFAULT
 10
63.19999999999999
 20
68.29999999999998
 30
-0.0000000000000004
  0
VERTEX
  5
18C
  8
DEFAULT
 10
63.20000000000584
 20
54.30000000000641
 30
-0.0000000000000013
  0
VERTEX
  5
18D
  8
DEFAULT
 10
71.29999999999444
 20
54.29999999999998
 30
-0.0000000000000013
  0
SEQEND
  5
178
  8
DEFAULT
  0
POLYLINE
  5
18E
  8
DEFAULT
 66
     1
 10
0.0
 20
0.0
 30
-0.0000000000000013
  0
VERTEX
  5
190
  8
DEFAULT
 10
-50.0
 20
108.4
 30
-0.0000000000000013
  0
VERTEX
  5
191
  8
DEFAULT
 10
-36.0
 20
108.4
 30
-0.0000000000000013
  0
VERTEX
  5
192
  8
DEFAULT
 10
-36.0
 20
122.2999999999936
 30
-0.0000000000000022
  0
VERTEX
  5
193
  8
DEFAULT
 10
-27.90000000000001
 20
122.3
 30
-0.0000000000000022
  0
VERTEX
  5
194
  8
DEFAULT
 10
-27.90000000000001
 20
108.4000000000089
 30
-0.0000000000000013
  0
VERTEX
  5
195
  8
DEFAULT
 10
-18.0
 20
108.4
 30
-0.0000000000000013
  0
VERTEX
  5
196
  8
DEFAULT
 10
-18.0
 20
89.30000000000128
 30
-0.0000000000000003
  0
VERTEX
  5
197
  8
DEFAULT
 10
-22.0
 20
89.30000000000128
 30
-0.0000000000000003
  0
VERTEX
  5
198
  8
DEFAULT
 10
-22.0
 20
95.19999999999997
 30
-0.0000000000000006
  0
VERTEX
  5
199
  8
DEFAULT
 10
-27.90000000000001
 20
95.19999999999868
 30
-0.0000000000000006
  0
VERTEX
  5
19A
  8
DEFAULT
 10
-27.90000000000001
 20
89.29999999999998
 30
-0.0000000000000003
  0
VERTEX
  5
19B
  8
DEFAULT
 10
-58.09999999999998
 20
89.29999999999998
 30
-0.0000000000000003
  0
VERTEX
  5
19C
  8
DEFAULT
 10
-58.09999999999999
 20
95.19999999999997
 30
-0.0000000000000006
  0
VERTEX
  5
19D
  8
DEFAULT
 10
-64.0
 20
95.19999999999997
 30
-0.0000000000000006
  0
VERTEX
  5
19E
  8
DEFAULT
 10
-64.0
 20
89.29999999999998
 30
-0.0000000000000003
  0
VERTEX
  5
19F
  8
DEFAULT
 10
-67.0
 20
89.29999999999998
 30
-0.0000000000000003
  0
VERTEX
  5
1A0
  8
DEFAULT
 10
-67.0
 20
91.29999999999998
 30
-0.0000000000000003
  0
VERTEX
  5
1A1
  8
DEFAULT
 10
-86.0
 20
91.29999999999998
 30
-0.0000000000000004
  0
VERTEX
  5
1A2
  8
DEFAULT
 10
-86.0
 20
103.2
 30
-0.000000000000001
  0
VERTEX
  5
1A3
  8
DEFAULT
 10
-92.0
 20
103.2
 30
-0.000000000000001
  0
VERTEX
  5
1A4
  8
DEFAULT
 10
-92.0
 20
101.3
 30
-0.0000000000000009
  0
VERTEX
  5
1A5
  8
DEFAULT
 10
-101.0
 20
101.3
 30
-0.0000000000000009
  0
VERTEX
  5
1A6
  8
DEFAULT
 10
-101.0
 20
122.3
 30
-0.0000000000000022
  0
VERTEX
  5
1A7
  8
DEFAULT
 10
-92.0
 20
122.3
 30
-0.0000000000000022
  0
VERTEX
  5
1A8
  8
DEFAULT
 10
-92.0
 20
111.4
 30
-0.0000000000000015
  0
VERTEX
  5
1A9
  8
DEFAULT
 10
-86.00000000000003
 20
111.4
 30
-0.0000000000000015
  0
VERTEX
  5
1AA
  8
DEFAULT
 10
-86.0
 20
114.3
 30
-0.0000000000000017
  0
VERTEX
  5
1AB
  8
DEFAULT
 10
-64.0
 20
114.3
 30
-0.0000000000000017
  0
VERTEX
  5
1AC
  8
DEFAULT
 10
-64.0
 20
108.4
 30
-0.0000000000000013
  0
VERTEX
  5
1AD
  8
DEFAULT
 10
-58.09999999999999
 20
108.4000000000089
 30
-0.0000000000000013
  0
VERTEX
  5
1AE
  8
DEFAULT
 10
-58.09999999999999
 20
122.3
 30
-0.0000000000000022
  0
VERTEX
  5
1AF
  8
DEFAULT
 10
-50.0
 20
122.2999999999936
 30
-0.0000000000000022
  0
VERTEX
  5
1B0
  8
DEFAULT
 10
-50.0
 20
108.4
 30
-0.0000000000000013
  0
SEQEND
  5
18F
  8
DEFAULT
  0
POLYLINE
  5
1B1
  8
DEFAULT
 66
     1
 10
0.0
 20
0.0
 30
-0.0000000000000013
  0
VERTEX
  5
1B3
  8
DEFAULT
 10
-19.80000000000555
 20
108.4
 30
-0.0000000000000013
  0
VERTEX
  5
1B4
  8
DEFAULT
 10
-19.80000000000001
 20
122.399999999991
 30
-0.0000000000000004
  0
VERTEX
  5
1B5
  8
DEFAULT
 10
-9.900000000000006
 20
122.4
 30
0.0000000000000005
  0
VERTEX
  5
1B6
  8
DEFAULT
 10
-9.900000000000006
 20
143.4
 30
0.0000000000000005
  0
VERTEX
  5
1B7
  8
DEFAULT
 10
-13.90000000000001
 20
143.4
 30
0.0000000000000005
  0
VERTEX
  5
1B8
  8
DEFAULT
 10
-13.90000000000001
 20
135.4
 30
0.0000000000000003
  0
VERTEX
  5
1B9
  8
DEFAULT
 10
-19.80000000000001
 20
135.4000000000013
 30
0.0000000000000003
  0
VERTEX
  5
1BA
  8
DEFAULT
 10
-19.80000000000001
 20
137.4
 30
0.0000000000000005
  0
VERTEX
  5
1BB
  8
DEFAULT
 10
-50.0
 20
137.4
 30
0.0000000000000005
  0
VERTEX
  5
1BC
  8
DEFAULT
 10
-50.0
 20
135.4000000000013
 30
0.0000000000000003
  0
VERTEX
  5
1BD
  8
DEFAULT
 10
-55.90000000000001
 20
135.4
 30
0.0000000000000003
  0
VERTEX
  5
1BE
  8
DEFAULT
 10
-55.89999999999999
 20
143.4
 30
0.0000000000000005
  0
VERTEX
  5
1BF
  8
DEFAULT
 10
-59.89999999999998
 20
143.4
 30
0.0000000000000005
  0
VERTEX
  5
1C0
  8
DEFAULT
 10
-59.90000000000002
 20
122.4
 30
0.0000000000000005
  0
VERTEX
  5
1C1
  8
DEFAULT
 10
-50.0
 20
122.399999999991
 30
-0.0000000000000004
  0
VERTEX
  5
1C2
  8
DEFAULT
 10
-50.0
 20
108.4
 30
-0.0000000000000013
  0
VERTEX
  5
1C3
  8
DEFAULT
 10
-41.90000000000001
 20
108.4000000000064
 30
-0.0000000000000013
  0
VERTEX
  5
1C4
  8
DEFAULT
 10
-41.90000000000001
 20
122.4
 30
-0.0000000000000004
  0
VERTEX
  5
1C5
  8
DEFAULT
 10
-27.90000000000001
 20
122.4
 30
-0.0000000000000004
  0
VERTEX
  5
1C6
  8
DEFAULT
 10
-27.89999999999415
 20
108.4000000000064
 30
-0.0000000000000013
  0
VERTEX
  5
1C7
  8
DEFAULT
 10
-19.80000000000555
 20
108.4
 30
-0.0000000000000013
  0
SEQEND
  5
1B2
  8
DEFAULT
  0
POLYLINE
  5
1C8
  8
DEFAULT
 66
     1
 10
0.0
 20
0.0
 30
-0.0000000000000013
  0
VERTEX
  5
1CA
  8
DEFAULT
 10
71.29999999999444
 20
108.4
 30
-0.0000000000000013
  0
VERTEX
  5
1CB
  8
DEFAULT
 10
71.29999999999998
 20
122.399999999991
 30
-0.0000000000000004
  0
VERTEX
  5
1CC
  8
DEFAULT
 10
81.19999999999999
 20
122.4
 30
0.0000000000000005
  0
VERTEX
  5
1CD
  8
DEFAULT
 10
81.19999999999999
 20
143.4
 30
0.0000000000000005
  0
VERTEX
  5
1CE
  8
DEFAULT
 10
77.19999999999999
 20
143.4
 30
0.0000000000000005
  0
VERTEX
  5
1CF
  8
DEFAULT
 10
77.19999999999999
 20
135.4
 30
0.0000000000000003
  0
VERTEX
  5
1D0
  8
DEFAULT
 10
71.29999999999998
 20
135.4000000000013
 30
0.0000000000000003
  0
VERTEX
  5
1D1
  8
DEFAULT
 10
71.29999999999998
 20
137.4
 30
0.0000000000000005
  0
VERTEX
  5
1D2
  8
DEFAULT
 10
41.09999999999999
 20
137.4
 30
0.0000000000000005
  0
VERTEX
  5
1D3
  8
DEFAULT
 10
41.09999999999999
 20
135.4000000000013
 30
0.0000000000000003
  0
VERTEX
  5
1D4
  8
DEFAULT
 10
35.19999999999999
 20
135.4
 30
0.0000000000000003
  0
VERTEX
  5
1D5
  8
DEFAULT
 10
35.2
 20
143.4
 30
0.0000000000000005
  0
VERTEX
  5
1D6
  8
DEFAULT
 10
31.20000000000002
 20
143.4
 30
0.0000000000000005
  0
VERTEX
  5
1D7
  8
DEFAULT
 10
31.19999999999997
 20
122.4
 30
0.0000000000000005
  0
VERTEX
  5
1D8
  8
DEFAULT
 10
41.09999999999999
 20
122.399999999991
 30
-0.0000000000000004
  0
VERTEX
  5
1D9
  8
DEFAULT
 10
41.09999999999999
 20
108.4
 30
-0.0000000000000013
  0
VERTEX
  5
1DA
  8
DEFAULT
 10
49.19999999999999
 20
108.4000000000064
 30
-0.0000000000000013
  0
VERTEX
  5
1DB
  8
DEFAULT
 10
49.19999999999999
 20
122.4
 30
-0.0000000000000004
  0
VERTEX
  5
1DC
  8
DEFAULT
 10
63.19999999999999
 20
122.4
 30
-0.0000000000000004
  0
VERTEX
  5
1DD
  8
DEFAULT
 10
63.20000000000584
 20
108.4000000000064
 30
-0.0000000000000013
  0
VERTEX
  5
1DE
  8
DEFAULT
 10
71.29999999999444
 20
108.4
 30
-0.0000000000000013
  0
SEQEND
  5
1C9
  8
DEFAULT
  0
POLYLINE
  5
1DF
  8
DEFAULT
 66
     1
 10
0.0
 20
0.0
 30
-0.0000000000000013
  0
VERTEX
  5
1E1
  8
DEFAULT
 10
41.09999999999999
 20
108.4
 30
-0.0000000000000013
  0
VERTEX
  5
1E2
  8
DEFAULT
 10
55.09999999999999
 20
108.4
 30
-0.0000000000000013
  0
VERTEX
  5
1E3
  8
DEFAULT
 10
55.09999999999999
 20
122.2999999999936
 30
-0.0000000000000022
  0
VERTEX
  5
1E4
  8
DEFAULT
 10
63.19999999999999
 20
122.3
 30
-0.0000000000000022
  0
VERTEX
  5
1E5
  8
DEFAULT
 10
63.19999999999999
 20
108.4000000000089
 30
-0.0000000000000013
  0
VERTEX
  5
1E6
  8
DEFAULT
 10
73.1
 20
108.4
 30
-0.0000000000000013
  0
VERTEX
  5
1E7
  8
DEFAULT
 10
73.1
 20
89.30000000000128
 30
-0.0000000000000003
  0
VERTEX
  5
1E8
  8
DEFAULT
 10
69.1
 20
89.30000000000128
 30
-0.0000000000000003
  0
VERTEX
  5
1E9
  8
DEFAULT
 10
69.1
 20
95.19999999999997
 30
-0.0000000000000006
  0
VERTEX
  5
1EA
  8
DEFAULT
 10
63.19999999999999
 20
95.19999999999868
 30
-0.0000000000000006
  0
VERTEX
  5
1EB
  8
DEFAULT
 10
63.19999999999999
 20
89.29999999999998
 30
-0.0000000000000003
  0
VERTEX
  5
1EC
  8
DEFAULT
 10
33.00000000000001
 20
89.29999999999998
 30
-0.0000000000000003
  0
VERTEX
  5
1ED
  8
DEFAULT
 10
33.0
 20
95.19999999999997
 30
-0.0000000000000006
  0
VERTEX
  5
1EE
  8
DEFAULT
 10
27.09999999999999
 20
95.19999999999997
 30
-0.0000000000000006
  0
VERTEX
  5
1EF
  8
DEFAULT
 10
27.09999999999999
 20
89.29999999999998
 30
-0.0000000000000003
  0
VERTEX
  5
1F0
  8
DEFAULT
 10
24.09999999999999
 20
89.29999999999998
 30
-0.0000000000000003
  0
VERTEX
  5
1F1
  8
DEFAULT
 10
24.09999999999999
 20
91.29999999999998
 30
-0.0000000000000003
  0
VERTEX
  5
1F2
  8
DEFAULT
 10
5.099999999999994
 20
91.29999999999998
 30
-0.0000000000000004
  0
VERTEX
  5
1F3
  8
DEFAULT
 10
5.099999999999994
 20
103.2
 30
-0.000000000000001
  0
VERTEX
  5
1F4
  8
DEFAULT
 10
-0.9000000000000057
 20
103.2
 30
-0.000000000000001
  0
VERTEX
  5
1F5
  8
DEFAULT
 10
-0.9000000000000057
 20
101.3
 30
-0.0000000000000009
  0
VERTEX
  5
1F6
  8
DEFAULT
 10
-9.900000000000006
 20
101.3
 30
-0.0000000000000009
  0
VERTEX
  5
1F7
  8
DEFAULT
 10
-9.900000000000006
 20
122.3
 30
-0.0000000000000022
  0
VERTEX
  5
1F8
  8
DEFAULT
 10
-0.9000000000000057
 20
122.3
 30
-0.0000000000000022
  0
VERTEX
  5
1F9
  8
DEFAULT
 10
-0.9000000000000057
 20
111.4
 30
-0.0000000000000015
  0
VERTEX
  5
1FA
  8
DEFAULT
 10
5.099999999999966
 20
111.4
 30
-0.0000000000000015
  0
VERTEX
  5
1FB
  8
DEFAULT
 10
5.099999999999994
 20
114.3
 30
-0.0000000000000017
  0
VERTEX
  5
1FC
  8
DEFAULT
 10
27.09999999999999
 20
114.3
 30
-0.0000000000000017
  0
VERTEX
  5
1FD
  8
DEFAULT
 10
27.09999999999999
 20
108.4
 30
-0.0000000000000013
  0
VERTEX
  5
1FE
  8
DEFAULT
 10
33.0
 20
108.4000000000089
 30
-0.0000000000000013
  0
VERTEX
  5
1FF
  8
DEFAULT
 10
33.0
 20
122.3
 30
-0.0000000000000022
  0
VERTEX
  5
200
  8
DEFAULT
 10
41.09999999999999
 20
122.2999999999936
 30
-0.0000000000000022
  0
VERTEX
  5
201
  8
DEFAULT
 10
41.09999999999999
 20
108.4
 30
-0.0000000000000013
  0
SEQEND
  5
1E0
  8
DEFAULT
  0
POLYLINE
  5
202
  8
DEFAULT
 66
     1
 10
0.0
 20
0.0
 30
-0.0000000000000022
  0
VERTEX
  5
204
  8
DEFAULT
 10
-50.0
 20
-40.00000000000642
 30
-0.0000000000000022
  0
VERTEX
  5
205
  8
DEFAULT
 10
-50.0
 20
-53.90000000000001
 30
-0.0000000000000013
  0
VERTEX
  5
206
  8
DEFAULT
 10
-36.0
 20
-53.90000000000001
 30
-0.0000000000000013
  0
VERTEX
  5
207
  8
DEFAULT
 10
-36.0
 20
-40.00000000000642
 30
-0.0000000000000022
  0
VERTEX
  5
208
  8
DEFAULT
 10
-27.90000000000001
 20
-40.0
 30
-0.0000000000000022
  0
VERTEX
  5
209
  8
DEFAULT
 10
-27.90000000000001
 20
-53.89999999999105
 30
-0.0000000000000013
  0
VERTEX
  5
20A
  8
DEFAULT
 10
-18.0
 20
-53.90000000000001
 30
-0.0000000000000013
  0
VERTEX
  5
20B
  8
DEFAULT
 10
-18.0
 20
-72.9999999999987
 30
-0.0000000000000003
  0
VERTEX
  5
20C
  8
DEFAULT
 10
-22.0
 20
-72.9999999999987
 30
-0.0000000000000003
  0
VERTEX
  5
20D
  8
DEFAULT
 10
-22.0
 20
-67.10000000000001
 30
-0.0000000000000006
  0
VERTEX
  5
20E
  8
DEFAULT
 10
-27.90000000000001
 20
-67.1000000000013
 30
-0.0000000000000006
  0
VERTEX
  5
20F
  8
DEFAULT
 10
-27.90000000000001
 20
-73.0
 30
-0.0000000000000003
  0
VERTEX
  5
210
  8
DEFAULT
 10
-58.09999999999998
 20
-73.0
 30
-0.0000000000000003
  0
VERTEX
  5
211
  8
DEFAULT
 10
-58.09999999999999
 20
-67.10000000000001
 30
-0.0000000000000006
  0
VERTEX
  5
212
  8
DEFAULT
 10
-64.0
 20
-67.10000000000001
 30
-0.0000000000000006
  0
VERTEX
  5
213
  8
DEFAULT
 10
-64.0
 20
-73.0
 30
-0.0000000000000003
  0
VERTEX
  5
214
  8
DEFAULT
 10
-67.0
 20
-73.0
 30
-0.0000000000000003
  0
VERTEX
  5
215
  8
DEFAULT
 10
-67.0
 20
-71.0
 30
-0.0000000000000003
  0
VERTEX
  5
216
  8
DEFAULT
 10
-86.0
 20
-71.0
 30
-0.0000000000000004
  0
VERTEX
  5
217
  8
DEFAULT
 10
-86.0
 20
-59.10000000000001
 30
-0.000000000000001
  0
VERTEX
  5
218
  8
DEFAULT
 10
-92.0
 20
-59.10000000000001
 30
-0.000000000000001
  0
VERTEX
  5
219
  8
DEFAULT
 10
-92.0
 20
-61.0
 30
-0.0000000000000009
  0
VERTEX
  5
21A
  8
DEFAULT
 10
-101.0
 20
-61.0
 30
-0.0000000000000009
  0
VERTEX
  5
21B
  8
DEFAULT
 10
-101.0
 20
-40.0
 30
-0.0000000000000022
  0
VERTEX
  5
21C
  8
DEFAULT
 10
-92.0
 20
-40.0
 30
-0.0000000000000022
  0
VERTEX
  5
21D
  8
DEFAULT
 10
-92.0
 20
-50.90000000000001
 30
-0.0000000000000015
  0
VERTEX
  5
21E
  8
DEFAULT
 10
-86.00000000000003
 20
-50.90000000000001
 30
-0.0000000000000015
  0
VERTEX
  5
21F
  8
DEFAULT
 10
-86.0
 20
-48.0
 30
-0.0000000000000017
  0
VERTEX
  5
220
  8
DEFAULT
 10
-64.0
 20
-48.0
 30
-0.0000000000000017
  0
VERTEX
  5
221
  8
DEFAULT
 10
-64.0
 20
-53.90000000000001
 30
-0.0000000000000013
  0
VERTEX
  5
222
  8
DEFAULT
 10
-58.09999999999999
 20
-53.89999999999105
 30
-0.0000000000000013
  0
VERTEX
  5
223
  8
DEFAULT
 10
-58.09999999999999
 20
-40.0
 30
-0.0000000000000022
  0
VERTEX
  5
224
  8
DEFAULT
 10
-50.0
 20
-40.00000000000642
 30
-0.0000000000000022
  0
SEQEND
  5
203
  8
DEFAULT
  0
CIRCLE
  5
225
  8
DEFAULT
 10
66.1
 20
101.3
 30
-0.0000000000000009
 40
1.35
  0
CIRCLE
  5
226
  8
DEFAULT
 10
38.19999999999999
 20
129.4
 30
0.0
 40
1.35
  0
CIRCLE
  5
227
  8
DEFAULT
 10
74.19999999999999
 20
129.4
 30
0.0
 40
1.35
  0
CIRCLE
  5
228
  8
DEFAULT
 10
2.099999999999994
 20
107.3
 30
-0.0000000000000013
 40
1.35
  0
CIRCLE
  5
229
  8
DEFAULT
 10
30.09999999999999
 20
101.3
 30
-0.0000000000000009
 40
1.35
  0
CIRCLE
  5
22A
  8
DEFAULT
 10
48.09999999999999
 20
101.3
 30
-0.0000000000000009
 40
1.35
  0
CIRCLE
  5
22B
  8
DEFAULT
 10
-25.0
 20
101.3
 30
-0.0000000000000009
 40
1.35
  0
CIRCLE
  5
22C
  8
DEFAULT
 10
-52.90000000000001
 20
129.4
 30
0.0
 40
1.35
  0
CIRCLE
  5
22D
  8
DEFAULT
 10
-16.90000000000001
 20
129.4
 30
0.0
 40
1.35
  0
CIRCLE
  5
22E
  8
DEFAULT
 10
-89.0
 20
107.3
 30
-0.0000000000000013
 40
1.35
  0
CIRCLE
  5
22F
  8
DEFAULT
 10
-61.0
 20
101.3
 30
-0.0000000000000009
 40
1.35
  0
CIRCLE
  5
230
  8
DEFAULT
 10
-43.0
 20
101.3
 30
-0.0000000000000009
 40
1.35
  0
CIRCLE
  5
231
  8
DEFAULT
 10
66.1
 20
47.19999999999999
 30
-0.0000000000000009
 40
1.35
  0
CIRCLE
  5
232
  8
DEFAULT
 10
38.19999999999999
 20
75.29999999999998
 30
0.0
 40
1.35
  0
CIRCLE
  5
233
  8
DEFAULT
 10
74.19999999999999
 20
75.29999999999998
 30
0.0
 40
1.35
  0
CIRCLE
  5
234
  8
DEFAULT
 10
2.099999999999994
 20
53.19999999999999
 30
-0.0000000000000013
 40
1.35
  0
CIRCLE
  5
235
  8
DEFAULT
 10
30.09999999999999
 20
47.19999999999999
 30
-0.0000000000000009
 40
1.35
  0
CIRCLE
  5
236
  8
DEFAULT
 10
48.09999999999999
 20
47.19999999999999
 30
-0.0000000000000009
 40
1.35
  0
CIRCLE
  5
237
  8
DEFAULT
 10
-25.0
 20
47.19999999999999
 30
-0.0000000000000009
 40
1.35
  0
CIRCLE
  5
238
  8
DEFAULT
 10
-52.90000000000001
 20
75.29999999999998
 30
0.0
 40
1.35
  0
CIRCLE
  5
239
  8
DEFAULT
 10
-16.90000000000001
 20
75.29999999999998
 30
0.0
 40
1.35
  0
CIRCLE
  5
23A
  8
DEFAULT
 10
-89.0
 20
53.19999999999999
 30
-0.0000000000000013
 40
1.35
  0
CIRCLE
  5
23B
  8
DEFAULT
 10
-61.0
 20
47.19999999999999
 30
-0.0000000000000009
 40
1.35
  0
CIRCLE
  5
23C
  8
DEFAULT
 10
-43.0
 20
47.19999999999999
 30
-0.0000000000000009
 40
1.35
  0
CIRCLE
  5
23D
  8
DEFAULT
 10
66.1
 20
-6.900000000000006
 30
-0.0000000000000009
 40
1.35
  0
CIRCLE
  5
23E
  8
DEFAULT
 10
38.19999999999999
 20
21.19999999999999
 30
0.0
 40
1.35
  0
CIRCLE
  5
23F
  8
DEFAULT
 10
74.19999999999999
 20
21.19999999999999
 30
0.0
 40
1.35
  0
CIRCLE
  5
240
  8
DEFAULT
 10
2.099999999999994
 20
-0.9000000000000057
 30
-0.0000000000000013
 40
1.35
  0
CIRCLE
  5
241
  8
DEFAULT
 10
30.09999999999999
 20
-6.900000000000006
 30
-0.0000000000000009
 40
1.35
  0
CIRCLE
  5
242
  8
DEFAULT
 10
48.09999999999999
 20
-6.900000000000006
 30
-0.0000000000000009
 40
1.35
  0
CIRCLE
  5
243
  8
DEFAULT
 10
-25.0
 20
-6.900000000000006
 30
-0.0000000000000009
 40
1.35
  0
CIRCLE
  5
244
  8
DEFAULT
 10
-52.90000000000001
 20
21.19999999999999
 30
0.0
 40
1.35
  0
CIRCLE
  5
245
  8
DEFAULT
 10
-16.90000000000001
 20
21.19999999999999
 30
0.0
 40
1.35
  0
CIRCLE
  5
246
  8
DEFAULT
 10
-89.0
 20
-0.9000000000000057
 30
-0.0000000000000013
 40
1.35
  0
CIRCLE
  5
247
  8
DEFAULT
 10
-61.0
 20
-6.900000000000006
 30
-0.0000000000000009
 40
1.35
  0
CIRCLE
  5
248
  8
DEFAULT
 10
-43.0
 20
-6.900000000000006
 30
-0.0000000000000009
 40
1.35
  0
CIRCLE
  5
249
  8
DEFAULT
 10
66.1
 20
-61.0
 30
-0.0000000000000009
 40
1.35
  0
CIRCLE
  5
24A
  8
DEFAULT
 10
38.19999999999999
 20
-32.90000000000001
 30
0.0
 40
1.35
  0
CIRCLE
  5
24B
  8
DEFAULT
 10
74.19999999999999
 20
-32.90000000000001
 30
0.0
 40
1.35
  0
CIRCLE
  5
24C
  8
DEFAULT
 10
2.099999999999994
 20
-55.0
 30
-0.0000000000000013
 40
1.35
  0
CIRCLE
  5
24D
  8
DEFAULT
 10
30.09999999999999
 20
-61.0
 30
-0.0000000000000009
 40
1.35
  0
CIRCLE
  5
24E
  8
DEFAULT
 10
48.09999999999999
 20
-61.0
 30
-0.0000000000000009
 40
1.35
  0
CIRCLE
  5
24F
  8
DEFAULT
 10
-16.90000000000001
 20
-32.90000000000001
 30
0.0
 40
1.35
  0
CIRCLE
  5
250
  8
DEFAULT
 10
-52.90000000000001
 20
-32.90000000000001
 30
0.0
 40
1.35
  0
CIRCLE
  5
251
  8
DEFAULT
 10
-25.0
 20
-61.0
 30
-0.0000000000000009
 40
1.35
  0
CIRCLE
  5
252
  8
DEFAULT
 10
-89.0
 20
-55.0
 30
-0.0000000000000013
 40
1.35
  0
CIRCLE
  5
253
  8
DEFAULT
 10
-61.0
 20
-61.0
 30
-0.0000000000000009
 40
1.35
  0
CIRCLE
  5
254
  8
DEFAULT
 10
-43.0
 20
-61.0
 30
-0.0000000000000009
 40
1.35
  0
ENDSEC
  0
EOF
