  0
SECTION
  2
HEADER
  9
$ACADVER
  1
AC1009
  9
$DWGCODEPAGE
  3
ansi_1252
  9
$INSBASE
 10
0.0
 20
0.0
 30
0.0
  9
$EXTMIN
 10
-12.50000000000009
 20
-117.9999999999998
 30
0.0
  9
$EXTMAX
 10
159.4999999992916
 20
33.50000000000023
 30
0.0
  9
$LIMMIN
 10
0.0
 20
0.0
  9
$LIMMAX
 10
12.0
 20
9.0
  9
$ORTHOMODE
 70
     0
  9
$REGENMODE
 70
     1
  9
$FILLMODE
 70
     1
  9
$QTEXTMODE
 70
     0
  9
$MIRRTEXT
 70
     1
  9
$DRAGMODE
 70
     2
  9
$LTSCALE
 40
1.0
  9
$OSMODE
 70
    37
  9
$ATTMODE
 70
     1
  9
$TEXTSIZE
 40
0.2
  9
$TRACEWID
 40
0.05
  9
$TEXTSTYLE
  7
STANDARD
  9
$CLAYER
  8
0
  9
$CELTYPE
  6
BYLAYER
  9
$CECOLOR
 62
   256
  9
$DIMSCALE
 40
1.0
  9
$DIMASZ
 40
0.18
  9
$DIMEXO
 40
0.0625
  9
$DIMDLI
 40
0.38
  9
$DIMRND
 40
0.0
  9
$DIMDLE
 40
0.0
  9
$DIMEXE
 40
0.18
  9
$DIMTP
 40
0.0
  9
$DIMTM
 40
0.0
  9
$DIMTXT
 40
0.18
  9
$DIMCEN
 40
0.09
  9
$DIMTSZ
 40
0.0
  9
$DIMTOL
 70
     0
  9
$DIMLIM
 70
     0
  9
$DIMTIH
 70
     1
  9
$DIMTOH
 70
     1
  9
$DIMSE1
 70
     0
  9
$DIMSE2
 70
     0
  9
$DIMTAD
 70
     0
  9
$DIMZIN
 70
     0
  9
$DIMBLK
  1

  9
$DIMASO
 70
     1
  9
$DIMSHO
 70
     1
  9
$DIMPOST
  1

  9
$DIMAPOST
  1

  9
$DIMALT
 70
     0
  9
$DIMALTD
 70
     2
  9
$DIMALTF
 40
25.4
  9
$DIMLFAC
 40
1.0
  9
$DIMTOFL
 70
     0
  9
$DIMTVP
 40
0.0
  9
$DIMTIX
 70
     0
  9
$DIMSOXD
 70
     0
  9
$DIMSAH
 70
     0
  9
$DIMBLK1
  1

  9
$DIMBLK2
  1

  9
$DIMSTYLE
  2
STANDARD
  9
$DIMCLRD
 70
     0
  9
$DIMCLRE
 70
     0
  9
$DIMCLRT
 70
     0
  9
$DIMTFAC
 40
1.0
  9
$DIMGAP
 40
0.09
  9
$LUNITS
 70
     2
  9
$LUPREC
 70
     3
  9
$SKETCHINC
 40
0.1
  9
$FILLETRAD
 40
0.5
  9
$AUNITS
 70
     0
  9
$AUPREC
 70
     0
  9
$MENU
  1
.
  9
$ELEVATION
 40
0.0
  9
$PELEVATION
 40
0.0
  9
$THICKNESS
 40
0.0
  9
$LIMCHECK
 70
     0
  9
$CHAMFERA
 40
0.5
  9
$CHAMFERB
 40
0.5
  9
$SKPOLY
 70
     0
  9
$TDCREATE
 40
2457808.853265891
  9
$TDUPDATE
 40
2457808.853265903
  9
$TDINDWG
 40
0.0000000116
  9
$TDUSRTIMER
 40
0.0000000116
  9
$USRTIMER
 70
     1
  9
$ANGBASE
 50
0.0
  9
$ANGDIR
 70
     0
  9
$PDMODE
 70
     0
  9
$PDSIZE
 40
0.0
  9
$PLINEWID
 40
0.0
  9
$COORDS
 70
     1
  9
$SPLFRAME
 70
     0
  9
$SPLINETYPE
 70
     6
  9
$SPLINESEGS
 70
     8
  9
$ATTDIA
 70
     0
  9
$ATTREQ
 70
     1
  9
$HANDLING
 70
     1
  9
$HANDSEED
  5
29A
  9
$SURFTAB1
 70
     6
  9
$SURFTAB2
 70
     6
  9
$SURFTYPE
 70
     6
  9
$SURFU
 70
     6
  9
$SURFV
 70
     6
  9
$UCSNAME
  2

  9
$UCSORG
 10
0.0
 20
0.0
 30
0.0
  9
$UCSXDIR
 10
1.0
 20
0.0
 30
0.0
  9
$UCSYDIR
 10
0.0
 20
1.0
 30
0.0
  9
$PUCSNAME
  2

  9
$PUCSORG
 10
0.0
 20
0.0
 30
0.0
  9
$PUCSXDIR
 10
1.0
 20
0.0
 30
0.0
  9
$PUCSYDIR
 10
0.0
 20
1.0
 30
0.0
  9
$USERI1
 70
     0
  9
$USERI2
 70
     0
  9
$USERI3
 70
     0
  9
$USERI4
 70
     0
  9
$USERI5
 70
     0
  9
$USERR1
 40
0.0
  9
$USERR2
 40
0.0
  9
$USERR3
 40
0.0
  9
$USERR4
 40
0.0
  9
$USERR5
 40
0.0
  9
$WORLDVIEW
 70
     1
  9
$SHADEDGE
 70
     3
  9
$SHADEDIF
 70
    70
  9
$TILEMODE
 70
     1
  9
$MAXACTVP
 70
    64
  9
$PLIMCHECK
 70
     0
  9
$PEXTMIN
 10
1.000000000000000E+20
 20
1.000000000000000E+20
 30
1.000000000000000E+20
  9
$PEXTMAX
 10
-1.000000000000000E+20
 20
-1.000000000000000E+20
 30
-1.000000000000000E+20
  9
$PLIMMIN
 10
0.0
 20
0.0
  9
$PLIMMAX
 10
12.0
 20
9.0
  9
$UNITMODE
 70
     0
  9
$VISRETAIN
 70
     1
  9
$PLINEGEN
 70
     0
  9
$PSLTSCALE
 70
     1
  0
ENDSEC
  0
SECTION
  2
TABLES
  0
TABLE
  2
VPORT
 70
     1
  0
VPORT
  2
*ACTIVE
 70
     0
 10
0.0
 20
0.0
 11
1.0
 21
1.0
 12
0.0
 22
0.0
 13
0.0
 23
0.0
 14
0.5
 24
0.5
 15
0.5
 25
0.5
 16
0.0
 26
0.0
 36
1.0
 17
73.49999999964575
 27
-42.2499999999998
 37
0.0
 40
154.5300000000001
 41
1.135313531348459
 42
50.0
 43
0.0
 44
0.0
 50
0.0
 51
0.0
 71
     0
 72
   100
 73
     1
 74
     3
 75
     0
 76
     0
 77
     0
 78
     0
  0
ENDTAB
  0
TABLE
  2
LTYPE
 70
     1
  0
LTYPE
  2
CONTINUOUS
 70
     0
  3
Solid line
 72
    65
 73
     0
 40
0.0
  0
ENDTAB
  0
TABLE
  2
LAYER
 70
     2
  0
LAYER
  2
0
 70
     0
 62
     7
  6
CONTINUOUS
  0
LAYER
  2
MOTOR_RAIL_385
 70
     0
 62
     1
  6
CONTINUOUS
  0
ENDTAB
  0
TABLE
  2
STYLE
 70
     1
  0
STYLE
  2
STANDARD
 70
     0
 40
0.0
 41
1.0
 50
0.0
 71
     0
 42
0.2
  3
txt
  4

  0
ENDTAB
  0
TABLE
  2
VIEW
 70
     0
  0
ENDTAB
  0
TABLE
  2
UCS
 70
     0
  0
ENDTAB
  0
TABLE
  2
APPID
 70
     1
  0
APPID
  2
ACAD
 70
     0
  0
ENDTAB
  0
TABLE
  2
DIMSTYLE
 70
     1
  0
DIMSTYLE
  2
STANDARD
 70
     0
  3

  4

  5

  6

  7

 40
1.0
 41
0.18
 42
0.0625
 43
0.38
 44
0.18
 45
0.0
 46
0.0
 47
0.0
 48
0.0
140
0.18
141
0.09
142
0.0
143
25.4
144
1.0
145
0.0
146
1.0
147
0.09
 71
     0
 72
     0
 73
     1
 74
     1
 75
     0
 76
     0
 77
     0
 78
     0
170
     0
171
     2
172
     0
173
     0
174
     0
175
     0
176
     0
177
     0
178
     0
  0
ENDTAB
  0
ENDSEC
  0
SECTION
  2
BLOCKS
  0
BLOCK
  8
0
  2
$MODEL_SPACE
 70
     0
 10
0.0
 20
0.0
 30
0.0
  3
$MODEL_SPACE
  1

  0
ENDBLK
  5
21
  8
0
  0
BLOCK
 67
     1
  8
0
  2
$PAPER_SPACE
 70
     0
 10
0.0
 20
0.0
 30
0.0
  3
$PAPER_SPACE
  1

  0
ENDBLK
  5
1D
 67
     1
  8
0
  0
ENDSEC
  0
SECTION
  2
ENTITIES
  0
POLYLINE
  5
5E
  8
MOTOR_RAIL_385
 66
     1
 10
0.0
 20
0.0
 30
0.0
  0
VERTEX
  5
60
  8
MOTOR_RAIL_385
 10
140.1999999992949
 20
-48.75
 30
0.0
  0
VERTEX
  5
61
  8
MOTOR_RAIL_385
 10
140.1999999992949
 20
-46.69999999999999
 30
0.0
  0
VERTEX
  5
62
  8
MOTOR_RAIL_385
 10
142.3999999992949
 20
-46.69999999999999
 30
0.0
  0
VERTEX
  5
63
  8
MOTOR_RAIL_385
 10
142.3999999992949
 20
-48.75
 30
0.0
  0
VERTEX
  5
64
  8
MOTOR_RAIL_385
 10
145.9999999992932
 20
-48.75
 30
0.0
  0
VERTEX
  5
65
  8
MOTOR_RAIL_385
 10
145.9999999992916
 20
-46.0
 30
0.0
  0
VERTEX
  5
66
  8
MOTOR_RAIL_385
 10
148.9999999992925
 20
-45.99999999999707
 30
0.0
  0
VERTEX
  5
67
  8
MOTOR_RAIL_385
 10
148.9999999992916
 20
-42.99999999999707
 30
0.0
  0
VERTEX
  5
68
  8
MOTOR_RAIL_385
 10
111.2499999992916
 20
-42.99999999999917
 30
0.0
  0
VERTEX
  5
69
  8
MOTOR_RAIL_385
 10
111.2499999992916
 20
-46.59999999999917
 30
0.0
  0
VERTEX
  5
6A
  8
MOTOR_RAIL_385
 10
113.2999999992916
 20
-46.59999999999917
 30
0.0
  0
VERTEX
  5
6B
  8
MOTOR_RAIL_385
 10
113.2999999992916
 20
-48.79999999999917
 30
0.0
  0
VERTEX
  5
6C
  8
MOTOR_RAIL_385
 10
111.2499999992916
 20
-48.79999999999917
 30
0.0
  0
VERTEX
  5
6D
  8
MOTOR_RAIL_385
 10
111.2499999992916
 20
-50.59999999999917
 30
0.0
  0
VERTEX
  5
6E
  8
MOTOR_RAIL_385
 10
108.7499999992916
 20
-50.59999999999917
 30
0.0
  0
VERTEX
  5
6F
  8
MOTOR_RAIL_385
 10
108.7499999992916
 20
-48.79999999999917
 30
0.0
  0
VERTEX
  5
70
  8
MOTOR_RAIL_385
 10
106.6999999992916
 20
-48.79999999999917
 30
0.0
  0
VERTEX
  5
71
  8
MOTOR_RAIL_385
 10
106.6999999992916
 20
-46.59999999999917
 30
0.0
  0
VERTEX
  5
72
  8
MOTOR_RAIL_385
 10
108.7499999992916
 20
-46.59999999999917
 30
0.0
  0
VERTEX
  5
73
  8
MOTOR_RAIL_385
 10
108.7499999992916
 20
-42.99999999999917
 30
0.0
  0
VERTEX
  5
74
  8
MOTOR_RAIL_385
 10
102.4999999992916
 20
-42.99999999999983
 30
0.0
  0
VERTEX
  5
75
  8
MOTOR_RAIL_385
 10
102.4999999992867
 20
-35.0
 30
0.0
  0
VERTEX
  5
76
  8
MOTOR_RAIL_385
 10
96.49999999929156
 20
-35.0
 30
0.0
  0
VERTEX
  5
77
  8
MOTOR_RAIL_385
 10
96.49999999964578
 20
-70.99999999997563
 30
0.0
  0
VERTEX
  5
78
  8
MOTOR_RAIL_385
 10
102.4999999993162
 20
-70.9999999999166
 30
0.0
  0
VERTEX
  5
79
  8
MOTOR_RAIL_385
 10
102.4999999992916
 20
-68.9999999999166
 30
0.0
  0
VERTEX
  5
7A
  8
MOTOR_RAIL_385
 10
108.7499999992916
 20
-68.99999999998388
 30
0.0
  0
VERTEX
  5
7B
  8
MOTOR_RAIL_385
 10
108.7499999992916
 20
-65.39999999999999
 30
0.0
  0
VERTEX
  5
7C
  8
MOTOR_RAIL_385
 10
106.6999999992915
 20
-65.4
 30
0.0
  0
VERTEX
  5
7D
  8
MOTOR_RAIL_385
 10
106.6999999992915
 20
-63.2
 30
0.0
  0
VERTEX
  5
7E
  8
MOTOR_RAIL_385
 10
108.7499999992916
 20
-63.2
 30
0.0
  0
VERTEX
  5
7F
  8
MOTOR_RAIL_385
 10
108.7499999992916
 20
-61.4
 30
0.0
  0
VERTEX
  5
80
  8
MOTOR_RAIL_385
 10
111.2499999992916
 20
-61.4
 30
0.0
  0
VERTEX
  5
81
  8
MOTOR_RAIL_385
 10
111.2499999992916
 20
-63.2
 30
0.0
  0
VERTEX
  5
82
  8
MOTOR_RAIL_385
 10
113.2999999992916
 20
-63.2
 30
0.0
  0
VERTEX
  5
83
  8
MOTOR_RAIL_385
 10
113.2999999992916
 20
-65.4
 30
0.0
  0
VERTEX
  5
84
  8
MOTOR_RAIL_385
 10
111.2499999992916
 20
-65.39999999999999
 30
0.0
  0
VERTEX
  5
85
  8
MOTOR_RAIL_385
 10
111.2499999992916
 20
-68.99999999998376
 30
0.0
  0
VERTEX
  5
86
  8
MOTOR_RAIL_385
 10
127.7499999992916
 20
-69.0
 30
0.0
  0
VERTEX
  5
87
  8
MOTOR_RAIL_385
 10
127.7499999992916
 20
-65.39999999999999
 30
0.0
  0
VERTEX
  5
88
  8
MOTOR_RAIL_385
 10
125.6999999992915
 20
-65.4
 30
0.0
  0
VERTEX
  5
89
  8
MOTOR_RAIL_385
 10
125.6999999992915
 20
-63.2
 30
0.0
  0
VERTEX
  5
8A
  8
MOTOR_RAIL_385
 10
127.7499999992916
 20
-63.2
 30
0.0
  0
VERTEX
  5
8B
  8
MOTOR_RAIL_385
 10
127.7499999992916
 20
-61.4
 30
0.0
  0
VERTEX
  5
8C
  8
MOTOR_RAIL_385
 10
130.2499999992916
 20
-61.4
 30
0.0
  0
VERTEX
  5
8D
  8
MOTOR_RAIL_385
 10
130.2499999992916
 20
-63.2
 30
0.0
  0
VERTEX
  5
8E
  8
MOTOR_RAIL_385
 10
132.2999999992916
 20
-63.2
 30
0.0
  0
VERTEX
  5
8F
  8
MOTOR_RAIL_385
 10
132.2999999992916
 20
-65.4
 30
0.0
  0
VERTEX
  5
90
  8
MOTOR_RAIL_385
 10
130.2499999992916
 20
-65.39999999999999
 30
0.0
  0
VERTEX
  5
91
  8
MOTOR_RAIL_385
 10
130.2499999992916
 20
-68.99999999999736
 30
0.0
  0
VERTEX
  5
92
  8
MOTOR_RAIL_385
 10
134.4999999992916
 20
-69.0
 30
0.0
  0
VERTEX
  5
93
  8
MOTOR_RAIL_385
 10
134.4999999992915
 20
-70.00000000000001
 30
0.0
 42
1.752018933840362
  0
VERTEX
  5
94
  8
MOTOR_RAIL_385
 10
153.0344827579123
 20
-59.0530818110342
 30
0.0
 42
-0.2732608139403138
  0
VERTEX
  5
95
  8
MOTOR_RAIL_385
 10
151.9999999992916
 20
-57.30157490079958
 30
0.0
  0
VERTEX
  5
96
  8
MOTOR_RAIL_385
 10
151.9999999992916
 20
-56.0
 30
0.0
 42
0.4142135623730921
  0
VERTEX
  5
97
  8
MOTOR_RAIL_385
 10
149.9999999992916
 20
-54.0
 30
0.0
  0
VERTEX
  5
98
  8
MOTOR_RAIL_385
 10
145.9999999992916
 20
-54.0
 30
0.0
  0
VERTEX
  5
99
  8
MOTOR_RAIL_385
 10
145.9999999992932
 20
-51.25
 30
0.0
  0
VERTEX
  5
9A
  8
MOTOR_RAIL_385
 10
142.3999999992949
 20
-51.25
 30
0.0
  0
VERTEX
  5
9B
  8
MOTOR_RAIL_385
 10
142.3999999992949
 20
-53.30000000000001
 30
0.0
  0
VERTEX
  5
9C
  8
MOTOR_RAIL_385
 10
140.1999999992949
 20
-53.30000000000001
 30
0.0
  0
VERTEX
  5
9D
  8
MOTOR_RAIL_385
 10
140.1999999992949
 20
-51.25
 30
0.0
  0
VERTEX
  5
9E
  8
MOTOR_RAIL_385
 10
138.3999999992949
 20
-51.25
 30
0.0
  0
VERTEX
  5
9F
  8
MOTOR_RAIL_385
 10
138.3999999992949
 20
-48.75
 30
0.0
  0
VERTEX
  5
A0
  8
MOTOR_RAIL_385
 10
140.1999999992949
 20
-48.75
 30
0.0
  0
SEQEND
  5
5F
  8
MOTOR_RAIL_385
  0
CIRCLE
  5
A1
  8
MOTOR_RAIL_385
 10
103.9999999992916
 20
-61.0
 30
0.0
 40
1.35
  0
CIRCLE
  5
A2
  8
MOTOR_RAIL_385
 10
138.9999999992916
 20
-70.0
 30
0.0
 40
1.3
  0
CIRCLE
  5
A3
  8
MOTOR_RAIL_385
 10
146.9999999992916
 20
-70.0
 30
0.0
 40
5.0
  0
CIRCLE
  5
A4
  8
MOTOR_RAIL_385
 10
154.9999999992916
 20
-70.0
 30
0.0
 40
1.3
  0
CIRCLE
  5
A5
  8
MOTOR_RAIL_385
 10
81.99999999929156
 20
12.00000000000017
 30
0.0
 40
1.35
  0
POLYLINE
  5
A6
  8
MOTOR_RAIL_385
 66
     1
 10
0.0
 20
0.0
 30
0.0
  0
VERTEX
  5
A8
  8
MOTOR_RAIL_385
 10
118.1999999992949
 20
-0.2499999999998295
 30
0.0
  0
VERTEX
  5
A9
  8
MOTOR_RAIL_385
 10
118.1999999992949
 20
-2.299999999999841
 30
0.0
  0
VERTEX
  5
AA
  8
MOTOR_RAIL_385
 10
120.3999999992949
 20
-2.299999999999841
 30
0.0
  0
VERTEX
  5
AB
  8
MOTOR_RAIL_385
 10
120.3999999992949
 20
-0.2499999999998295
 30
0.0
  0
VERTEX
  5
AC
  8
MOTOR_RAIL_385
 10
123.9999999992932
 20
-0.2499999999998295
 30
0.0
  0
VERTEX
  5
AD
  8
MOTOR_RAIL_385
 10
123.9999999992916
 20
-2.999999999999829
 30
0.0
  0
VERTEX
  5
AE
  8
MOTOR_RAIL_385
 10
126.9999999992925
 20
-3.000000000002757
 30
0.0
  0
VERTEX
  5
AF
  8
MOTOR_RAIL_385
 10
126.9999999992916
 20
-6.000000000002757
 30
0.0
  0
VERTEX
  5
B0
  8
MOTOR_RAIL_385
 10
89.24999999929156
 20
-6.000000000000661
 30
0.0
  0
VERTEX
  5
B1
  8
MOTOR_RAIL_385
 10
89.24999999929156
 20
-2.400000000000659
 30
0.0
  0
VERTEX
  5
B2
  8
MOTOR_RAIL_385
 10
91.29999999929156
 20
-2.400000000000659
 30
0.0
  0
VERTEX
  5
B3
  8
MOTOR_RAIL_385
 10
91.29999999929156
 20
-0.2000000000006601
 30
0.0
  0
VERTEX
  5
B4
  8
MOTOR_RAIL_385
 10
89.24999999929156
 20
-0.2000000000006601
 30
0.0
  0
VERTEX
  5
B5
  8
MOTOR_RAIL_385
 10
89.24999999929156
 20
1.599999999999341
 30
0.0
  0
VERTEX
  5
B6
  8
MOTOR_RAIL_385
 10
86.74999999929156
 20
1.599999999999341
 30
0.0
  0
VERTEX
  5
B7
  8
MOTOR_RAIL_385
 10
86.74999999929156
 20
-0.2000000000006601
 30
0.0
  0
VERTEX
  5
B8
  8
MOTOR_RAIL_385
 10
84.69999999929156
 20
-0.2000000000006601
 30
0.0
  0
VERTEX
  5
B9
  8
MOTOR_RAIL_385
 10
84.69999999929156
 20
-2.400000000000659
 30
0.0
  0
VERTEX
  5
BA
  8
MOTOR_RAIL_385
 10
86.74999999929156
 20
-2.400000000000659
 30
0.0
  0
VERTEX
  5
BB
  8
MOTOR_RAIL_385
 10
86.74999999929156
 20
-6.000000000000661
 30
0.0
  0
VERTEX
  5
BC
  8
MOTOR_RAIL_385
 10
80.49999999929156
 20
-6.0
 30
0.0
  0
VERTEX
  5
BD
  8
MOTOR_RAIL_385
 10
80.4999999992867
 20
-13.99999999999983
 30
0.0
  0
VERTEX
  5
BE
  8
MOTOR_RAIL_385
 10
74.49999999929156
 20
-13.99999999999983
 30
0.0
  0
VERTEX
  5
BF
  8
MOTOR_RAIL_385
 10
74.49999999964578
 20
21.9999999999758
 30
0.0
  0
VERTEX
  5
C0
  8
MOTOR_RAIL_385
 10
80.49999999931617
 20
21.99999999991676
 30
0.0
  0
VERTEX
  5
C1
  8
MOTOR_RAIL_385
 10
80.49999999929156
 20
19.99999999991676
 30
0.0
  0
VERTEX
  5
C2
  8
MOTOR_RAIL_385
 10
86.74999999929156
 20
19.99999999998406
 30
0.0
  0
VERTEX
  5
C3
  8
MOTOR_RAIL_385
 10
86.74999999929156
 20
16.40000000000017
 30
0.0
  0
VERTEX
  5
C4
  8
MOTOR_RAIL_385
 10
84.69999999929155
 20
16.40000000000017
 30
0.0
  0
VERTEX
  5
C5
  8
MOTOR_RAIL_385
 10
84.69999999929155
 20
14.20000000000017
 30
0.0
  0
VERTEX
  5
C6
  8
MOTOR_RAIL_385
 10
86.74999999929156
 20
14.20000000000017
 30
0.0
  0
VERTEX
  5
C7
  8
MOTOR_RAIL_385
 10
86.74999999929156
 20
12.40000000000017
 30
0.0
  0
VERTEX
  5
C8
  8
MOTOR_RAIL_385
 10
89.24999999929156
 20
12.40000000000017
 30
0.0
  0
VERTEX
  5
C9
  8
MOTOR_RAIL_385
 10
89.24999999929156
 20
14.20000000000017
 30
0.0
  0
VERTEX
  5
CA
  8
MOTOR_RAIL_385
 10
91.29999999929157
 20
14.20000000000017
 30
0.0
  0
VERTEX
  5
CB
  8
MOTOR_RAIL_385
 10
91.29999999929157
 20
16.40000000000017
 30
0.0
  0
VERTEX
  5
CC
  8
MOTOR_RAIL_385
 10
89.24999999929156
 20
16.40000000000017
 30
0.0
  0
VERTEX
  5
CD
  8
MOTOR_RAIL_385
 10
89.24999999929156
 20
19.99999999998393
 30
0.0
  0
VERTEX
  5
CE
  8
MOTOR_RAIL_385
 10
105.7499999992916
 20
20.00000000000017
 30
0.0
  0
VERTEX
  5
CF
  8
MOTOR_RAIL_385
 10
105.7499999992916
 20
16.40000000000017
 30
0.0
  0
VERTEX
  5
D0
  8
MOTOR_RAIL_385
 10
103.6999999992915
 20
16.40000000000017
 30
0.0
  0
VERTEX
  5
D1
  8
MOTOR_RAIL_385
 10
103.6999999992915
 20
14.20000000000017
 30
0.0
  0
VERTEX
  5
D2
  8
MOTOR_RAIL_385
 10
105.7499999992916
 20
14.20000000000017
 30
0.0
  0
VERTEX
  5
D3
  8
MOTOR_RAIL_385
 10
105.7499999992916
 20
12.40000000000017
 30
0.0
  0
VERTEX
  5
D4
  8
MOTOR_RAIL_385
 10
108.2499999992916
 20
12.40000000000017
 30
0.0
  0
VERTEX
  5
D5
  8
MOTOR_RAIL_385
 10
108.2499999992916
 20
14.20000000000017
 30
0.0
  0
VERTEX
  5
D6
  8
MOTOR_RAIL_385
 10
110.2999999992916
 20
14.20000000000017
 30
0.0
  0
VERTEX
  5
D7
  8
MOTOR_RAIL_385
 10
110.2999999992916
 20
16.40000000000017
 30
0.0
  0
VERTEX
  5
D8
  8
MOTOR_RAIL_385
 10
108.2499999992916
 20
16.40000000000017
 30
0.0
  0
VERTEX
  5
D9
  8
MOTOR_RAIL_385
 10
108.2499999992916
 20
19.99999999999753
 30
0.0
  0
VERTEX
  5
DA
  8
MOTOR_RAIL_385
 10
112.4999999992916
 20
20.00000000000017
 30
0.0
  0
VERTEX
  5
DB
  8
MOTOR_RAIL_385
 10
112.4999999992915
 20
21.00000000000018
 30
0.0
 42
-1.752018933840362
  0
VERTEX
  5
DC
  8
MOTOR_RAIL_385
 10
131.0344827579123
 20
10.05308181103437
 30
0.0
 42
0.2732608139403136
  0
VERTEX
  5
DD
  8
MOTOR_RAIL_385
 10
129.9999999992916
 20
8.30157490079975
 30
0.0
  0
VERTEX
  5
DE
  8
MOTOR_RAIL_385
 10
129.9999999992916
 20
7.000000000000171
 30
0.0
 42
-0.4142135623730927
  0
VERTEX
  5
DF
  8
MOTOR_RAIL_385
 10
127.9999999992916
 20
5.000000000000171
 30
0.0
  0
VERTEX
  5
E0
  8
MOTOR_RAIL_385
 10
123.9999999992916
 20
5.000000000000171
 30
0.0
  0
VERTEX
  5
E1
  8
MOTOR_RAIL_385
 10
123.9999999992932
 20
2.250000000000171
 30
0.0
  0
VERTEX
  5
E2
  8
MOTOR_RAIL_385
 10
120.3999999992949
 20
2.250000000000171
 30
0.0
  0
VERTEX
  5
E3
  8
MOTOR_RAIL_385
 10
120.3999999992949
 20
4.300000000000182
 30
0.0
  0
VERTEX
  5
E4
  8
MOTOR_RAIL_385
 10
118.1999999992949
 20
4.300000000000182
 30
0.0
  0
VERTEX
  5
E5
  8
MOTOR_RAIL_385
 10
118.1999999992949
 20
2.250000000000171
 30
0.0
  0
VERTEX
  5
E6
  8
MOTOR_RAIL_385
 10
116.3999999992949
 20
2.250000000000171
 30
0.0
  0
VERTEX
  5
E7
  8
MOTOR_RAIL_385
 10
116.3999999992949
 20
-0.2499999999998295
 30
0.0
  0
VERTEX
  5
E8
  8
MOTOR_RAIL_385
 10
118.1999999992949
 20
-0.2499999999998295
 30
0.0
  0
SEQEND
  5
A7
  8
MOTOR_RAIL_385
  0
CIRCLE
  5
E9
  8
MOTOR_RAIL_385
 10
132.9999999992916
 20
21.00000000000017
 30
0.0
 40
1.3
  0
CIRCLE
  5
EA
  8
MOTOR_RAIL_385
 10
124.9999999992916
 20
21.00000000000017
 30
0.0
 40
5.0
  0
CIRCLE
  5
EB
  8
MOTOR_RAIL_385
 10
116.9999999992916
 20
21.00000000000017
 30
0.0
 40
1.3
  0
CIRCLE
  5
EC
  8
MOTOR_RAIL_385
 10
80.99999999929156
 20
-91.99999999999983
 30
0.0
 40
1.35
  0
POLYLINE
  5
ED
  8
MOTOR_RAIL_385
 66
     1
 10
0.0
 20
0.0
 30
0.0
  0
VERTEX
  5
EF
  8
MOTOR_RAIL_385
 10
117.1999999992949
 20
-104.2499999999998
 30
0.0
  0
VERTEX
  5
F0
  8
MOTOR_RAIL_385
 10
117.1999999992949
 20
-106.2999999999998
 30
0.0
  0
VERTEX
  5
F1
  8
MOTOR_RAIL_385
 10
119.3999999992949
 20
-106.2999999999998
 30
0.0
  0
VERTEX
  5
F2
  8
MOTOR_RAIL_385
 10
119.3999999992949
 20
-104.2499999999998
 30
0.0
  0
VERTEX
  5
F3
  8
MOTOR_RAIL_385
 10
122.9999999992932
 20
-104.2499999999998
 30
0.0
  0
VERTEX
  5
F4
  8
MOTOR_RAIL_385
 10
122.9999999992916
 20
-106.9999999999998
 30
0.0
  0
VERTEX
  5
F5
  8
MOTOR_RAIL_385
 10
125.9999999992925
 20
-107.0000000000028
 30
0.0
  0
VERTEX
  5
F6
  8
MOTOR_RAIL_385
 10
125.9999999992916
 20
-110.0000000000028
 30
0.0
  0
VERTEX
  5
F7
  8
MOTOR_RAIL_385
 10
88.24999999929156
 20
-110.0000000000007
 30
0.0
  0
VERTEX
  5
F8
  8
MOTOR_RAIL_385
 10
88.24999999929156
 20
-106.4000000000007
 30
0.0
  0
VERTEX
  5
F9
  8
MOTOR_RAIL_385
 10
90.29999999929156
 20
-106.4000000000007
 30
0.0
  0
VERTEX
  5
FA
  8
MOTOR_RAIL_385
 10
90.29999999929156
 20
-104.2000000000007
 30
0.0
  0
VERTEX
  5
FB
  8
MOTOR_RAIL_385
 10
88.24999999929156
 20
-104.2000000000007
 30
0.0
  0
VERTEX
  5
FC
  8
MOTOR_RAIL_385
 10
88.24999999929156
 20
-102.4000000000007
 30
0.0
  0
VERTEX
  5
FD
  8
MOTOR_RAIL_385
 10
85.74999999929156
 20
-102.4000000000007
 30
0.0
  0
VERTEX
  5
FE
  8
MOTOR_RAIL_385
 10
85.74999999929156
 20
-104.2000000000007
 30
0.0
  0
VERTEX
  5
FF
  8
MOTOR_RAIL_385
 10
83.69999999929156
 20
-104.2000000000007
 30
0.0
  0
VERTEX
  5
100
  8
MOTOR_RAIL_385
 10
83.69999999929156
 20
-106.4000000000007
 30
0.0
  0
VERTEX
  5
101
  8
MOTOR_RAIL_385
 10
85.74999999929156
 20
-106.4000000000007
 30
0.0
  0
VERTEX
  5
102
  8
MOTOR_RAIL_385
 10
85.74999999929156
 20
-110.0000000000007
 30
0.0
  0
VERTEX
  5
103
  8
MOTOR_RAIL_385
 10
79.49999999929156
 20
-110.0
 30
0.0
  0
VERTEX
  5
104
  8
MOTOR_RAIL_385
 10
79.4999999992867
 20
-117.9999999999998
 30
0.0
  0
VERTEX
  5
105
  8
MOTOR_RAIL_385
 10
73.49999999929156
 20
-117.9999999999998
 30
0.0
  0
VERTEX
  5
106
  8
MOTOR_RAIL_385
 10
73.49999999964578
 20
-82.0000000000242
 30
0.0
  0
VERTEX
  5
107
  8
MOTOR_RAIL_385
 10
79.49999999931617
 20
-82.00000000008323
 30
0.0
  0
VERTEX
  5
108
  8
MOTOR_RAIL_385
 10
79.49999999929156
 20
-84.00000000008323
 30
0.0
  0
VERTEX
  5
109
  8
MOTOR_RAIL_385
 10
85.74999999929156
 20
-84.00000000001594
 30
0.0
  0
VERTEX
  5
10A
  8
MOTOR_RAIL_385
 10
85.74999999929156
 20
-87.59999999999982
 30
0.0
  0
VERTEX
  5
10B
  8
MOTOR_RAIL_385
 10
83.69999999929155
 20
-87.59999999999982
 30
0.0
  0
VERTEX
  5
10C
  8
MOTOR_RAIL_385
 10
83.69999999929155
 20
-89.79999999999983
 30
0.0
  0
VERTEX
  5
10D
  8
MOTOR_RAIL_385
 10
85.74999999929156
 20
-89.79999999999983
 30
0.0
  0
VERTEX
  5
10E
  8
MOTOR_RAIL_385
 10
85.74999999929156
 20
-91.59999999999982
 30
0.0
  0
VERTEX
  5
10F
  8
MOTOR_RAIL_385
 10
88.24999999929156
 20
-91.59999999999982
 30
0.0
  0
VERTEX
  5
110
  8
MOTOR_RAIL_385
 10
88.24999999929156
 20
-89.79999999999983
 30
0.0
  0
VERTEX
  5
111
  8
MOTOR_RAIL_385
 10
90.29999999929157
 20
-89.79999999999983
 30
0.0
  0
VERTEX
  5
112
  8
MOTOR_RAIL_385
 10
90.29999999929157
 20
-87.59999999999982
 30
0.0
  0
VERTEX
  5
113
  8
MOTOR_RAIL_385
 10
88.24999999929156
 20
-87.59999999999982
 30
0.0
  0
VERTEX
  5
114
  8
MOTOR_RAIL_385
 10
88.24999999929156
 20
-84.00000000001607
 30
0.0
  0
VERTEX
  5
115
  8
MOTOR_RAIL_385
 10
104.7499999992916
 20
-83.99999999999983
 30
0.0
  0
VERTEX
  5
116
  8
MOTOR_RAIL_385
 10
104.7499999992916
 20
-87.59999999999982
 30
0.0
  0
VERTEX
  5
117
  8
MOTOR_RAIL_385
 10
102.6999999992915
 20
-87.59999999999982
 30
0.0
  0
VERTEX
  5
118
  8
MOTOR_RAIL_385
 10
102.6999999992915
 20
-89.79999999999983
 30
0.0
  0
VERTEX
  5
119
  8
MOTOR_RAIL_385
 10
104.7499999992916
 20
-89.79999999999983
 30
0.0
  0
VERTEX
  5
11A
  8
MOTOR_RAIL_385
 10
104.7499999992916
 20
-91.59999999999982
 30
0.0
  0
VERTEX
  5
11B
  8
MOTOR_RAIL_385
 10
107.2499999992916
 20
-91.59999999999982
 30
0.0
  0
VERTEX
  5
11C
  8
MOTOR_RAIL_385
 10
107.2499999992916
 20
-89.79999999999983
 30
0.0
  0
VERTEX
  5
11D
  8
MOTOR_RAIL_385
 10
109.2999999992916
 20
-89.79999999999983
 30
0.0
  0
VERTEX
  5
11E
  8
MOTOR_RAIL_385
 10
109.2999999992916
 20
-87.59999999999982
 30
0.0
  0
VERTEX
  5
11F
  8
MOTOR_RAIL_385
 10
107.2499999992916
 20
-87.59999999999982
 30
0.0
  0
VERTEX
  5
120
  8
MOTOR_RAIL_385
 10
107.2499999992916
 20
-84.00000000000247
 30
0.0
  0
VERTEX
  5
121
  8
MOTOR_RAIL_385
 10
111.4999999992916
 20
-83.99999999999983
 30
0.0
  0
VERTEX
  5
122
  8
MOTOR_RAIL_385
 10
111.4999999992915
 20
-82.99999999999982
 30
0.0
 42
-1.752018933840362
  0
VERTEX
  5
123
  8
MOTOR_RAIL_385
 10
130.0344827579123
 20
-93.94691818896563
 30
0.0
 42
0.2732608139403154
  0
VERTEX
  5
124
  8
MOTOR_RAIL_385
 10
128.9999999992916
 20
-95.69842509920025
 30
0.0
  0
VERTEX
  5
125
  8
MOTOR_RAIL_385
 10
128.9999999992916
 20
-96.99999999999983
 30
0.0
 42
-0.4142135623730921
  0
VERTEX
  5
126
  8
MOTOR_RAIL_385
 10
126.9999999992916
 20
-98.99999999999983
 30
0.0
  0
VERTEX
  5
127
  8
MOTOR_RAIL_385
 10
122.9999999992916
 20
-98.99999999999983
 30
0.0
  0
VERTEX
  5
128
  8
MOTOR_RAIL_385
 10
122.9999999992932
 20
-101.7499999999998
 30
0.0
  0
VERTEX
  5
129
  8
MOTOR_RAIL_385
 10
119.3999999992949
 20
-101.7499999999998
 30
0.0
  0
VERTEX
  5
12A
  8
MOTOR_RAIL_385
 10
119.3999999992949
 20
-99.69999999999982
 30
0.0
  0
VERTEX
  5
12B
  8
MOTOR_RAIL_385
 10
117.1999999992949
 20
-99.69999999999982
 30
0.0
  0
VERTEX
  5
12C
  8
MOTOR_RAIL_385
 10
117.1999999992949
 20
-101.7499999999998
 30
0.0
  0
VERTEX
  5
12D
  8
MOTOR_RAIL_385
 10
115.3999999992949
 20
-101.7499999999998
 30
0.0
  0
VERTEX
  5
12E
  8
MOTOR_RAIL_385
 10
115.3999999992949
 20
-104.2499999999998
 30
0.0
  0
VERTEX
  5
12F
  8
MOTOR_RAIL_385
 10
117.1999999992949
 20
-104.2499999999998
 30
0.0
  0
SEQEND
  5
EE
  8
MOTOR_RAIL_385
  0
CIRCLE
  5
130
  8
MOTOR_RAIL_385
 10
131.9999999992916
 20
-82.99999999999983
 30
0.0
 40
1.3
  0
CIRCLE
  5
131
  8
MOTOR_RAIL_385
 10
123.9999999992916
 20
-82.99999999999983
 30
0.0
 40
5.0
  0
CIRCLE
  5
132
  8
MOTOR_RAIL_385
 10
115.9999999992916
 20
-82.99999999999983
 30
0.0
 40
1.3
  0
CIRCLE
  5
133
  8
MOTOR_RAIL_385
 10
148.9999999992916
 20
-7.999999999999829
 30
0.0
 40
1.3
  0
CIRCLE
  5
134
  8
MOTOR_RAIL_385
 10
132.9999999992916
 20
-7.999999999999829
 30
0.0
 40
1.3
  0
POLYLINE
  5
135
  8
MOTOR_RAIL_385
 66
     1
 10
0.0
 20
0.0
 30
0.0
  0
VERTEX
  5
137
  8
MOTOR_RAIL_385
 10
134.1999999992949
 20
-29.24999999999983
 30
0.0
  0
VERTEX
  5
138
  8
MOTOR_RAIL_385
 10
134.1999999992949
 20
-31.29999999999984
 30
0.0
  0
VERTEX
  5
139
  8
MOTOR_RAIL_385
 10
136.3999999992949
 20
-31.29999999999984
 30
0.0
  0
VERTEX
  5
13A
  8
MOTOR_RAIL_385
 10
136.3999999992949
 20
-29.24999999999983
 30
0.0
  0
VERTEX
  5
13B
  8
MOTOR_RAIL_385
 10
139.9999999992932
 20
-29.24999999999983
 30
0.0
  0
VERTEX
  5
13C
  8
MOTOR_RAIL_385
 10
139.9999999992916
 20
-31.99999999999983
 30
0.0
  0
VERTEX
  5
13D
  8
MOTOR_RAIL_385
 10
142.9999999992925
 20
-32.00000000000276
 30
0.0
  0
VERTEX
  5
13E
  8
MOTOR_RAIL_385
 10
142.9999999992916
 20
-35.00000000000276
 30
0.0
  0
VERTEX
  5
13F
  8
MOTOR_RAIL_385
 10
105.2499999992916
 20
-35.00000000000066
 30
0.0
  0
VERTEX
  5
140
  8
MOTOR_RAIL_385
 10
105.2499999992916
 20
-31.40000000000066
 30
0.0
  0
VERTEX
  5
141
  8
MOTOR_RAIL_385
 10
107.2999999992916
 20
-31.40000000000066
 30
0.0
  0
VERTEX
  5
142
  8
MOTOR_RAIL_385
 10
107.2999999992916
 20
-29.20000000000066
 30
0.0
  0
VERTEX
  5
143
  8
MOTOR_RAIL_385
 10
105.2499999992916
 20
-29.20000000000066
 30
0.0
  0
VERTEX
  5
144
  8
MOTOR_RAIL_385
 10
105.2499999992916
 20
-27.40000000000066
 30
0.0
  0
VERTEX
  5
145
  8
MOTOR_RAIL_385
 10
102.7499999992916
 20
-27.40000000000066
 30
0.0
  0
VERTEX
  5
146
  8
MOTOR_RAIL_385
 10
102.7499999992916
 20
-29.20000000000066
 30
0.0
  0
VERTEX
  5
147
  8
MOTOR_RAIL_385
 10
100.6999999992916
 20
-29.20000000000066
 30
0.0
  0
VERTEX
  5
148
  8
MOTOR_RAIL_385
 10
100.6999999992916
 20
-31.40000000000066
 30
0.0
  0
VERTEX
  5
149
  8
MOTOR_RAIL_385
 10
102.7499999992916
 20
-31.40000000000066
 30
0.0
  0
VERTEX
  5
14A
  8
MOTOR_RAIL_385
 10
102.7499999992916
 20
-35.00000000000066
 30
0.0
  0
VERTEX
  5
14B
  8
MOTOR_RAIL_385
 10
96.49999999929156
 20
-35.0
 30
0.0
  0
VERTEX
  5
14C
  8
MOTOR_RAIL_385
 10
96.4999999992867
 20
-42.99999999999983
 30
0.0
  0
VERTEX
  5
14D
  8
MOTOR_RAIL_385
 10
90.49999999929156
 20
-42.99999999999983
 30
0.0
  0
VERTEX
  5
14E
  8
MOTOR_RAIL_385
 10
90.49999999964578
 20
-7.000000000024201
 30
0.0
  0
VERTEX
  5
14F
  8
MOTOR_RAIL_385
 10
96.49999999931617
 20
-7.000000000083237
 30
0.0
  0
VERTEX
  5
150
  8
MOTOR_RAIL_385
 10
96.49999999929156
 20
-9.000000000083237
 30
0.0
  0
VERTEX
  5
151
  8
MOTOR_RAIL_385
 10
102.7499999992916
 20
-9.000000000015941
 30
0.0
  0
VERTEX
  5
152
  8
MOTOR_RAIL_385
 10
102.7499999992916
 20
-12.59999999999983
 30
0.0
  0
VERTEX
  5
153
  8
MOTOR_RAIL_385
 10
100.6999999992915
 20
-12.59999999999983
 30
0.0
  0
VERTEX
  5
154
  8
MOTOR_RAIL_385
 10
100.6999999992915
 20
-14.79999999999983
 30
0.0
  0
VERTEX
  5
155
  8
MOTOR_RAIL_385
 10
102.7499999992916
 20
-14.79999999999983
 30
0.0
  0
VERTEX
  5
156
  8
MOTOR_RAIL_385
 10
102.7499999992916
 20
-16.59999999999983
 30
0.0
  0
VERTEX
  5
157
  8
MOTOR_RAIL_385
 10
105.2499999992916
 20
-16.59999999999983
 30
0.0
  0
VERTEX
  5
158
  8
MOTOR_RAIL_385
 10
105.2499999992916
 20
-14.79999999999983
 30
0.0
  0
VERTEX
  5
159
  8
MOTOR_RAIL_385
 10
107.2999999992916
 20
-14.79999999999983
 30
0.0
  0
VERTEX
  5
15A
  8
MOTOR_RAIL_385
 10
107.2999999992916
 20
-12.59999999999983
 30
0.0
  0
VERTEX
  5
15B
  8
MOTOR_RAIL_385
 10
105.2499999992916
 20
-12.59999999999983
 30
0.0
  0
VERTEX
  5
15C
  8
MOTOR_RAIL_385
 10
105.2499999992916
 20
-9.000000000016074
 30
0.0
  0
VERTEX
  5
15D
  8
MOTOR_RAIL_385
 10
121.7499999992916
 20
-8.99999999999983
 30
0.0
  0
VERTEX
  5
15E
  8
MOTOR_RAIL_385
 10
121.7499999992916
 20
-12.59999999999983
 30
0.0
  0
VERTEX
  5
15F
  8
MOTOR_RAIL_385
 10
119.6999999992915
 20
-12.59999999999983
 30
0.0
  0
VERTEX
  5
160
  8
MOTOR_RAIL_385
 10
119.6999999992915
 20
-14.79999999999983
 30
0.0
  0
VERTEX
  5
161
  8
MOTOR_RAIL_385
 10
121.7499999992916
 20
-14.79999999999983
 30
0.0
  0
VERTEX
  5
162
  8
MOTOR_RAIL_385
 10
121.7499999992916
 20
-16.59999999999983
 30
0.0
  0
VERTEX
  5
163
  8
MOTOR_RAIL_385
 10
124.2499999992916
 20
-16.59999999999983
 30
0.0
  0
VERTEX
  5
164
  8
MOTOR_RAIL_385
 10
124.2499999992916
 20
-14.79999999999983
 30
0.0
  0
VERTEX
  5
165
  8
MOTOR_RAIL_385
 10
126.2999999992916
 20
-14.79999999999983
 30
0.0
  0
VERTEX
  5
166
  8
MOTOR_RAIL_385
 10
126.2999999992916
 20
-12.59999999999983
 30
0.0
  0
VERTEX
  5
167
  8
MOTOR_RAIL_385
 10
124.2499999992916
 20
-12.59999999999983
 30
0.0
  0
VERTEX
  5
168
  8
MOTOR_RAIL_385
 10
124.2499999992916
 20
-9.000000000002473
 30
0.0
  0
VERTEX
  5
169
  8
MOTOR_RAIL_385
 10
128.4999999992916
 20
-8.999999999999833
 30
0.0
  0
VERTEX
  5
16A
  8
MOTOR_RAIL_385
 10
128.4999999992915
 20
-7.999999999999803
 30
0.0
 42
-1.75201893384036
  0
VERTEX
  5
16B
  8
MOTOR_RAIL_385
 10
147.0344827579123
 20
-18.94691818896563
 30
0.0
 42
0.2732608139403138
  0
VERTEX
  5
16C
  8
MOTOR_RAIL_385
 10
145.9999999992916
 20
-20.69842509920025
 30
0.0
  0
VERTEX
  5
16D
  8
MOTOR_RAIL_385
 10
145.9999999992916
 20
-21.99999999999983
 30
0.0
 42
-0.4142135623730928
  0
VERTEX
  5
16E
  8
MOTOR_RAIL_385
 10
143.9999999992916
 20
-23.99999999999983
 30
0.0
  0
VERTEX
  5
16F
  8
MOTOR_RAIL_385
 10
139.9999999992916
 20
-23.99999999999983
 30
0.0
  0
VERTEX
  5
170
  8
MOTOR_RAIL_385
 10
139.9999999992932
 20
-26.74999999999983
 30
0.0
  0
VERTEX
  5
171
  8
MOTOR_RAIL_385
 10
136.3999999992949
 20
-26.74999999999983
 30
0.0
  0
VERTEX
  5
172
  8
MOTOR_RAIL_385
 10
136.3999999992949
 20
-24.69999999999982
 30
0.0
  0
VERTEX
  5
173
  8
MOTOR_RAIL_385
 10
134.1999999992949
 20
-24.69999999999982
 30
0.0
  0
VERTEX
  5
174
  8
MOTOR_RAIL_385
 10
134.1999999992949
 20
-26.74999999999983
 30
0.0
  0
VERTEX
  5
175
  8
MOTOR_RAIL_385
 10
132.3999999992949
 20
-26.74999999999983
 30
0.0
  0
VERTEX
  5
176
  8
MOTOR_RAIL_385
 10
132.3999999992949
 20
-29.24999999999983
 30
0.0
  0
VERTEX
  5
177
  8
MOTOR_RAIL_385
 10
134.1999999992949
 20
-29.24999999999983
 30
0.0
  0
SEQEND
  5
136
  8
MOTOR_RAIL_385
  0
CIRCLE
  5
178
  8
MOTOR_RAIL_385
 10
140.9999999992916
 20
-7.999999999999829
 30
0.0
 40
5.0
  0
CIRCLE
  5
179
  8
MOTOR_RAIL_385
 10
97.99999999929156
 20
-16.99999999999983
 30
0.0
 40
1.35
  0
CIRCLE
  5
17A
  8
MOTOR_RAIL_385
 10
49.0
 20
-16.99999999999983
 30
0.0
 40
1.35
  0
CIRCLE
  5
17B
  8
MOTOR_RAIL_385
 10
6.0
 20
-7.999999999999829
 30
0.0
 40
5.0
  0
POLYLINE
  5
17C
  8
MOTOR_RAIL_385
 66
     1
 10
0.0
 20
0.0
 30
0.0
  0
VERTEX
  5
17E
  8
MOTOR_RAIL_385
 10
12.79999999999666
 20
-29.24999999999983
 30
0.0
  0
VERTEX
  5
17F
  8
MOTOR_RAIL_385
 10
12.79999999999666
 20
-31.29999999999984
 30
0.0
  0
VERTEX
  5
180
  8
MOTOR_RAIL_385
 10
10.59999999999667
 20
-31.29999999999984
 30
0.0
  0
VERTEX
  5
181
  8
MOTOR_RAIL_385
 10
10.59999999999667
 20
-29.24999999999983
 30
0.0
  0
VERTEX
  5
182
  8
MOTOR_RAIL_385
 10
6.999999999998323
 20
-29.24999999999983
 30
0.0
  0
VERTEX
  5
183
  8
MOTOR_RAIL_385
 10
7.0
 20
-31.99999999999983
 30
0.0
  0
VERTEX
  5
184
  8
MOTOR_RAIL_385
 10
3.999999999999091
 20
-32.00000000000276
 30
0.0
  0
VERTEX
  5
185
  8
MOTOR_RAIL_385
 10
4.0
 20
-35.00000000000276
 30
0.0
  0
VERTEX
  5
186
  8
MOTOR_RAIL_385
 10
41.75
 20
-35.00000000000066
 30
0.0
  0
VERTEX
  5
187
  8
MOTOR_RAIL_385
 10
41.75
 20
-31.40000000000066
 30
0.0
  0
VERTEX
  5
188
  8
MOTOR_RAIL_385
 10
39.7
 20
-31.40000000000066
 30
0.0
  0
VERTEX
  5
189
  8
MOTOR_RAIL_385
 10
39.7
 20
-29.20000000000066
 30
0.0
  0
VERTEX
  5
18A
  8
MOTOR_RAIL_385
 10
41.75
 20
-29.20000000000066
 30
0.0
  0
VERTEX
  5
18B
  8
MOTOR_RAIL_385
 10
41.75
 20
-27.40000000000066
 30
0.0
  0
VERTEX
  5
18C
  8
MOTOR_RAIL_385
 10
44.25
 20
-27.40000000000066
 30
0.0
  0
VERTEX
  5
18D
  8
MOTOR_RAIL_385
 10
44.25
 20
-29.20000000000066
 30
0.0
  0
VERTEX
  5
18E
  8
MOTOR_RAIL_385
 10
46.3
 20
-29.20000000000066
 30
0.0
  0
VERTEX
  5
18F
  8
MOTOR_RAIL_385
 10
46.3
 20
-31.40000000000066
 30
0.0
  0
VERTEX
  5
190
  8
MOTOR_RAIL_385
 10
44.25
 20
-31.40000000000066
 30
0.0
  0
VERTEX
  5
191
  8
MOTOR_RAIL_385
 10
44.25
 20
-35.00000000000066
 30
0.0
  0
VERTEX
  5
192
  8
MOTOR_RAIL_385
 10
50.5
 20
-35.0
 30
0.0
  0
VERTEX
  5
193
  8
MOTOR_RAIL_385
 10
50.50000000000486
 20
-42.99999999999983
 30
0.0
  0
VERTEX
  5
194
  8
MOTOR_RAIL_385
 10
56.5
 20
-42.99999999999983
 30
0.0
  0
VERTEX
  5
195
  8
MOTOR_RAIL_385
 10
56.49999999964578
 20
-7.000000000024201
 30
0.0
  0
VERTEX
  5
196
  8
MOTOR_RAIL_385
 10
50.49999999997539
 20
-7.000000000083237
 30
0.0
  0
VERTEX
  5
197
  8
MOTOR_RAIL_385
 10
50.5
 20
-9.000000000083237
 30
0.0
  0
VERTEX
  5
198
  8
MOTOR_RAIL_385
 10
44.25
 20
-9.000000000015941
 30
0.0
  0
VERTEX
  5
199
  8
MOTOR_RAIL_385
 10
44.25
 20
-12.59999999999983
 30
0.0
  0
VERTEX
  5
19A
  8
MOTOR_RAIL_385
 10
46.30000000000001
 20
-12.59999999999983
 30
0.0
  0
VERTEX
  5
19B
  8
MOTOR_RAIL_385
 10
46.30000000000001
 20
-14.79999999999983
 30
0.0
  0
VERTEX
  5
19C
  8
MOTOR_RAIL_385
 10
44.25
 20
-14.79999999999983
 30
0.0
  0
VERTEX
  5
19D
  8
MOTOR_RAIL_385
 10
44.25
 20
-16.59999999999983
 30
0.0
  0
VERTEX
  5
19E
  8
MOTOR_RAIL_385
 10
41.75
 20
-16.59999999999983
 30
0.0
  0
VERTEX
  5
19F
  8
MOTOR_RAIL_385
 10
41.75
 20
-14.79999999999983
 30
0.0
  0
VERTEX
  5
1A0
  8
MOTOR_RAIL_385
 10
39.69999999999999
 20
-14.79999999999983
 30
0.0
  0
VERTEX
  5
1A1
  8
MOTOR_RAIL_385
 10
39.69999999999999
 20
-12.59999999999983
 30
0.0
  0
VERTEX
  5
1A2
  8
MOTOR_RAIL_385
 10
41.75
 20
-12.59999999999983
 30
0.0
  0
VERTEX
  5
1A3
  8
MOTOR_RAIL_385
 10
41.75
 20
-9.000000000016074
 30
0.0
  0
VERTEX
  5
1A4
  8
MOTOR_RAIL_385
 10
25.25
 20
-8.99999999999983
 30
0.0
  0
VERTEX
  5
1A5
  8
MOTOR_RAIL_385
 10
25.25
 20
-12.59999999999983
 30
0.0
  0
VERTEX
  5
1A6
  8
MOTOR_RAIL_385
 10
27.30000000000001
 20
-12.59999999999983
 30
0.0
  0
VERTEX
  5
1A7
  8
MOTOR_RAIL_385
 10
27.30000000000001
 20
-14.79999999999983
 30
0.0
  0
VERTEX
  5
1A8
  8
MOTOR_RAIL_385
 10
25.25
 20
-14.79999999999983
 30
0.0
  0
VERTEX
  5
1A9
  8
MOTOR_RAIL_385
 10
25.25
 20
-16.59999999999983
 30
0.0
  0
VERTEX
  5
1AA
  8
MOTOR_RAIL_385
 10
22.75
 20
-16.59999999999983
 30
0.0
  0
VERTEX
  5
1AB
  8
MOTOR_RAIL_385
 10
22.75
 20
-14.79999999999983
 30
0.0
  0
VERTEX
  5
1AC
  8
MOTOR_RAIL_385
 10
20.69999999999999
 20
-14.79999999999983
 30
0.0
  0
VERTEX
  5
1AD
  8
MOTOR_RAIL_385
 10
20.69999999999999
 20
-12.59999999999983
 30
0.0
  0
VERTEX
  5
1AE
  8
MOTOR_RAIL_385
 10
22.75
 20
-12.59999999999983
 30
0.0
  0
VERTEX
  5
1AF
  8
MOTOR_RAIL_385
 10
22.75
 20
-9.000000000002473
 30
0.0
  0
VERTEX
  5
1B0
  8
MOTOR_RAIL_385
 10
18.5
 20
-8.999999999999833
 30
0.0
  0
VERTEX
  5
1B1
  8
MOTOR_RAIL_385
 10
18.50000000000001
 20
-7.999999999999803
 30
0.0
 42
1.752018933840362
  0
VERTEX
  5
1B2
  8
MOTOR_RAIL_385
 10
-0.0344827586207755
 20
-18.94691818896562
 30
0.0
 42
-0.2732608139403155
  0
VERTEX
  5
1B3
  8
MOTOR_RAIL_385
 10
1.0
 20
-20.69842509920025
 30
0.0
  0
VERTEX
  5
1B4
  8
MOTOR_RAIL_385
 10
0.9999999999999996
 20
-21.99999999999983
 30
0.0
 42
0.4142135623730957
  0
VERTEX
  5
1B5
  8
MOTOR_RAIL_385
 10
3.000000000000003
 20
-23.99999999999983
 30
0.0
  0
VERTEX
  5
1B6
  8
MOTOR_RAIL_385
 10
7.0
 20
-23.99999999999983
 30
0.0
  0
VERTEX
  5
1B7
  8
MOTOR_RAIL_385
 10
6.999999999998323
 20
-26.74999999999983
 30
0.0
  0
VERTEX
  5
1B8
  8
MOTOR_RAIL_385
 10
10.59999999999667
 20
-26.74999999999983
 30
0.0
  0
VERTEX
  5
1B9
  8
MOTOR_RAIL_385
 10
10.59999999999667
 20
-24.69999999999982
 30
0.0
  0
VERTEX
  5
1BA
  8
MOTOR_RAIL_385
 10
12.79999999999666
 20
-24.69999999999982
 30
0.0
  0
VERTEX
  5
1BB
  8
MOTOR_RAIL_385
 10
12.79999999999666
 20
-26.74999999999983
 30
0.0
  0
VERTEX
  5
1BC
  8
MOTOR_RAIL_385
 10
14.59999999999667
 20
-26.74999999999983
 30
0.0
  0
VERTEX
  5
1BD
  8
MOTOR_RAIL_385
 10
14.59999999999667
 20
-29.24999999999983
 30
0.0
  0
VERTEX
  5
1BE
  8
MOTOR_RAIL_385
 10
12.79999999999666
 20
-29.24999999999983
 30
0.0
  0
SEQEND
  5
17D
  8
MOTOR_RAIL_385
  0
CIRCLE
  5
1BF
  8
MOTOR_RAIL_385
 10
14.0
 20
-7.999999999999829
 30
0.0
 40
1.3
  0
CIRCLE
  5
1C0
  8
MOTOR_RAIL_385
 10
-2.0
 20
-7.999999999999829
 30
0.0
 40
1.3
  0
CIRCLE
  5
1C1
  8
MOTOR_RAIL_385
 10
31.0
 20
-82.99999999999983
 30
0.0
 40
1.3
  0
CIRCLE
  5
1C2
  8
MOTOR_RAIL_385
 10
23.0
 20
-82.99999999999983
 30
0.0
 40
5.0
  0
CIRCLE
  5
1C3
  8
MOTOR_RAIL_385
 10
15.0
 20
-82.99999999999983
 30
0.0
 40
1.3
  0
POLYLINE
  5
1C4
  8
MOTOR_RAIL_385
 66
     1
 10
0.0
 20
0.0
 30
0.0
  0
VERTEX
  5
1C6
  8
MOTOR_RAIL_385
 10
29.79999999999666
 20
-104.2499999999998
 30
0.0
  0
VERTEX
  5
1C7
  8
MOTOR_RAIL_385
 10
29.79999999999666
 20
-106.2999999999998
 30
0.0
  0
VERTEX
  5
1C8
  8
MOTOR_RAIL_385
 10
27.59999999999667
 20
-106.2999999999998
 30
0.0
  0
VERTEX
  5
1C9
  8
MOTOR_RAIL_385
 10
27.59999999999667
 20
-104.2499999999998
 30
0.0
  0
VERTEX
  5
1CA
  8
MOTOR_RAIL_385
 10
23.99999999999832
 20
-104.2499999999998
 30
0.0
  0
VERTEX
  5
1CB
  8
MOTOR_RAIL_385
 10
24.0
 20
-106.9999999999998
 30
0.0
  0
VERTEX
  5
1CC
  8
MOTOR_RAIL_385
 10
20.99999999999909
 20
-107.0000000000028
 30
0.0
  0
VERTEX
  5
1CD
  8
MOTOR_RAIL_385
 10
21.0
 20
-110.0000000000028
 30
0.0
  0
VERTEX
  5
1CE
  8
MOTOR_RAIL_385
 10
58.75
 20
-110.0000000000007
 30
0.0
  0
VERTEX
  5
1CF
  8
MOTOR_RAIL_385
 10
58.75
 20
-106.4000000000007
 30
0.0
  0
VERTEX
  5
1D0
  8
MOTOR_RAIL_385
 10
56.7
 20
-106.4000000000007
 30
0.0
  0
VERTEX
  5
1D1
  8
MOTOR_RAIL_385
 10
56.7
 20
-104.2000000000007
 30
0.0
  0
VERTEX
  5
1D2
  8
MOTOR_RAIL_385
 10
58.75
 20
-104.2000000000007
 30
0.0
  0
VERTEX
  5
1D3
  8
MOTOR_RAIL_385
 10
58.75
 20
-102.4000000000007
 30
0.0
  0
VERTEX
  5
1D4
  8
MOTOR_RAIL_385
 10
61.25
 20
-102.4000000000007
 30
0.0
  0
VERTEX
  5
1D5
  8
MOTOR_RAIL_385
 10
61.25
 20
-104.2000000000007
 30
0.0
  0
VERTEX
  5
1D6
  8
MOTOR_RAIL_385
 10
63.3
 20
-104.2000000000007
 30
0.0
  0
VERTEX
  5
1D7
  8
MOTOR_RAIL_385
 10
63.3
 20
-106.4000000000007
 30
0.0
  0
VERTEX
  5
1D8
  8
MOTOR_RAIL_385
 10
61.25
 20
-106.4000000000007
 30
0.0
  0
VERTEX
  5
1D9
  8
MOTOR_RAIL_385
 10
61.25
 20
-110.0000000000007
 30
0.0
  0
VERTEX
  5
1DA
  8
MOTOR_RAIL_385
 10
67.5
 20
-110.0
 30
0.0
  0
VERTEX
  5
1DB
  8
MOTOR_RAIL_385
 10
67.50000000000486
 20
-117.9999999999998
 30
0.0
  0
VERTEX
  5
1DC
  8
MOTOR_RAIL_385
 10
73.5
 20
-117.9999999999998
 30
0.0
  0
VERTEX
  5
1DD
  8
MOTOR_RAIL_385
 10
73.49999999964578
 20
-82.0000000000242
 30
0.0
  0
VERTEX
  5
1DE
  8
MOTOR_RAIL_385
 10
67.49999999997539
 20
-82.00000000008323
 30
0.0
  0
VERTEX
  5
1DF
  8
MOTOR_RAIL_385
 10
67.5
 20
-84.00000000008323
 30
0.0
  0
VERTEX
  5
1E0
  8
MOTOR_RAIL_385
 10
61.25
 20
-84.00000000001594
 30
0.0
  0
VERTEX
  5
1E1
  8
MOTOR_RAIL_385
 10
61.25
 20
-87.59999999999982
 30
0.0
  0
VERTEX
  5
1E2
  8
MOTOR_RAIL_385
 10
63.30000000000001
 20
-87.59999999999982
 30
0.0
  0
VERTEX
  5
1E3
  8
MOTOR_RAIL_385
 10
63.30000000000001
 20
-89.79999999999983
 30
0.0
  0
VERTEX
  5
1E4
  8
MOTOR_RAIL_385
 10
61.25
 20
-89.79999999999983
 30
0.0
  0
VERTEX
  5
1E5
  8
MOTOR_RAIL_385
 10
61.25
 20
-91.59999999999982
 30
0.0
  0
VERTEX
  5
1E6
  8
MOTOR_RAIL_385
 10
58.75
 20
-91.59999999999982
 30
0.0
  0
VERTEX
  5
1E7
  8
MOTOR_RAIL_385
 10
58.75
 20
-89.79999999999983
 30
0.0
  0
VERTEX
  5
1E8
  8
MOTOR_RAIL_385
 10
56.69999999999999
 20
-89.79999999999983
 30
0.0
  0
VERTEX
  5
1E9
  8
MOTOR_RAIL_385
 10
56.69999999999999
 20
-87.59999999999982
 30
0.0
  0
VERTEX
  5
1EA
  8
MOTOR_RAIL_385
 10
58.75
 20
-87.59999999999982
 30
0.0
  0
VERTEX
  5
1EB
  8
MOTOR_RAIL_385
 10
58.75
 20
-84.00000000001607
 30
0.0
  0
VERTEX
  5
1EC
  8
MOTOR_RAIL_385
 10
42.25
 20
-83.99999999999983
 30
0.0
  0
VERTEX
  5
1ED
  8
MOTOR_RAIL_385
 10
42.25
 20
-87.59999999999982
 30
0.0
  0
VERTEX
  5
1EE
  8
MOTOR_RAIL_385
 10
44.30000000000001
 20
-87.59999999999982
 30
0.0
  0
VERTEX
  5
1EF
  8
MOTOR_RAIL_385
 10
44.30000000000001
 20
-89.79999999999983
 30
0.0
  0
VERTEX
  5
1F0
  8
MOTOR_RAIL_385
 10
42.25
 20
-89.79999999999983
 30
0.0
  0
VERTEX
  5
1F1
  8
MOTOR_RAIL_385
 10
42.25
 20
-91.59999999999982
 30
0.0
  0
VERTEX
  5
1F2
  8
MOTOR_RAIL_385
 10
39.75
 20
-91.59999999999982
 30
0.0
  0
VERTEX
  5
1F3
  8
MOTOR_RAIL_385
 10
39.75
 20
-89.79999999999983
 30
0.0
  0
VERTEX
  5
1F4
  8
MOTOR_RAIL_385
 10
37.69999999999999
 20
-89.79999999999983
 30
0.0
  0
VERTEX
  5
1F5
  8
MOTOR_RAIL_385
 10
37.69999999999999
 20
-87.59999999999982
 30
0.0
  0
VERTEX
  5
1F6
  8
MOTOR_RAIL_385
 10
39.75
 20
-87.59999999999982
 30
0.0
  0
VERTEX
  5
1F7
  8
MOTOR_RAIL_385
 10
39.75
 20
-84.00000000000247
 30
0.0
  0
VERTEX
  5
1F8
  8
MOTOR_RAIL_385
 10
35.5
 20
-83.99999999999983
 30
0.0
  0
VERTEX
  5
1F9
  8
MOTOR_RAIL_385
 10
35.50000000000001
 20
-82.99999999999982
 30
0.0
 42
1.752018933840362
  0
VERTEX
  5
1FA
  8
MOTOR_RAIL_385
 10
16.96551724137923
 20
-93.94691818896563
 30
0.0
 42
-0.2732608139403161
  0
VERTEX
  5
1FB
  8
MOTOR_RAIL_385
 10
18.0
 20
-95.69842509920025
 30
0.0
  0
VERTEX
  5
1FC
  8
MOTOR_RAIL_385
 10
18.0
 20
-96.99999999999983
 30
0.0
 42
0.4142135623730951
  0
VERTEX
  5
1FD
  8
MOTOR_RAIL_385
 10
20.0
 20
-98.99999999999983
 30
0.0
  0
VERTEX
  5
1FE
  8
MOTOR_RAIL_385
 10
24.0
 20
-98.99999999999983
 30
0.0
  0
VERTEX
  5
1FF
  8
MOTOR_RAIL_385
 10
23.99999999999832
 20
-101.7499999999998
 30
0.0
  0
VERTEX
  5
200
  8
MOTOR_RAIL_385
 10
27.59999999999667
 20
-101.7499999999998
 30
0.0
  0
VERTEX
  5
201
  8
MOTOR_RAIL_385
 10
27.59999999999667
 20
-99.69999999999982
 30
0.0
  0
VERTEX
  5
202
  8
MOTOR_RAIL_385
 10
29.79999999999666
 20
-99.69999999999982
 30
0.0
  0
VERTEX
  5
203
  8
MOTOR_RAIL_385
 10
29.79999999999666
 20
-101.7499999999998
 30
0.0
  0
VERTEX
  5
204
  8
MOTOR_RAIL_385
 10
31.59999999999667
 20
-101.7499999999998
 30
0.0
  0
VERTEX
  5
205
  8
MOTOR_RAIL_385
 10
31.59999999999667
 20
-104.2499999999998
 30
0.0
  0
VERTEX
  5
206
  8
MOTOR_RAIL_385
 10
29.79999999999666
 20
-104.2499999999998
 30
0.0
  0
SEQEND
  5
1C5
  8
MOTOR_RAIL_385
  0
CIRCLE
  5
207
  8
MOTOR_RAIL_385
 10
66.0
 20
-91.99999999999983
 30
0.0
 40
1.35
  0
CIRCLE
  5
208
  8
MOTOR_RAIL_385
 10
30.0
 20
21.00000000000017
 30
0.0
 40
1.3
  0
CIRCLE
  5
209
  8
MOTOR_RAIL_385
 10
22.0
 20
21.00000000000017
 30
0.0
 40
5.0
  0
CIRCLE
  5
20A
  8
MOTOR_RAIL_385
 10
14.0
 20
21.00000000000017
 30
0.0
 40
1.3
  0
POLYLINE
  5
20B
  8
MOTOR_RAIL_385
 66
     1
 10
0.0
 20
0.0
 30
0.0
  0
VERTEX
  5
20D
  8
MOTOR_RAIL_385
 10
28.79999999999666
 20
-0.2499999999998295
 30
0.0
  0
VERTEX
  5
20E
  8
MOTOR_RAIL_385
 10
28.79999999999666
 20
-2.299999999999841
 30
0.0
  0
VERTEX
  5
20F
  8
MOTOR_RAIL_385
 10
26.59999999999667
 20
-2.299999999999841
 30
0.0
  0
VERTEX
  5
210
  8
MOTOR_RAIL_385
 10
26.59999999999667
 20
-0.2499999999998295
 30
0.0
  0
VERTEX
  5
211
  8
MOTOR_RAIL_385
 10
22.99999999999832
 20
-0.2499999999998295
 30
0.0
  0
VERTEX
  5
212
  8
MOTOR_RAIL_385
 10
23.0
 20
-2.999999999999829
 30
0.0
  0
VERTEX
  5
213
  8
MOTOR_RAIL_385
 10
19.99999999999909
 20
-3.000000000002757
 30
0.0
  0
VERTEX
  5
214
  8
MOTOR_RAIL_385
 10
20.0
 20
-6.000000000002757
 30
0.0
  0
VERTEX
  5
215
  8
MOTOR_RAIL_385
 10
57.75
 20
-6.000000000000661
 30
0.0
  0
VERTEX
  5
216
  8
MOTOR_RAIL_385
 10
57.75
 20
-2.400000000000659
 30
0.0
  0
VERTEX
  5
217
  8
MOTOR_RAIL_385
 10
55.7
 20
-2.400000000000659
 30
0.0
  0
VERTEX
  5
218
  8
MOTOR_RAIL_385
 10
55.7
 20
-0.2000000000006601
 30
0.0
  0
VERTEX
  5
219
  8
MOTOR_RAIL_385
 10
57.75
 20
-0.2000000000006601
 30
0.0
  0
VERTEX
  5
21A
  8
MOTOR_RAIL_385
 10
57.75
 20
1.599999999999341
 30
0.0
  0
VERTEX
  5
21B
  8
MOTOR_RAIL_385
 10
60.25
 20
1.599999999999341
 30
0.0
  0
VERTEX
  5
21C
  8
MOTOR_RAIL_385
 10
60.25
 20
-0.2000000000006601
 30
0.0
  0
VERTEX
  5
21D
  8
MOTOR_RAIL_385
 10
62.3
 20
-0.2000000000006601
 30
0.0
  0
VERTEX
  5
21E
  8
MOTOR_RAIL_385
 10
62.3
 20
-2.400000000000659
 30
0.0
  0
VERTEX
  5
21F
  8
MOTOR_RAIL_385
 10
60.25
 20
-2.400000000000659
 30
0.0
  0
VERTEX
  5
220
  8
MOTOR_RAIL_385
 10
60.25
 20
-6.000000000000661
 30
0.0
  0
VERTEX
  5
221
  8
MOTOR_RAIL_385
 10
66.5
 20
-6.0
 30
0.0
  0
VERTEX
  5
222
  8
MOTOR_RAIL_385
 10
66.50000000000486
 20
-13.99999999999983
 30
0.0
  0
VERTEX
  5
223
  8
MOTOR_RAIL_385
 10
72.5
 20
-13.99999999999983
 30
0.0
  0
VERTEX
  5
224
  8
MOTOR_RAIL_385
 10
72.49999999964578
 20
21.9999999999758
 30
0.0
  0
VERTEX
  5
225
  8
MOTOR_RAIL_385
 10
66.49999999997539
 20
21.99999999991676
 30
0.0
  0
VERTEX
  5
226
  8
MOTOR_RAIL_385
 10
66.5
 20
19.99999999991676
 30
0.0
  0
VERTEX
  5
227
  8
MOTOR_RAIL_385
 10
60.25
 20
19.99999999998406
 30
0.0
  0
VERTEX
  5
228
  8
MOTOR_RAIL_385
 10
60.25
 20
16.40000000000017
 30
0.0
  0
VERTEX
  5
229
  8
MOTOR_RAIL_385
 10
62.30000000000001
 20
16.40000000000017
 30
0.0
  0
VERTEX
  5
22A
  8
MOTOR_RAIL_385
 10
62.30000000000001
 20
14.20000000000017
 30
0.0
  0
VERTEX
  5
22B
  8
MOTOR_RAIL_385
 10
60.25
 20
14.20000000000017
 30
0.0
  0
VERTEX
  5
22C
  8
MOTOR_RAIL_385
 10
60.25
 20
12.40000000000017
 30
0.0
  0
VERTEX
  5
22D
  8
MOTOR_RAIL_385
 10
57.75
 20
12.40000000000017
 30
0.0
  0
VERTEX
  5
22E
  8
MOTOR_RAIL_385
 10
57.75
 20
14.20000000000017
 30
0.0
  0
VERTEX
  5
22F
  8
MOTOR_RAIL_385
 10
55.69999999999999
 20
14.20000000000017
 30
0.0
  0
VERTEX
  5
230
  8
MOTOR_RAIL_385
 10
55.69999999999999
 20
16.40000000000017
 30
0.0
  0
VERTEX
  5
231
  8
MOTOR_RAIL_385
 10
57.75
 20
16.40000000000017
 30
0.0
  0
VERTEX
  5
232
  8
MOTOR_RAIL_385
 10
57.75
 20
19.99999999998393
 30
0.0
  0
VERTEX
  5
233
  8
MOTOR_RAIL_385
 10
41.25
 20
20.00000000000017
 30
0.0
  0
VERTEX
  5
234
  8
MOTOR_RAIL_385
 10
41.25
 20
16.40000000000017
 30
0.0
  0
VERTEX
  5
235
  8
MOTOR_RAIL_385
 10
43.30000000000001
 20
16.40000000000017
 30
0.0
  0
VERTEX
  5
236
  8
MOTOR_RAIL_385
 10
43.30000000000001
 20
14.20000000000017
 30
0.0
  0
VERTEX
  5
237
  8
MOTOR_RAIL_385
 10
41.25
 20
14.20000000000017
 30
0.0
  0
VERTEX
  5
238
  8
MOTOR_RAIL_385
 10
41.25
 20
12.40000000000017
 30
0.0
  0
VERTEX
  5
239
  8
MOTOR_RAIL_385
 10
38.75
 20
12.40000000000017
 30
0.0
  0
VERTEX
  5
23A
  8
MOTOR_RAIL_385
 10
38.75
 20
14.20000000000017
 30
0.0
  0
VERTEX
  5
23B
  8
MOTOR_RAIL_385
 10
36.69999999999999
 20
14.20000000000017
 30
0.0
  0
VERTEX
  5
23C
  8
MOTOR_RAIL_385
 10
36.69999999999999
 20
16.40000000000017
 30
0.0
  0
VERTEX
  5
23D
  8
MOTOR_RAIL_385
 10
38.75
 20
16.40000000000017
 30
0.0
  0
VERTEX
  5
23E
  8
MOTOR_RAIL_385
 10
38.75
 20
19.99999999999753
 30
0.0
  0
VERTEX
  5
23F
  8
MOTOR_RAIL_385
 10
34.5
 20
20.00000000000017
 30
0.0
  0
VERTEX
  5
240
  8
MOTOR_RAIL_385
 10
34.50000000000001
 20
21.00000000000018
 30
0.0
 42
1.752018933840362
  0
VERTEX
  5
241
  8
MOTOR_RAIL_385
 10
15.96551724137922
 20
10.05308181103438
 30
0.0
 42
-0.2732608139403161
  0
VERTEX
  5
242
  8
MOTOR_RAIL_385
 10
17.0
 20
8.30157490079975
 30
0.0
  0
VERTEX
  5
243
  8
MOTOR_RAIL_385
 10
17.0
 20
7.000000000000171
 30
0.0
 42
0.4142135623730958
  0
VERTEX
  5
244
  8
MOTOR_RAIL_385
 10
19.0
 20
5.000000000000171
 30
0.0
  0
VERTEX
  5
245
  8
MOTOR_RAIL_385
 10
23.0
 20
5.000000000000171
 30
0.0
  0
VERTEX
  5
246
  8
MOTOR_RAIL_385
 10
22.99999999999832
 20
2.250000000000171
 30
0.0
  0
VERTEX
  5
247
  8
MOTOR_RAIL_385
 10
26.59999999999667
 20
2.250000000000171
 30
0.0
  0
VERTEX
  5
248
  8
MOTOR_RAIL_385
 10
26.59999999999667
 20
4.300000000000182
 30
0.0
  0
VERTEX
  5
249
  8
MOTOR_RAIL_385
 10
28.79999999999666
 20
4.300000000000182
 30
0.0
  0
VERTEX
  5
24A
  8
MOTOR_RAIL_385
 10
28.79999999999666
 20
2.250000000000171
 30
0.0
  0
VERTEX
  5
24B
  8
MOTOR_RAIL_385
 10
30.59999999999667
 20
2.250000000000171
 30
0.0
  0
VERTEX
  5
24C
  8
MOTOR_RAIL_385
 10
30.59999999999667
 20
-0.2499999999998295
 30
0.0
  0
VERTEX
  5
24D
  8
MOTOR_RAIL_385
 10
28.79999999999666
 20
-0.2499999999998295
 30
0.0
  0
SEQEND
  5
20C
  8
MOTOR_RAIL_385
  0
CIRCLE
  5
24E
  8
MOTOR_RAIL_385
 10
65.0
 20
12.00000000000017
 30
0.0
 40
1.35
  0
CIRCLE
  5
24F
  8
MOTOR_RAIL_385
 10
-8.0
 20
-70.0
 30
0.0
 40
1.3
  0
CIRCLE
  5
250
  8
MOTOR_RAIL_385
 10
0.0
 20
-70.0
 30
0.0
 40
5.0
  0
CIRCLE
  5
251
  8
MOTOR_RAIL_385
 10
8.0
 20
-70.0
 30
0.0
 40
1.3
  0
CIRCLE
  5
252
  8
MOTOR_RAIL_385
 10
43.0
 20
-61.0
 30
0.0
 40
1.35
  0
POLYLINE
  5
253
  8
MOTOR_RAIL_385
 66
     1
 10
0.0
 20
0.0
 30
0.0
  0
VERTEX
  5
255
  8
MOTOR_RAIL_385
 10
6.799999999996657
 20
-48.75
 30
0.0
  0
VERTEX
  5
256
  8
MOTOR_RAIL_385
 10
6.799999999996657
 20
-46.69999999999999
 30
0.0
  0
VERTEX
  5
257
  8
MOTOR_RAIL_385
 10
4.599999999996668
 20
-46.69999999999999
 30
0.0
  0
VERTEX
  5
258
  8
MOTOR_RAIL_385
 10
4.599999999996668
 20
-48.75
 30
0.0
  0
VERTEX
  5
259
  8
MOTOR_RAIL_385
 10
0.9999999999983231
 20
-48.75
 30
0.0
  0
VERTEX
  5
25A
  8
MOTOR_RAIL_385
 10
1.0
 20
-46.0
 30
0.0
  0
VERTEX
  5
25B
  8
MOTOR_RAIL_385
 10
-2.000000000000909
 20
-45.99999999999707
 30
0.0
  0
VERTEX
  5
25C
  8
MOTOR_RAIL_385
 10
-2.0
 20
-42.99999999999707
 30
0.0
  0
VERTEX
  5
25D
  8
MOTOR_RAIL_385
 10
35.75
 20
-42.99999999999917
 30
0.0
  0
VERTEX
  5
25E
  8
MOTOR_RAIL_385
 10
35.75
 20
-46.59999999999917
 30
0.0
  0
VERTEX
  5
25F
  8
MOTOR_RAIL_385
 10
33.7
 20
-46.59999999999917
 30
0.0
  0
VERTEX
  5
260
  8
MOTOR_RAIL_385
 10
33.7
 20
-48.79999999999917
 30
0.0
  0
VERTEX
  5
261
  8
MOTOR_RAIL_385
 10
35.75
 20
-48.79999999999917
 30
0.0
  0
VERTEX
  5
262
  8
MOTOR_RAIL_385
 10
35.75
 20
-50.59999999999917
 30
0.0
  0
VERTEX
  5
263
  8
MOTOR_RAIL_385
 10
38.25
 20
-50.59999999999917
 30
0.0
  0
VERTEX
  5
264
  8
MOTOR_RAIL_385
 10
38.25
 20
-48.79999999999917
 30
0.0
  0
VERTEX
  5
265
  8
MOTOR_RAIL_385
 10
40.3
 20
-48.79999999999917
 30
0.0
  0
VERTEX
  5
266
  8
MOTOR_RAIL_385
 10
40.3
 20
-46.59999999999917
 30
0.0
  0
VERTEX
  5
267
  8
MOTOR_RAIL_385
 10
38.25
 20
-46.59999999999917
 30
0.0
  0
VERTEX
  5
268
  8
MOTOR_RAIL_385
 10
38.25
 20
-42.99999999999917
 30
0.0
  0
VERTEX
  5
269
  8
MOTOR_RAIL_385
 10
44.5
 20
-42.99999999999983
 30
0.0
  0
VERTEX
  5
26A
  8
MOTOR_RAIL_385
 10
44.50000000000486
 20
-35.0
 30
0.0
  0
VERTEX
  5
26B
  8
MOTOR_RAIL_385
 10
50.5
 20
-35.0
 30
0.0
  0
VERTEX
  5
26C
  8
MOTOR_RAIL_385
 10
50.49999999964578
 20
-70.99999999997563
 30
0.0
  0
VERTEX
  5
26D
  8
MOTOR_RAIL_385
 10
44.49999999997539
 20
-70.9999999999166
 30
0.0
  0
VERTEX
  5
26E
  8
MOTOR_RAIL_385
 10
44.5
 20
-68.9999999999166
 30
0.0
  0
VERTEX
  5
26F
  8
MOTOR_RAIL_385
 10
38.25
 20
-68.99999999998388
 30
0.0
  0
VERTEX
  5
270
  8
MOTOR_RAIL_385
 10
38.25
 20
-65.39999999999999
 30
0.0
  0
VERTEX
  5
271
  8
MOTOR_RAIL_385
 10
40.30000000000001
 20
-65.4
 30
0.0
  0
VERTEX
  5
272
  8
MOTOR_RAIL_385
 10
40.30000000000001
 20
-63.2
 30
0.0
  0
VERTEX
  5
273
  8
MOTOR_RAIL_385
 10
38.25
 20
-63.2
 30
0.0
  0
VERTEX
  5
274
  8
MOTOR_RAIL_385
 10
38.25
 20
-61.4
 30
0.0
  0
VERTEX
  5
275
  8
MOTOR_RAIL_385
 10
35.75
 20
-61.4
 30
0.0
  0
VERTEX
  5
276
  8
MOTOR_RAIL_385
 10
35.75
 20
-63.2
 30
0.0
  0
VERTEX
  5
277
  8
MOTOR_RAIL_385
 10
33.69999999999999
 20
-63.2
 30
0.0
  0
VERTEX
  5
278
  8
MOTOR_RAIL_385
 10
33.69999999999999
 20
-65.4
 30
0.0
  0
VERTEX
  5
279
  8
MOTOR_RAIL_385
 10
35.75
 20
-65.39999999999999
 30
0.0
  0
VERTEX
  5
27A
  8
MOTOR_RAIL_385
 10
35.75
 20
-68.99999999998376
 30
0.0
  0
VERTEX
  5
27B
  8
MOTOR_RAIL_385
 10
19.25
 20
-69.0
 30
0.0
  0
VERTEX
  5
27C
  8
MOTOR_RAIL_385
 10
19.25
 20
-65.39999999999999
 30
0.0
  0
VERTEX
  5
27D
  8
MOTOR_RAIL_385
 10
21.30000000000001
 20
-65.4
 30
0.0
  0
VERTEX
  5
27E
  8
MOTOR_RAIL_385
 10
21.30000000000001
 20
-63.2
 30
0.0
  0
VERTEX
  5
27F
  8
MOTOR_RAIL_385
 10
19.25
 20
-63.2
 30
0.0
  0
VERTEX
  5
280
  8
MOTOR_RAIL_385
 10
19.25
 20
-61.4
 30
0.0
  0
VERTEX
  5
281
  8
MOTOR_RAIL_385
 10
16.75
 20
-61.4
 30
0.0
  0
VERTEX
  5
282
  8
MOTOR_RAIL_385
 10
16.75
 20
-63.2
 30
0.0
  0
VERTEX
  5
283
  8
MOTOR_RAIL_385
 10
14.69999999999999
 20
-63.2
 30
0.0
  0
VERTEX
  5
284
  8
MOTOR_RAIL_385
 10
14.69999999999999
 20
-65.4
 30
0.0
  0
VERTEX
  5
285
  8
MOTOR_RAIL_385
 10
16.75
 20
-65.39999999999999
 30
0.0
  0
VERTEX
  5
286
  8
MOTOR_RAIL_385
 10
16.75
 20
-68.99999999999736
 30
0.0
  0
VERTEX
  5
287
  8
MOTOR_RAIL_385
 10
12.5
 20
-69.0
 30
0.0
  0
VERTEX
  5
288
  8
MOTOR_RAIL_385
 10
12.50000000000001
 20
-70.00000000000001
 30
0.0
 42
-1.752018933840362
  0
VERTEX
  5
289
  8
MOTOR_RAIL_385
 10
-6.034482758620777
 20
-59.05308181103421
 30
0.0
 42
0.2732608139403149
  0
VERTEX
  5
28A
  8
MOTOR_RAIL_385
 10
-5.0
 20
-57.30157490079958
 30
0.0
  0
VERTEX
  5
28B
  8
MOTOR_RAIL_385
 10
-5.0
 20
-56.0
 30
0.0
 42
-0.4142135623730949
  0
VERTEX
  5
28C
  8
MOTOR_RAIL_385
 10
-2.999999999999997
 20
-54.0
 30
0.0
  0
VERTEX
  5
28D
  8
MOTOR_RAIL_385
 10
1.0
 20
-54.0
 30
0.0
  0
VERTEX
  5
28E
  8
MOTOR_RAIL_385
 10
0.9999999999983231
 20
-51.25
 30
0.0
  0
VERTEX
  5
28F
  8
MOTOR_RAIL_385
 10
4.599999999996668
 20
-51.25
 30
0.0
  0
VERTEX
  5
290
  8
MOTOR_RAIL_385
 10
4.599999999996668
 20
-53.30000000000001
 30
0.0
  0
VERTEX
  5
291
  8
MOTOR_RAIL_385
 10
6.799999999996657
 20
-53.30000000000001
 30
0.0
  0
VERTEX
  5
292
  8
MOTOR_RAIL_385
 10
6.799999999996657
 20
-51.25
 30
0.0
  0
VERTEX
  5
293
  8
MOTOR_RAIL_385
 10
8.599999999996667
 20
-51.25
 30
0.0
  0
VERTEX
  5
294
  8
MOTOR_RAIL_385
 10
8.599999999996667
 20
-48.75
 30
0.0
  0
VERTEX
  5
295
  8
MOTOR_RAIL_385
 10
6.799999999996657
 20
-48.75
 30
0.0
  0
SEQEND
  5
254
  8
MOTOR_RAIL_385
  0
ENDSEC
  0
EOF
