  0
SECTION
  2
HEADER
  9
$ACADVER
  1
AC1009
  9
$DWGCODEPAGE
  3
ansi_1252
  9
$INSBASE
 10
0.0
 20
0.0
 30
0.0
  9
$EXTMIN
 10
-146.0
 20
-22.99999999999691
 30
-0.0000000000000002
  9
$EXTMAX
 10
142.0000000000117
 20
227.0
 30
0.0000000000000008
  9
$LIMMIN
 10
0.0
 20
0.0
  9
$LIMMAX
 10
12.0
 20
9.0
  9
$ORTHOMODE
 70
     0
  9
$REGENMODE
 70
     1
  9
$FILLMODE
 70
     1
  9
$QTEXTMODE
 70
     0
  9
$MIRRTEXT
 70
     1
  9
$DRAGMODE
 70
     2
  9
$LTSCALE
 40
1.0
  9
$OSMODE
 70
    37
  9
$ATTMODE
 70
     1
  9
$TEXTSIZE
 40
0.2
  9
$TRACEWID
 40
0.05
  9
$TEXTSTYLE
  7
STANDARD
  9
$CLAYER
  8
0
  9
$CELTYPE
  6
BYLAYER
  9
$CECOLOR
 62
   256
  9
$DIMSCALE
 40
1.0
  9
$DIMASZ
 40
0.18
  9
$DIMEXO
 40
0.0625
  9
$DIMDLI
 40
0.38
  9
$DIMRND
 40
0.0
  9
$DIMDLE
 40
0.0
  9
$DIMEXE
 40
0.18
  9
$DIMTP
 40
0.0
  9
$DIMTM
 40
0.0
  9
$DIMTXT
 40
0.18
  9
$DIMCEN
 40
0.09
  9
$DIMTSZ
 40
0.0
  9
$DIMTOL
 70
     0
  9
$DIMLIM
 70
     0
  9
$DIMTIH
 70
     1
  9
$DIMTOH
 70
     1
  9
$DIMSE1
 70
     0
  9
$DIMSE2
 70
     0
  9
$DIMTAD
 70
     0
  9
$DIMZIN
 70
     0
  9
$DIMBLK
  1

  9
$DIMASO
 70
     1
  9
$DIMSHO
 70
     1
  9
$DIMPOST
  1

  9
$DIMAPOST
  1

  9
$DIMALT
 70
     0
  9
$DIMALTD
 70
     2
  9
$DIMALTF
 40
25.4
  9
$DIMLFAC
 40
1.0
  9
$DIMTOFL
 70
     0
  9
$DIMTVP
 40
0.0
  9
$DIMTIX
 70
     0
  9
$DIMSOXD
 70
     0
  9
$DIMSAH
 70
     0
  9
$DIMBLK1
  1

  9
$DIMBLK2
  1

  9
$DIMSTYLE
  2
STANDARD
  9
$DIMCLRD
 70
     0
  9
$DIMCLRE
 70
     0
  9
$DIMCLRT
 70
     0
  9
$DIMTFAC
 40
1.0
  9
$DIMGAP
 40
0.09
  9
$LUNITS
 70
     2
  9
$LUPREC
 70
     3
  9
$SKETCHINC
 40
0.1
  9
$FILLETRAD
 40
0.5
  9
$AUNITS
 70
     0
  9
$AUPREC
 70
     0
  9
$MENU
  1
.
  9
$ELEVATION
 40
0.0
  9
$PELEVATION
 40
0.0
  9
$THICKNESS
 40
0.0
  9
$LIMCHECK
 70
     0
  9
$CHAMFERA
 40
0.5
  9
$CHAMFERB
 40
0.5
  9
$SKPOLY
 70
     0
  9
$TDCREATE
 40
2457809.818787165
  9
$TDUPDATE
 40
2457809.818787176
  9
$TDINDWG
 40
0.0000000116
  9
$TDUSRTIMER
 40
0.0000000116
  9
$USRTIMER
 70
     1
  9
$ANGBASE
 50
0.0
  9
$ANGDIR
 70
     0
  9
$PDMODE
 70
     0
  9
$PDSIZE
 40
0.0
  9
$PLINEWID
 40
0.0
  9
$COORDS
 70
     1
  9
$SPLFRAME
 70
     0
  9
$SPLINETYPE
 70
     6
  9
$SPLINESEGS
 70
     8
  9
$ATTDIA
 70
     0
  9
$ATTREQ
 70
     1
  9
$HANDLING
 70
     1
  9
$HANDSEED
  5
761
  9
$SURFTAB1
 70
     6
  9
$SURFTAB2
 70
     6
  9
$SURFTYPE
 70
     6
  9
$SURFU
 70
     6
  9
$SURFV
 70
     6
  9
$UCSNAME
  2

  9
$UCSORG
 10
0.0
 20
0.0
 30
0.0
  9
$UCSXDIR
 10
1.0
 20
0.0
 30
0.0
  9
$UCSYDIR
 10
0.0
 20
1.0
 30
0.0
  9
$PUCSNAME
  2

  9
$PUCSORG
 10
0.0
 20
0.0
 30
0.0
  9
$PUCSXDIR
 10
1.0
 20
0.0
 30
0.0
  9
$PUCSYDIR
 10
0.0
 20
1.0
 30
0.0
  9
$USERI1
 70
     0
  9
$USERI2
 70
     0
  9
$USERI3
 70
     0
  9
$USERI4
 70
     0
  9
$USERI5
 70
     0
  9
$USERR1
 40
0.0
  9
$USERR2
 40
0.0
  9
$USERR3
 40
0.0
  9
$USERR4
 40
0.0
  9
$USERR5
 40
0.0
  9
$WORLDVIEW
 70
     1
  9
$SHADEDGE
 70
     3
  9
$SHADEDIF
 70
    70
  9
$TILEMODE
 70
     1
  9
$MAXACTVP
 70
    64
  9
$PLIMCHECK
 70
     0
  9
$PEXTMIN
 10
1.000000000000000E+20
 20
1.000000000000000E+20
 30
1.000000000000000E+20
  9
$PEXTMAX
 10
-1.000000000000000E+20
 20
-1.000000000000000E+20
 30
-1.000000000000000E+20
  9
$PLIMMIN
 10
0.0
 20
0.0
  9
$PLIMMAX
 10
12.0
 20
9.0
  9
$UNITMODE
 70
     0
  9
$VISRETAIN
 70
     1
  9
$PLINEGEN
 70
     0
  9
$PSLTSCALE
 70
     1
  0
ENDSEC
  0
SECTION
  2
TABLES
  0
TABLE
  2
VPORT
 70
     1
  0
VPORT
  2
*ACTIVE
 70
     0
 10
0.0
 20
0.0
 11
1.0
 21
1.0
 12
0.0
 22
0.0
 13
0.0
 23
0.0
 14
0.5
 24
0.5
 15
0.5
 25
0.5
 16
0.0
 26
0.0
 36
1.0
 17
-1.999999999994174
 27
102.0000000000016
 37
0.0
 40
254.9999999999969
 41
1.152000000000061
 42
50.0
 43
0.0
 44
0.0
 50
0.0
 51
0.0
 71
     0
 72
   100
 73
     1
 74
     3
 75
     0
 76
     0
 77
     0
 78
     0
  0
ENDTAB
  0
TABLE
  2
LTYPE
 70
     1
  0
LTYPE
  2
CONTINUOUS
 70
     0
  3
Solid line
 72
    65
 73
     0
 40
0.0
  0
ENDTAB
  0
TABLE
  2
LAYER
 70
     2
  0
LAYER
  2
0
 70
     0
 62
     7
  6
CONTINUOUS
  0
LAYER
  2
DEFAULT
 70
     0
 62
     7
  6
CONTINUOUS
  0
ENDTAB
  0
TABLE
  2
STYLE
 70
     1
  0
STYLE
  2
STANDARD
 70
     0
 40
0.0
 41
1.0
 50
0.0
 71
     0
 42
0.2
  3
txt
  4

  0
ENDTAB
  0
TABLE
  2
VIEW
 70
     0
  0
ENDTAB
  0
TABLE
  2
UCS
 70
     0
  0
ENDTAB
  0
TABLE
  2
APPID
 70
     1
  0
APPID
  2
ACAD
 70
     0
  0
ENDTAB
  0
TABLE
  2
DIMSTYLE
 70
     1
  0
DIMSTYLE
  2
STANDARD
 70
     0
  3

  4

  5

  6

  7

 40
1.0
 41
0.18
 42
0.0625
 43
0.38
 44
0.18
 45
0.0
 46
0.0
 47
0.0
 48
0.0
140
0.18
141
0.09
142
0.0
143
25.4
144
1.0
145
0.0
146
1.0
147
0.09
 71
     0
 72
     0
 73
     1
 74
     1
 75
     0
 76
     0
 77
     0
 78
     0
170
     0
171
     2
172
     0
173
     0
174
     0
175
     0
176
     0
177
     0
178
     0
  0
ENDTAB
  0
ENDSEC
  0
SECTION
  2
BLOCKS
  0
BLOCK
  8
0
  2
$MODEL_SPACE
 70
     0
 10
0.0
 20
0.0
 30
0.0
  3
$MODEL_SPACE
  1

  0
ENDBLK
  5
21
  8
0
  0
BLOCK
 67
     1
  8
0
  2
$PAPER_SPACE
 70
     0
 10
0.0
 20
0.0
 30
0.0
  3
$PAPER_SPACE
  1

  0
ENDBLK
  5
1D
 67
     1
  8
0
  0
ENDSEC
  0
SECTION
  2
ENTITIES
  0
POLYLINE
  5
5E
  8
DEFAULT
 66
     1
 10
0.0
 20
0.0
 30
-0.0000000000000002
  0
VERTEX
  5
60
  8
DEFAULT
 10
-146.0
 20
-22.9999999999969
 30
-0.0000000000000002
  0
VERTEX
  5
61
  8
DEFAULT
 10
142.0000000000117
 20
-22.9999999999969
 30
-0.0000000000000002
  0
VERTEX
  5
62
  8
DEFAULT
 10
142.0000000000117
 20
227.0
 30
-0.0000000000000002
  0
VERTEX
  5
63
  8
DEFAULT
 10
-146.0
 20
227.0
 30
-0.0000000000000002
  0
VERTEX
  5
64
  8
DEFAULT
 10
-146.0
 20
-22.9999999999969
 30
-0.0000000000000002
  0
SEQEND
  5
5F
  8
DEFAULT
  0
POLYLINE
  5
65
  8
DEFAULT
 66
     1
 10
0.0
 20
0.0
 30
-0.0000000000000002
  0
VERTEX
  5
67
  8
DEFAULT
 10
-140.0
 20
208.25
 30
-0.0000000000000002
  0
VERTEX
  5
68
  8
DEFAULT
 10
-136.4
 20
208.25
 30
-0.0000000000000002
  0
VERTEX
  5
69
  8
DEFAULT
 10
-136.4
 20
210.3
 30
-0.0000000000000002
  0
VERTEX
  5
6A
  8
DEFAULT
 10
-134.2
 20
210.3
 30
-0.0000000000000002
  0
VERTEX
  5
6B
  8
DEFAULT
 10
-134.2
 20
208.25
 30
-0.0000000000000002
  0
VERTEX
  5
6C
  8
DEFAULT
 10
-132.4
 20
208.25
 30
-0.0000000000000002
  0
VERTEX
  5
6D
  8
DEFAULT
 10
-132.4
 20
205.75
 30
-0.0000000000000002
  0
VERTEX
  5
6E
  8
DEFAULT
 10
-134.2
 20
205.75
 30
-0.0000000000000002
  0
VERTEX
  5
6F
  8
DEFAULT
 10
-134.2
 20
203.7
 30
-0.0000000000000002
  0
VERTEX
  5
70
  8
DEFAULT
 10
-136.4
 20
203.7
 30
-0.0000000000000002
  0
VERTEX
  5
71
  8
DEFAULT
 10
-136.4
 20
205.75
 30
-0.0000000000000002
  0
VERTEX
  5
72
  8
DEFAULT
 10
-139.999999999997
 20
205.75
 30
-0.0000000000000002
  0
SEQEND
  5
66
  8
DEFAULT
  0
POLYLINE
  5
73
  8
DEFAULT
 66
     1
 10
0.0
 20
0.0
 30
0.0
  0
VERTEX
  5
75
  8
DEFAULT
 10
-140.0
 20
8.25
 30
0.0
  0
VERTEX
  5
76
  8
DEFAULT
 10
-136.4
 20
8.25
 30
0.0
  0
VERTEX
  5
77
  8
DEFAULT
 10
-136.4
 20
10.30000000000001
 30
0.0
  0
VERTEX
  5
78
  8
DEFAULT
 10
-134.2
 20
10.30000000000001
 30
0.0
  0
VERTEX
  5
79
  8
DEFAULT
 10
-134.2
 20
8.25
 30
0.0
  0
VERTEX
  5
7A
  8
DEFAULT
 10
-132.4
 20
8.25
 30
0.0
  0
VERTEX
  5
7B
  8
DEFAULT
 10
-132.4
 20
5.75
 30
0.0
  0
VERTEX
  5
7C
  8
DEFAULT
 10
-134.2
 20
5.75
 30
0.0
  0
VERTEX
  5
7D
  8
DEFAULT
 10
-134.2
 20
3.69999999999999
 30
0.0
  0
VERTEX
  5
7E
  8
DEFAULT
 10
-136.4
 20
3.69999999999999
 30
0.0
  0
VERTEX
  5
7F
  8
DEFAULT
 10
-136.4
 20
5.75
 30
0.0
  0
VERTEX
  5
80
  8
DEFAULT
 10
-140.0
 20
5.75
 30
0.0
  0
SEQEND
  5
74
  8
DEFAULT
  0
POLYLINE
  5
81
  8
DEFAULT
 66
     1
 10
0.0
 20
0.0
 30
0.0000000000000008
  0
VERTEX
  5
83
  8
DEFAULT
 10
-125.75
 20
222.0
 30
0.0000000000000008
  0
VERTEX
  5
84
  8
DEFAULT
 10
-125.75
 20
218.4
 30
0.0000000000000008
  0
VERTEX
  5
85
  8
DEFAULT
 10
-123.7
 20
218.4
 30
0.0000000000000008
  0
VERTEX
  5
86
  8
DEFAULT
 10
-123.7
 20
216.2
 30
0.0000000000000008
  0
VERTEX
  5
87
  8
DEFAULT
 10
-125.75
 20
216.2
 30
0.0000000000000008
  0
VERTEX
  5
88
  8
DEFAULT
 10
-125.75
 20
214.4
 30
0.0000000000000008
  0
VERTEX
  5
89
  8
DEFAULT
 10
-128.25
 20
214.4
 30
0.0000000000000008
  0
VERTEX
  5
8A
  8
DEFAULT
 10
-128.25
 20
216.2
 30
0.0000000000000008
  0
VERTEX
  5
8B
  8
DEFAULT
 10
-130.3
 20
216.2
 30
0.0000000000000008
  0
VERTEX
  5
8C
  8
DEFAULT
 10
-130.3
 20
218.4
 30
0.0000000000000008
  0
VERTEX
  5
8D
  8
DEFAULT
 10
-128.25
 20
218.4
 30
0.0000000000000008
  0
VERTEX
  5
8E
  8
DEFAULT
 10
-128.25
 20
221.9999999999971
 30
0.0000000000000008
  0
SEQEND
  5
82
  8
DEFAULT
  0
POLYLINE
  5
8F
  8
DEFAULT
 66
     1
 10
0.0
 20
0.0
 30
0.0
  0
VERTEX
  5
91
  8
DEFAULT
 10
-113.9999999999988
 20
205.75
 30
0.0
  0
VERTEX
  5
92
  8
DEFAULT
 10
-117.5999999999958
 20
205.75
 30
0.0
  0
VERTEX
  5
93
  8
DEFAULT
 10
-117.5999999999958
 20
203.7
 30
0.0
  0
VERTEX
  5
94
  8
DEFAULT
 10
-119.7999999999958
 20
203.7
 30
0.0
  0
VERTEX
  5
95
  8
DEFAULT
 10
-119.7999999999958
 20
205.75
 30
0.0
  0
VERTEX
  5
96
  8
DEFAULT
 10
-121.5999999999958
 20
205.75
 30
0.0
  0
VERTEX
  5
97
  8
DEFAULT
 10
-121.5999999999958
 20
208.25
 30
0.0
  0
VERTEX
  5
98
  8
DEFAULT
 10
-119.7999999999958
 20
208.25
 30
0.0
  0
VERTEX
  5
99
  8
DEFAULT
 10
-119.7999999999958
 20
210.3
 30
0.0
  0
VERTEX
  5
9A
  8
DEFAULT
 10
-117.5999999999958
 20
210.3
 30
0.0
  0
VERTEX
  5
9B
  8
DEFAULT
 10
-117.5999999999958
 20
208.25
 30
0.0
  0
VERTEX
  5
9C
  8
DEFAULT
 10
-113.9999999999958
 20
208.25
 30
0.0
  0
SEQEND
  5
90
  8
DEFAULT
  0
POLYLINE
  5
9D
  8
DEFAULT
 66
     1
 10
0.0
 20
0.0
 30
-0.0000000000000001
  0
VERTEX
  5
9F
  8
DEFAULT
 10
-140.0
 20
88.25
 30
-0.0000000000000001
  0
VERTEX
  5
A0
  8
DEFAULT
 10
-136.4
 20
88.25
 30
-0.0000000000000001
  0
VERTEX
  5
A1
  8
DEFAULT
 10
-136.4
 20
90.30000000000001
 30
-0.0000000000000001
  0
VERTEX
  5
A2
  8
DEFAULT
 10
-134.2
 20
90.30000000000001
 30
-0.0000000000000001
  0
VERTEX
  5
A3
  8
DEFAULT
 10
-134.2
 20
88.25
 30
-0.0000000000000001
  0
VERTEX
  5
A4
  8
DEFAULT
 10
-132.4
 20
88.25
 30
-0.0000000000000001
  0
VERTEX
  5
A5
  8
DEFAULT
 10
-132.4
 20
85.75
 30
-0.0000000000000001
  0
VERTEX
  5
A6
  8
DEFAULT
 10
-134.2
 20
85.75
 30
-0.0000000000000001
  0
VERTEX
  5
A7
  8
DEFAULT
 10
-134.2
 20
83.69999999999999
 30
-0.0000000000000001
  0
VERTEX
  5
A8
  8
DEFAULT
 10
-136.4
 20
83.69999999999999
 30
-0.0000000000000001
  0
VERTEX
  5
A9
  8
DEFAULT
 10
-136.4
 20
85.75
 30
-0.0000000000000001
  0
VERTEX
  5
AA
  8
DEFAULT
 10
-139.999999999997
 20
85.75
 30
-0.0000000000000001
  0
SEQEND
  5
9E
  8
DEFAULT
  0
POLYLINE
  5
AB
  8
DEFAULT
 66
     1
 10
0.0
 20
0.0
 30
0.0
  0
VERTEX
  5
AD
  8
DEFAULT
 10
-139.9999999999997
 20
108.25
 30
0.0
  0
VERTEX
  5
AE
  8
DEFAULT
 10
-138.2
 20
108.25
 30
0.0
  0
VERTEX
  5
AF
  8
DEFAULT
 10
-136.4
 20
107.0
 30
0.0
  0
VERTEX
  5
B0
  8
DEFAULT
 10
-138.2
 20
105.75
 30
0.0
  0
VERTEX
  5
B1
  8
DEFAULT
 10
-139.9999999999997
 20
105.75
 30
0.0
  0
SEQEND
  5
AC
  8
DEFAULT
  0
POLYLINE
  5
B2
  8
DEFAULT
 66
     1
 10
0.0
 20
0.0
 30
-0.0000000000000001
  0
VERTEX
  5
B4
  8
DEFAULT
 10
-140.0
 20
168.25
 30
-0.0000000000000001
  0
VERTEX
  5
B5
  8
DEFAULT
 10
-136.4
 20
168.25
 30
-0.0000000000000001
  0
VERTEX
  5
B6
  8
DEFAULT
 10
-136.4
 20
170.3
 30
-0.0000000000000001
  0
VERTEX
  5
B7
  8
DEFAULT
 10
-134.2
 20
170.3
 30
-0.0000000000000001
  0
VERTEX
  5
B8
  8
DEFAULT
 10
-134.2
 20
168.25
 30
-0.0000000000000001
  0
VERTEX
  5
B9
  8
DEFAULT
 10
-132.4
 20
168.25
 30
-0.0000000000000001
  0
VERTEX
  5
BA
  8
DEFAULT
 10
-132.4
 20
165.75
 30
-0.0000000000000001
  0
VERTEX
  5
BB
  8
DEFAULT
 10
-134.2
 20
165.75
 30
-0.0000000000000001
  0
VERTEX
  5
BC
  8
DEFAULT
 10
-134.2
 20
163.7
 30
-0.0000000000000001
  0
VERTEX
  5
BD
  8
DEFAULT
 10
-136.4
 20
163.7
 30
-0.0000000000000001
  0
VERTEX
  5
BE
  8
DEFAULT
 10
-136.4
 20
165.75
 30
-0.0000000000000001
  0
VERTEX
  5
BF
  8
DEFAULT
 10
-139.999999999997
 20
165.75
 30
-0.0000000000000001
  0
SEQEND
  5
B3
  8
DEFAULT
  0
POLYLINE
  5
C0
  8
DEFAULT
 66
     1
 10
0.0
 20
0.0
 30
0.0
  0
VERTEX
  5
C2
  8
DEFAULT
 10
-139.9999999999997
 20
188.25
 30
0.0
  0
VERTEX
  5
C3
  8
DEFAULT
 10
-138.2
 20
188.25
 30
0.0
  0
VERTEX
  5
C4
  8
DEFAULT
 10
-136.4
 20
187.0
 30
0.0
  0
VERTEX
  5
C5
  8
DEFAULT
 10
-138.2
 20
185.75
 30
0.0
  0
VERTEX
  5
C6
  8
DEFAULT
 10
-139.9999999999997
 20
185.75
 30
0.0
  0
SEQEND
  5
C1
  8
DEFAULT
  0
POLYLINE
  5
C7
  8
DEFAULT
 66
     1
 10
0.0
 20
0.0
 30
0.0
  0
VERTEX
  5
C9
  8
DEFAULT
 10
-139.9999999999997
 20
68.25
 30
0.0
  0
VERTEX
  5
CA
  8
DEFAULT
 10
-138.2
 20
68.25
 30
0.0
  0
VERTEX
  5
CB
  8
DEFAULT
 10
-136.4
 20
67.0
 30
0.0
  0
VERTEX
  5
CC
  8
DEFAULT
 10
-138.2
 20
65.75
 30
0.0
  0
VERTEX
  5
CD
  8
DEFAULT
 10
-139.9999999999997
 20
65.75
 30
0.0
  0
SEQEND
  5
C8
  8
DEFAULT
  0
POLYLINE
  5
CE
  8
DEFAULT
 66
     1
 10
0.0
 20
0.0
 30
-0.0000000000000001
  0
VERTEX
  5
D0
  8
DEFAULT
 10
-140.0
 20
128.25
 30
-0.0000000000000001
  0
VERTEX
  5
D1
  8
DEFAULT
 10
-136.4
 20
128.25
 30
-0.0000000000000001
  0
VERTEX
  5
D2
  8
DEFAULT
 10
-136.4
 20
130.3
 30
-0.0000000000000001
  0
VERTEX
  5
D3
  8
DEFAULT
 10
-134.2
 20
130.3
 30
-0.0000000000000001
  0
VERTEX
  5
D4
  8
DEFAULT
 10
-134.2
 20
128.25
 30
-0.0000000000000001
  0
VERTEX
  5
D5
  8
DEFAULT
 10
-132.4
 20
128.25
 30
-0.0000000000000001
  0
VERTEX
  5
D6
  8
DEFAULT
 10
-132.4
 20
125.75
 30
-0.0000000000000001
  0
VERTEX
  5
D7
  8
DEFAULT
 10
-134.2
 20
125.75
 30
-0.0000000000000001
  0
VERTEX
  5
D8
  8
DEFAULT
 10
-134.2
 20
123.7
 30
-0.0000000000000001
  0
VERTEX
  5
D9
  8
DEFAULT
 10
-136.4
 20
123.7
 30
-0.0000000000000001
  0
VERTEX
  5
DA
  8
DEFAULT
 10
-136.4
 20
125.75
 30
-0.0000000000000001
  0
VERTEX
  5
DB
  8
DEFAULT
 10
-139.999999999997
 20
125.75
 30
-0.0000000000000001
  0
SEQEND
  5
CF
  8
DEFAULT
  0
POLYLINE
  5
DC
  8
DEFAULT
 66
     1
 10
0.0
 20
0.0
 30
0.0
  0
VERTEX
  5
DE
  8
DEFAULT
 10
-139.9999999999997
 20
148.25
 30
0.0
  0
VERTEX
  5
DF
  8
DEFAULT
 10
-138.2
 20
148.25
 30
0.0
  0
VERTEX
  5
E0
  8
DEFAULT
 10
-136.4
 20
147.0
 30
0.0
  0
VERTEX
  5
E1
  8
DEFAULT
 10
-138.2
 20
145.75
 30
0.0
  0
VERTEX
  5
E2
  8
DEFAULT
 10
-139.9999999999997
 20
145.75
 30
0.0
  0
SEQEND
  5
DD
  8
DEFAULT
  0
POLYLINE
  5
E3
  8
DEFAULT
 66
     1
 10
0.0
 20
0.0
 30
0.0
  0
VERTEX
  5
E5
  8
DEFAULT
 10
-114.0
 20
5.75
 30
0.0
  0
VERTEX
  5
E6
  8
DEFAULT
 10
-117.6
 20
5.75
 30
0.0
  0
VERTEX
  5
E7
  8
DEFAULT
 10
-117.6
 20
3.69999999999999
 30
0.0
  0
VERTEX
  5
E8
  8
DEFAULT
 10
-119.8
 20
3.69999999999999
 30
0.0
  0
VERTEX
  5
E9
  8
DEFAULT
 10
-119.8
 20
5.75
 30
0.0
  0
VERTEX
  5
EA
  8
DEFAULT
 10
-121.6
 20
5.75
 30
0.0
  0
VERTEX
  5
EB
  8
DEFAULT
 10
-121.6
 20
8.25
 30
0.0
  0
VERTEX
  5
EC
  8
DEFAULT
 10
-119.8
 20
8.25
 30
0.0
  0
VERTEX
  5
ED
  8
DEFAULT
 10
-119.8
 20
10.30000000000001
 30
0.0
  0
VERTEX
  5
EE
  8
DEFAULT
 10
-117.6
 20
10.30000000000001
 30
0.0
  0
VERTEX
  5
EF
  8
DEFAULT
 10
-117.6
 20
8.25
 30
0.0
  0
VERTEX
  5
F0
  8
DEFAULT
 10
-114.0
 20
8.250000000000007
 30
0.0
  0
SEQEND
  5
E4
  8
DEFAULT
  0
POLYLINE
  5
F1
  8
DEFAULT
 66
     1
 10
0.0
 20
0.0
 30
0.0000000000000006
  0
VERTEX
  5
F3
  8
DEFAULT
 10
-128.25
 20
-8.0
 30
0.0000000000000006
  0
VERTEX
  5
F4
  8
DEFAULT
 10
-128.25
 20
-4.399999999999977
 30
0.0000000000000006
  0
VERTEX
  5
F5
  8
DEFAULT
 10
-130.3
 20
-4.399999999999977
 30
0.0000000000000006
  0
VERTEX
  5
F6
  8
DEFAULT
 10
-130.3
 20
-2.199999999999989
 30
0.0000000000000006
  0
VERTEX
  5
F7
  8
DEFAULT
 10
-128.25
 20
-2.199999999999989
 30
0.0000000000000006
  0
VERTEX
  5
F8
  8
DEFAULT
 10
-128.25
 20
-0.3999999999999773
 30
0.0000000000000006
  0
VERTEX
  5
F9
  8
DEFAULT
 10
-125.75
 20
-0.3999999999999773
 30
0.0000000000000006
  0
VERTEX
  5
FA
  8
DEFAULT
 10
-125.75
 20
-2.199999999999989
 30
0.0000000000000006
  0
VERTEX
  5
FB
  8
DEFAULT
 10
-123.7
 20
-2.199999999999989
 30
0.0000000000000006
  0
VERTEX
  5
FC
  8
DEFAULT
 10
-123.7
 20
-4.399999999999977
 30
0.0000000000000006
  0
VERTEX
  5
FD
  8
DEFAULT
 10
-125.75
 20
-4.399999999999977
 30
0.0000000000000006
  0
VERTEX
  5
FE
  8
DEFAULT
 10
-125.75
 20
-8.0
 30
0.0000000000000006
  0
SEQEND
  5
F2
  8
DEFAULT
  0
POLYLINE
  5
FF
  8
DEFAULT
 66
     1
 10
0.0
 20
0.0
 30
0.0
  0
VERTEX
  5
101
  8
DEFAULT
 10
-139.9999999999997
 20
28.25
 30
0.0
  0
VERTEX
  5
102
  8
DEFAULT
 10
-138.2
 20
28.25
 30
0.0
  0
VERTEX
  5
103
  8
DEFAULT
 10
-136.4
 20
27.0
 30
0.0
  0
VERTEX
  5
104
  8
DEFAULT
 10
-138.2
 20
25.75
 30
0.0
  0
VERTEX
  5
105
  8
DEFAULT
 10
-139.9999999999997
 20
25.75
 30
0.0
  0
SEQEND
  5
100
  8
DEFAULT
  0
POLYLINE
  5
106
  8
DEFAULT
 66
     1
 10
0.0
 20
0.0
 30
-0.0000000000000001
  0
VERTEX
  5
108
  8
DEFAULT
 10
-140.0
 20
48.25
 30
-0.0000000000000001
  0
VERTEX
  5
109
  8
DEFAULT
 10
-136.4
 20
48.25
 30
-0.0000000000000001
  0
VERTEX
  5
10A
  8
DEFAULT
 10
-136.4
 20
50.30000000000001
 30
-0.0000000000000001
  0
VERTEX
  5
10B
  8
DEFAULT
 10
-134.2
 20
50.30000000000001
 30
-0.0000000000000001
  0
VERTEX
  5
10C
  8
DEFAULT
 10
-134.2
 20
48.25
 30
-0.0000000000000001
  0
VERTEX
  5
10D
  8
DEFAULT
 10
-132.4
 20
48.25
 30
-0.0000000000000001
  0
VERTEX
  5
10E
  8
DEFAULT
 10
-132.4
 20
45.75
 30
-0.0000000000000001
  0
VERTEX
  5
10F
  8
DEFAULT
 10
-134.2
 20
45.75
 30
-0.0000000000000001
  0
VERTEX
  5
110
  8
DEFAULT
 10
-134.2
 20
43.69999999999999
 30
-0.0000000000000001
  0
VERTEX
  5
111
  8
DEFAULT
 10
-136.4
 20
43.69999999999999
 30
-0.0000000000000001
  0
VERTEX
  5
112
  8
DEFAULT
 10
-136.4
 20
45.75
 30
-0.0000000000000001
  0
VERTEX
  5
113
  8
DEFAULT
 10
-139.999999999997
 20
45.75
 30
-0.0000000000000001
  0
SEQEND
  5
107
  8
DEFAULT
  0
POLYLINE
  5
114
  8
DEFAULT
 66
     1
 10
0.0
 20
0.0
 30
-0.0000000000000002
  0
VERTEX
  5
116
  8
DEFAULT
 10
-79.9999999999971
 20
199.2500000000031
 30
-0.0000000000000002
  0
VERTEX
  5
117
  8
DEFAULT
 10
-83.5999999999971
 20
199.2500000000031
 30
-0.0000000000000002
  0
VERTEX
  5
118
  8
DEFAULT
 10
-83.5999999999971
 20
201.3000000000031
 30
-0.0000000000000002
  0
VERTEX
  5
119
  8
DEFAULT
 10
-85.7999999999971
 20
201.3000000000031
 30
-0.0000000000000002
  0
VERTEX
  5
11A
  8
DEFAULT
 10
-85.7999999999971
 20
199.2500000000031
 30
-0.0000000000000002
  0
VERTEX
  5
11B
  8
DEFAULT
 10
-87.5999999999971
 20
199.2500000000031
 30
-0.0000000000000002
  0
VERTEX
  5
11C
  8
DEFAULT
 10
-87.5999999999971
 20
196.7500000000031
 30
-0.0000000000000002
  0
VERTEX
  5
11D
  8
DEFAULT
 10
-85.7999999999971
 20
196.7500000000031
 30
-0.0000000000000002
  0
VERTEX
  5
11E
  8
DEFAULT
 10
-85.7999999999971
 20
194.7000000000031
 30
-0.0000000000000002
  0
VERTEX
  5
11F
  8
DEFAULT
 10
-83.5999999999971
 20
194.7000000000031
 30
-0.0000000000000002
  0
VERTEX
  5
120
  8
DEFAULT
 10
-83.5999999999971
 20
196.7500000000031
 30
-0.0000000000000002
  0
VERTEX
  5
121
  8
DEFAULT
 10
-80.00000000000006
 20
196.7500000000031
 30
-0.0000000000000002
  0
SEQEND
  5
115
  8
DEFAULT
  0
POLYLINE
  5
122
  8
DEFAULT
 66
     1
 10
0.0
 20
0.0
 30
0.0
  0
VERTEX
  5
124
  8
DEFAULT
 10
-79.9999999999971
 20
-0.749999999996902
 30
0.0
  0
VERTEX
  5
125
  8
DEFAULT
 10
-83.5999999999971
 20
-0.749999999996902
 30
0.0
  0
VERTEX
  5
126
  8
DEFAULT
 10
-83.5999999999971
 20
1.300000000003108
 30
0.0
  0
VERTEX
  5
127
  8
DEFAULT
 10
-85.7999999999971
 20
1.300000000003108
 30
0.0
  0
VERTEX
  5
128
  8
DEFAULT
 10
-85.7999999999971
 20
-0.749999999996902
 30
0.0
  0
VERTEX
  5
129
  8
DEFAULT
 10
-87.5999999999971
 20
-0.749999999996902
 30
0.0
  0
VERTEX
  5
12A
  8
DEFAULT
 10
-87.5999999999971
 20
-3.249999999996902
 30
0.0
  0
VERTEX
  5
12B
  8
DEFAULT
 10
-85.7999999999971
 20
-3.249999999996902
 30
0.0
  0
VERTEX
  5
12C
  8
DEFAULT
 10
-85.7999999999971
 20
-5.299999999996912
 30
0.0
  0
VERTEX
  5
12D
  8
DEFAULT
 10
-83.5999999999971
 20
-5.299999999996912
 30
0.0
  0
VERTEX
  5
12E
  8
DEFAULT
 10
-83.5999999999971
 20
-3.249999999996902
 30
0.0
  0
VERTEX
  5
12F
  8
DEFAULT
 10
-79.9999999999971
 20
-3.249999999996902
 30
0.0
  0
SEQEND
  5
123
  8
DEFAULT
  0
POLYLINE
  5
130
  8
DEFAULT
 66
     1
 10
0.0
 20
0.0
 30
0.0000000000000008
  0
VERTEX
  5
132
  8
DEFAULT
 10
-94.2499999999971
 20
213.0000000000031
 30
0.0000000000000008
  0
VERTEX
  5
133
  8
DEFAULT
 10
-94.2499999999971
 20
209.4000000000031
 30
0.0000000000000008
  0
VERTEX
  5
134
  8
DEFAULT
 10
-96.29999999999711
 20
209.4000000000031
 30
0.0000000000000008
  0
VERTEX
  5
135
  8
DEFAULT
 10
-96.29999999999711
 20
207.2000000000031
 30
0.0000000000000008
  0
VERTEX
  5
136
  8
DEFAULT
 10
-94.2499999999971
 20
207.2000000000031
 30
0.0000000000000008
  0
VERTEX
  5
137
  8
DEFAULT
 10
-94.2499999999971
 20
205.4000000000031
 30
0.0000000000000008
  0
VERTEX
  5
138
  8
DEFAULT
 10
-91.7499999999971
 20
205.4000000000031
 30
0.0000000000000008
  0
VERTEX
  5
139
  8
DEFAULT
 10
-91.7499999999971
 20
207.2000000000031
 30
0.0000000000000008
  0
VERTEX
  5
13A
  8
DEFAULT
 10
-89.69999999999709
 20
207.2000000000031
 30
0.0000000000000008
  0
VERTEX
  5
13B
  8
DEFAULT
 10
-89.69999999999709
 20
209.4000000000031
 30
0.0000000000000008
  0
VERTEX
  5
13C
  8
DEFAULT
 10
-91.7499999999971
 20
209.4000000000031
 30
0.0000000000000008
  0
VERTEX
  5
13D
  8
DEFAULT
 10
-91.7499999999971
 20
213.0000000000002
 30
0.0000000000000008
  0
SEQEND
  5
131
  8
DEFAULT
  0
POLYLINE
  5
13E
  8
DEFAULT
 66
     1
 10
0.0
 20
0.0
 30
0.0
  0
VERTEX
  5
140
  8
DEFAULT
 10
-105.9999999999983
 20
196.7500000000031
 30
0.0
  0
VERTEX
  5
141
  8
DEFAULT
 10
-102.4000000000013
 20
196.7500000000031
 30
0.0
  0
VERTEX
  5
142
  8
DEFAULT
 10
-102.4000000000013
 20
194.7000000000031
 30
0.0
  0
VERTEX
  5
143
  8
DEFAULT
 10
-100.2000000000013
 20
194.7000000000031
 30
0.0
  0
VERTEX
  5
144
  8
DEFAULT
 10
-100.2000000000013
 20
196.7500000000031
 30
0.0
  0
VERTEX
  5
145
  8
DEFAULT
 10
-98.40000000000127
 20
196.7500000000031
 30
0.0
  0
VERTEX
  5
146
  8
DEFAULT
 10
-98.40000000000127
 20
199.2500000000031
 30
0.0
  0
VERTEX
  5
147
  8
DEFAULT
 10
-100.2000000000013
 20
199.2500000000031
 30
0.0
  0
VERTEX
  5
148
  8
DEFAULT
 10
-100.2000000000013
 20
201.3000000000031
 30
0.0
  0
VERTEX
  5
149
  8
DEFAULT
 10
-102.4000000000013
 20
201.3000000000031
 30
0.0
  0
VERTEX
  5
14A
  8
DEFAULT
 10
-102.4000000000013
 20
199.2500000000031
 30
0.0
  0
VERTEX
  5
14B
  8
DEFAULT
 10
-106.0000000000013
 20
199.2500000000031
 30
0.0
  0
SEQEND
  5
13F
  8
DEFAULT
  0
POLYLINE
  5
14C
  8
DEFAULT
 66
     1
 10
0.0
 20
0.0
 30
-0.0000000000000001
  0
VERTEX
  5
14E
  8
DEFAULT
 10
-79.9999999999971
 20
79.2500000000031
 30
-0.0000000000000001
  0
VERTEX
  5
14F
  8
DEFAULT
 10
-83.5999999999971
 20
79.2500000000031
 30
-0.0000000000000001
  0
VERTEX
  5
150
  8
DEFAULT
 10
-83.5999999999971
 20
81.30000000000311
 30
-0.0000000000000001
  0
VERTEX
  5
151
  8
DEFAULT
 10
-85.7999999999971
 20
81.30000000000311
 30
-0.0000000000000001
  0
VERTEX
  5
152
  8
DEFAULT
 10
-85.7999999999971
 20
79.2500000000031
 30
-0.0000000000000001
  0
VERTEX
  5
153
  8
DEFAULT
 10
-87.5999999999971
 20
79.2500000000031
 30
-0.0000000000000001
  0
VERTEX
  5
154
  8
DEFAULT
 10
-87.5999999999971
 20
76.7500000000031
 30
-0.0000000000000001
  0
VERTEX
  5
155
  8
DEFAULT
 10
-85.7999999999971
 20
76.7500000000031
 30
-0.0000000000000001
  0
VERTEX
  5
156
  8
DEFAULT
 10
-85.7999999999971
 20
74.70000000000309
 30
-0.0000000000000001
  0
VERTEX
  5
157
  8
DEFAULT
 10
-83.5999999999971
 20
74.70000000000309
 30
-0.0000000000000001
  0
VERTEX
  5
158
  8
DEFAULT
 10
-83.5999999999971
 20
76.7500000000031
 30
-0.0000000000000001
  0
VERTEX
  5
159
  8
DEFAULT
 10
-80.00000000000006
 20
76.7500000000031
 30
-0.0000000000000001
  0
SEQEND
  5
14D
  8
DEFAULT
  0
POLYLINE
  5
15A
  8
DEFAULT
 66
     1
 10
0.0
 20
0.0
 30
0.0
  0
VERTEX
  5
15C
  8
DEFAULT
 10
-79.99999999999744
 20
99.2500000000031
 30
0.0
  0
VERTEX
  5
15D
  8
DEFAULT
 10
-81.7999999999971
 20
99.2500000000031
 30
0.0
  0
VERTEX
  5
15E
  8
DEFAULT
 10
-83.5999999999971
 20
98.0000000000031
 30
0.0
  0
VERTEX
  5
15F
  8
DEFAULT
 10
-81.7999999999971
 20
96.7500000000031
 30
0.0
  0
VERTEX
  5
160
  8
DEFAULT
 10
-79.99999999999739
 20
96.7500000000031
 30
0.0
  0
SEQEND
  5
15B
  8
DEFAULT
  0
POLYLINE
  5
161
  8
DEFAULT
 66
     1
 10
0.0
 20
0.0
 30
-0.0000000000000001
  0
VERTEX
  5
163
  8
DEFAULT
 10
-79.9999999999971
 20
159.2500000000031
 30
-0.0000000000000001
  0
VERTEX
  5
164
  8
DEFAULT
 10
-83.5999999999971
 20
159.2500000000031
 30
-0.0000000000000001
  0
VERTEX
  5
165
  8
DEFAULT
 10
-83.5999999999971
 20
161.3000000000031
 30
-0.0000000000000001
  0
VERTEX
  5
166
  8
DEFAULT
 10
-85.7999999999971
 20
161.3000000000031
 30
-0.0000000000000001
  0
VERTEX
  5
167
  8
DEFAULT
 10
-85.7999999999971
 20
159.2500000000031
 30
-0.0000000000000001
  0
VERTEX
  5
168
  8
DEFAULT
 10
-87.5999999999971
 20
159.2500000000031
 30
-0.0000000000000001
  0
VERTEX
  5
169
  8
DEFAULT
 10
-87.5999999999971
 20
156.7500000000031
 30
-0.0000000000000001
  0
VERTEX
  5
16A
  8
DEFAULT
 10
-85.7999999999971
 20
156.7500000000031
 30
-0.0000000000000001
  0
VERTEX
  5
16B
  8
DEFAULT
 10
-85.7999999999971
 20
154.7000000000031
 30
-0.0000000000000001
  0
VERTEX
  5
16C
  8
DEFAULT
 10
-83.5999999999971
 20
154.7000000000031
 30
-0.0000000000000001
  0
VERTEX
  5
16D
  8
DEFAULT
 10
-83.5999999999971
 20
156.7500000000031
 30
-0.0000000000000001
  0
VERTEX
  5
16E
  8
DEFAULT
 10
-80.00000000000006
 20
156.7500000000031
 30
-0.0000000000000001
  0
SEQEND
  5
162
  8
DEFAULT
  0
POLYLINE
  5
16F
  8
DEFAULT
 66
     1
 10
0.0
 20
0.0
 30
0.0
  0
VERTEX
  5
171
  8
DEFAULT
 10
-79.99999999999744
 20
179.2500000000031
 30
0.0
  0
VERTEX
  5
172
  8
DEFAULT
 10
-81.7999999999971
 20
179.2500000000031
 30
0.0
  0
VERTEX
  5
173
  8
DEFAULT
 10
-83.5999999999971
 20
178.0000000000031
 30
0.0
  0
VERTEX
  5
174
  8
DEFAULT
 10
-81.7999999999971
 20
176.7500000000031
 30
0.0
  0
VERTEX
  5
175
  8
DEFAULT
 10
-79.99999999999739
 20
176.7500000000031
 30
0.0
  0
SEQEND
  5
170
  8
DEFAULT
  0
POLYLINE
  5
176
  8
DEFAULT
 66
     1
 10
0.0
 20
0.0
 30
0.0
  0
VERTEX
  5
178
  8
DEFAULT
 10
-79.99999999999744
 20
59.2500000000031
 30
0.0
  0
VERTEX
  5
179
  8
DEFAULT
 10
-81.7999999999971
 20
59.2500000000031
 30
0.0
  0
VERTEX
  5
17A
  8
DEFAULT
 10
-83.5999999999971
 20
58.0000000000031
 30
0.0
  0
VERTEX
  5
17B
  8
DEFAULT
 10
-81.7999999999971
 20
56.7500000000031
 30
0.0
  0
VERTEX
  5
17C
  8
DEFAULT
 10
-79.99999999999739
 20
56.7500000000031
 30
0.0
  0
SEQEND
  5
177
  8
DEFAULT
  0
POLYLINE
  5
17D
  8
DEFAULT
 66
     1
 10
0.0
 20
0.0
 30
-0.0000000000000001
  0
VERTEX
  5
17F
  8
DEFAULT
 10
-79.9999999999971
 20
119.2500000000031
 30
-0.0000000000000001
  0
VERTEX
  5
180
  8
DEFAULT
 10
-83.5999999999971
 20
119.2500000000031
 30
-0.0000000000000001
  0
VERTEX
  5
181
  8
DEFAULT
 10
-83.5999999999971
 20
121.3000000000031
 30
-0.0000000000000001
  0
VERTEX
  5
182
  8
DEFAULT
 10
-85.7999999999971
 20
121.3000000000031
 30
-0.0000000000000001
  0
VERTEX
  5
183
  8
DEFAULT
 10
-85.7999999999971
 20
119.2500000000031
 30
-0.0000000000000001
  0
VERTEX
  5
184
  8
DEFAULT
 10
-87.5999999999971
 20
119.2500000000031
 30
-0.0000000000000001
  0
VERTEX
  5
185
  8
DEFAULT
 10
-87.5999999999971
 20
116.7500000000031
 30
-0.0000000000000001
  0
VERTEX
  5
186
  8
DEFAULT
 10
-85.7999999999971
 20
116.7500000000031
 30
-0.0000000000000001
  0
VERTEX
  5
187
  8
DEFAULT
 10
-85.7999999999971
 20
114.7000000000031
 30
-0.0000000000000001
  0
VERTEX
  5
188
  8
DEFAULT
 10
-83.5999999999971
 20
114.7000000000031
 30
-0.0000000000000001
  0
VERTEX
  5
189
  8
DEFAULT
 10
-83.5999999999971
 20
116.7500000000031
 30
-0.0000000000000001
  0
VERTEX
  5
18A
  8
DEFAULT
 10
-80.00000000000006
 20
116.7500000000031
 30
-0.0000000000000001
  0
SEQEND
  5
17E
  8
DEFAULT
  0
POLYLINE
  5
18B
  8
DEFAULT
 66
     1
 10
0.0
 20
0.0
 30
0.0
  0
VERTEX
  5
18D
  8
DEFAULT
 10
-79.99999999999744
 20
139.2500000000031
 30
0.0
  0
VERTEX
  5
18E
  8
DEFAULT
 10
-81.7999999999971
 20
139.2500000000031
 30
0.0
  0
VERTEX
  5
18F
  8
DEFAULT
 10
-83.5999999999971
 20
138.0000000000031
 30
0.0
  0
VERTEX
  5
190
  8
DEFAULT
 10
-81.7999999999971
 20
136.7500000000031
 30
0.0
  0
VERTEX
  5
191
  8
DEFAULT
 10
-79.99999999999739
 20
136.7500000000031
 30
0.0
  0
SEQEND
  5
18C
  8
DEFAULT
  0
POLYLINE
  5
192
  8
DEFAULT
 66
     1
 10
0.0
 20
0.0
 30
0.0
  0
VERTEX
  5
194
  8
DEFAULT
 10
-105.9999999999971
 20
-3.249999999996902
 30
0.0
  0
VERTEX
  5
195
  8
DEFAULT
 10
-102.3999999999971
 20
-3.249999999996902
 30
0.0
  0
VERTEX
  5
196
  8
DEFAULT
 10
-102.3999999999971
 20
-5.299999999996912
 30
0.0
  0
VERTEX
  5
197
  8
DEFAULT
 10
-100.1999999999971
 20
-5.299999999996912
 30
0.0
  0
VERTEX
  5
198
  8
DEFAULT
 10
-100.1999999999971
 20
-3.249999999996902
 30
0.0
  0
VERTEX
  5
199
  8
DEFAULT
 10
-98.3999999999971
 20
-3.249999999996902
 30
0.0
  0
VERTEX
  5
19A
  8
DEFAULT
 10
-98.3999999999971
 20
-0.749999999996902
 30
0.0
  0
VERTEX
  5
19B
  8
DEFAULT
 10
-100.1999999999971
 20
-0.749999999996902
 30
0.0
  0
VERTEX
  5
19C
  8
DEFAULT
 10
-100.1999999999971
 20
1.300000000003108
 30
0.0
  0
VERTEX
  5
19D
  8
DEFAULT
 10
-102.3999999999971
 20
1.300000000003108
 30
0.0
  0
VERTEX
  5
19E
  8
DEFAULT
 10
-102.3999999999971
 20
-0.749999999996902
 30
0.0
  0
VERTEX
  5
19F
  8
DEFAULT
 10
-105.9999999999971
 20
-0.7499999999968949
 30
0.0
  0
SEQEND
  5
193
  8
DEFAULT
  0
POLYLINE
  5
1A0
  8
DEFAULT
 66
     1
 10
0.0
 20
0.0
 30
0.0000000000000006
  0
VERTEX
  5
1A2
  8
DEFAULT
 10
-91.7499999999971
 20
-16.9999999999969
 30
0.0000000000000006
  0
VERTEX
  5
1A3
  8
DEFAULT
 10
-91.7499999999971
 20
-13.39999999999688
 30
0.0000000000000006
  0
VERTEX
  5
1A4
  8
DEFAULT
 10
-89.69999999999709
 20
-13.39999999999688
 30
0.0000000000000006
  0
VERTEX
  5
1A5
  8
DEFAULT
 10
-89.69999999999709
 20
-11.19999999999689
 30
0.0000000000000006
  0
VERTEX
  5
1A6
  8
DEFAULT
 10
-91.7499999999971
 20
-11.19999999999689
 30
0.0000000000000006
  0
VERTEX
  5
1A7
  8
DEFAULT
 10
-91.7499999999971
 20
-9.39999999999688
 30
0.0000000000000006
  0
VERTEX
  5
1A8
  8
DEFAULT
 10
-94.2499999999971
 20
-9.39999999999688
 30
0.0000000000000006
  0
VERTEX
  5
1A9
  8
DEFAULT
 10
-94.2499999999971
 20
-11.19999999999689
 30
0.0000000000000006
  0
VERTEX
  5
1AA
  8
DEFAULT
 10
-96.29999999999711
 20
-11.19999999999689
 30
0.0000000000000006
  0
VERTEX
  5
1AB
  8
DEFAULT
 10
-96.29999999999711
 20
-13.39999999999688
 30
0.0000000000000006
  0
VERTEX
  5
1AC
  8
DEFAULT
 10
-94.2499999999971
 20
-13.39999999999688
 30
0.0000000000000006
  0
VERTEX
  5
1AD
  8
DEFAULT
 10
-94.2499999999971
 20
-16.9999999999969
 30
0.0000000000000006
  0
SEQEND
  5
1A1
  8
DEFAULT
  0
POLYLINE
  5
1AE
  8
DEFAULT
 66
     1
 10
0.0
 20
0.0
 30
0.0
  0
VERTEX
  5
1B0
  8
DEFAULT
 10
-79.99999999999744
 20
19.2500000000031
 30
0.0
  0
VERTEX
  5
1B1
  8
DEFAULT
 10
-81.7999999999971
 20
19.2500000000031
 30
0.0
  0
VERTEX
  5
1B2
  8
DEFAULT
 10
-83.5999999999971
 20
18.0000000000031
 30
0.0
  0
VERTEX
  5
1B3
  8
DEFAULT
 10
-81.7999999999971
 20
16.7500000000031
 30
0.0
  0
VERTEX
  5
1B4
  8
DEFAULT
 10
-79.99999999999739
 20
16.7500000000031
 30
0.0
  0
SEQEND
  5
1AF
  8
DEFAULT
  0
POLYLINE
  5
1B5
  8
DEFAULT
 66
     1
 10
0.0
 20
0.0
 30
-0.0000000000000001
  0
VERTEX
  5
1B7
  8
DEFAULT
 10
-79.9999999999971
 20
39.2500000000031
 30
-0.0000000000000001
  0
VERTEX
  5
1B8
  8
DEFAULT
 10
-83.5999999999971
 20
39.2500000000031
 30
-0.0000000000000001
  0
VERTEX
  5
1B9
  8
DEFAULT
 10
-83.5999999999971
 20
41.30000000000311
 30
-0.0000000000000001
  0
VERTEX
  5
1BA
  8
DEFAULT
 10
-85.7999999999971
 20
41.30000000000311
 30
-0.0000000000000001
  0
VERTEX
  5
1BB
  8
DEFAULT
 10
-85.7999999999971
 20
39.2500000000031
 30
-0.0000000000000001
  0
VERTEX
  5
1BC
  8
DEFAULT
 10
-87.5999999999971
 20
39.2500000000031
 30
-0.0000000000000001
  0
VERTEX
  5
1BD
  8
DEFAULT
 10
-87.5999999999971
 20
36.7500000000031
 30
-0.0000000000000001
  0
VERTEX
  5
1BE
  8
DEFAULT
 10
-85.7999999999971
 20
36.7500000000031
 30
-0.0000000000000001
  0
VERTEX
  5
1BF
  8
DEFAULT
 10
-85.7999999999971
 20
34.70000000000309
 30
-0.0000000000000001
  0
VERTEX
  5
1C0
  8
DEFAULT
 10
-83.5999999999971
 20
34.70000000000309
 30
-0.0000000000000001
  0
VERTEX
  5
1C1
  8
DEFAULT
 10
-83.5999999999971
 20
36.7500000000031
 30
-0.0000000000000001
  0
VERTEX
  5
1C2
  8
DEFAULT
 10
-80.00000000000006
 20
36.7500000000031
 30
-0.0000000000000001
  0
SEQEND
  5
1B6
  8
DEFAULT
  0
POLYLINE
  5
1C3
  8
DEFAULT
 66
     1
 10
0.0
 20
0.0
 30
-0.0000000000000001
  0
VERTEX
  5
1C5
  8
DEFAULT
 10
-67.99999999999709
 20
88.25
 30
-0.0000000000000001
  0
VERTEX
  5
1C6
  8
DEFAULT
 10
-64.39999999999709
 20
88.25
 30
-0.0000000000000001
  0
VERTEX
  5
1C7
  8
DEFAULT
 10
-64.39999999999709
 20
90.30000000000001
 30
-0.0000000000000001
  0
VERTEX
  5
1C8
  8
DEFAULT
 10
-62.19999999999708
 20
90.30000000000001
 30
-0.0000000000000001
  0
VERTEX
  5
1C9
  8
DEFAULT
 10
-62.19999999999708
 20
88.25
 30
-0.0000000000000001
  0
VERTEX
  5
1CA
  8
DEFAULT
 10
-60.39999999999709
 20
88.25
 30
-0.0000000000000001
  0
VERTEX
  5
1CB
  8
DEFAULT
 10
-60.39999999999709
 20
85.75
 30
-0.0000000000000001
  0
VERTEX
  5
1CC
  8
DEFAULT
 10
-62.19999999999708
 20
85.75
 30
-0.0000000000000001
  0
VERTEX
  5
1CD
  8
DEFAULT
 10
-62.19999999999708
 20
83.69999999999999
 30
-0.0000000000000001
  0
VERTEX
  5
1CE
  8
DEFAULT
 10
-64.39999999999709
 20
83.69999999999999
 30
-0.0000000000000001
  0
VERTEX
  5
1CF
  8
DEFAULT
 10
-64.39999999999709
 20
85.75
 30
-0.0000000000000001
  0
VERTEX
  5
1D0
  8
DEFAULT
 10
-67.99999999999413
 20
85.75
 30
-0.0000000000000001
  0
SEQEND
  5
1C4
  8
DEFAULT
  0
POLYLINE
  5
1D1
  8
DEFAULT
 66
     1
 10
0.0
 20
0.0
 30
0.0
  0
VERTEX
  5
1D3
  8
DEFAULT
 10
-7.999999999994529
 20
139.2500000000031
 30
0.0
  0
VERTEX
  5
1D4
  8
DEFAULT
 10
-9.799999999994185
 20
139.2500000000031
 30
0.0
  0
VERTEX
  5
1D5
  8
DEFAULT
 10
-11.59999999999418
 20
138.0000000000031
 30
0.0
  0
VERTEX
  5
1D6
  8
DEFAULT
 10
-9.799999999994185
 20
136.7500000000031
 30
0.0
  0
VERTEX
  5
1D7
  8
DEFAULT
 10
-7.999999999994472
 20
136.7500000000031
 30
0.0
  0
SEQEND
  5
1D2
  8
DEFAULT
  0
POLYLINE
  5
1D8
  8
DEFAULT
 66
     1
 10
0.0
 20
0.0
 30
-0.0000000000000001
  0
VERTEX
  5
1DA
  8
DEFAULT
 10
-7.999999999994188
 20
39.2500000000031
 30
-0.0000000000000001
  0
VERTEX
  5
1DB
  8
DEFAULT
 10
-11.59999999999418
 20
39.2500000000031
 30
-0.0000000000000001
  0
VERTEX
  5
1DC
  8
DEFAULT
 10
-11.59999999999418
 20
41.30000000000311
 30
-0.0000000000000001
  0
VERTEX
  5
1DD
  8
DEFAULT
 10
-13.79999999999418
 20
41.30000000000311
 30
-0.0000000000000001
  0
VERTEX
  5
1DE
  8
DEFAULT
 10
-13.79999999999418
 20
39.2500000000031
 30
-0.0000000000000001
  0
VERTEX
  5
1DF
  8
DEFAULT
 10
-15.59999999999418
 20
39.2500000000031
 30
-0.0000000000000001
  0
VERTEX
  5
1E0
  8
DEFAULT
 10
-15.59999999999418
 20
36.7500000000031
 30
-0.0000000000000001
  0
VERTEX
  5
1E1
  8
DEFAULT
 10
-13.79999999999418
 20
36.7500000000031
 30
-0.0000000000000001
  0
VERTEX
  5
1E2
  8
DEFAULT
 10
-13.79999999999418
 20
34.70000000000309
 30
-0.0000000000000001
  0
VERTEX
  5
1E3
  8
DEFAULT
 10
-11.59999999999418
 20
34.70000000000309
 30
-0.0000000000000001
  0
VERTEX
  5
1E4
  8
DEFAULT
 10
-11.59999999999418
 20
36.7500000000031
 30
-0.0000000000000001
  0
VERTEX
  5
1E5
  8
DEFAULT
 10
-7.999999999997144
 20
36.7500000000031
 30
-0.0000000000000001
  0
SEQEND
  5
1D9
  8
DEFAULT
  0
POLYLINE
  5
1E6
  8
DEFAULT
 66
     1
 10
0.0
 20
0.0
 30
0.0
  0
VERTEX
  5
1E8
  8
DEFAULT
 10
-7.999999999994529
 20
19.2500000000031
 30
0.0
  0
VERTEX
  5
1E9
  8
DEFAULT
 10
-9.799999999994185
 20
19.2500000000031
 30
0.0
  0
VERTEX
  5
1EA
  8
DEFAULT
 10
-11.59999999999418
 20
18.0000000000031
 30
0.0
  0
VERTEX
  5
1EB
  8
DEFAULT
 10
-9.799999999994185
 20
16.7500000000031
 30
0.0
  0
VERTEX
  5
1EC
  8
DEFAULT
 10
-7.999999999994472
 20
16.7500000000031
 30
0.0
  0
SEQEND
  5
1E7
  8
DEFAULT
  0
POLYLINE
  5
1ED
  8
DEFAULT
 66
     1
 10
0.0
 20
0.0
 30
0.0
  0
VERTEX
  5
1EF
  8
DEFAULT
 10
-67.99999999999675
 20
148.25
 30
0.0
  0
VERTEX
  5
1F0
  8
DEFAULT
 10
-66.19999999999708
 20
148.25
 30
0.0
  0
VERTEX
  5
1F1
  8
DEFAULT
 10
-64.39999999999709
 20
147.0
 30
0.0
  0
VERTEX
  5
1F2
  8
DEFAULT
 10
-66.19999999999708
 20
145.75
 30
0.0
  0
VERTEX
  5
1F3
  8
DEFAULT
 10
-67.9999999999968
 20
145.75
 30
0.0
  0
SEQEND
  5
1EE
  8
DEFAULT
  0
POLYLINE
  5
1F4
  8
DEFAULT
 66
     1
 10
0.0
 20
0.0
 30
-0.0000000000000001
  0
VERTEX
  5
1F6
  8
DEFAULT
 10
-67.99999999999709
 20
128.25
 30
-0.0000000000000001
  0
VERTEX
  5
1F7
  8
DEFAULT
 10
-64.39999999999709
 20
128.25
 30
-0.0000000000000001
  0
VERTEX
  5
1F8
  8
DEFAULT
 10
-64.39999999999709
 20
130.3
 30
-0.0000000000000001
  0
VERTEX
  5
1F9
  8
DEFAULT
 10
-62.19999999999708
 20
130.3
 30
-0.0000000000000001
  0
VERTEX
  5
1FA
  8
DEFAULT
 10
-62.19999999999708
 20
128.25
 30
-0.0000000000000001
  0
VERTEX
  5
1FB
  8
DEFAULT
 10
-60.39999999999709
 20
128.25
 30
-0.0000000000000001
  0
VERTEX
  5
1FC
  8
DEFAULT
 10
-60.39999999999709
 20
125.75
 30
-0.0000000000000001
  0
VERTEX
  5
1FD
  8
DEFAULT
 10
-62.19999999999708
 20
125.75
 30
-0.0000000000000001
  0
VERTEX
  5
1FE
  8
DEFAULT
 10
-62.19999999999708
 20
123.7
 30
-0.0000000000000001
  0
VERTEX
  5
1FF
  8
DEFAULT
 10
-64.39999999999709
 20
123.7
 30
-0.0000000000000001
  0
VERTEX
  5
200
  8
DEFAULT
 10
-64.39999999999709
 20
125.75
 30
-0.0000000000000001
  0
VERTEX
  5
201
  8
DEFAULT
 10
-67.99999999999413
 20
125.75
 30
-0.0000000000000001
  0
SEQEND
  5
1F5
  8
DEFAULT
  0
POLYLINE
  5
202
  8
DEFAULT
 66
     1
 10
0.0
 20
0.0
 30
0.0
  0
VERTEX
  5
204
  8
DEFAULT
 10
-67.99999999999675
 20
68.25
 30
0.0
  0
VERTEX
  5
205
  8
DEFAULT
 10
-66.19999999999708
 20
68.25
 30
0.0
  0
VERTEX
  5
206
  8
DEFAULT
 10
-64.39999999999709
 20
67.0
 30
0.0
  0
VERTEX
  5
207
  8
DEFAULT
 10
-66.19999999999708
 20
65.75
 30
0.0
  0
VERTEX
  5
208
  8
DEFAULT
 10
-67.9999999999968
 20
65.75
 30
0.0
  0
SEQEND
  5
203
  8
DEFAULT
  0
POLYLINE
  5
209
  8
DEFAULT
 66
     1
 10
0.0
 20
0.0
 30
0.0
  0
VERTEX
  5
20B
  8
DEFAULT
 10
-67.99999999999675
 20
188.25
 30
0.0
  0
VERTEX
  5
20C
  8
DEFAULT
 10
-66.19999999999708
 20
188.25
 30
0.0
  0
VERTEX
  5
20D
  8
DEFAULT
 10
-64.39999999999709
 20
187.0
 30
0.0
  0
VERTEX
  5
20E
  8
DEFAULT
 10
-66.19999999999708
 20
185.75
 30
0.0
  0
VERTEX
  5
20F
  8
DEFAULT
 10
-67.9999999999968
 20
185.75
 30
0.0
  0
SEQEND
  5
20A
  8
DEFAULT
  0
POLYLINE
  5
210
  8
DEFAULT
 66
     1
 10
0.0
 20
0.0
 30
-0.0000000000000001
  0
VERTEX
  5
212
  8
DEFAULT
 10
-67.99999999999709
 20
168.25
 30
-0.0000000000000001
  0
VERTEX
  5
213
  8
DEFAULT
 10
-64.39999999999709
 20
168.25
 30
-0.0000000000000001
  0
VERTEX
  5
214
  8
DEFAULT
 10
-64.39999999999709
 20
170.3
 30
-0.0000000000000001
  0
VERTEX
  5
215
  8
DEFAULT
 10
-62.19999999999708
 20
170.3
 30
-0.0000000000000001
  0
VERTEX
  5
216
  8
DEFAULT
 10
-62.19999999999708
 20
168.25
 30
-0.0000000000000001
  0
VERTEX
  5
217
  8
DEFAULT
 10
-60.39999999999709
 20
168.25
 30
-0.0000000000000001
  0
VERTEX
  5
218
  8
DEFAULT
 10
-60.39999999999709
 20
165.75
 30
-0.0000000000000001
  0
VERTEX
  5
219
  8
DEFAULT
 10
-62.19999999999708
 20
165.75
 30
-0.0000000000000001
  0
VERTEX
  5
21A
  8
DEFAULT
 10
-62.19999999999708
 20
163.7
 30
-0.0000000000000001
  0
VERTEX
  5
21B
  8
DEFAULT
 10
-64.39999999999709
 20
163.7
 30
-0.0000000000000001
  0
VERTEX
  5
21C
  8
DEFAULT
 10
-64.39999999999709
 20
165.75
 30
-0.0000000000000001
  0
VERTEX
  5
21D
  8
DEFAULT
 10
-67.99999999999413
 20
165.75
 30
-0.0000000000000001
  0
SEQEND
  5
211
  8
DEFAULT
  0
POLYLINE
  5
21E
  8
DEFAULT
 66
     1
 10
0.0
 20
0.0
 30
0.0
  0
VERTEX
  5
220
  8
DEFAULT
 10
-67.99999999999675
 20
108.25
 30
0.0
  0
VERTEX
  5
221
  8
DEFAULT
 10
-66.19999999999708
 20
108.25
 30
0.0
  0
VERTEX
  5
222
  8
DEFAULT
 10
-64.39999999999709
 20
107.0
 30
0.0
  0
VERTEX
  5
223
  8
DEFAULT
 10
-66.19999999999708
 20
105.75
 30
0.0
  0
VERTEX
  5
224
  8
DEFAULT
 10
-67.9999999999968
 20
105.75
 30
0.0
  0
SEQEND
  5
21F
  8
DEFAULT
  0
POLYLINE
  5
225
  8
DEFAULT
 66
     1
 10
0.0
 20
0.0
 30
-0.0000000000000001
  0
VERTEX
  5
227
  8
DEFAULT
 10
-7.999999999994188
 20
119.2500000000031
 30
-0.0000000000000001
  0
VERTEX
  5
228
  8
DEFAULT
 10
-11.59999999999418
 20
119.2500000000031
 30
-0.0000000000000001
  0
VERTEX
  5
229
  8
DEFAULT
 10
-11.59999999999418
 20
121.3000000000031
 30
-0.0000000000000001
  0
VERTEX
  5
22A
  8
DEFAULT
 10
-13.79999999999418
 20
121.3000000000031
 30
-0.0000000000000001
  0
VERTEX
  5
22B
  8
DEFAULT
 10
-13.79999999999418
 20
119.2500000000031
 30
-0.0000000000000001
  0
VERTEX
  5
22C
  8
DEFAULT
 10
-15.59999999999418
 20
119.2500000000031
 30
-0.0000000000000001
  0
VERTEX
  5
22D
  8
DEFAULT
 10
-15.59999999999418
 20
116.7500000000031
 30
-0.0000000000000001
  0
VERTEX
  5
22E
  8
DEFAULT
 10
-13.79999999999418
 20
116.7500000000031
 30
-0.0000000000000001
  0
VERTEX
  5
22F
  8
DEFAULT
 10
-13.79999999999418
 20
114.7000000000031
 30
-0.0000000000000001
  0
VERTEX
  5
230
  8
DEFAULT
 10
-11.59999999999418
 20
114.7000000000031
 30
-0.0000000000000001
  0
VERTEX
  5
231
  8
DEFAULT
 10
-11.59999999999418
 20
116.7500000000031
 30
-0.0000000000000001
  0
VERTEX
  5
232
  8
DEFAULT
 10
-7.999999999997144
 20
116.7500000000031
 30
-0.0000000000000001
  0
SEQEND
  5
226
  8
DEFAULT
  0
POLYLINE
  5
233
  8
DEFAULT
 66
     1
 10
0.0
 20
0.0
 30
0.0000000000000006
  0
VERTEX
  5
235
  8
DEFAULT
 10
-19.74999999999419
 20
-16.9999999999969
 30
0.0000000000000006
  0
VERTEX
  5
236
  8
DEFAULT
 10
-19.74999999999419
 20
-13.39999999999688
 30
0.0000000000000006
  0
VERTEX
  5
237
  8
DEFAULT
 10
-17.69999999999418
 20
-13.39999999999688
 30
0.0000000000000006
  0
VERTEX
  5
238
  8
DEFAULT
 10
-17.69999999999418
 20
-11.19999999999689
 30
0.0000000000000006
  0
VERTEX
  5
239
  8
DEFAULT
 10
-19.74999999999419
 20
-11.19999999999689
 30
0.0000000000000006
  0
VERTEX
  5
23A
  8
DEFAULT
 10
-19.74999999999419
 20
-9.39999999999688
 30
0.0000000000000006
  0
VERTEX
  5
23B
  8
DEFAULT
 10
-22.24999999999419
 20
-9.39999999999688
 30
0.0000000000000006
  0
VERTEX
  5
23C
  8
DEFAULT
 10
-22.24999999999419
 20
-11.19999999999689
 30
0.0000000000000006
  0
VERTEX
  5
23D
  8
DEFAULT
 10
-24.2999999999942
 20
-11.19999999999689
 30
0.0000000000000006
  0
VERTEX
  5
23E
  8
DEFAULT
 10
-24.2999999999942
 20
-13.39999999999688
 30
0.0000000000000006
  0
VERTEX
  5
23F
  8
DEFAULT
 10
-22.24999999999419
 20
-13.39999999999688
 30
0.0000000000000006
  0
VERTEX
  5
240
  8
DEFAULT
 10
-22.24999999999419
 20
-16.9999999999969
 30
0.0000000000000006
  0
SEQEND
  5
234
  8
DEFAULT
  0
POLYLINE
  5
241
  8
DEFAULT
 66
     1
 10
0.0
 20
0.0
 30
-0.0000000000000001
  0
VERTEX
  5
243
  8
DEFAULT
 10
-67.99999999999709
 20
48.25
 30
-0.0000000000000001
  0
VERTEX
  5
244
  8
DEFAULT
 10
-64.39999999999709
 20
48.25
 30
-0.0000000000000001
  0
VERTEX
  5
245
  8
DEFAULT
 10
-64.39999999999709
 20
50.30000000000001
 30
-0.0000000000000001
  0
VERTEX
  5
246
  8
DEFAULT
 10
-62.19999999999708
 20
50.30000000000001
 30
-0.0000000000000001
  0
VERTEX
  5
247
  8
DEFAULT
 10
-62.19999999999708
 20
48.25
 30
-0.0000000000000001
  0
VERTEX
  5
248
  8
DEFAULT
 10
-60.39999999999709
 20
48.25
 30
-0.0000000000000001
  0
VERTEX
  5
249
  8
DEFAULT
 10
-60.39999999999709
 20
45.75
 30
-0.0000000000000001
  0
VERTEX
  5
24A
  8
DEFAULT
 10
-62.19999999999708
 20
45.75
 30
-0.0000000000000001
  0
VERTEX
  5
24B
  8
DEFAULT
 10
-62.19999999999708
 20
43.69999999999999
 30
-0.0000000000000001
  0
VERTEX
  5
24C
  8
DEFAULT
 10
-64.39999999999709
 20
43.69999999999999
 30
-0.0000000000000001
  0
VERTEX
  5
24D
  8
DEFAULT
 10
-64.39999999999709
 20
45.75
 30
-0.0000000000000001
  0
VERTEX
  5
24E
  8
DEFAULT
 10
-67.99999999999413
 20
45.75
 30
-0.0000000000000001
  0
SEQEND
  5
242
  8
DEFAULT
  0
POLYLINE
  5
24F
  8
DEFAULT
 66
     1
 10
0.0
 20
0.0
 30
0.0
  0
VERTEX
  5
251
  8
DEFAULT
 10
-67.99999999999675
 20
28.25
 30
0.0
  0
VERTEX
  5
252
  8
DEFAULT
 10
-66.19999999999708
 20
28.25
 30
0.0
  0
VERTEX
  5
253
  8
DEFAULT
 10
-64.39999999999709
 20
27.0
 30
0.0
  0
VERTEX
  5
254
  8
DEFAULT
 10
-66.19999999999708
 20
25.75
 30
0.0
  0
VERTEX
  5
255
  8
DEFAULT
 10
-67.9999999999968
 20
25.75
 30
0.0
  0
SEQEND
  5
250
  8
DEFAULT
  0
POLYLINE
  5
256
  8
DEFAULT
 66
     1
 10
0.0
 20
0.0
 30
0.0000000000000006
  0
VERTEX
  5
258
  8
DEFAULT
 10
-56.24999999999709
 20
-8.0
 30
0.0000000000000006
  0
VERTEX
  5
259
  8
DEFAULT
 10
-56.24999999999709
 20
-4.399999999999977
 30
0.0000000000000006
  0
VERTEX
  5
25A
  8
DEFAULT
 10
-58.2999999999971
 20
-4.399999999999977
 30
0.0000000000000006
  0
VERTEX
  5
25B
  8
DEFAULT
 10
-58.2999999999971
 20
-2.199999999999989
 30
0.0000000000000006
  0
VERTEX
  5
25C
  8
DEFAULT
 10
-56.24999999999709
 20
-2.199999999999989
 30
0.0000000000000006
  0
VERTEX
  5
25D
  8
DEFAULT
 10
-56.24999999999709
 20
-0.3999999999999773
 30
0.0000000000000006
  0
VERTEX
  5
25E
  8
DEFAULT
 10
-53.74999999999709
 20
-0.3999999999999773
 30
0.0000000000000006
  0
VERTEX
  5
25F
  8
DEFAULT
 10
-53.74999999999709
 20
-2.199999999999989
 30
0.0000000000000006
  0
VERTEX
  5
260
  8
DEFAULT
 10
-51.69999999999708
 20
-2.199999999999989
 30
0.0000000000000006
  0
VERTEX
  5
261
  8
DEFAULT
 10
-51.69999999999708
 20
-4.399999999999977
 30
0.0000000000000006
  0
VERTEX
  5
262
  8
DEFAULT
 10
-53.74999999999709
 20
-4.399999999999977
 30
0.0000000000000006
  0
VERTEX
  5
263
  8
DEFAULT
 10
-53.74999999999709
 20
-8.0
 30
0.0000000000000006
  0
SEQEND
  5
257
  8
DEFAULT
  0
POLYLINE
  5
264
  8
DEFAULT
 66
     1
 10
0.0
 20
0.0
 30
0.0
  0
VERTEX
  5
266
  8
DEFAULT
 10
-41.99999999999709
 20
5.75
 30
0.0
  0
VERTEX
  5
267
  8
DEFAULT
 10
-45.59999999999708
 20
5.75
 30
0.0
  0
VERTEX
  5
268
  8
DEFAULT
 10
-45.59999999999708
 20
3.69999999999999
 30
0.0
  0
VERTEX
  5
269
  8
DEFAULT
 10
-47.79999999999708
 20
3.69999999999999
 30
0.0
  0
VERTEX
  5
26A
  8
DEFAULT
 10
-47.79999999999708
 20
5.75
 30
0.0
  0
VERTEX
  5
26B
  8
DEFAULT
 10
-49.59999999999708
 20
5.75
 30
0.0
  0
VERTEX
  5
26C
  8
DEFAULT
 10
-49.59999999999708
 20
8.25
 30
0.0
  0
VERTEX
  5
26D
  8
DEFAULT
 10
-47.79999999999708
 20
8.25
 30
0.0
  0
VERTEX
  5
26E
  8
DEFAULT
 10
-47.79999999999708
 20
10.30000000000001
 30
0.0
  0
VERTEX
  5
26F
  8
DEFAULT
 10
-45.59999999999708
 20
10.30000000000001
 30
0.0
  0
VERTEX
  5
270
  8
DEFAULT
 10
-45.59999999999708
 20
8.25
 30
0.0
  0
VERTEX
  5
271
  8
DEFAULT
 10
-41.99999999999709
 20
8.250000000000007
 30
0.0
  0
SEQEND
  5
265
  8
DEFAULT
  0
POLYLINE
  5
272
  8
DEFAULT
 66
     1
 10
0.0
 20
0.0
 30
0.0
  0
VERTEX
  5
274
  8
DEFAULT
 10
-7.999999999994529
 20
59.2500000000031
 30
0.0
  0
VERTEX
  5
275
  8
DEFAULT
 10
-9.799999999994185
 20
59.2500000000031
 30
0.0
  0
VERTEX
  5
276
  8
DEFAULT
 10
-11.59999999999418
 20
58.0000000000031
 30
0.0
  0
VERTEX
  5
277
  8
DEFAULT
 10
-9.799999999994185
 20
56.7500000000031
 30
0.0
  0
VERTEX
  5
278
  8
DEFAULT
 10
-7.999999999994472
 20
56.7500000000031
 30
0.0
  0
SEQEND
  5
273
  8
DEFAULT
  0
POLYLINE
  5
279
  8
DEFAULT
 66
     1
 10
0.0
 20
0.0
 30
0.0
  0
VERTEX
  5
27B
  8
DEFAULT
 10
-7.999999999994529
 20
99.2500000000031
 30
0.0
  0
VERTEX
  5
27C
  8
DEFAULT
 10
-9.799999999994185
 20
99.2500000000031
 30
0.0
  0
VERTEX
  5
27D
  8
DEFAULT
 10
-11.59999999999418
 20
98.0000000000031
 30
0.0
  0
VERTEX
  5
27E
  8
DEFAULT
 10
-9.799999999994185
 20
96.7500000000031
 30
0.0
  0
VERTEX
  5
27F
  8
DEFAULT
 10
-7.999999999994472
 20
96.7500000000031
 30
0.0
  0
SEQEND
  5
27A
  8
DEFAULT
  0
POLYLINE
  5
280
  8
DEFAULT
 66
     1
 10
0.0
 20
0.0
 30
0.0
  0
VERTEX
  5
282
  8
DEFAULT
 10
-33.99999999999541
 20
196.7500000000031
 30
0.0
  0
VERTEX
  5
283
  8
DEFAULT
 10
-30.39999999999836
 20
196.7500000000031
 30
0.0
  0
VERTEX
  5
284
  8
DEFAULT
 10
-30.39999999999836
 20
194.7000000000031
 30
0.0
  0
VERTEX
  5
285
  8
DEFAULT
 10
-28.19999999999835
 20
194.7000000000031
 30
0.0
  0
VERTEX
  5
286
  8
DEFAULT
 10
-28.19999999999835
 20
196.7500000000031
 30
0.0
  0
VERTEX
  5
287
  8
DEFAULT
 10
-26.39999999999836
 20
196.7500000000031
 30
0.0
  0
VERTEX
  5
288
  8
DEFAULT
 10
-26.39999999999836
 20
199.2500000000031
 30
0.0
  0
VERTEX
  5
289
  8
DEFAULT
 10
-28.19999999999835
 20
199.2500000000031
 30
0.0
  0
VERTEX
  5
28A
  8
DEFAULT
 10
-28.19999999999837
 20
201.3000000000031
 30
0.0
  0
VERTEX
  5
28B
  8
DEFAULT
 10
-30.39999999999836
 20
201.3000000000031
 30
0.0
  0
VERTEX
  5
28C
  8
DEFAULT
 10
-30.39999999999836
 20
199.2500000000031
 30
0.0
  0
VERTEX
  5
28D
  8
DEFAULT
 10
-33.99999999999837
 20
199.2500000000031
 30
0.0
  0
SEQEND
  5
281
  8
DEFAULT
  0
POLYLINE
  5
28E
  8
DEFAULT
 66
     1
 10
0.0
 20
0.0
 30
0.0000000000000008
  0
VERTEX
  5
290
  8
DEFAULT
 10
-22.24999999999419
 20
213.0000000000031
 30
0.0000000000000008
  0
VERTEX
  5
291
  8
DEFAULT
 10
-22.24999999999419
 20
209.4000000000031
 30
0.0000000000000008
  0
VERTEX
  5
292
  8
DEFAULT
 10
-24.2999999999942
 20
209.4000000000031
 30
0.0000000000000008
  0
VERTEX
  5
293
  8
DEFAULT
 10
-24.2999999999942
 20
207.2000000000031
 30
0.0000000000000008
  0
VERTEX
  5
294
  8
DEFAULT
 10
-22.24999999999419
 20
207.2000000000031
 30
0.0000000000000008
  0
VERTEX
  5
295
  8
DEFAULT
 10
-22.24999999999419
 20
205.4000000000031
 30
0.0000000000000008
  0
VERTEX
  5
296
  8
DEFAULT
 10
-19.74999999999419
 20
205.4000000000031
 30
0.0000000000000008
  0
VERTEX
  5
297
  8
DEFAULT
 10
-19.74999999999419
 20
207.2000000000031
 30
0.0000000000000008
  0
VERTEX
  5
298
  8
DEFAULT
 10
-17.69999999999418
 20
207.2000000000031
 30
0.0000000000000008
  0
VERTEX
  5
299
  8
DEFAULT
 10
-17.69999999999418
 20
209.4000000000031
 30
0.0000000000000008
  0
VERTEX
  5
29A
  8
DEFAULT
 10
-19.74999999999419
 20
209.4000000000031
 30
0.0000000000000008
  0
VERTEX
  5
29B
  8
DEFAULT
 10
-19.74999999999419
 20
213.0000000000002
 30
0.0000000000000008
  0
SEQEND
  5
28F
  8
DEFAULT
  0
POLYLINE
  5
29C
  8
DEFAULT
 66
     1
 10
0.0
 20
0.0
 30
-0.0000000000000002
  0
VERTEX
  5
29E
  8
DEFAULT
 10
-7.999999999994188
 20
199.2500000000031
 30
-0.0000000000000002
  0
VERTEX
  5
29F
  8
DEFAULT
 10
-11.59999999999418
 20
199.2500000000031
 30
-0.0000000000000002
  0
VERTEX
  5
2A0
  8
DEFAULT
 10
-11.59999999999418
 20
201.3000000000031
 30
-0.0000000000000002
  0
VERTEX
  5
2A1
  8
DEFAULT
 10
-13.79999999999418
 20
201.3000000000031
 30
-0.0000000000000002
  0
VERTEX
  5
2A2
  8
DEFAULT
 10
-13.79999999999418
 20
199.2500000000031
 30
-0.0000000000000002
  0
VERTEX
  5
2A3
  8
DEFAULT
 10
-15.59999999999418
 20
199.2500000000031
 30
-0.0000000000000002
  0
VERTEX
  5
2A4
  8
DEFAULT
 10
-15.59999999999418
 20
196.7500000000031
 30
-0.0000000000000002
  0
VERTEX
  5
2A5
  8
DEFAULT
 10
-13.79999999999418
 20
196.7500000000031
 30
-0.0000000000000002
  0
VERTEX
  5
2A6
  8
DEFAULT
 10
-13.79999999999418
 20
194.7000000000031
 30
-0.0000000000000002
  0
VERTEX
  5
2A7
  8
DEFAULT
 10
-11.59999999999418
 20
194.7000000000031
 30
-0.0000000000000002
  0
VERTEX
  5
2A8
  8
DEFAULT
 10
-11.59999999999418
 20
196.7500000000031
 30
-0.0000000000000002
  0
VERTEX
  5
2A9
  8
DEFAULT
 10
-7.999999999997144
 20
196.7500000000031
 30
-0.0000000000000002
  0
SEQEND
  5
29D
  8
DEFAULT
  0
POLYLINE
  5
2AA
  8
DEFAULT
 66
     1
 10
0.0
 20
0.0
 30
-0.0000000000000001
  0
VERTEX
  5
2AC
  8
DEFAULT
 10
-7.999999999994188
 20
79.2500000000031
 30
-0.0000000000000001
  0
VERTEX
  5
2AD
  8
DEFAULT
 10
-11.59999999999418
 20
79.2500000000031
 30
-0.0000000000000001
  0
VERTEX
  5
2AE
  8
DEFAULT
 10
-11.59999999999418
 20
81.30000000000311
 30
-0.0000000000000001
  0
VERTEX
  5
2AF
  8
DEFAULT
 10
-13.79999999999418
 20
81.30000000000311
 30
-0.0000000000000001
  0
VERTEX
  5
2B0
  8
DEFAULT
 10
-13.79999999999418
 20
79.2500000000031
 30
-0.0000000000000001
  0
VERTEX
  5
2B1
  8
DEFAULT
 10
-15.59999999999418
 20
79.2500000000031
 30
-0.0000000000000001
  0
VERTEX
  5
2B2
  8
DEFAULT
 10
-15.59999999999418
 20
76.7500000000031
 30
-0.0000000000000001
  0
VERTEX
  5
2B3
  8
DEFAULT
 10
-13.79999999999418
 20
76.7500000000031
 30
-0.0000000000000001
  0
VERTEX
  5
2B4
  8
DEFAULT
 10
-13.79999999999418
 20
74.70000000000309
 30
-0.0000000000000001
  0
VERTEX
  5
2B5
  8
DEFAULT
 10
-11.59999999999418
 20
74.70000000000309
 30
-0.0000000000000001
  0
VERTEX
  5
2B6
  8
DEFAULT
 10
-11.59999999999418
 20
76.7500000000031
 30
-0.0000000000000001
  0
VERTEX
  5
2B7
  8
DEFAULT
 10
-7.999999999997144
 20
76.7500000000031
 30
-0.0000000000000001
  0
SEQEND
  5
2AB
  8
DEFAULT
  0
POLYLINE
  5
2B8
  8
DEFAULT
 66
     1
 10
0.0
 20
0.0
 30
0.0
  0
VERTEX
  5
2BA
  8
DEFAULT
 10
-7.999999999994188
 20
-0.749999999996902
 30
0.0
  0
VERTEX
  5
2BB
  8
DEFAULT
 10
-11.59999999999418
 20
-0.749999999996902
 30
0.0
  0
VERTEX
  5
2BC
  8
DEFAULT
 10
-11.59999999999418
 20
1.300000000003108
 30
0.0
  0
VERTEX
  5
2BD
  8
DEFAULT
 10
-13.79999999999418
 20
1.300000000003108
 30
0.0
  0
VERTEX
  5
2BE
  8
DEFAULT
 10
-13.79999999999418
 20
-0.749999999996902
 30
0.0
  0
VERTEX
  5
2BF
  8
DEFAULT
 10
-15.59999999999418
 20
-0.749999999996902
 30
0.0
  0
VERTEX
  5
2C0
  8
DEFAULT
 10
-15.59999999999418
 20
-3.249999999996902
 30
0.0
  0
VERTEX
  5
2C1
  8
DEFAULT
 10
-13.79999999999418
 20
-3.249999999996902
 30
0.0
  0
VERTEX
  5
2C2
  8
DEFAULT
 10
-13.79999999999418
 20
-5.299999999996912
 30
0.0
  0
VERTEX
  5
2C3
  8
DEFAULT
 10
-11.59999999999418
 20
-5.299999999996912
 30
0.0
  0
VERTEX
  5
2C4
  8
DEFAULT
 10
-11.59999999999418
 20
-3.249999999996902
 30
0.0
  0
VERTEX
  5
2C5
  8
DEFAULT
 10
-7.999999999994188
 20
-3.249999999996902
 30
0.0
  0
SEQEND
  5
2B9
  8
DEFAULT
  0
POLYLINE
  5
2C6
  8
DEFAULT
 66
     1
 10
0.0
 20
0.0
 30
0.0
  0
VERTEX
  5
2C8
  8
DEFAULT
 10
-41.99999999999586
 20
205.75
 30
0.0
  0
VERTEX
  5
2C9
  8
DEFAULT
 10
-45.59999999999292
 20
205.75
 30
0.0
  0
VERTEX
  5
2CA
  8
DEFAULT
 10
-45.59999999999292
 20
203.7
 30
0.0
  0
VERTEX
  5
2CB
  8
DEFAULT
 10
-47.79999999999292
 20
203.7
 30
0.0
  0
VERTEX
  5
2CC
  8
DEFAULT
 10
-47.79999999999292
 20
205.75
 30
0.0
  0
VERTEX
  5
2CD
  8
DEFAULT
 10
-49.59999999999292
 20
205.75
 30
0.0
  0
VERTEX
  5
2CE
  8
DEFAULT
 10
-49.59999999999292
 20
208.25
 30
0.0
  0
VERTEX
  5
2CF
  8
DEFAULT
 10
-47.79999999999292
 20
208.25
 30
0.0
  0
VERTEX
  5
2D0
  8
DEFAULT
 10
-47.79999999999291
 20
210.3
 30
0.0
  0
VERTEX
  5
2D1
  8
DEFAULT
 10
-45.59999999999292
 20
210.3
 30
0.0
  0
VERTEX
  5
2D2
  8
DEFAULT
 10
-45.59999999999292
 20
208.25
 30
0.0
  0
VERTEX
  5
2D3
  8
DEFAULT
 10
-41.99999999999291
 20
208.25
 30
0.0
  0
SEQEND
  5
2C7
  8
DEFAULT
  0
POLYLINE
  5
2D4
  8
DEFAULT
 66
     1
 10
0.0
 20
0.0
 30
0.0
  0
VERTEX
  5
2D6
  8
DEFAULT
 10
-33.99999999999419
 20
-3.249999999996902
 30
0.0
  0
VERTEX
  5
2D7
  8
DEFAULT
 10
-30.39999999999419
 20
-3.249999999996902
 30
0.0
  0
VERTEX
  5
2D8
  8
DEFAULT
 10
-30.39999999999419
 20
-5.299999999996912
 30
0.0
  0
VERTEX
  5
2D9
  8
DEFAULT
 10
-28.19999999999419
 20
-5.299999999996912
 30
0.0
  0
VERTEX
  5
2DA
  8
DEFAULT
 10
-28.19999999999419
 20
-3.249999999996902
 30
0.0
  0
VERTEX
  5
2DB
  8
DEFAULT
 10
-26.39999999999419
 20
-3.249999999996902
 30
0.0
  0
VERTEX
  5
2DC
  8
DEFAULT
 10
-26.39999999999419
 20
-0.749999999996902
 30
0.0
  0
VERTEX
  5
2DD
  8
DEFAULT
 10
-28.19999999999419
 20
-0.749999999996902
 30
0.0
  0
VERTEX
  5
2DE
  8
DEFAULT
 10
-28.19999999999419
 20
1.300000000003108
 30
0.0
  0
VERTEX
  5
2DF
  8
DEFAULT
 10
-30.39999999999419
 20
1.300000000003108
 30
0.0
  0
VERTEX
  5
2E0
  8
DEFAULT
 10
-30.39999999999419
 20
-0.749999999996902
 30
0.0
  0
VERTEX
  5
2E1
  8
DEFAULT
 10
-33.99999999999419
 20
-0.7499999999968949
 30
0.0
  0
SEQEND
  5
2D5
  8
DEFAULT
  0
POLYLINE
  5
2E2
  8
DEFAULT
 66
     1
 10
0.0
 20
0.0
 30
0.0
  0
VERTEX
  5
2E4
  8
DEFAULT
 10
-67.99999999999709
 20
8.25
 30
0.0
  0
VERTEX
  5
2E5
  8
DEFAULT
 10
-64.39999999999709
 20
8.25
 30
0.0
  0
VERTEX
  5
2E6
  8
DEFAULT
 10
-64.39999999999709
 20
10.30000000000001
 30
0.0
  0
VERTEX
  5
2E7
  8
DEFAULT
 10
-62.19999999999708
 20
10.30000000000001
 30
0.0
  0
VERTEX
  5
2E8
  8
DEFAULT
 10
-62.19999999999708
 20
8.25
 30
0.0
  0
VERTEX
  5
2E9
  8
DEFAULT
 10
-60.39999999999709
 20
8.25
 30
0.0
  0
VERTEX
  5
2EA
  8
DEFAULT
 10
-60.39999999999709
 20
5.75
 30
0.0
  0
VERTEX
  5
2EB
  8
DEFAULT
 10
-62.19999999999708
 20
5.75
 30
0.0
  0
VERTEX
  5
2EC
  8
DEFAULT
 10
-62.19999999999708
 20
3.69999999999999
 30
0.0
  0
VERTEX
  5
2ED
  8
DEFAULT
 10
-64.39999999999709
 20
3.69999999999999
 30
0.0
  0
VERTEX
  5
2EE
  8
DEFAULT
 10
-64.39999999999709
 20
5.75
 30
0.0
  0
VERTEX
  5
2EF
  8
DEFAULT
 10
-67.99999999999709
 20
5.75
 30
0.0
  0
SEQEND
  5
2E3
  8
DEFAULT
  0
POLYLINE
  5
2F0
  8
DEFAULT
 66
     1
 10
0.0
 20
0.0
 30
0.0
  0
VERTEX
  5
2F2
  8
DEFAULT
 10
-7.999999999994529
 20
179.2500000000031
 30
0.0
  0
VERTEX
  5
2F3
  8
DEFAULT
 10
-9.799999999994185
 20
179.2500000000031
 30
0.0
  0
VERTEX
  5
2F4
  8
DEFAULT
 10
-11.59999999999418
 20
178.0000000000031
 30
0.0
  0
VERTEX
  5
2F5
  8
DEFAULT
 10
-9.799999999994185
 20
176.7500000000031
 30
0.0
  0
VERTEX
  5
2F6
  8
DEFAULT
 10
-7.999999999994472
 20
176.7500000000031
 30
0.0
  0
SEQEND
  5
2F1
  8
DEFAULT
  0
POLYLINE
  5
2F7
  8
DEFAULT
 66
     1
 10
0.0
 20
0.0
 30
-0.0000000000000001
  0
VERTEX
  5
2F9
  8
DEFAULT
 10
-7.999999999994188
 20
159.2500000000031
 30
-0.0000000000000001
  0
VERTEX
  5
2FA
  8
DEFAULT
 10
-11.59999999999418
 20
159.2500000000031
 30
-0.0000000000000001
  0
VERTEX
  5
2FB
  8
DEFAULT
 10
-11.59999999999418
 20
161.3000000000031
 30
-0.0000000000000001
  0
VERTEX
  5
2FC
  8
DEFAULT
 10
-13.79999999999418
 20
161.3000000000031
 30
-0.0000000000000001
  0
VERTEX
  5
2FD
  8
DEFAULT
 10
-13.79999999999418
 20
159.2500000000031
 30
-0.0000000000000001
  0
VERTEX
  5
2FE
  8
DEFAULT
 10
-15.59999999999418
 20
159.2500000000031
 30
-0.0000000000000001
  0
VERTEX
  5
2FF
  8
DEFAULT
 10
-15.59999999999418
 20
156.7500000000031
 30
-0.0000000000000001
  0
VERTEX
  5
300
  8
DEFAULT
 10
-13.79999999999418
 20
156.7500000000031
 30
-0.0000000000000001
  0
VERTEX
  5
301
  8
DEFAULT
 10
-13.79999999999418
 20
154.7000000000031
 30
-0.0000000000000001
  0
VERTEX
  5
302
  8
DEFAULT
 10
-11.59999999999418
 20
154.7000000000031
 30
-0.0000000000000001
  0
VERTEX
  5
303
  8
DEFAULT
 10
-11.59999999999418
 20
156.7500000000031
 30
-0.0000000000000001
  0
VERTEX
  5
304
  8
DEFAULT
 10
-7.999999999997144
 20
156.7500000000031
 30
-0.0000000000000001
  0
SEQEND
  5
2F8
  8
DEFAULT
  0
POLYLINE
  5
305
  8
DEFAULT
 66
     1
 10
0.0
 20
0.0
 30
-0.0000000000000002
  0
VERTEX
  5
307
  8
DEFAULT
 10
-67.99999999999709
 20
208.25
 30
-0.0000000000000002
  0
VERTEX
  5
308
  8
DEFAULT
 10
-64.39999999999709
 20
208.25
 30
-0.0000000000000002
  0
VERTEX
  5
309
  8
DEFAULT
 10
-64.39999999999709
 20
210.3
 30
-0.0000000000000002
  0
VERTEX
  5
30A
  8
DEFAULT
 10
-62.19999999999708
 20
210.3
 30
-0.0000000000000002
  0
VERTEX
  5
30B
  8
DEFAULT
 10
-62.19999999999708
 20
208.25
 30
-0.0000000000000002
  0
VERTEX
  5
30C
  8
DEFAULT
 10
-60.39999999999709
 20
208.25
 30
-0.0000000000000002
  0
VERTEX
  5
30D
  8
DEFAULT
 10
-60.39999999999709
 20
205.75
 30
-0.0000000000000002
  0
VERTEX
  5
30E
  8
DEFAULT
 10
-62.19999999999708
 20
205.75
 30
-0.0000000000000002
  0
VERTEX
  5
30F
  8
DEFAULT
 10
-62.19999999999708
 20
203.7
 30
-0.0000000000000002
  0
VERTEX
  5
310
  8
DEFAULT
 10
-64.39999999999709
 20
203.7
 30
-0.0000000000000002
  0
VERTEX
  5
311
  8
DEFAULT
 10
-64.39999999999709
 20
205.75
 30
-0.0000000000000002
  0
VERTEX
  5
312
  8
DEFAULT
 10
-67.99999999999413
 20
205.75
 30
-0.0000000000000002
  0
SEQEND
  5
306
  8
DEFAULT
  0
POLYLINE
  5
313
  8
DEFAULT
 66
     1
 10
0.0
 20
0.0
 30
0.0000000000000008
  0
VERTEX
  5
315
  8
DEFAULT
 10
-53.74999999999709
 20
222.0
 30
0.0000000000000008
  0
VERTEX
  5
316
  8
DEFAULT
 10
-53.74999999999709
 20
218.4
 30
0.0000000000000008
  0
VERTEX
  5
317
  8
DEFAULT
 10
-51.69999999999708
 20
218.4
 30
0.0000000000000008
  0
VERTEX
  5
318
  8
DEFAULT
 10
-51.69999999999708
 20
216.2
 30
0.0000000000000008
  0
VERTEX
  5
319
  8
DEFAULT
 10
-53.74999999999709
 20
216.2
 30
0.0000000000000008
  0
VERTEX
  5
31A
  8
DEFAULT
 10
-53.74999999999709
 20
214.4
 30
0.0000000000000008
  0
VERTEX
  5
31B
  8
DEFAULT
 10
-56.24999999999709
 20
214.4
 30
0.0000000000000008
  0
VERTEX
  5
31C
  8
DEFAULT
 10
-56.24999999999709
 20
216.2
 30
0.0000000000000008
  0
VERTEX
  5
31D
  8
DEFAULT
 10
-58.2999999999971
 20
216.2
 30
0.0000000000000008
  0
VERTEX
  5
31E
  8
DEFAULT
 10
-58.2999999999971
 20
218.4
 30
0.0000000000000008
  0
VERTEX
  5
31F
  8
DEFAULT
 10
-56.24999999999709
 20
218.4
 30
0.0000000000000008
  0
VERTEX
  5
320
  8
DEFAULT
 10
-56.24999999999709
 20
221.9999999999971
 30
0.0000000000000008
  0
SEQEND
  5
314
  8
DEFAULT
  0
POLYLINE
  5
321
  8
DEFAULT
 66
     1
 10
0.0
 20
0.0
 30
-0.0000000000000001
  0
VERTEX
  5
323
  8
DEFAULT
 10
4.000000000005826
 20
88.25
 30
-0.0000000000000001
  0
VERTEX
  5
324
  8
DEFAULT
 10
7.600000000005821
 20
88.25
 30
-0.0000000000000001
  0
VERTEX
  5
325
  8
DEFAULT
 10
7.600000000005821
 20
90.30000000000001
 30
-0.0000000000000001
  0
VERTEX
  5
326
  8
DEFAULT
 10
9.800000000005838
 20
90.30000000000001
 30
-0.0000000000000001
  0
VERTEX
  5
327
  8
DEFAULT
 10
9.800000000005838
 20
88.25
 30
-0.0000000000000001
  0
VERTEX
  5
328
  8
DEFAULT
 10
11.60000000000582
 20
88.25
 30
-0.0000000000000001
  0
VERTEX
  5
329
  8
DEFAULT
 10
11.60000000000582
 20
85.75
 30
-0.0000000000000001
  0
VERTEX
  5
32A
  8
DEFAULT
 10
9.800000000005838
 20
85.75
 30
-0.0000000000000001
  0
VERTEX
  5
32B
  8
DEFAULT
 10
9.800000000005838
 20
83.69999999999999
 30
-0.0000000000000001
  0
VERTEX
  5
32C
  8
DEFAULT
 10
7.600000000005821
 20
83.69999999999999
 30
-0.0000000000000001
  0
VERTEX
  5
32D
  8
DEFAULT
 10
7.600000000005821
 20
85.75
 30
-0.0000000000000001
  0
VERTEX
  5
32E
  8
DEFAULT
 10
4.000000000008782
 20
85.75
 30
-0.0000000000000001
  0
SEQEND
  5
322
  8
DEFAULT
  0
POLYLINE
  5
32F
  8
DEFAULT
 66
     1
 10
0.0
 20
0.0
 30
0.0
  0
VERTEX
  5
331
  8
DEFAULT
 10
64.00000000000838
 20
139.2500000000031
 30
0.0
  0
VERTEX
  5
332
  8
DEFAULT
 10
62.20000000000873
 20
139.2500000000031
 30
0.0
  0
VERTEX
  5
333
  8
DEFAULT
 10
60.40000000000873
 20
138.0000000000031
 30
0.0
  0
VERTEX
  5
334
  8
DEFAULT
 10
62.20000000000873
 20
136.7500000000031
 30
0.0
  0
VERTEX
  5
335
  8
DEFAULT
 10
64.00000000000844
 20
136.7500000000031
 30
0.0
  0
SEQEND
  5
330
  8
DEFAULT
  0
POLYLINE
  5
336
  8
DEFAULT
 66
     1
 10
0.0
 20
0.0
 30
-0.0000000000000001
  0
VERTEX
  5
338
  8
DEFAULT
 10
64.00000000000873
 20
39.2500000000031
 30
-0.0000000000000001
  0
VERTEX
  5
339
  8
DEFAULT
 10
60.40000000000873
 20
39.2500000000031
 30
-0.0000000000000001
  0
VERTEX
  5
33A
  8
DEFAULT
 10
60.40000000000873
 20
41.30000000000311
 30
-0.0000000000000001
  0
VERTEX
  5
33B
  8
DEFAULT
 10
58.20000000000873
 20
41.30000000000311
 30
-0.0000000000000001
  0
VERTEX
  5
33C
  8
DEFAULT
 10
58.20000000000873
 20
39.2500000000031
 30
-0.0000000000000001
  0
VERTEX
  5
33D
  8
DEFAULT
 10
56.40000000000873
 20
39.2500000000031
 30
-0.0000000000000001
  0
VERTEX
  5
33E
  8
DEFAULT
 10
56.40000000000873
 20
36.7500000000031
 30
-0.0000000000000001
  0
VERTEX
  5
33F
  8
DEFAULT
 10
58.20000000000873
 20
36.7500000000031
 30
-0.0000000000000001
  0
VERTEX
  5
340
  8
DEFAULT
 10
58.20000000000873
 20
34.70000000000309
 30
-0.0000000000000001
  0
VERTEX
  5
341
  8
DEFAULT
 10
60.40000000000873
 20
34.70000000000309
 30
-0.0000000000000001
  0
VERTEX
  5
342
  8
DEFAULT
 10
60.40000000000873
 20
36.7500000000031
 30
-0.0000000000000001
  0
VERTEX
  5
343
  8
DEFAULT
 10
64.00000000000577
 20
36.7500000000031
 30
-0.0000000000000001
  0
SEQEND
  5
337
  8
DEFAULT
  0
POLYLINE
  5
344
  8
DEFAULT
 66
     1
 10
0.0
 20
0.0
 30
0.0
  0
VERTEX
  5
346
  8
DEFAULT
 10
64.00000000000838
 20
19.2500000000031
 30
0.0
  0
VERTEX
  5
347
  8
DEFAULT
 10
62.20000000000873
 20
19.2500000000031
 30
0.0
  0
VERTEX
  5
348
  8
DEFAULT
 10
60.40000000000873
 20
18.0000000000031
 30
0.0
  0
VERTEX
  5
349
  8
DEFAULT
 10
62.20000000000873
 20
16.7500000000031
 30
0.0
  0
VERTEX
  5
34A
  8
DEFAULT
 10
64.00000000000844
 20
16.7500000000031
 30
0.0
  0
SEQEND
  5
345
  8
DEFAULT
  0
POLYLINE
  5
34B
  8
DEFAULT
 66
     1
 10
0.0
 20
0.0
 30
0.0
  0
VERTEX
  5
34D
  8
DEFAULT
 10
4.000000000006168
 20
148.25
 30
0.0
  0
VERTEX
  5
34E
  8
DEFAULT
 10
5.800000000005838
 20
148.25
 30
0.0
  0
VERTEX
  5
34F
  8
DEFAULT
 10
7.600000000005821
 20
147.0
 30
0.0
  0
VERTEX
  5
350
  8
DEFAULT
 10
5.800000000005838
 20
145.75
 30
0.0
  0
VERTEX
  5
351
  8
DEFAULT
 10
4.000000000006111
 20
145.75
 30
0.0
  0
SEQEND
  5
34C
  8
DEFAULT
  0
POLYLINE
  5
352
  8
DEFAULT
 66
     1
 10
0.0
 20
0.0
 30
-0.0000000000000001
  0
VERTEX
  5
354
  8
DEFAULT
 10
4.000000000005826
 20
128.25
 30
-0.0000000000000001
  0
VERTEX
  5
355
  8
DEFAULT
 10
7.600000000005821
 20
128.25
 30
-0.0000000000000001
  0
VERTEX
  5
356
  8
DEFAULT
 10
7.600000000005821
 20
130.3
 30
-0.0000000000000001
  0
VERTEX
  5
357
  8
DEFAULT
 10
9.800000000005838
 20
130.3
 30
-0.0000000000000001
  0
VERTEX
  5
358
  8
DEFAULT
 10
9.800000000005838
 20
128.25
 30
-0.0000000000000001
  0
VERTEX
  5
359
  8
DEFAULT
 10
11.60000000000582
 20
128.25
 30
-0.0000000000000001
  0
VERTEX
  5
35A
  8
DEFAULT
 10
11.60000000000582
 20
125.75
 30
-0.0000000000000001
  0
VERTEX
  5
35B
  8
DEFAULT
 10
9.800000000005838
 20
125.75
 30
-0.0000000000000001
  0
VERTEX
  5
35C
  8
DEFAULT
 10
9.800000000005838
 20
123.7
 30
-0.0000000000000001
  0
VERTEX
  5
35D
  8
DEFAULT
 10
7.600000000005821
 20
123.7
 30
-0.0000000000000001
  0
VERTEX
  5
35E
  8
DEFAULT
 10
7.600000000005821
 20
125.75
 30
-0.0000000000000001
  0
VERTEX
  5
35F
  8
DEFAULT
 10
4.000000000008782
 20
125.75
 30
-0.0000000000000001
  0
SEQEND
  5
353
  8
DEFAULT
  0
POLYLINE
  5
360
  8
DEFAULT
 66
     1
 10
0.0
 20
0.0
 30
0.0
  0
VERTEX
  5
362
  8
DEFAULT
 10
4.000000000006168
 20
68.25
 30
0.0
  0
VERTEX
  5
363
  8
DEFAULT
 10
5.800000000005838
 20
68.25
 30
0.0
  0
VERTEX
  5
364
  8
DEFAULT
 10
7.600000000005821
 20
67.0
 30
0.0
  0
VERTEX
  5
365
  8
DEFAULT
 10
5.800000000005838
 20
65.75
 30
0.0
  0
VERTEX
  5
366
  8
DEFAULT
 10
4.000000000006111
 20
65.75
 30
0.0
  0
SEQEND
  5
361
  8
DEFAULT
  0
POLYLINE
  5
367
  8
DEFAULT
 66
     1
 10
0.0
 20
0.0
 30
0.0
  0
VERTEX
  5
369
  8
DEFAULT
 10
4.000000000006168
 20
188.25
 30
0.0
  0
VERTEX
  5
36A
  8
DEFAULT
 10
5.800000000005838
 20
188.25
 30
0.0
  0
VERTEX
  5
36B
  8
DEFAULT
 10
7.600000000005821
 20
187.0
 30
0.0
  0
VERTEX
  5
36C
  8
DEFAULT
 10
5.800000000005838
 20
185.75
 30
0.0
  0
VERTEX
  5
36D
  8
DEFAULT
 10
4.000000000006111
 20
185.75
 30
0.0
  0
SEQEND
  5
368
  8
DEFAULT
  0
POLYLINE
  5
36E
  8
DEFAULT
 66
     1
 10
0.0
 20
0.0
 30
-0.0000000000000001
  0
VERTEX
  5
370
  8
DEFAULT
 10
4.000000000005826
 20
168.25
 30
-0.0000000000000001
  0
VERTEX
  5
371
  8
DEFAULT
 10
7.600000000005821
 20
168.25
 30
-0.0000000000000001
  0
VERTEX
  5
372
  8
DEFAULT
 10
7.600000000005821
 20
170.3
 30
-0.0000000000000001
  0
VERTEX
  5
373
  8
DEFAULT
 10
9.800000000005838
 20
170.3
 30
-0.0000000000000001
  0
VERTEX
  5
374
  8
DEFAULT
 10
9.800000000005838
 20
168.25
 30
-0.0000000000000001
  0
VERTEX
  5
375
  8
DEFAULT
 10
11.60000000000582
 20
168.25
 30
-0.0000000000000001
  0
VERTEX
  5
376
  8
DEFAULT
 10
11.60000000000582
 20
165.75
 30
-0.0000000000000001
  0
VERTEX
  5
377
  8
DEFAULT
 10
9.800000000005838
 20
165.75
 30
-0.0000000000000001
  0
VERTEX
  5
378
  8
DEFAULT
 10
9.800000000005838
 20
163.7
 30
-0.0000000000000001
  0
VERTEX
  5
379
  8
DEFAULT
 10
7.600000000005821
 20
163.7
 30
-0.0000000000000001
  0
VERTEX
  5
37A
  8
DEFAULT
 10
7.600000000005821
 20
165.75
 30
-0.0000000000000001
  0
VERTEX
  5
37B
  8
DEFAULT
 10
4.000000000008782
 20
165.75
 30
-0.0000000000000001
  0
SEQEND
  5
36F
  8
DEFAULT
  0
POLYLINE
  5
37C
  8
DEFAULT
 66
     1
 10
0.0
 20
0.0
 30
0.0
  0
VERTEX
  5
37E
  8
DEFAULT
 10
4.000000000006168
 20
108.25
 30
0.0
  0
VERTEX
  5
37F
  8
DEFAULT
 10
5.800000000005838
 20
108.25
 30
0.0
  0
VERTEX
  5
380
  8
DEFAULT
 10
7.600000000005821
 20
107.0
 30
0.0
  0
VERTEX
  5
381
  8
DEFAULT
 10
5.800000000005838
 20
105.75
 30
0.0
  0
VERTEX
  5
382
  8
DEFAULT
 10
4.000000000006111
 20
105.75
 30
0.0
  0
SEQEND
  5
37D
  8
DEFAULT
  0
POLYLINE
  5
383
  8
DEFAULT
 66
     1
 10
0.0
 20
0.0
 30
-0.0000000000000001
  0
VERTEX
  5
385
  8
DEFAULT
 10
64.00000000000873
 20
119.2500000000031
 30
-0.0000000000000001
  0
VERTEX
  5
386
  8
DEFAULT
 10
60.40000000000873
 20
119.2500000000031
 30
-0.0000000000000001
  0
VERTEX
  5
387
  8
DEFAULT
 10
60.40000000000873
 20
121.3000000000031
 30
-0.0000000000000001
  0
VERTEX
  5
388
  8
DEFAULT
 10
58.20000000000873
 20
121.3000000000031
 30
-0.0000000000000001
  0
VERTEX
  5
389
  8
DEFAULT
 10
58.20000000000873
 20
119.2500000000031
 30
-0.0000000000000001
  0
VERTEX
  5
38A
  8
DEFAULT
 10
56.40000000000873
 20
119.2500000000031
 30
-0.0000000000000001
  0
VERTEX
  5
38B
  8
DEFAULT
 10
56.40000000000873
 20
116.7500000000031
 30
-0.0000000000000001
  0
VERTEX
  5
38C
  8
DEFAULT
 10
58.20000000000873
 20
116.7500000000031
 30
-0.0000000000000001
  0
VERTEX
  5
38D
  8
DEFAULT
 10
58.20000000000873
 20
114.7000000000031
 30
-0.0000000000000001
  0
VERTEX
  5
38E
  8
DEFAULT
 10
60.40000000000873
 20
114.7000000000031
 30
-0.0000000000000001
  0
VERTEX
  5
38F
  8
DEFAULT
 10
60.40000000000873
 20
116.7500000000031
 30
-0.0000000000000001
  0
VERTEX
  5
390
  8
DEFAULT
 10
64.00000000000577
 20
116.7500000000031
 30
-0.0000000000000001
  0
SEQEND
  5
384
  8
DEFAULT
  0
POLYLINE
  5
391
  8
DEFAULT
 66
     1
 10
0.0
 20
0.0
 30
0.0000000000000006
  0
VERTEX
  5
393
  8
DEFAULT
 10
52.25000000000873
 20
-16.9999999999969
 30
0.0000000000000006
  0
VERTEX
  5
394
  8
DEFAULT
 10
52.25000000000873
 20
-13.39999999999688
 30
0.0000000000000006
  0
VERTEX
  5
395
  8
DEFAULT
 10
54.30000000000874
 20
-13.39999999999688
 30
0.0000000000000006
  0
VERTEX
  5
396
  8
DEFAULT
 10
54.30000000000874
 20
-11.19999999999689
 30
0.0000000000000006
  0
VERTEX
  5
397
  8
DEFAULT
 10
52.25000000000873
 20
-11.19999999999689
 30
0.0000000000000006
  0
VERTEX
  5
398
  8
DEFAULT
 10
52.25000000000873
 20
-9.39999999999688
 30
0.0000000000000006
  0
VERTEX
  5
399
  8
DEFAULT
 10
49.75000000000873
 20
-9.39999999999688
 30
0.0000000000000006
  0
VERTEX
  5
39A
  8
DEFAULT
 10
49.75000000000873
 20
-11.19999999999689
 30
0.0000000000000006
  0
VERTEX
  5
39B
  8
DEFAULT
 10
47.70000000000871
 20
-11.19999999999689
 30
0.0000000000000006
  0
VERTEX
  5
39C
  8
DEFAULT
 10
47.70000000000871
 20
-13.39999999999688
 30
0.0000000000000006
  0
VERTEX
  5
39D
  8
DEFAULT
 10
49.75000000000873
 20
-13.39999999999688
 30
0.0000000000000006
  0
VERTEX
  5
39E
  8
DEFAULT
 10
49.75000000000873
 20
-16.9999999999969
 30
0.0000000000000006
  0
SEQEND
  5
392
  8
DEFAULT
  0
POLYLINE
  5
39F
  8
DEFAULT
 66
     1
 10
0.0
 20
0.0
 30
-0.0000000000000001
  0
VERTEX
  5
3A1
  8
DEFAULT
 10
4.000000000005826
 20
48.25
 30
-0.0000000000000001
  0
VERTEX
  5
3A2
  8
DEFAULT
 10
7.600000000005821
 20
48.25
 30
-0.0000000000000001
  0
VERTEX
  5
3A3
  8
DEFAULT
 10
7.600000000005821
 20
50.30000000000001
 30
-0.0000000000000001
  0
VERTEX
  5
3A4
  8
DEFAULT
 10
9.800000000005838
 20
50.30000000000001
 30
-0.0000000000000001
  0
VERTEX
  5
3A5
  8
DEFAULT
 10
9.800000000005838
 20
48.25
 30
-0.0000000000000001
  0
VERTEX
  5
3A6
  8
DEFAULT
 10
11.60000000000582
 20
48.25
 30
-0.0000000000000001
  0
VERTEX
  5
3A7
  8
DEFAULT
 10
11.60000000000582
 20
45.75
 30
-0.0000000000000001
  0
VERTEX
  5
3A8
  8
DEFAULT
 10
9.800000000005838
 20
45.75
 30
-0.0000000000000001
  0
VERTEX
  5
3A9
  8
DEFAULT
 10
9.800000000005838
 20
43.69999999999999
 30
-0.0000000000000001
  0
VERTEX
  5
3AA
  8
DEFAULT
 10
7.600000000005821
 20
43.69999999999999
 30
-0.0000000000000001
  0
VERTEX
  5
3AB
  8
DEFAULT
 10
7.600000000005821
 20
45.75
 30
-0.0000000000000001
  0
VERTEX
  5
3AC
  8
DEFAULT
 10
4.000000000008782
 20
45.75
 30
-0.0000000000000001
  0
SEQEND
  5
3A0
  8
DEFAULT
  0
POLYLINE
  5
3AD
  8
DEFAULT
 66
     1
 10
0.0
 20
0.0
 30
0.0
  0
VERTEX
  5
3AF
  8
DEFAULT
 10
4.000000000006168
 20
28.25
 30
0.0
  0
VERTEX
  5
3B0
  8
DEFAULT
 10
5.800000000005838
 20
28.25
 30
0.0
  0
VERTEX
  5
3B1
  8
DEFAULT
 10
7.600000000005821
 20
27.0
 30
0.0
  0
VERTEX
  5
3B2
  8
DEFAULT
 10
5.800000000005838
 20
25.75
 30
0.0
  0
VERTEX
  5
3B3
  8
DEFAULT
 10
4.000000000006111
 20
25.75
 30
0.0
  0
SEQEND
  5
3AE
  8
DEFAULT
  0
POLYLINE
  5
3B4
  8
DEFAULT
 66
     1
 10
0.0
 20
0.0
 30
0.0000000000000006
  0
VERTEX
  5
3B6
  8
DEFAULT
 10
15.75000000000583
 20
-8.0
 30
0.0000000000000006
  0
VERTEX
  5
3B7
  8
DEFAULT
 10
15.75000000000583
 20
-4.399999999999977
 30
0.0000000000000006
  0
VERTEX
  5
3B8
  8
DEFAULT
 10
13.70000000000582
 20
-4.399999999999977
 30
0.0000000000000006
  0
VERTEX
  5
3B9
  8
DEFAULT
 10
13.70000000000582
 20
-2.199999999999989
 30
0.0000000000000006
  0
VERTEX
  5
3BA
  8
DEFAULT
 10
15.75000000000583
 20
-2.199999999999989
 30
0.0000000000000006
  0
VERTEX
  5
3BB
  8
DEFAULT
 10
15.75000000000583
 20
-0.3999999999999773
 30
0.0000000000000006
  0
VERTEX
  5
3BC
  8
DEFAULT
 10
18.25000000000583
 20
-0.3999999999999773
 30
0.0000000000000006
  0
VERTEX
  5
3BD
  8
DEFAULT
 10
18.25000000000583
 20
-2.199999999999989
 30
0.0000000000000006
  0
VERTEX
  5
3BE
  8
DEFAULT
 10
20.30000000000584
 20
-2.199999999999989
 30
0.0000000000000006
  0
VERTEX
  5
3BF
  8
DEFAULT
 10
20.30000000000584
 20
-4.399999999999977
 30
0.0000000000000006
  0
VERTEX
  5
3C0
  8
DEFAULT
 10
18.25000000000583
 20
-4.399999999999977
 30
0.0000000000000006
  0
VERTEX
  5
3C1
  8
DEFAULT
 10
18.25000000000583
 20
-8.0
 30
0.0000000000000006
  0
SEQEND
  5
3B5
  8
DEFAULT
  0
POLYLINE
  5
3C2
  8
DEFAULT
 66
     1
 10
0.0
 20
0.0
 30
0.0
  0
VERTEX
  5
3C4
  8
DEFAULT
 10
30.00000000000583
 20
5.75
 30
0.0
  0
VERTEX
  5
3C5
  8
DEFAULT
 10
26.40000000000583
 20
5.75
 30
0.0
  0
VERTEX
  5
3C6
  8
DEFAULT
 10
26.40000000000583
 20
3.69999999999999
 30
0.0
  0
VERTEX
  5
3C7
  8
DEFAULT
 10
24.20000000000583
 20
3.69999999999999
 30
0.0
  0
VERTEX
  5
3C8
  8
DEFAULT
 10
24.20000000000583
 20
5.75
 30
0.0
  0
VERTEX
  5
3C9
  8
DEFAULT
 10
22.40000000000583
 20
5.75
 30
0.0
  0
VERTEX
  5
3CA
  8
DEFAULT
 10
22.40000000000583
 20
8.25
 30
0.0
  0
VERTEX
  5
3CB
  8
DEFAULT
 10
24.20000000000583
 20
8.25
 30
0.0
  0
VERTEX
  5
3CC
  8
DEFAULT
 10
24.20000000000583
 20
10.30000000000001
 30
0.0
  0
VERTEX
  5
3CD
  8
DEFAULT
 10
26.40000000000583
 20
10.30000000000001
 30
0.0
  0
VERTEX
  5
3CE
  8
DEFAULT
 10
26.40000000000583
 20
8.25
 30
0.0
  0
VERTEX
  5
3CF
  8
DEFAULT
 10
30.00000000000583
 20
8.250000000000007
 30
0.0
  0
SEQEND
  5
3C3
  8
DEFAULT
  0
POLYLINE
  5
3D0
  8
DEFAULT
 66
     1
 10
0.0
 20
0.0
 30
0.0
  0
VERTEX
  5
3D2
  8
DEFAULT
 10
64.00000000000838
 20
59.2500000000031
 30
0.0
  0
VERTEX
  5
3D3
  8
DEFAULT
 10
62.20000000000873
 20
59.2500000000031
 30
0.0
  0
VERTEX
  5
3D4
  8
DEFAULT
 10
60.40000000000873
 20
58.0000000000031
 30
0.0
  0
VERTEX
  5
3D5
  8
DEFAULT
 10
62.20000000000873
 20
56.7500000000031
 30
0.0
  0
VERTEX
  5
3D6
  8
DEFAULT
 10
64.00000000000844
 20
56.7500000000031
 30
0.0
  0
SEQEND
  5
3D1
  8
DEFAULT
  0
POLYLINE
  5
3D7
  8
DEFAULT
 66
     1
 10
0.0
 20
0.0
 30
0.0
  0
VERTEX
  5
3D9
  8
DEFAULT
 10
64.00000000000838
 20
99.2500000000031
 30
0.0
  0
VERTEX
  5
3DA
  8
DEFAULT
 10
62.20000000000873
 20
99.2500000000031
 30
0.0
  0
VERTEX
  5
3DB
  8
DEFAULT
 10
60.40000000000873
 20
98.0000000000031
 30
0.0
  0
VERTEX
  5
3DC
  8
DEFAULT
 10
62.20000000000873
 20
96.7500000000031
 30
0.0
  0
VERTEX
  5
3DD
  8
DEFAULT
 10
64.00000000000844
 20
96.7500000000031
 30
0.0
  0
SEQEND
  5
3D8
  8
DEFAULT
  0
POLYLINE
  5
3DE
  8
DEFAULT
 66
     1
 10
0.0
 20
0.0
 30
0.0
  0
VERTEX
  5
3E0
  8
DEFAULT
 10
38.0000000000075
 20
196.7500000000031
 30
0.0
  0
VERTEX
  5
3E1
  8
DEFAULT
 10
41.60000000000456
 20
196.7500000000031
 30
0.0
  0
VERTEX
  5
3E2
  8
DEFAULT
 10
41.60000000000456
 20
194.7000000000031
 30
0.0
  0
VERTEX
  5
3E3
  8
DEFAULT
 10
43.80000000000456
 20
194.7000000000031
 30
0.0
  0
VERTEX
  5
3E4
  8
DEFAULT
 10
43.80000000000456
 20
196.7500000000031
 30
0.0
  0
VERTEX
  5
3E5
  8
DEFAULT
 10
45.60000000000456
 20
196.7500000000031
 30
0.0
  0
VERTEX
  5
3E6
  8
DEFAULT
 10
45.60000000000456
 20
199.2500000000031
 30
0.0
  0
VERTEX
  5
3E7
  8
DEFAULT
 10
43.80000000000456
 20
199.2500000000031
 30
0.0
  0
VERTEX
  5
3E8
  8
DEFAULT
 10
43.80000000000454
 20
201.3000000000031
 30
0.0
  0
VERTEX
  5
3E9
  8
DEFAULT
 10
41.60000000000456
 20
201.3000000000031
 30
0.0
  0
VERTEX
  5
3EA
  8
DEFAULT
 10
41.60000000000456
 20
199.2500000000031
 30
0.0
  0
VERTEX
  5
3EB
  8
DEFAULT
 10
38.00000000000455
 20
199.2500000000031
 30
0.0
  0
SEQEND
  5
3DF
  8
DEFAULT
  0
POLYLINE
  5
3EC
  8
DEFAULT
 66
     1
 10
0.0
 20
0.0
 30
0.0000000000000008
  0
VERTEX
  5
3EE
  8
DEFAULT
 10
49.75000000000873
 20
213.0000000000031
 30
0.0000000000000008
  0
VERTEX
  5
3EF
  8
DEFAULT
 10
49.75000000000873
 20
209.4000000000031
 30
0.0000000000000008
  0
VERTEX
  5
3F0
  8
DEFAULT
 10
47.70000000000871
 20
209.4000000000031
 30
0.0000000000000008
  0
VERTEX
  5
3F1
  8
DEFAULT
 10
47.70000000000871
 20
207.2000000000031
 30
0.0000000000000008
  0
VERTEX
  5
3F2
  8
DEFAULT
 10
49.75000000000873
 20
207.2000000000031
 30
0.0000000000000008
  0
VERTEX
  5
3F3
  8
DEFAULT
 10
49.75000000000873
 20
205.4000000000031
 30
0.0000000000000008
  0
VERTEX
  5
3F4
  8
DEFAULT
 10
52.25000000000873
 20
205.4000000000031
 30
0.0000000000000008
  0
VERTEX
  5
3F5
  8
DEFAULT
 10
52.25000000000873
 20
207.2000000000031
 30
0.0000000000000008
  0
VERTEX
  5
3F6
  8
DEFAULT
 10
54.30000000000874
 20
207.2000000000031
 30
0.0000000000000008
  0
VERTEX
  5
3F7
  8
DEFAULT
 10
54.30000000000874
 20
209.4000000000031
 30
0.0000000000000008
  0
VERTEX
  5
3F8
  8
DEFAULT
 10
52.25000000000873
 20
209.4000000000031
 30
0.0000000000000008
  0
VERTEX
  5
3F9
  8
DEFAULT
 10
52.25000000000873
 20
213.0000000000002
 30
0.0000000000000008
  0
SEQEND
  5
3ED
  8
DEFAULT
  0
POLYLINE
  5
3FA
  8
DEFAULT
 66
     1
 10
0.0
 20
0.0
 30
-0.0000000000000002
  0
VERTEX
  5
3FC
  8
DEFAULT
 10
64.00000000000873
 20
199.2500000000031
 30
-0.0000000000000002
  0
VERTEX
  5
3FD
  8
DEFAULT
 10
60.40000000000873
 20
199.2500000000031
 30
-0.0000000000000002
  0
VERTEX
  5
3FE
  8
DEFAULT
 10
60.40000000000873
 20
201.3000000000031
 30
-0.0000000000000002
  0
VERTEX
  5
3FF
  8
DEFAULT
 10
58.20000000000873
 20
201.3000000000031
 30
-0.0000000000000002
  0
VERTEX
  5
400
  8
DEFAULT
 10
58.20000000000873
 20
199.2500000000031
 30
-0.0000000000000002
  0
VERTEX
  5
401
  8
DEFAULT
 10
56.40000000000873
 20
199.2500000000031
 30
-0.0000000000000002
  0
VERTEX
  5
402
  8
DEFAULT
 10
56.40000000000873
 20
196.7500000000031
 30
-0.0000000000000002
  0
VERTEX
  5
403
  8
DEFAULT
 10
58.20000000000873
 20
196.7500000000031
 30
-0.0000000000000002
  0
VERTEX
  5
404
  8
DEFAULT
 10
58.20000000000873
 20
194.7000000000031
 30
-0.0000000000000002
  0
VERTEX
  5
405
  8
DEFAULT
 10
60.40000000000873
 20
194.7000000000031
 30
-0.0000000000000002
  0
VERTEX
  5
406
  8
DEFAULT
 10
60.40000000000873
 20
196.7500000000031
 30
-0.0000000000000002
  0
VERTEX
  5
407
  8
DEFAULT
 10
64.00000000000577
 20
196.7500000000031
 30
-0.0000000000000002
  0
SEQEND
  5
3FB
  8
DEFAULT
  0
POLYLINE
  5
408
  8
DEFAULT
 66
     1
 10
0.0
 20
0.0
 30
-0.0000000000000001
  0
VERTEX
  5
40A
  8
DEFAULT
 10
64.00000000000873
 20
79.2500000000031
 30
-0.0000000000000001
  0
VERTEX
  5
40B
  8
DEFAULT
 10
60.40000000000873
 20
79.2500000000031
 30
-0.0000000000000001
  0
VERTEX
  5
40C
  8
DEFAULT
 10
60.40000000000873
 20
81.30000000000311
 30
-0.0000000000000001
  0
VERTEX
  5
40D
  8
DEFAULT
 10
58.20000000000873
 20
81.30000000000311
 30
-0.0000000000000001
  0
VERTEX
  5
40E
  8
DEFAULT
 10
58.20000000000873
 20
79.2500000000031
 30
-0.0000000000000001
  0
VERTEX
  5
40F
  8
DEFAULT
 10
56.40000000000873
 20
79.2500000000031
 30
-0.0000000000000001
  0
VERTEX
  5
410
  8
DEFAULT
 10
56.40000000000873
 20
76.7500000000031
 30
-0.0000000000000001
  0
VERTEX
  5
411
  8
DEFAULT
 10
58.20000000000873
 20
76.7500000000031
 30
-0.0000000000000001
  0
VERTEX
  5
412
  8
DEFAULT
 10
58.20000000000873
 20
74.70000000000309
 30
-0.0000000000000001
  0
VERTEX
  5
413
  8
DEFAULT
 10
60.40000000000873
 20
74.70000000000309
 30
-0.0000000000000001
  0
VERTEX
  5
414
  8
DEFAULT
 10
60.40000000000873
 20
76.7500000000031
 30
-0.0000000000000001
  0
VERTEX
  5
415
  8
DEFAULT
 10
64.00000000000577
 20
76.7500000000031
 30
-0.0000000000000001
  0
SEQEND
  5
409
  8
DEFAULT
  0
POLYLINE
  5
416
  8
DEFAULT
 66
     1
 10
0.0
 20
0.0
 30
0.0
  0
VERTEX
  5
418
  8
DEFAULT
 10
64.00000000000873
 20
-0.749999999996902
 30
0.0
  0
VERTEX
  5
419
  8
DEFAULT
 10
60.40000000000873
 20
-0.749999999996902
 30
0.0
  0
VERTEX
  5
41A
  8
DEFAULT
 10
60.40000000000873
 20
1.300000000003108
 30
0.0
  0
VERTEX
  5
41B
  8
DEFAULT
 10
58.20000000000873
 20
1.300000000003108
 30
0.0
  0
VERTEX
  5
41C
  8
DEFAULT
 10
58.20000000000873
 20
-0.749999999996902
 30
0.0
  0
VERTEX
  5
41D
  8
DEFAULT
 10
56.40000000000873
 20
-0.749999999996902
 30
0.0
  0
VERTEX
  5
41E
  8
DEFAULT
 10
56.40000000000873
 20
-3.249999999996902
 30
0.0
  0
VERTEX
  5
41F
  8
DEFAULT
 10
58.20000000000873
 20
-3.249999999996902
 30
0.0
  0
VERTEX
  5
420
  8
DEFAULT
 10
58.20000000000873
 20
-5.299999999996912
 30
0.0
  0
VERTEX
  5
421
  8
DEFAULT
 10
60.40000000000873
 20
-5.299999999996912
 30
0.0
  0
VERTEX
  5
422
  8
DEFAULT
 10
60.40000000000873
 20
-3.249999999996902
 30
0.0
  0
VERTEX
  5
423
  8
DEFAULT
 10
64.00000000000873
 20
-3.249999999996902
 30
0.0
  0
SEQEND
  5
417
  8
DEFAULT
  0
POLYLINE
  5
424
  8
DEFAULT
 66
     1
 10
0.0
 20
0.0
 30
0.0
  0
VERTEX
  5
426
  8
DEFAULT
 10
30.00000000000705
 20
205.75
 30
0.0
  0
VERTEX
  5
427
  8
DEFAULT
 10
26.40000000001
 20
205.75
 30
0.0
  0
VERTEX
  5
428
  8
DEFAULT
 10
26.40000000001
 20
203.7
 30
0.0
  0
VERTEX
  5
429
  8
DEFAULT
 10
24.20000000000999
 20
203.7
 30
0.0
  0
VERTEX
  5
42A
  8
DEFAULT
 10
24.20000000000999
 20
205.75
 30
0.0
  0
VERTEX
  5
42B
  8
DEFAULT
 10
22.40000000001
 20
205.75
 30
0.0
  0
VERTEX
  5
42C
  8
DEFAULT
 10
22.40000000001
 20
208.25
 30
0.0
  0
VERTEX
  5
42D
  8
DEFAULT
 10
24.20000000000999
 20
208.25
 30
0.0
  0
VERTEX
  5
42E
  8
DEFAULT
 10
24.20000000001001
 20
210.3
 30
0.0
  0
VERTEX
  5
42F
  8
DEFAULT
 10
26.40000000001
 20
210.3
 30
0.0
  0
VERTEX
  5
430
  8
DEFAULT
 10
26.40000000001
 20
208.25
 30
0.0
  0
VERTEX
  5
431
  8
DEFAULT
 10
30.00000000001
 20
208.25
 30
0.0
  0
SEQEND
  5
425
  8
DEFAULT
  0
POLYLINE
  5
432
  8
DEFAULT
 66
     1
 10
0.0
 20
0.0
 30
0.0
  0
VERTEX
  5
434
  8
DEFAULT
 10
38.00000000000873
 20
-3.249999999996902
 30
0.0
  0
VERTEX
  5
435
  8
DEFAULT
 10
41.60000000000872
 20
-3.249999999996902
 30
0.0
  0
VERTEX
  5
436
  8
DEFAULT
 10
41.60000000000872
 20
-5.299999999996912
 30
0.0
  0
VERTEX
  5
437
  8
DEFAULT
 10
43.80000000000872
 20
-5.299999999996912
 30
0.0
  0
VERTEX
  5
438
  8
DEFAULT
 10
43.80000000000872
 20
-3.249999999996902
 30
0.0
  0
VERTEX
  5
439
  8
DEFAULT
 10
45.60000000000872
 20
-3.249999999996902
 30
0.0
  0
VERTEX
  5
43A
  8
DEFAULT
 10
45.60000000000872
 20
-0.749999999996902
 30
0.0
  0
VERTEX
  5
43B
  8
DEFAULT
 10
43.80000000000872
 20
-0.749999999996902
 30
0.0
  0
VERTEX
  5
43C
  8
DEFAULT
 10
43.80000000000872
 20
1.300000000003108
 30
0.0
  0
VERTEX
  5
43D
  8
DEFAULT
 10
41.60000000000872
 20
1.300000000003108
 30
0.0
  0
VERTEX
  5
43E
  8
DEFAULT
 10
41.60000000000872
 20
-0.749999999996902
 30
0.0
  0
VERTEX
  5
43F
  8
DEFAULT
 10
38.00000000000873
 20
-0.7499999999968949
 30
0.0
  0
SEQEND
  5
433
  8
DEFAULT
  0
POLYLINE
  5
440
  8
DEFAULT
 66
     1
 10
0.0
 20
0.0
 30
0.0
  0
VERTEX
  5
442
  8
DEFAULT
 10
4.000000000005826
 20
8.25
 30
0.0
  0
VERTEX
  5
443
  8
DEFAULT
 10
7.600000000005821
 20
8.25
 30
0.0
  0
VERTEX
  5
444
  8
DEFAULT
 10
7.600000000005821
 20
10.30000000000001
 30
0.0
  0
VERTEX
  5
445
  8
DEFAULT
 10
9.800000000005838
 20
10.30000000000001
 30
0.0
  0
VERTEX
  5
446
  8
DEFAULT
 10
9.800000000005838
 20
8.25
 30
0.0
  0
VERTEX
  5
447
  8
DEFAULT
 10
11.60000000000582
 20
8.25
 30
0.0
  0
VERTEX
  5
448
  8
DEFAULT
 10
11.60000000000582
 20
5.75
 30
0.0
  0
VERTEX
  5
449
  8
DEFAULT
 10
9.800000000005838
 20
5.75
 30
0.0
  0
VERTEX
  5
44A
  8
DEFAULT
 10
9.800000000005838
 20
3.69999999999999
 30
0.0
  0
VERTEX
  5
44B
  8
DEFAULT
 10
7.600000000005821
 20
3.69999999999999
 30
0.0
  0
VERTEX
  5
44C
  8
DEFAULT
 10
7.600000000005821
 20
5.75
 30
0.0
  0
VERTEX
  5
44D
  8
DEFAULT
 10
4.000000000005826
 20
5.75
 30
0.0
  0
SEQEND
  5
441
  8
DEFAULT
  0
POLYLINE
  5
44E
  8
DEFAULT
 66
     1
 10
0.0
 20
0.0
 30
0.0
  0
VERTEX
  5
450
  8
DEFAULT
 10
64.00000000000838
 20
179.2500000000031
 30
0.0
  0
VERTEX
  5
451
  8
DEFAULT
 10
62.20000000000873
 20
179.2500000000031
 30
0.0
  0
VERTEX
  5
452
  8
DEFAULT
 10
60.40000000000873
 20
178.0000000000031
 30
0.0
  0
VERTEX
  5
453
  8
DEFAULT
 10
62.20000000000873
 20
176.7500000000031
 30
0.0
  0
VERTEX
  5
454
  8
DEFAULT
 10
64.00000000000844
 20
176.7500000000031
 30
0.0
  0
SEQEND
  5
44F
  8
DEFAULT
  0
POLYLINE
  5
455
  8
DEFAULT
 66
     1
 10
0.0
 20
0.0
 30
-0.0000000000000001
  0
VERTEX
  5
457
  8
DEFAULT
 10
64.00000000000873
 20
159.2500000000031
 30
-0.0000000000000001
  0
VERTEX
  5
458
  8
DEFAULT
 10
60.40000000000873
 20
159.2500000000031
 30
-0.0000000000000001
  0
VERTEX
  5
459
  8
DEFAULT
 10
60.40000000000873
 20
161.3000000000031
 30
-0.0000000000000001
  0
VERTEX
  5
45A
  8
DEFAULT
 10
58.20000000000873
 20
161.3000000000031
 30
-0.0000000000000001
  0
VERTEX
  5
45B
  8
DEFAULT
 10
58.20000000000873
 20
159.2500000000031
 30
-0.0000000000000001
  0
VERTEX
  5
45C
  8
DEFAULT
 10
56.40000000000873
 20
159.2500000000031
 30
-0.0000000000000001
  0
VERTEX
  5
45D
  8
DEFAULT
 10
56.40000000000873
 20
156.7500000000031
 30
-0.0000000000000001
  0
VERTEX
  5
45E
  8
DEFAULT
 10
58.20000000000873
 20
156.7500000000031
 30
-0.0000000000000001
  0
VERTEX
  5
45F
  8
DEFAULT
 10
58.20000000000873
 20
154.7000000000031
 30
-0.0000000000000001
  0
VERTEX
  5
460
  8
DEFAULT
 10
60.40000000000873
 20
154.7000000000031
 30
-0.0000000000000001
  0
VERTEX
  5
461
  8
DEFAULT
 10
60.40000000000873
 20
156.7500000000031
 30
-0.0000000000000001
  0
VERTEX
  5
462
  8
DEFAULT
 10
64.00000000000577
 20
156.7500000000031
 30
-0.0000000000000001
  0
SEQEND
  5
456
  8
DEFAULT
  0
POLYLINE
  5
463
  8
DEFAULT
 66
     1
 10
0.0
 20
0.0
 30
-0.0000000000000002
  0
VERTEX
  5
465
  8
DEFAULT
 10
4.000000000005826
 20
208.25
 30
-0.0000000000000002
  0
VERTEX
  5
466
  8
DEFAULT
 10
7.600000000005821
 20
208.25
 30
-0.0000000000000002
  0
VERTEX
  5
467
  8
DEFAULT
 10
7.600000000005821
 20
210.3
 30
-0.0000000000000002
  0
VERTEX
  5
468
  8
DEFAULT
 10
9.800000000005838
 20
210.3
 30
-0.0000000000000002
  0
VERTEX
  5
469
  8
DEFAULT
 10
9.800000000005838
 20
208.25
 30
-0.0000000000000002
  0
VERTEX
  5
46A
  8
DEFAULT
 10
11.60000000000582
 20
208.25
 30
-0.0000000000000002
  0
VERTEX
  5
46B
  8
DEFAULT
 10
11.60000000000582
 20
205.75
 30
-0.0000000000000002
  0
VERTEX
  5
46C
  8
DEFAULT
 10
9.800000000005838
 20
205.75
 30
-0.0000000000000002
  0
VERTEX
  5
46D
  8
DEFAULT
 10
9.800000000005838
 20
203.7
 30
-0.0000000000000002
  0
VERTEX
  5
46E
  8
DEFAULT
 10
7.600000000005821
 20
203.7
 30
-0.0000000000000002
  0
VERTEX
  5
46F
  8
DEFAULT
 10
7.600000000005821
 20
205.75
 30
-0.0000000000000002
  0
VERTEX
  5
470
  8
DEFAULT
 10
4.000000000008782
 20
205.75
 30
-0.0000000000000002
  0
SEQEND
  5
464
  8
DEFAULT
  0
POLYLINE
  5
471
  8
DEFAULT
 66
     1
 10
0.0
 20
0.0
 30
0.0000000000000008
  0
VERTEX
  5
473
  8
DEFAULT
 10
18.25000000000583
 20
222.0
 30
0.0000000000000008
  0
VERTEX
  5
474
  8
DEFAULT
 10
18.25000000000583
 20
218.4
 30
0.0000000000000008
  0
VERTEX
  5
475
  8
DEFAULT
 10
20.30000000000584
 20
218.4
 30
0.0000000000000008
  0
VERTEX
  5
476
  8
DEFAULT
 10
20.30000000000584
 20
216.2
 30
0.0000000000000008
  0
VERTEX
  5
477
  8
DEFAULT
 10
18.25000000000583
 20
216.2
 30
0.0000000000000008
  0
VERTEX
  5
478
  8
DEFAULT
 10
18.25000000000583
 20
214.4
 30
0.0000000000000008
  0
VERTEX
  5
479
  8
DEFAULT
 10
15.75000000000583
 20
214.4
 30
0.0000000000000008
  0
VERTEX
  5
47A
  8
DEFAULT
 10
15.75000000000583
 20
216.2
 30
0.0000000000000008
  0
VERTEX
  5
47B
  8
DEFAULT
 10
13.70000000000582
 20
216.2
 30
0.0000000000000008
  0
VERTEX
  5
47C
  8
DEFAULT
 10
13.70000000000582
 20
218.4
 30
0.0000000000000008
  0
VERTEX
  5
47D
  8
DEFAULT
 10
15.75000000000583
 20
218.4
 30
0.0000000000000008
  0
VERTEX
  5
47E
  8
DEFAULT
 10
15.75000000000583
 20
221.9999999999971
 30
0.0000000000000008
  0
SEQEND
  5
472
  8
DEFAULT
  0
POLYLINE
  5
47F
  8
DEFAULT
 66
     1
 10
0.0
 20
0.0
 30
-0.0000000000000001
  0
VERTEX
  5
481
  8
DEFAULT
 10
76.00000000000875
 20
88.25
 30
-0.0000000000000001
  0
VERTEX
  5
482
  8
DEFAULT
 10
79.60000000000875
 20
88.25
 30
-0.0000000000000001
  0
VERTEX
  5
483
  8
DEFAULT
 10
79.60000000000875
 20
90.30000000000001
 30
-0.0000000000000001
  0
VERTEX
  5
484
  8
DEFAULT
 10
81.80000000000877
 20
90.30000000000001
 30
-0.0000000000000001
  0
VERTEX
  5
485
  8
DEFAULT
 10
81.80000000000877
 20
88.25
 30
-0.0000000000000001
  0
VERTEX
  5
486
  8
DEFAULT
 10
83.60000000000875
 20
88.25
 30
-0.0000000000000001
  0
VERTEX
  5
487
  8
DEFAULT
 10
83.60000000000875
 20
85.75
 30
-0.0000000000000001
  0
VERTEX
  5
488
  8
DEFAULT
 10
81.80000000000877
 20
85.75
 30
-0.0000000000000001
  0
VERTEX
  5
489
  8
DEFAULT
 10
81.80000000000877
 20
83.69999999999999
 30
-0.0000000000000001
  0
VERTEX
  5
48A
  8
DEFAULT
 10
79.60000000000875
 20
83.69999999999999
 30
-0.0000000000000001
  0
VERTEX
  5
48B
  8
DEFAULT
 10
79.60000000000875
 20
85.75
 30
-0.0000000000000001
  0
VERTEX
  5
48C
  8
DEFAULT
 10
76.00000000001171
 20
85.75
 30
-0.0000000000000001
  0
SEQEND
  5
480
  8
DEFAULT
  0
POLYLINE
  5
48D
  8
DEFAULT
 66
     1
 10
0.0
 20
0.0
 30
0.0
  0
VERTEX
  5
48F
  8
DEFAULT
 10
136.0000000000113
 20
139.2500000000031
 30
0.0
  0
VERTEX
  5
490
  8
DEFAULT
 10
134.2000000000116
 20
139.2500000000031
 30
0.0
  0
VERTEX
  5
491
  8
DEFAULT
 10
132.4000000000117
 20
138.0000000000031
 30
0.0
  0
VERTEX
  5
492
  8
DEFAULT
 10
134.2000000000116
 20
136.7500000000031
 30
0.0
  0
VERTEX
  5
493
  8
DEFAULT
 10
136.0000000000114
 20
136.7500000000031
 30
0.0
  0
SEQEND
  5
48E
  8
DEFAULT
  0
POLYLINE
  5
494
  8
DEFAULT
 66
     1
 10
0.0
 20
0.0
 30
-0.0000000000000001
  0
VERTEX
  5
496
  8
DEFAULT
 10
136.0000000000117
 20
39.2500000000031
 30
-0.0000000000000001
  0
VERTEX
  5
497
  8
DEFAULT
 10
132.4000000000117
 20
39.2500000000031
 30
-0.0000000000000001
  0
VERTEX
  5
498
  8
DEFAULT
 10
132.4000000000117
 20
41.30000000000311
 30
-0.0000000000000001
  0
VERTEX
  5
499
  8
DEFAULT
 10
130.2000000000116
 20
41.30000000000311
 30
-0.0000000000000001
  0
VERTEX
  5
49A
  8
DEFAULT
 10
130.2000000000116
 20
39.2500000000031
 30
-0.0000000000000001
  0
VERTEX
  5
49B
  8
DEFAULT
 10
128.4000000000117
 20
39.2500000000031
 30
-0.0000000000000001
  0
VERTEX
  5
49C
  8
DEFAULT
 10
128.4000000000117
 20
36.7500000000031
 30
-0.0000000000000001
  0
VERTEX
  5
49D
  8
DEFAULT
 10
130.2000000000116
 20
36.7500000000031
 30
-0.0000000000000001
  0
VERTEX
  5
49E
  8
DEFAULT
 10
130.2000000000116
 20
34.70000000000309
 30
-0.0000000000000001
  0
VERTEX
  5
49F
  8
DEFAULT
 10
132.4000000000117
 20
34.70000000000309
 30
-0.0000000000000001
  0
VERTEX
  5
4A0
  8
DEFAULT
 10
132.4000000000117
 20
36.7500000000031
 30
-0.0000000000000001
  0
VERTEX
  5
4A1
  8
DEFAULT
 10
136.0000000000087
 20
36.7500000000031
 30
-0.0000000000000001
  0
SEQEND
  5
495
  8
DEFAULT
  0
POLYLINE
  5
4A2
  8
DEFAULT
 66
     1
 10
0.0
 20
0.0
 30
0.0
  0
VERTEX
  5
4A4
  8
DEFAULT
 10
136.0000000000113
 20
19.2500000000031
 30
0.0
  0
VERTEX
  5
4A5
  8
DEFAULT
 10
134.2000000000116
 20
19.2500000000031
 30
0.0
  0
VERTEX
  5
4A6
  8
DEFAULT
 10
132.4000000000117
 20
18.0000000000031
 30
0.0
  0
VERTEX
  5
4A7
  8
DEFAULT
 10
134.2000000000116
 20
16.7500000000031
 30
0.0
  0
VERTEX
  5
4A8
  8
DEFAULT
 10
136.0000000000114
 20
16.7500000000031
 30
0.0
  0
SEQEND
  5
4A3
  8
DEFAULT
  0
POLYLINE
  5
4A9
  8
DEFAULT
 66
     1
 10
0.0
 20
0.0
 30
0.0
  0
VERTEX
  5
4AB
  8
DEFAULT
 10
76.0000000000091
 20
148.25
 30
0.0
  0
VERTEX
  5
4AC
  8
DEFAULT
 10
77.80000000000877
 20
148.25
 30
0.0
  0
VERTEX
  5
4AD
  8
DEFAULT
 10
79.60000000000875
 20
147.0
 30
0.0
  0
VERTEX
  5
4AE
  8
DEFAULT
 10
77.80000000000877
 20
145.75
 30
0.0
  0
VERTEX
  5
4AF
  8
DEFAULT
 10
76.00000000000904
 20
145.75
 30
0.0
  0
SEQEND
  5
4AA
  8
DEFAULT
  0
POLYLINE
  5
4B0
  8
DEFAULT
 66
     1
 10
0.0
 20
0.0
 30
-0.0000000000000001
  0
VERTEX
  5
4B2
  8
DEFAULT
 10
76.00000000000875
 20
128.25
 30
-0.0000000000000001
  0
VERTEX
  5
4B3
  8
DEFAULT
 10
79.60000000000875
 20
128.25
 30
-0.0000000000000001
  0
VERTEX
  5
4B4
  8
DEFAULT
 10
79.60000000000875
 20
130.3
 30
-0.0000000000000001
  0
VERTEX
  5
4B5
  8
DEFAULT
 10
81.80000000000877
 20
130.3
 30
-0.0000000000000001
  0
VERTEX
  5
4B6
  8
DEFAULT
 10
81.80000000000877
 20
128.25
 30
-0.0000000000000001
  0
VERTEX
  5
4B7
  8
DEFAULT
 10
83.60000000000875
 20
128.25
 30
-0.0000000000000001
  0
VERTEX
  5
4B8
  8
DEFAULT
 10
83.60000000000875
 20
125.75
 30
-0.0000000000000001
  0
VERTEX
  5
4B9
  8
DEFAULT
 10
81.80000000000877
 20
125.75
 30
-0.0000000000000001
  0
VERTEX
  5
4BA
  8
DEFAULT
 10
81.80000000000877
 20
123.7
 30
-0.0000000000000001
  0
VERTEX
  5
4BB
  8
DEFAULT
 10
79.60000000000875
 20
123.7
 30
-0.0000000000000001
  0
VERTEX
  5
4BC
  8
DEFAULT
 10
79.60000000000875
 20
125.75
 30
-0.0000000000000001
  0
VERTEX
  5
4BD
  8
DEFAULT
 10
76.00000000001171
 20
125.75
 30
-0.0000000000000001
  0
SEQEND
  5
4B1
  8
DEFAULT
  0
POLYLINE
  5
4BE
  8
DEFAULT
 66
     1
 10
0.0
 20
0.0
 30
0.0
  0
VERTEX
  5
4C0
  8
DEFAULT
 10
76.0000000000091
 20
68.25
 30
0.0
  0
VERTEX
  5
4C1
  8
DEFAULT
 10
77.80000000000877
 20
68.25
 30
0.0
  0
VERTEX
  5
4C2
  8
DEFAULT
 10
79.60000000000875
 20
67.0
 30
0.0
  0
VERTEX
  5
4C3
  8
DEFAULT
 10
77.80000000000877
 20
65.75
 30
0.0
  0
VERTEX
  5
4C4
  8
DEFAULT
 10
76.00000000000904
 20
65.75
 30
0.0
  0
SEQEND
  5
4BF
  8
DEFAULT
  0
POLYLINE
  5
4C5
  8
DEFAULT
 66
     1
 10
0.0
 20
0.0
 30
0.0
  0
VERTEX
  5
4C7
  8
DEFAULT
 10
76.0000000000091
 20
188.25
 30
0.0
  0
VERTEX
  5
4C8
  8
DEFAULT
 10
77.80000000000877
 20
188.25
 30
0.0
  0
VERTEX
  5
4C9
  8
DEFAULT
 10
79.60000000000875
 20
187.0
 30
0.0
  0
VERTEX
  5
4CA
  8
DEFAULT
 10
77.80000000000877
 20
185.75
 30
0.0
  0
VERTEX
  5
4CB
  8
DEFAULT
 10
76.00000000000904
 20
185.75
 30
0.0
  0
SEQEND
  5
4C6
  8
DEFAULT
  0
POLYLINE
  5
4CC
  8
DEFAULT
 66
     1
 10
0.0
 20
0.0
 30
-0.0000000000000001
  0
VERTEX
  5
4CE
  8
DEFAULT
 10
76.00000000000875
 20
168.25
 30
-0.0000000000000001
  0
VERTEX
  5
4CF
  8
DEFAULT
 10
79.60000000000875
 20
168.25
 30
-0.0000000000000001
  0
VERTEX
  5
4D0
  8
DEFAULT
 10
79.60000000000875
 20
170.3
 30
-0.0000000000000001
  0
VERTEX
  5
4D1
  8
DEFAULT
 10
81.80000000000877
 20
170.3
 30
-0.0000000000000001
  0
VERTEX
  5
4D2
  8
DEFAULT
 10
81.80000000000877
 20
168.25
 30
-0.0000000000000001
  0
VERTEX
  5
4D3
  8
DEFAULT
 10
83.60000000000875
 20
168.25
 30
-0.0000000000000001
  0
VERTEX
  5
4D4
  8
DEFAULT
 10
83.60000000000875
 20
165.75
 30
-0.0000000000000001
  0
VERTEX
  5
4D5
  8
DEFAULT
 10
81.80000000000877
 20
165.75
 30
-0.0000000000000001
  0
VERTEX
  5
4D6
  8
DEFAULT
 10
81.80000000000877
 20
163.7
 30
-0.0000000000000001
  0
VERTEX
  5
4D7
  8
DEFAULT
 10
79.60000000000875
 20
163.7
 30
-0.0000000000000001
  0
VERTEX
  5
4D8
  8
DEFAULT
 10
79.60000000000875
 20
165.75
 30
-0.0000000000000001
  0
VERTEX
  5
4D9
  8
DEFAULT
 10
76.00000000001171
 20
165.75
 30
-0.0000000000000001
  0
SEQEND
  5
4CD
  8
DEFAULT
  0
POLYLINE
  5
4DA
  8
DEFAULT
 66
     1
 10
0.0
 20
0.0
 30
0.0
  0
VERTEX
  5
4DC
  8
DEFAULT
 10
76.0000000000091
 20
108.25
 30
0.0
  0
VERTEX
  5
4DD
  8
DEFAULT
 10
77.80000000000877
 20
108.25
 30
0.0
  0
VERTEX
  5
4DE
  8
DEFAULT
 10
79.60000000000875
 20
107.0
 30
0.0
  0
VERTEX
  5
4DF
  8
DEFAULT
 10
77.80000000000877
 20
105.75
 30
0.0
  0
VERTEX
  5
4E0
  8
DEFAULT
 10
76.00000000000904
 20
105.75
 30
0.0
  0
SEQEND
  5
4DB
  8
DEFAULT
  0
POLYLINE
  5
4E1
  8
DEFAULT
 66
     1
 10
0.0
 20
0.0
 30
-0.0000000000000001
  0
VERTEX
  5
4E3
  8
DEFAULT
 10
136.0000000000117
 20
119.2500000000031
 30
-0.0000000000000001
  0
VERTEX
  5
4E4
  8
DEFAULT
 10
132.4000000000117
 20
119.2500000000031
 30
-0.0000000000000001
  0
VERTEX
  5
4E5
  8
DEFAULT
 10
132.4000000000117
 20
121.3000000000031
 30
-0.0000000000000001
  0
VERTEX
  5
4E6
  8
DEFAULT
 10
130.2000000000116
 20
121.3000000000031
 30
-0.0000000000000001
  0
VERTEX
  5
4E7
  8
DEFAULT
 10
130.2000000000116
 20
119.2500000000031
 30
-0.0000000000000001
  0
VERTEX
  5
4E8
  8
DEFAULT
 10
128.4000000000117
 20
119.2500000000031
 30
-0.0000000000000001
  0
VERTEX
  5
4E9
  8
DEFAULT
 10
128.4000000000117
 20
116.7500000000031
 30
-0.0000000000000001
  0
VERTEX
  5
4EA
  8
DEFAULT
 10
130.2000000000116
 20
116.7500000000031
 30
-0.0000000000000001
  0
VERTEX
  5
4EB
  8
DEFAULT
 10
130.2000000000116
 20
114.7000000000031
 30
-0.0000000000000001
  0
VERTEX
  5
4EC
  8
DEFAULT
 10
132.4000000000117
 20
114.7000000000031
 30
-0.0000000000000001
  0
VERTEX
  5
4ED
  8
DEFAULT
 10
132.4000000000117
 20
116.7500000000031
 30
-0.0000000000000001
  0
VERTEX
  5
4EE
  8
DEFAULT
 10
136.0000000000087
 20
116.7500000000031
 30
-0.0000000000000001
  0
SEQEND
  5
4E2
  8
DEFAULT
  0
POLYLINE
  5
4EF
  8
DEFAULT
 66
     1
 10
0.0
 20
0.0
 30
0.0000000000000006
  0
VERTEX
  5
4F1
  8
DEFAULT
 10
124.2500000000117
 20
-16.9999999999969
 30
0.0000000000000006
  0
VERTEX
  5
4F2
  8
DEFAULT
 10
124.2500000000117
 20
-13.39999999999688
 30
0.0000000000000006
  0
VERTEX
  5
4F3
  8
DEFAULT
 10
126.3000000000117
 20
-13.39999999999688
 30
0.0000000000000006
  0
VERTEX
  5
4F4
  8
DEFAULT
 10
126.3000000000117
 20
-11.19999999999689
 30
0.0000000000000006
  0
VERTEX
  5
4F5
  8
DEFAULT
 10
124.2500000000117
 20
-11.19999999999689
 30
0.0000000000000006
  0
VERTEX
  5
4F6
  8
DEFAULT
 10
124.2500000000117
 20
-9.39999999999688
 30
0.0000000000000006
  0
VERTEX
  5
4F7
  8
DEFAULT
 10
121.7500000000117
 20
-9.39999999999688
 30
0.0000000000000006
  0
VERTEX
  5
4F8
  8
DEFAULT
 10
121.7500000000117
 20
-11.19999999999689
 30
0.0000000000000006
  0
VERTEX
  5
4F9
  8
DEFAULT
 10
119.7000000000116
 20
-11.19999999999689
 30
0.0000000000000006
  0
VERTEX
  5
4FA
  8
DEFAULT
 10
119.7000000000116
 20
-13.39999999999688
 30
0.0000000000000006
  0
VERTEX
  5
4FB
  8
DEFAULT
 10
121.7500000000117
 20
-13.39999999999688
 30
0.0000000000000006
  0
VERTEX
  5
4FC
  8
DEFAULT
 10
121.7500000000117
 20
-16.9999999999969
 30
0.0000000000000006
  0
SEQEND
  5
4F0
  8
DEFAULT
  0
POLYLINE
  5
4FD
  8
DEFAULT
 66
     1
 10
0.0
 20
0.0
 30
-0.0000000000000001
  0
VERTEX
  5
4FF
  8
DEFAULT
 10
76.00000000000875
 20
48.25
 30
-0.0000000000000001
  0
VERTEX
  5
500
  8
DEFAULT
 10
79.60000000000875
 20
48.25
 30
-0.0000000000000001
  0
VERTEX
  5
501
  8
DEFAULT
 10
79.60000000000875
 20
50.30000000000001
 30
-0.0000000000000001
  0
VERTEX
  5
502
  8
DEFAULT
 10
81.80000000000877
 20
50.30000000000001
 30
-0.0000000000000001
  0
VERTEX
  5
503
  8
DEFAULT
 10
81.80000000000877
 20
48.25
 30
-0.0000000000000001
  0
VERTEX
  5
504
  8
DEFAULT
 10
83.60000000000875
 20
48.25
 30
-0.0000000000000001
  0
VERTEX
  5
505
  8
DEFAULT
 10
83.60000000000875
 20
45.75
 30
-0.0000000000000001
  0
VERTEX
  5
506
  8
DEFAULT
 10
81.80000000000877
 20
45.75
 30
-0.0000000000000001
  0
VERTEX
  5
507
  8
DEFAULT
 10
81.80000000000877
 20
43.69999999999999
 30
-0.0000000000000001
  0
VERTEX
  5
508
  8
DEFAULT
 10
79.60000000000875
 20
43.69999999999999
 30
-0.0000000000000001
  0
VERTEX
  5
509
  8
DEFAULT
 10
79.60000000000875
 20
45.75
 30
-0.0000000000000001
  0
VERTEX
  5
50A
  8
DEFAULT
 10
76.00000000001171
 20
45.75
 30
-0.0000000000000001
  0
SEQEND
  5
4FE
  8
DEFAULT
  0
POLYLINE
  5
50B
  8
DEFAULT
 66
     1
 10
0.0
 20
0.0
 30
0.0
  0
VERTEX
  5
50D
  8
DEFAULT
 10
76.0000000000091
 20
28.25
 30
0.0
  0
VERTEX
  5
50E
  8
DEFAULT
 10
77.80000000000877
 20
28.25
 30
0.0
  0
VERTEX
  5
50F
  8
DEFAULT
 10
79.60000000000875
 20
27.0
 30
0.0
  0
VERTEX
  5
510
  8
DEFAULT
 10
77.80000000000877
 20
25.75
 30
0.0
  0
VERTEX
  5
511
  8
DEFAULT
 10
76.00000000000904
 20
25.75
 30
0.0
  0
SEQEND
  5
50C
  8
DEFAULT
  0
POLYLINE
  5
512
  8
DEFAULT
 66
     1
 10
0.0
 20
0.0
 30
0.0000000000000006
  0
VERTEX
  5
514
  8
DEFAULT
 10
87.75000000000875
 20
-8.0
 30
0.0000000000000006
  0
VERTEX
  5
515
  8
DEFAULT
 10
87.75000000000875
 20
-4.399999999999977
 30
0.0000000000000006
  0
VERTEX
  5
516
  8
DEFAULT
 10
85.70000000000874
 20
-4.399999999999977
 30
0.0000000000000006
  0
VERTEX
  5
517
  8
DEFAULT
 10
85.70000000000874
 20
-2.199999999999989
 30
0.0000000000000006
  0
VERTEX
  5
518
  8
DEFAULT
 10
87.75000000000875
 20
-2.199999999999989
 30
0.0000000000000006
  0
VERTEX
  5
519
  8
DEFAULT
 10
87.75000000000875
 20
-0.3999999999999773
 30
0.0000000000000006
  0
VERTEX
  5
51A
  8
DEFAULT
 10
90.25000000000875
 20
-0.3999999999999773
 30
0.0000000000000006
  0
VERTEX
  5
51B
  8
DEFAULT
 10
90.25000000000875
 20
-2.199999999999989
 30
0.0000000000000006
  0
VERTEX
  5
51C
  8
DEFAULT
 10
92.30000000000877
 20
-2.199999999999989
 30
0.0000000000000006
  0
VERTEX
  5
51D
  8
DEFAULT
 10
92.30000000000877
 20
-4.399999999999977
 30
0.0000000000000006
  0
VERTEX
  5
51E
  8
DEFAULT
 10
90.25000000000875
 20
-4.399999999999977
 30
0.0000000000000006
  0
VERTEX
  5
51F
  8
DEFAULT
 10
90.25000000000875
 20
-8.0
 30
0.0000000000000006
  0
SEQEND
  5
513
  8
DEFAULT
  0
POLYLINE
  5
520
  8
DEFAULT
 66
     1
 10
0.0
 20
0.0
 30
0.0
  0
VERTEX
  5
522
  8
DEFAULT
 10
102.0000000000088
 20
5.75
 30
0.0
  0
VERTEX
  5
523
  8
DEFAULT
 10
98.40000000000876
 20
5.75
 30
0.0
  0
VERTEX
  5
524
  8
DEFAULT
 10
98.40000000000876
 20
3.69999999999999
 30
0.0
  0
VERTEX
  5
525
  8
DEFAULT
 10
96.20000000000876
 20
3.69999999999999
 30
0.0
  0
VERTEX
  5
526
  8
DEFAULT
 10
96.20000000000876
 20
5.75
 30
0.0
  0
VERTEX
  5
527
  8
DEFAULT
 10
94.40000000000876
 20
5.75
 30
0.0
  0
VERTEX
  5
528
  8
DEFAULT
 10
94.40000000000876
 20
8.25
 30
0.0
  0
VERTEX
  5
529
  8
DEFAULT
 10
96.20000000000876
 20
8.25
 30
0.0
  0
VERTEX
  5
52A
  8
DEFAULT
 10
96.20000000000876
 20
10.30000000000001
 30
0.0
  0
VERTEX
  5
52B
  8
DEFAULT
 10
98.40000000000876
 20
10.30000000000001
 30
0.0
  0
VERTEX
  5
52C
  8
DEFAULT
 10
98.40000000000876
 20
8.25
 30
0.0
  0
VERTEX
  5
52D
  8
DEFAULT
 10
102.0000000000088
 20
8.250000000000007
 30
0.0
  0
SEQEND
  5
521
  8
DEFAULT
  0
POLYLINE
  5
52E
  8
DEFAULT
 66
     1
 10
0.0
 20
0.0
 30
0.0
  0
VERTEX
  5
530
  8
DEFAULT
 10
136.0000000000113
 20
59.2500000000031
 30
0.0
  0
VERTEX
  5
531
  8
DEFAULT
 10
134.2000000000116
 20
59.2500000000031
 30
0.0
  0
VERTEX
  5
532
  8
DEFAULT
 10
132.4000000000117
 20
58.0000000000031
 30
0.0
  0
VERTEX
  5
533
  8
DEFAULT
 10
134.2000000000116
 20
56.7500000000031
 30
0.0
  0
VERTEX
  5
534
  8
DEFAULT
 10
136.0000000000114
 20
56.7500000000031
 30
0.0
  0
SEQEND
  5
52F
  8
DEFAULT
  0
POLYLINE
  5
535
  8
DEFAULT
 66
     1
 10
0.0
 20
0.0
 30
0.0
  0
VERTEX
  5
537
  8
DEFAULT
 10
136.0000000000113
 20
99.2500000000031
 30
0.0
  0
VERTEX
  5
538
  8
DEFAULT
 10
134.2000000000116
 20
99.2500000000031
 30
0.0
  0
VERTEX
  5
539
  8
DEFAULT
 10
132.4000000000117
 20
98.0000000000031
 30
0.0
  0
VERTEX
  5
53A
  8
DEFAULT
 10
134.2000000000116
 20
96.7500000000031
 30
0.0
  0
VERTEX
  5
53B
  8
DEFAULT
 10
136.0000000000114
 20
96.7500000000031
 30
0.0
  0
SEQEND
  5
536
  8
DEFAULT
  0
POLYLINE
  5
53C
  8
DEFAULT
 66
     1
 10
0.0
 20
0.0
 30
0.0
  0
VERTEX
  5
53E
  8
DEFAULT
 10
110.0000000000104
 20
196.7500000000031
 30
0.0
  0
VERTEX
  5
53F
  8
DEFAULT
 10
113.6000000000075
 20
196.7500000000031
 30
0.0
  0
VERTEX
  5
540
  8
DEFAULT
 10
113.6000000000075
 20
194.7000000000031
 30
0.0
  0
VERTEX
  5
541
  8
DEFAULT
 10
115.8000000000075
 20
194.7000000000031
 30
0.0
  0
VERTEX
  5
542
  8
DEFAULT
 10
115.8000000000075
 20
196.7500000000031
 30
0.0
  0
VERTEX
  5
543
  8
DEFAULT
 10
117.6000000000075
 20
196.7500000000031
 30
0.0
  0
VERTEX
  5
544
  8
DEFAULT
 10
117.6000000000075
 20
199.2500000000031
 30
0.0
  0
VERTEX
  5
545
  8
DEFAULT
 10
115.8000000000075
 20
199.2500000000031
 30
0.0
  0
VERTEX
  5
546
  8
DEFAULT
 10
115.8000000000075
 20
201.3000000000031
 30
0.0
  0
VERTEX
  5
547
  8
DEFAULT
 10
113.6000000000075
 20
201.3000000000031
 30
0.0
  0
VERTEX
  5
548
  8
DEFAULT
 10
113.6000000000075
 20
199.2500000000031
 30
0.0
  0
VERTEX
  5
549
  8
DEFAULT
 10
110.0000000000075
 20
199.2500000000031
 30
0.0
  0
SEQEND
  5
53D
  8
DEFAULT
  0
POLYLINE
  5
54A
  8
DEFAULT
 66
     1
 10
0.0
 20
0.0
 30
0.0000000000000008
  0
VERTEX
  5
54C
  8
DEFAULT
 10
121.7500000000117
 20
213.0000000000031
 30
0.0000000000000008
  0
VERTEX
  5
54D
  8
DEFAULT
 10
121.7500000000117
 20
209.4000000000031
 30
0.0000000000000008
  0
VERTEX
  5
54E
  8
DEFAULT
 10
119.7000000000116
 20
209.4000000000031
 30
0.0000000000000008
  0
VERTEX
  5
54F
  8
DEFAULT
 10
119.7000000000116
 20
207.2000000000031
 30
0.0000000000000008
  0
VERTEX
  5
550
  8
DEFAULT
 10
121.7500000000117
 20
207.2000000000031
 30
0.0000000000000008
  0
VERTEX
  5
551
  8
DEFAULT
 10
121.7500000000117
 20
205.4000000000031
 30
0.0000000000000008
  0
VERTEX
  5
552
  8
DEFAULT
 10
124.2500000000117
 20
205.4000000000031
 30
0.0000000000000008
  0
VERTEX
  5
553
  8
DEFAULT
 10
124.2500000000117
 20
207.2000000000031
 30
0.0000000000000008
  0
VERTEX
  5
554
  8
DEFAULT
 10
126.3000000000117
 20
207.2000000000031
 30
0.0000000000000008
  0
VERTEX
  5
555
  8
DEFAULT
 10
126.3000000000117
 20
209.4000000000031
 30
0.0000000000000008
  0
VERTEX
  5
556
  8
DEFAULT
 10
124.2500000000117
 20
209.4000000000031
 30
0.0000000000000008
  0
VERTEX
  5
557
  8
DEFAULT
 10
124.2500000000117
 20
213.0000000000002
 30
0.0000000000000008
  0
SEQEND
  5
54B
  8
DEFAULT
  0
POLYLINE
  5
558
  8
DEFAULT
 66
     1
 10
0.0
 20
0.0
 30
-0.0000000000000002
  0
VERTEX
  5
55A
  8
DEFAULT
 10
136.0000000000117
 20
199.2500000000031
 30
-0.0000000000000002
  0
VERTEX
  5
55B
  8
DEFAULT
 10
132.4000000000117
 20
199.2500000000031
 30
-0.0000000000000002
  0
VERTEX
  5
55C
  8
DEFAULT
 10
132.4000000000117
 20
201.3000000000031
 30
-0.0000000000000002
  0
VERTEX
  5
55D
  8
DEFAULT
 10
130.2000000000116
 20
201.3000000000031
 30
-0.0000000000000002
  0
VERTEX
  5
55E
  8
DEFAULT
 10
130.2000000000116
 20
199.2500000000031
 30
-0.0000000000000002
  0
VERTEX
  5
55F
  8
DEFAULT
 10
128.4000000000117
 20
199.2500000000031
 30
-0.0000000000000002
  0
VERTEX
  5
560
  8
DEFAULT
 10
128.4000000000117
 20
196.7500000000031
 30
-0.0000000000000002
  0
VERTEX
  5
561
  8
DEFAULT
 10
130.2000000000116
 20
196.7500000000031
 30
-0.0000000000000002
  0
VERTEX
  5
562
  8
DEFAULT
 10
130.2000000000116
 20
194.7000000000031
 30
-0.0000000000000002
  0
VERTEX
  5
563
  8
DEFAULT
 10
132.4000000000117
 20
194.7000000000031
 30
-0.0000000000000002
  0
VERTEX
  5
564
  8
DEFAULT
 10
132.4000000000117
 20
196.7500000000031
 30
-0.0000000000000002
  0
VERTEX
  5
565
  8
DEFAULT
 10
136.0000000000087
 20
196.7500000000031
 30
-0.0000000000000002
  0
SEQEND
  5
559
  8
DEFAULT
  0
POLYLINE
  5
566
  8
DEFAULT
 66
     1
 10
0.0
 20
0.0
 30
-0.0000000000000001
  0
VERTEX
  5
568
  8
DEFAULT
 10
136.0000000000117
 20
79.2500000000031
 30
-0.0000000000000001
  0
VERTEX
  5
569
  8
DEFAULT
 10
132.4000000000117
 20
79.2500000000031
 30
-0.0000000000000001
  0
VERTEX
  5
56A
  8
DEFAULT
 10
132.4000000000117
 20
81.30000000000311
 30
-0.0000000000000001
  0
VERTEX
  5
56B
  8
DEFAULT
 10
130.2000000000116
 20
81.30000000000311
 30
-0.0000000000000001
  0
VERTEX
  5
56C
  8
DEFAULT
 10
130.2000000000116
 20
79.2500000000031
 30
-0.0000000000000001
  0
VERTEX
  5
56D
  8
DEFAULT
 10
128.4000000000117
 20
79.2500000000031
 30
-0.0000000000000001
  0
VERTEX
  5
56E
  8
DEFAULT
 10
128.4000000000117
 20
76.7500000000031
 30
-0.0000000000000001
  0
VERTEX
  5
56F
  8
DEFAULT
 10
130.2000000000116
 20
76.7500000000031
 30
-0.0000000000000001
  0
VERTEX
  5
570
  8
DEFAULT
 10
130.2000000000116
 20
74.70000000000309
 30
-0.0000000000000001
  0
VERTEX
  5
571
  8
DEFAULT
 10
132.4000000000117
 20
74.70000000000309
 30
-0.0000000000000001
  0
VERTEX
  5
572
  8
DEFAULT
 10
132.4000000000117
 20
76.7500000000031
 30
-0.0000000000000001
  0
VERTEX
  5
573
  8
DEFAULT
 10
136.0000000000087
 20
76.7500000000031
 30
-0.0000000000000001
  0
SEQEND
  5
567
  8
DEFAULT
  0
POLYLINE
  5
574
  8
DEFAULT
 66
     1
 10
0.0
 20
0.0
 30
0.0
  0
VERTEX
  5
576
  8
DEFAULT
 10
136.0000000000117
 20
-0.749999999996902
 30
0.0
  0
VERTEX
  5
577
  8
DEFAULT
 10
132.4000000000117
 20
-0.749999999996902
 30
0.0
  0
VERTEX
  5
578
  8
DEFAULT
 10
132.4000000000117
 20
1.300000000003108
 30
0.0
  0
VERTEX
  5
579
  8
DEFAULT
 10
130.2000000000116
 20
1.300000000003108
 30
0.0
  0
VERTEX
  5
57A
  8
DEFAULT
 10
130.2000000000116
 20
-0.749999999996902
 30
0.0
  0
VERTEX
  5
57B
  8
DEFAULT
 10
128.4000000000117
 20
-0.749999999996902
 30
0.0
  0
VERTEX
  5
57C
  8
DEFAULT
 10
128.4000000000117
 20
-3.249999999996902
 30
0.0
  0
VERTEX
  5
57D
  8
DEFAULT
 10
130.2000000000116
 20
-3.249999999996902
 30
0.0
  0
VERTEX
  5
57E
  8
DEFAULT
 10
130.2000000000116
 20
-5.299999999996912
 30
0.0
  0
VERTEX
  5
57F
  8
DEFAULT
 10
132.4000000000117
 20
-5.299999999996912
 30
0.0
  0
VERTEX
  5
580
  8
DEFAULT
 10
132.4000000000117
 20
-3.249999999996902
 30
0.0
  0
VERTEX
  5
581
  8
DEFAULT
 10
136.0000000000117
 20
-3.249999999996902
 30
0.0
  0
SEQEND
  5
575
  8
DEFAULT
  0
POLYLINE
  5
582
  8
DEFAULT
 66
     1
 10
0.0
 20
0.0
 30
0.0
  0
VERTEX
  5
584
  8
DEFAULT
 10
102.00000000001
 20
205.75
 30
0.0
  0
VERTEX
  5
585
  8
DEFAULT
 10
98.40000000001292
 20
205.75
 30
0.0
  0
VERTEX
  5
586
  8
DEFAULT
 10
98.40000000001292
 20
203.7
 30
0.0
  0
VERTEX
  5
587
  8
DEFAULT
 10
96.20000000001292
 20
203.7
 30
0.0
  0
VERTEX
  5
588
  8
DEFAULT
 10
96.20000000001292
 20
205.75
 30
0.0
  0
VERTEX
  5
589
  8
DEFAULT
 10
94.40000000001292
 20
205.75
 30
0.0
  0
VERTEX
  5
58A
  8
DEFAULT
 10
94.40000000001292
 20
208.25
 30
0.0
  0
VERTEX
  5
58B
  8
DEFAULT
 10
96.20000000001292
 20
208.25
 30
0.0
  0
VERTEX
  5
58C
  8
DEFAULT
 10
96.20000000001293
 20
210.3
 30
0.0
  0
VERTEX
  5
58D
  8
DEFAULT
 10
98.40000000001292
 20
210.3
 30
0.0
  0
VERTEX
  5
58E
  8
DEFAULT
 10
98.40000000001292
 20
208.25
 30
0.0
  0
VERTEX
  5
58F
  8
DEFAULT
 10
102.0000000000129
 20
208.25
 30
0.0
  0
SEQEND
  5
583
  8
DEFAULT
  0
POLYLINE
  5
590
  8
DEFAULT
 66
     1
 10
0.0
 20
0.0
 30
0.0
  0
VERTEX
  5
592
  8
DEFAULT
 10
110.0000000000117
 20
-3.249999999996902
 30
0.0
  0
VERTEX
  5
593
  8
DEFAULT
 10
113.6000000000116
 20
-3.249999999996902
 30
0.0
  0
VERTEX
  5
594
  8
DEFAULT
 10
113.6000000000116
 20
-5.299999999996912
 30
0.0
  0
VERTEX
  5
595
  8
DEFAULT
 10
115.8000000000117
 20
-5.299999999996912
 30
0.0
  0
VERTEX
  5
596
  8
DEFAULT
 10
115.8000000000117
 20
-3.249999999996902
 30
0.0
  0
VERTEX
  5
597
  8
DEFAULT
 10
117.6000000000116
 20
-3.249999999996902
 30
0.0
  0
VERTEX
  5
598
  8
DEFAULT
 10
117.6000000000116
 20
-0.749999999996902
 30
0.0
  0
VERTEX
  5
599
  8
DEFAULT
 10
115.8000000000117
 20
-0.749999999996902
 30
0.0
  0
VERTEX
  5
59A
  8
DEFAULT
 10
115.8000000000117
 20
1.300000000003108
 30
0.0
  0
VERTEX
  5
59B
  8
DEFAULT
 10
113.6000000000116
 20
1.300000000003108
 30
0.0
  0
VERTEX
  5
59C
  8
DEFAULT
 10
113.6000000000116
 20
-0.749999999996902
 30
0.0
  0
VERTEX
  5
59D
  8
DEFAULT
 10
110.0000000000117
 20
-0.7499999999968949
 30
0.0
  0
SEQEND
  5
591
  8
DEFAULT
  0
POLYLINE
  5
59E
  8
DEFAULT
 66
     1
 10
0.0
 20
0.0
 30
0.0
  0
VERTEX
  5
5A0
  8
DEFAULT
 10
76.00000000000875
 20
8.25
 30
0.0
  0
VERTEX
  5
5A1
  8
DEFAULT
 10
79.60000000000875
 20
8.25
 30
0.0
  0
VERTEX
  5
5A2
  8
DEFAULT
 10
79.60000000000875
 20
10.30000000000001
 30
0.0
  0
VERTEX
  5
5A3
  8
DEFAULT
 10
81.80000000000877
 20
10.30000000000001
 30
0.0
  0
VERTEX
  5
5A4
  8
DEFAULT
 10
81.80000000000877
 20
8.25
 30
0.0
  0
VERTEX
  5
5A5
  8
DEFAULT
 10
83.60000000000875
 20
8.25
 30
0.0
  0
VERTEX
  5
5A6
  8
DEFAULT
 10
83.60000000000875
 20
5.75
 30
0.0
  0
VERTEX
  5
5A7
  8
DEFAULT
 10
81.80000000000877
 20
5.75
 30
0.0
  0
VERTEX
  5
5A8
  8
DEFAULT
 10
81.80000000000877
 20
3.69999999999999
 30
0.0
  0
VERTEX
  5
5A9
  8
DEFAULT
 10
79.60000000000875
 20
3.69999999999999
 30
0.0
  0
VERTEX
  5
5AA
  8
DEFAULT
 10
79.60000000000875
 20
5.75
 30
0.0
  0
VERTEX
  5
5AB
  8
DEFAULT
 10
76.00000000000875
 20
5.75
 30
0.0
  0
SEQEND
  5
59F
  8
DEFAULT
  0
POLYLINE
  5
5AC
  8
DEFAULT
 66
     1
 10
0.0
 20
0.0
 30
0.0
  0
VERTEX
  5
5AE
  8
DEFAULT
 10
136.0000000000113
 20
179.2500000000031
 30
0.0
  0
VERTEX
  5
5AF
  8
DEFAULT
 10
134.2000000000116
 20
179.2500000000031
 30
0.0
  0
VERTEX
  5
5B0
  8
DEFAULT
 10
132.4000000000117
 20
178.0000000000031
 30
0.0
  0
VERTEX
  5
5B1
  8
DEFAULT
 10
134.2000000000116
 20
176.7500000000031
 30
0.0
  0
VERTEX
  5
5B2
  8
DEFAULT
 10
136.0000000000114
 20
176.7500000000031
 30
0.0
  0
SEQEND
  5
5AD
  8
DEFAULT
  0
POLYLINE
  5
5B3
  8
DEFAULT
 66
     1
 10
0.0
 20
0.0
 30
-0.0000000000000001
  0
VERTEX
  5
5B5
  8
DEFAULT
 10
136.0000000000117
 20
159.2500000000031
 30
-0.0000000000000001
  0
VERTEX
  5
5B6
  8
DEFAULT
 10
132.4000000000117
 20
159.2500000000031
 30
-0.0000000000000001
  0
VERTEX
  5
5B7
  8
DEFAULT
 10
132.4000000000117
 20
161.3000000000031
 30
-0.0000000000000001
  0
VERTEX
  5
5B8
  8
DEFAULT
 10
130.2000000000116
 20
161.3000000000031
 30
-0.0000000000000001
  0
VERTEX
  5
5B9
  8
DEFAULT
 10
130.2000000000116
 20
159.2500000000031
 30
-0.0000000000000001
  0
VERTEX
  5
5BA
  8
DEFAULT
 10
128.4000000000117
 20
159.2500000000031
 30
-0.0000000000000001
  0
VERTEX
  5
5BB
  8
DEFAULT
 10
128.4000000000117
 20
156.7500000000031
 30
-0.0000000000000001
  0
VERTEX
  5
5BC
  8
DEFAULT
 10
130.2000000000116
 20
156.7500000000031
 30
-0.0000000000000001
  0
VERTEX
  5
5BD
  8
DEFAULT
 10
130.2000000000116
 20
154.7000000000031
 30
-0.0000000000000001
  0
VERTEX
  5
5BE
  8
DEFAULT
 10
132.4000000000117
 20
154.7000000000031
 30
-0.0000000000000001
  0
VERTEX
  5
5BF
  8
DEFAULT
 10
132.4000000000117
 20
156.7500000000031
 30
-0.0000000000000001
  0
VERTEX
  5
5C0
  8
DEFAULT
 10
136.0000000000087
 20
156.7500000000031
 30
-0.0000000000000001
  0
SEQEND
  5
5B4
  8
DEFAULT
  0
POLYLINE
  5
5C1
  8
DEFAULT
 66
     1
 10
0.0
 20
0.0
 30
-0.0000000000000002
  0
VERTEX
  5
5C3
  8
DEFAULT
 10
76.00000000000875
 20
208.25
 30
-0.0000000000000002
  0
VERTEX
  5
5C4
  8
DEFAULT
 10
79.60000000000875
 20
208.25
 30
-0.0000000000000002
  0
VERTEX
  5
5C5
  8
DEFAULT
 10
79.60000000000875
 20
210.3
 30
-0.0000000000000002
  0
VERTEX
  5
5C6
  8
DEFAULT
 10
81.80000000000877
 20
210.3
 30
-0.0000000000000002
  0
VERTEX
  5
5C7
  8
DEFAULT
 10
81.80000000000877
 20
208.25
 30
-0.0000000000000002
  0
VERTEX
  5
5C8
  8
DEFAULT
 10
83.60000000000875
 20
208.25
 30
-0.0000000000000002
  0
VERTEX
  5
5C9
  8
DEFAULT
 10
83.60000000000875
 20
205.75
 30
-0.0000000000000002
  0
VERTEX
  5
5CA
  8
DEFAULT
 10
81.80000000000877
 20
205.75
 30
-0.0000000000000002
  0
VERTEX
  5
5CB
  8
DEFAULT
 10
81.80000000000877
 20
203.7
 30
-0.0000000000000002
  0
VERTEX
  5
5CC
  8
DEFAULT
 10
79.60000000000875
 20
203.7
 30
-0.0000000000000002
  0
VERTEX
  5
5CD
  8
DEFAULT
 10
79.60000000000875
 20
205.75
 30
-0.0000000000000002
  0
VERTEX
  5
5CE
  8
DEFAULT
 10
76.00000000001171
 20
205.75
 30
-0.0000000000000002
  0
SEQEND
  5
5C2
  8
DEFAULT
  0
POLYLINE
  5
5CF
  8
DEFAULT
 66
     1
 10
0.0
 20
0.0
 30
0.0000000000000008
  0
VERTEX
  5
5D1
  8
DEFAULT
 10
90.25000000000875
 20
222.0
 30
0.0000000000000008
  0
VERTEX
  5
5D2
  8
DEFAULT
 10
90.25000000000875
 20
218.4
 30
0.0000000000000008
  0
VERTEX
  5
5D3
  8
DEFAULT
 10
92.30000000000877
 20
218.4
 30
0.0000000000000008
  0
VERTEX
  5
5D4
  8
DEFAULT
 10
92.30000000000877
 20
216.2
 30
0.0000000000000008
  0
VERTEX
  5
5D5
  8
DEFAULT
 10
90.25000000000875
 20
216.2
 30
0.0000000000000008
  0
VERTEX
  5
5D6
  8
DEFAULT
 10
90.25000000000875
 20
214.4
 30
0.0000000000000008
  0
VERTEX
  5
5D7
  8
DEFAULT
 10
87.75000000000875
 20
214.4
 30
0.0000000000000008
  0
VERTEX
  5
5D8
  8
DEFAULT
 10
87.75000000000875
 20
216.2
 30
0.0000000000000008
  0
VERTEX
  5
5D9
  8
DEFAULT
 10
85.70000000000874
 20
216.2
 30
0.0000000000000008
  0
VERTEX
  5
5DA
  8
DEFAULT
 10
85.70000000000874
 20
218.4
 30
0.0000000000000008
  0
VERTEX
  5
5DB
  8
DEFAULT
 10
87.75000000000875
 20
218.4
 30
0.0000000000000008
  0
VERTEX
  5
5DC
  8
DEFAULT
 10
87.75000000000875
 20
221.9999999999971
 30
0.0000000000000008
  0
SEQEND
  5
5D0
  8
DEFAULT
  0
CIRCLE
  5
5DD
  8
DEFAULT
 10
84.00000000000875
 20
40.0
 30
0.0
 40
1.75
  0
CIRCLE
  5
5DE
  8
DEFAULT
 10
81.50000000001171
 20
97.0
 30
0.0
 40
1.5
  0
CIRCLE
  5
5DF
  8
DEFAULT
 10
73.40000000000876
 20
-2.0
 30
0.0
 40
0.5
  0
POLYLINE
  5
5E0
  8
DEFAULT
 66
     1
 10
0.0
 20
0.0
 30
0.0
  0
VERTEX
  5
5E2
  8
DEFAULT
 10
102.0000000000088
 20
-2.0
 30
0.0
  0
VERTEX
  5
5E3
  8
DEFAULT
 10
102.0000000000102
 20
215.9999999999983
 30
0.0
  0
VERTEX
  5
5E4
  8
DEFAULT
 10
110.0000000000102
 20
216.0000000000038
 30
0.0
  0
VERTEX
  5
5E5
  8
DEFAULT
 10
110.0000000000102
 20
224.9999999999952
 30
0.0
  0
VERTEX
  5
5E6
  8
DEFAULT
 10
96.00000000000875
 20
225.0
 30
0.0
  0
VERTEX
  5
5E7
  8
DEFAULT
 10
96.00000000000875
 20
222.0000000000018
 30
0.0
  0
VERTEX
  5
5E8
  8
DEFAULT
 10
83.00000000000875
 20
222.0
 30
0.0
  0
VERTEX
  5
5E9
  8
DEFAULT
 10
83.0000000000087
 20
225.0000000000002
 30
0.0
 42
0.4142135623731094
  0
VERTEX
  5
5EA
  8
DEFAULT
 10
81.00000000000853
 20
227.0
 30
0.0
  0
VERTEX
  5
5EB
  8
DEFAULT
 10
76.00000000000875
 20
227.0
 30
0.0
 42
0.4142135623731117
  0
VERTEX
  5
5EC
  8
DEFAULT
 10
74.00000000000875
 20
225.0
 30
0.0
  0
VERTEX
  5
5ED
  8
DEFAULT
 10
74.00000000000875
 20
219.0
 30
0.0
  0
VERTEX
  5
5EE
  8
DEFAULT
 10
76.00000000000696
 20
219.0
 30
0.0
  0
VERTEX
  5
5EF
  8
DEFAULT
 10
76.00000000000875
 20
3.5
 30
0.0
  0
VERTEX
  5
5F0
  8
DEFAULT
 10
75.00000000000875
 20
3.500000000000003
 30
0.0
 42
0.4142135623730949
  0
VERTEX
  5
5F1
  8
DEFAULT
 10
70.00000000000875
 20
-1.499999999999994
 30
0.0
  0
VERTEX
  5
5F2
  8
DEFAULT
 10
70.00000000000875
 20
-9.999999999991305
 30
0.0
 42
0.414213562373415
  0
VERTEX
  5
5F3
  8
DEFAULT
 10
74.00000000000435
 20
-14.0
 30
0.0
  0
VERTEX
  5
5F4
  8
DEFAULT
 10
81.00000000000875
 20
-14.0
 30
0.0
 42
0.4142135623730929
  0
VERTEX
  5
5F5
  8
DEFAULT
 10
83.00000000000875
 20
-12.0
 30
0.0
  0
VERTEX
  5
5F6
  8
DEFAULT
 10
83.00000000000875
 20
-8.0
 30
0.0
  0
VERTEX
  5
5F7
  8
DEFAULT
 10
96.00000000001168
 20
-8.000000000000227
 30
0.0
  0
VERTEX
  5
5F8
  8
DEFAULT
 10
96.00000000000935
 20
-11.0
 30
0.0
  0
VERTEX
  5
5F9
  8
DEFAULT
 10
110.0000000000088
 20
-11.0
 30
0.0
  0
VERTEX
  5
5FA
  8
DEFAULT
 10
110.0000000000088
 20
-2.0
 30
0.0
  0
VERTEX
  5
5FB
  8
DEFAULT
 10
102.0000000000088
 20
-2.0
 30
0.0
  0
SEQEND
  5
5E1
  8
DEFAULT
  0
CIRCLE
  5
5FC
  8
DEFAULT
 10
81.50000000001171
 20
137.0
 30
0.0
 40
1.5
  0
CIRCLE
  5
5FD
  8
DEFAULT
 10
76.00000000000875
 20
225.0
 30
0.0
 40
0.95
  0
POLYLINE
  5
5FE
  8
DEFAULT
 66
     1
 10
0.0
 20
0.0
 30
0.0
  0
VERTEX
  5
600
  8
DEFAULT
 10
87.00000000000875
 20
28.0
 30
0.0
  0
VERTEX
  5
601
  8
DEFAULT
 10
87.00000000000875
 20
34.0
 30
0.0
  0
VERTEX
  5
602
  8
DEFAULT
 10
81.00000000000875
 20
34.0
 30
0.0
  0
VERTEX
  5
603
  8
DEFAULT
 10
81.00000000000875
 20
28.0
 30
0.0
  0
VERTEX
  5
604
  8
DEFAULT
 10
87.00000000000875
 20
28.0
 30
0.0
  0
SEQEND
  5
5FF
  8
DEFAULT
  0
POLYLINE
  5
605
  8
DEFAULT
 66
     1
 10
0.0
 20
0.0
 30
0.0
  0
VERTEX
  5
607
  8
DEFAULT
 10
87.00000000000875
 20
56.0
 30
0.0
  0
VERTEX
  5
608
  8
DEFAULT
 10
87.00000000000875
 20
62.0
 30
0.0
  0
VERTEX
  5
609
  8
DEFAULT
 10
81.00000000000875
 20
62.0
 30
0.0
  0
VERTEX
  5
60A
  8
DEFAULT
 10
81.00000000000875
 20
56.0
 30
0.0
  0
VERTEX
  5
60B
  8
DEFAULT
 10
87.00000000000875
 20
56.0
 30
0.0
  0
SEQEND
  5
606
  8
DEFAULT
  0
CIRCLE
  5
60C
  8
DEFAULT
 10
75.00000000000875
 20
-9.0
 30
0.0
 40
2.95
  0
CIRCLE
  5
60D
  8
DEFAULT
 10
130.5000000000087
 20
128.0000000000031
 30
0.0
 40
1.5
  0
CIRCLE
  5
60E
  8
DEFAULT
 10
136.0000000000117
 20
216.0000000000031
 30
0.0
 40
0.95
  0
POLYLINE
  5
60F
  8
DEFAULT
 66
     1
 10
0.0
 20
0.0
 30
0.0
  0
VERTEX
  5
611
  8
DEFAULT
 10
125.0000000000117
 20
19.0000000000031
 30
0.0
  0
VERTEX
  5
612
  8
DEFAULT
 10
125.0000000000117
 20
25.0000000000031
 30
0.0
  0
VERTEX
  5
613
  8
DEFAULT
 10
131.0000000000117
 20
25.0000000000031
 30
0.0
  0
VERTEX
  5
614
  8
DEFAULT
 10
131.0000000000117
 20
19.0000000000031
 30
0.0
  0
VERTEX
  5
615
  8
DEFAULT
 10
125.0000000000117
 20
19.0000000000031
 30
0.0
  0
SEQEND
  5
610
  8
DEFAULT
  0
POLYLINE
  5
616
  8
DEFAULT
 66
     1
 10
0.0
 20
0.0
 30
0.0
  0
VERTEX
  5
618
  8
DEFAULT
 10
125.0000000000117
 20
47.0000000000031
 30
0.0
  0
VERTEX
  5
619
  8
DEFAULT
 10
125.0000000000117
 20
53.0000000000031
 30
0.0
  0
VERTEX
  5
61A
  8
DEFAULT
 10
131.0000000000117
 20
53.0000000000031
 30
0.0
  0
VERTEX
  5
61B
  8
DEFAULT
 10
131.0000000000117
 20
47.0000000000031
 30
0.0
  0
VERTEX
  5
61C
  8
DEFAULT
 10
125.0000000000117
 20
47.0000000000031
 30
0.0
  0
SEQEND
  5
617
  8
DEFAULT
  0
CIRCLE
  5
61D
  8
DEFAULT
 10
137.0000000000117
 20
-17.9999999999969
 30
0.0
 40
2.95
  0
CIRCLE
  5
61E
  8
DEFAULT
 10
128.0000000000117
 20
31.0000000000031
 30
0.0
 40
1.75
  0
CIRCLE
  5
61F
  8
DEFAULT
 10
130.5000000000087
 20
88.0000000000031
 30
0.0
 40
1.5
  0
CIRCLE
  5
620
  8
DEFAULT
 10
138.6000000000116
 20
-10.9999999999969
 30
0.0
 40
0.5
  0
POLYLINE
  5
621
  8
DEFAULT
 66
     1
 10
0.0
 20
0.0
 30
0.0
  0
VERTEX
  5
623
  8
DEFAULT
 10
110.0000000000117
 20
-10.9999999999969
 30
0.0
  0
VERTEX
  5
624
  8
DEFAULT
 10
110.0000000000102
 20
207.0000000000014
 30
0.0
  0
VERTEX
  5
625
  8
DEFAULT
 10
102.0000000000102
 20
207.0000000000069
 30
0.0
  0
VERTEX
  5
626
  8
DEFAULT
 10
102.0000000000102
 20
215.9999999999983
 30
0.0
  0
VERTEX
  5
627
  8
DEFAULT
 10
116.0000000000117
 20
216.0000000000031
 30
0.0
  0
VERTEX
  5
628
  8
DEFAULT
 10
116.0000000000117
 20
213.0000000000049
 30
0.0
  0
VERTEX
  5
629
  8
DEFAULT
 10
129.0000000000117
 20
213.0000000000031
 30
0.0
  0
VERTEX
  5
62A
  8
DEFAULT
 10
129.0000000000117
 20
216.0000000000033
 30
0.0
 42
-0.4142135623731064
  0
VERTEX
  5
62B
  8
DEFAULT
 10
131.0000000000119
 20
218.0000000000031
 30
0.0
  0
VERTEX
  5
62C
  8
DEFAULT
 10
136.0000000000117
 20
218.0000000000031
 30
0.0
 42
-0.4142135623731117
  0
VERTEX
  5
62D
  8
DEFAULT
 10
138.0000000000117
 20
216.0000000000031
 30
0.0
  0
VERTEX
  5
62E
  8
DEFAULT
 10
138.0000000000117
 20
210.0000000000031
 30
0.0
  0
VERTEX
  5
62F
  8
DEFAULT
 10
136.0000000000135
 20
210.0000000000031
 30
0.0
  0
VERTEX
  5
630
  8
DEFAULT
 10
136.0000000000117
 20
-5.499999999996902
 30
0.0
  0
VERTEX
  5
631
  8
DEFAULT
 10
137.0000000000117
 20
-5.499999999996898
 30
0.0
 42
-0.414213562373095
  0
VERTEX
  5
632
  8
DEFAULT
 10
142.0000000000117
 20
-10.49999999999689
 30
0.0
  0
VERTEX
  5
633
  8
DEFAULT
 10
142.0000000000117
 20
-18.9999999999882
 30
0.0
 42
-0.4142135623734151
  0
VERTEX
  5
634
  8
DEFAULT
 10
138.000000000016
 20
-22.9999999999969
 30
0.0
  0
VERTEX
  5
635
  8
DEFAULT
 10
131.0000000000116
 20
-22.9999999999969
 30
0.0
 42
-0.4142135623730896
  0
VERTEX
  5
636
  8
DEFAULT
 10
129.0000000000117
 20
-20.9999999999969
 30
0.0
  0
VERTEX
  5
637
  8
DEFAULT
 10
129.0000000000117
 20
-16.9999999999969
 30
0.0
  0
VERTEX
  5
638
  8
DEFAULT
 10
116.0000000000087
 20
-16.99999999999713
 30
0.0
  0
VERTEX
  5
639
  8
DEFAULT
 10
116.0000000000111
 20
-19.9999999999969
 30
0.0
  0
VERTEX
  5
63A
  8
DEFAULT
 10
102.0000000000116
 20
-19.9999999999969
 30
0.0
  0
VERTEX
  5
63B
  8
DEFAULT
 10
102.0000000000116
 20
-10.9999999999969
 30
0.0
  0
VERTEX
  5
63C
  8
DEFAULT
 10
110.0000000000117
 20
-10.9999999999969
 30
0.0
  0
SEQEND
  5
622
  8
DEFAULT
  0
CIRCLE
  5
63D
  8
DEFAULT
 10
12.00000000000583
 20
40.0
 30
0.0
 40
1.75
  0
CIRCLE
  5
63E
  8
DEFAULT
 10
9.500000000008782
 20
97.0
 30
0.0
 40
1.5
  0
CIRCLE
  5
63F
  8
DEFAULT
 10
1.400000000005832
 20
-2.0
 30
0.0
 40
0.5
  0
POLYLINE
  5
640
  8
DEFAULT
 66
     1
 10
0.0
 20
0.0
 30
0.0
  0
VERTEX
  5
642
  8
DEFAULT
 10
30.00000000000583
 20
-2.0
 30
0.0
  0
VERTEX
  5
643
  8
DEFAULT
 10
30.00000000000728
 20
215.9999999999983
 30
0.0
  0
VERTEX
  5
644
  8
DEFAULT
 10
38.00000000000728
 20
216.0000000000038
 30
0.0
  0
VERTEX
  5
645
  8
DEFAULT
 10
38.00000000000728
 20
224.9999999999952
 30
0.0
  0
VERTEX
  5
646
  8
DEFAULT
 10
24.00000000000583
 20
225.0
 30
0.0
  0
VERTEX
  5
647
  8
DEFAULT
 10
24.00000000000583
 20
222.0000000000018
 30
0.0
  0
VERTEX
  5
648
  8
DEFAULT
 10
11.00000000000583
 20
222.0
 30
0.0
  0
VERTEX
  5
649
  8
DEFAULT
 10
11.00000000000577
 20
225.0000000000002
 30
0.0
 42
0.414213562373109
  0
VERTEX
  5
64A
  8
DEFAULT
 10
9.000000000005599
 20
227.0
 30
0.0
  0
VERTEX
  5
64B
  8
DEFAULT
 10
4.000000000005828
 20
227.0
 30
0.0
 42
0.4142135623731131
  0
VERTEX
  5
64C
  8
DEFAULT
 10
2.000000000005826
 20
225.0
 30
0.0
  0
VERTEX
  5
64D
  8
DEFAULT
 10
2.000000000005826
 20
219.0
 30
0.0
  0
VERTEX
  5
64E
  8
DEFAULT
 10
4.000000000004036
 20
219.0
 30
0.0
  0
VERTEX
  5
64F
  8
DEFAULT
 10
4.000000000005826
 20
3.5
 30
0.0
  0
VERTEX
  5
650
  8
DEFAULT
 10
3.000000000005828
 20
3.500000000000003
 30
0.0
 42
0.414213562373095
  0
VERTEX
  5
651
  8
DEFAULT
 10
-1.999999999994174
 20
-1.499999999999994
 30
0.0
  0
VERTEX
  5
652
  8
DEFAULT
 10
-1.999999999994181
 20
-9.999999999991305
 30
0.0
 42
0.4142135623734149
  0
VERTEX
  5
653
  8
DEFAULT
 10
2.000000000001421
 20
-14.0
 30
0.0
  0
VERTEX
  5
654
  8
DEFAULT
 10
9.000000000005834
 20
-14.0
 30
0.0
 42
0.414213562373093
  0
VERTEX
  5
655
  8
DEFAULT
 10
11.00000000000583
 20
-12.0
 30
0.0
  0
VERTEX
  5
656
  8
DEFAULT
 10
11.00000000000583
 20
-8.0
 30
0.0
  0
VERTEX
  5
657
  8
DEFAULT
 10
24.00000000000875
 20
-8.000000000000227
 30
0.0
  0
VERTEX
  5
658
  8
DEFAULT
 10
24.00000000000642
 20
-11.0
 30
0.0
  0
VERTEX
  5
659
  8
DEFAULT
 10
38.00000000000591
 20
-11.0
 30
0.0
  0
VERTEX
  5
65A
  8
DEFAULT
 10
38.00000000000591
 20
-2.0
 30
0.0
  0
VERTEX
  5
65B
  8
DEFAULT
 10
30.00000000000583
 20
-2.0
 30
0.0
  0
SEQEND
  5
641
  8
DEFAULT
  0
CIRCLE
  5
65C
  8
DEFAULT
 10
9.500000000008782
 20
137.0
 30
0.0
 40
1.5
  0
CIRCLE
  5
65D
  8
DEFAULT
 10
4.000000000005826
 20
225.0
 30
0.0
 40
0.95
  0
POLYLINE
  5
65E
  8
DEFAULT
 66
     1
 10
0.0
 20
0.0
 30
0.0
  0
VERTEX
  5
660
  8
DEFAULT
 10
15.00000000000583
 20
28.0
 30
0.0
  0
VERTEX
  5
661
  8
DEFAULT
 10
15.00000000000583
 20
34.0
 30
0.0
  0
VERTEX
  5
662
  8
DEFAULT
 10
9.000000000005826
 20
34.0
 30
0.0
  0
VERTEX
  5
663
  8
DEFAULT
 10
9.000000000005826
 20
28.0
 30
0.0
  0
VERTEX
  5
664
  8
DEFAULT
 10
15.00000000000583
 20
28.0
 30
0.0
  0
SEQEND
  5
65F
  8
DEFAULT
  0
POLYLINE
  5
665
  8
DEFAULT
 66
     1
 10
0.0
 20
0.0
 30
0.0
  0
VERTEX
  5
667
  8
DEFAULT
 10
15.00000000000583
 20
56.0
 30
0.0
  0
VERTEX
  5
668
  8
DEFAULT
 10
15.00000000000583
 20
62.0
 30
0.0
  0
VERTEX
  5
669
  8
DEFAULT
 10
9.000000000005826
 20
62.0
 30
0.0
  0
VERTEX
  5
66A
  8
DEFAULT
 10
9.000000000005826
 20
56.0
 30
0.0
  0
VERTEX
  5
66B
  8
DEFAULT
 10
15.00000000000583
 20
56.0
 30
0.0
  0
SEQEND
  5
666
  8
DEFAULT
  0
CIRCLE
  5
66C
  8
DEFAULT
 10
3.000000000005826
 20
-9.0
 30
0.0
 40
2.95
  0
CIRCLE
  5
66D
  8
DEFAULT
 10
58.50000000000577
 20
128.0000000000031
 30
0.0
 40
1.5
  0
CIRCLE
  5
66E
  8
DEFAULT
 10
64.00000000000873
 20
216.0000000000031
 30
0.0
 40
0.95
  0
POLYLINE
  5
66F
  8
DEFAULT
 66
     1
 10
0.0
 20
0.0
 30
0.0
  0
VERTEX
  5
671
  8
DEFAULT
 10
53.00000000000873
 20
19.0000000000031
 30
0.0
  0
VERTEX
  5
672
  8
DEFAULT
 10
53.00000000000873
 20
25.0000000000031
 30
0.0
  0
VERTEX
  5
673
  8
DEFAULT
 10
59.00000000000873
 20
25.0000000000031
 30
0.0
  0
VERTEX
  5
674
  8
DEFAULT
 10
59.00000000000873
 20
19.0000000000031
 30
0.0
  0
VERTEX
  5
675
  8
DEFAULT
 10
53.00000000000873
 20
19.0000000000031
 30
0.0
  0
SEQEND
  5
670
  8
DEFAULT
  0
POLYLINE
  5
676
  8
DEFAULT
 66
     1
 10
0.0
 20
0.0
 30
0.0
  0
VERTEX
  5
678
  8
DEFAULT
 10
53.00000000000873
 20
47.0000000000031
 30
0.0
  0
VERTEX
  5
679
  8
DEFAULT
 10
53.00000000000873
 20
53.0000000000031
 30
0.0
  0
VERTEX
  5
67A
  8
DEFAULT
 10
59.00000000000873
 20
53.0000000000031
 30
0.0
  0
VERTEX
  5
67B
  8
DEFAULT
 10
59.00000000000873
 20
47.0000000000031
 30
0.0
  0
VERTEX
  5
67C
  8
DEFAULT
 10
53.00000000000873
 20
47.0000000000031
 30
0.0
  0
SEQEND
  5
677
  8
DEFAULT
  0
CIRCLE
  5
67D
  8
DEFAULT
 10
65.00000000000873
 20
-17.9999999999969
 30
0.0
 40
2.95
  0
CIRCLE
  5
67E
  8
DEFAULT
 10
56.00000000000873
 20
31.0000000000031
 30
0.0
 40
1.75
  0
CIRCLE
  5
67F
  8
DEFAULT
 10
58.50000000000577
 20
88.0000000000031
 30
0.0
 40
1.5
  0
CIRCLE
  5
680
  8
DEFAULT
 10
66.60000000000872
 20
-10.9999999999969
 30
0.0
 40
0.5
  0
POLYLINE
  5
681
  8
DEFAULT
 66
     1
 10
0.0
 20
0.0
 30
0.0
  0
VERTEX
  5
683
  8
DEFAULT
 10
38.00000000000873
 20
-10.9999999999969
 30
0.0
  0
VERTEX
  5
684
  8
DEFAULT
 10
38.00000000000728
 20
207.0000000000014
 30
0.0
  0
VERTEX
  5
685
  8
DEFAULT
 10
30.00000000000728
 20
207.0000000000069
 30
0.0
  0
VERTEX
  5
686
  8
DEFAULT
 10
30.00000000000728
 20
215.9999999999983
 30
0.0
  0
VERTEX
  5
687
  8
DEFAULT
 10
44.00000000000873
 20
216.0000000000031
 30
0.0
  0
VERTEX
  5
688
  8
DEFAULT
 10
44.00000000000873
 20
213.0000000000049
 30
0.0
  0
VERTEX
  5
689
  8
DEFAULT
 10
57.00000000000873
 20
213.0000000000031
 30
0.0
  0
VERTEX
  5
68A
  8
DEFAULT
 10
57.00000000000878
 20
216.0000000000033
 30
0.0
 42
-0.4142135623731094
  0
VERTEX
  5
68B
  8
DEFAULT
 10
59.00000000000895
 20
218.0000000000031
 30
0.0
  0
VERTEX
  5
68C
  8
DEFAULT
 10
64.00000000000873
 20
218.0000000000031
 30
0.0
 42
-0.4142135623731117
  0
VERTEX
  5
68D
  8
DEFAULT
 10
66.00000000000873
 20
216.0000000000031
 30
0.0
  0
VERTEX
  5
68E
  8
DEFAULT
 10
66.00000000000873
 20
210.0000000000031
 30
0.0
  0
VERTEX
  5
68F
  8
DEFAULT
 10
64.00000000001053
 20
210.0000000000031
 30
0.0
  0
VERTEX
  5
690
  8
DEFAULT
 10
64.00000000000873
 20
-5.499999999996902
 30
0.0
  0
VERTEX
  5
691
  8
DEFAULT
 10
65.00000000000873
 20
-5.499999999996898
 30
0.0
 42
-0.414213562373095
  0
VERTEX
  5
692
  8
DEFAULT
 10
70.00000000000873
 20
-10.49999999999689
 30
0.0
  0
VERTEX
  5
693
  8
DEFAULT
 10
70.00000000000873
 20
-18.99999999998815
 30
0.0
 42
-0.4142135623734148
  0
VERTEX
  5
694
  8
DEFAULT
 10
66.00000000001312
 20
-22.9999999999969
 30
0.0
  0
VERTEX
  5
695
  8
DEFAULT
 10
59.00000000000872
 20
-22.9999999999969
 30
0.0
 42
-0.414213562373093
  0
VERTEX
  5
696
  8
DEFAULT
 10
57.00000000000873
 20
-20.9999999999969
 30
0.0
  0
VERTEX
  5
697
  8
DEFAULT
 10
57.00000000000873
 20
-16.9999999999969
 30
0.0
  0
VERTEX
  5
698
  8
DEFAULT
 10
44.0000000000058
 20
-16.99999999999713
 30
0.0
  0
VERTEX
  5
699
  8
DEFAULT
 10
44.00000000000813
 20
-19.9999999999969
 30
0.0
  0
VERTEX
  5
69A
  8
DEFAULT
 10
30.00000000000864
 20
-19.9999999999969
 30
0.0
  0
VERTEX
  5
69B
  8
DEFAULT
 10
30.00000000000864
 20
-10.9999999999969
 30
0.0
  0
VERTEX
  5
69C
  8
DEFAULT
 10
38.00000000000873
 20
-10.9999999999969
 30
0.0
  0
SEQEND
  5
682
  8
DEFAULT
  0
CIRCLE
  5
69D
  8
DEFAULT
 10
-59.99999999999709
 20
40.0
 30
0.0
 40
1.75
  0
CIRCLE
  5
69E
  8
DEFAULT
 10
-62.49999999999413
 20
97.0
 30
0.0
 40
1.5
  0
CIRCLE
  5
69F
  8
DEFAULT
 10
-70.59999999999708
 20
-2.0
 30
0.0
 40
0.5
  0
POLYLINE
  5
6A0
  8
DEFAULT
 66
     1
 10
0.0
 20
0.0
 30
0.0
  0
VERTEX
  5
6A2
  8
DEFAULT
 10
-41.99999999999709
 20
-2.0
 30
0.0
  0
VERTEX
  5
6A3
  8
DEFAULT
 10
-41.99999999999564
 20
215.9999999999983
 30
0.0
  0
VERTEX
  5
6A4
  8
DEFAULT
 10
-33.99999999999564
 20
216.0000000000038
 30
0.0
  0
VERTEX
  5
6A5
  8
DEFAULT
 10
-33.99999999999564
 20
224.9999999999952
 30
0.0
  0
VERTEX
  5
6A6
  8
DEFAULT
 10
-47.99999999999709
 20
225.0
 30
0.0
  0
VERTEX
  5
6A7
  8
DEFAULT
 10
-47.99999999999709
 20
222.0000000000018
 30
0.0
  0
VERTEX
  5
6A8
  8
DEFAULT
 10
-60.99999999999709
 20
222.0
 30
0.0
  0
VERTEX
  5
6A9
  8
DEFAULT
 10
-60.99999999999714
 20
225.0000000000002
 30
0.0
 42
0.4142135623731094
  0
VERTEX
  5
6AA
  8
DEFAULT
 10
-62.99999999999731
 20
227.0
 30
0.0
  0
VERTEX
  5
6AB
  8
DEFAULT
 10
-67.99999999999709
 20
227.0
 30
0.0
 42
0.4142135623731117
  0
VERTEX
  5
6AC
  8
DEFAULT
 10
-69.99999999999709
 20
225.0
 30
0.0
  0
VERTEX
  5
6AD
  8
DEFAULT
 10
-69.99999999999709
 20
219.0
 30
0.0
  0
VERTEX
  5
6AE
  8
DEFAULT
 10
-67.99999999999888
 20
219.0
 30
0.0
  0
VERTEX
  5
6AF
  8
DEFAULT
 10
-67.99999999999709
 20
3.5
 30
0.0
  0
VERTEX
  5
6B0
  8
DEFAULT
 10
-68.99999999999709
 20
3.500000000000003
 30
0.0
 42
0.4142135623730949
  0
VERTEX
  5
6B1
  8
DEFAULT
 10
-73.99999999999709
 20
-1.499999999999994
 30
0.0
  0
VERTEX
  5
6B2
  8
DEFAULT
 10
-73.9999999999971
 20
-9.999999999991305
 30
0.0
 42
0.4142135623734146
  0
VERTEX
  5
6B3
  8
DEFAULT
 10
-70.00000000000149
 20
-14.0
 30
0.0
  0
VERTEX
  5
6B4
  8
DEFAULT
 10
-62.99999999999708
 20
-14.0
 30
0.0
 42
0.414213562373093
  0
VERTEX
  5
6B5
  8
DEFAULT
 10
-60.99999999999709
 20
-12.0
 30
0.0
  0
VERTEX
  5
6B6
  8
DEFAULT
 10
-60.99999999999709
 20
-8.0
 30
0.0
  0
VERTEX
  5
6B7
  8
DEFAULT
 10
-47.99999999999416
 20
-8.000000000000227
 30
0.0
  0
VERTEX
  5
6B8
  8
DEFAULT
 10
-47.99999999999649
 20
-11.0
 30
0.0
  0
VERTEX
  5
6B9
  8
DEFAULT
 10
-33.999999999997
 20
-11.0
 30
0.0
  0
VERTEX
  5
6BA
  8
DEFAULT
 10
-33.999999999997
 20
-2.0
 30
0.0
  0
VERTEX
  5
6BB
  8
DEFAULT
 10
-41.99999999999709
 20
-2.0
 30
0.0
  0
SEQEND
  5
6A1
  8
DEFAULT
  0
CIRCLE
  5
6BC
  8
DEFAULT
 10
-62.49999999999413
 20
137.0
 30
0.0
 40
1.5
  0
CIRCLE
  5
6BD
  8
DEFAULT
 10
-67.99999999999709
 20
225.0
 30
0.0
 40
0.95
  0
POLYLINE
  5
6BE
  8
DEFAULT
 66
     1
 10
0.0
 20
0.0
 30
0.0
  0
VERTEX
  5
6C0
  8
DEFAULT
 10
-56.99999999999709
 20
28.0
 30
0.0
  0
VERTEX
  5
6C1
  8
DEFAULT
 10
-56.99999999999709
 20
34.0
 30
0.0
  0
VERTEX
  5
6C2
  8
DEFAULT
 10
-62.99999999999709
 20
34.0
 30
0.0
  0
VERTEX
  5
6C3
  8
DEFAULT
 10
-62.99999999999709
 20
28.0
 30
0.0
  0
VERTEX
  5
6C4
  8
DEFAULT
 10
-56.99999999999709
 20
28.0
 30
0.0
  0
SEQEND
  5
6BF
  8
DEFAULT
  0
POLYLINE
  5
6C5
  8
DEFAULT
 66
     1
 10
0.0
 20
0.0
 30
0.0
  0
VERTEX
  5
6C7
  8
DEFAULT
 10
-56.99999999999709
 20
56.0
 30
0.0
  0
VERTEX
  5
6C8
  8
DEFAULT
 10
-56.99999999999709
 20
62.0
 30
0.0
  0
VERTEX
  5
6C9
  8
DEFAULT
 10
-62.99999999999709
 20
62.0
 30
0.0
  0
VERTEX
  5
6CA
  8
DEFAULT
 10
-62.99999999999709
 20
56.0
 30
0.0
  0
VERTEX
  5
6CB
  8
DEFAULT
 10
-56.99999999999709
 20
56.0
 30
0.0
  0
SEQEND
  5
6C6
  8
DEFAULT
  0
CIRCLE
  5
6CC
  8
DEFAULT
 10
-68.99999999999709
 20
-9.0
 30
0.0
 40
2.95
  0
CIRCLE
  5
6CD
  8
DEFAULT
 10
-13.49999999999714
 20
128.0000000000031
 30
0.0
 40
1.5
  0
CIRCLE
  5
6CE
  8
DEFAULT
 10
-7.999999999994188
 20
216.0000000000031
 30
0.0
 40
0.95
  0
POLYLINE
  5
6CF
  8
DEFAULT
 66
     1
 10
0.0
 20
0.0
 30
0.0
  0
VERTEX
  5
6D1
  8
DEFAULT
 10
-18.99999999999419
 20
19.0000000000031
 30
0.0
  0
VERTEX
  5
6D2
  8
DEFAULT
 10
-18.99999999999419
 20
25.0000000000031
 30
0.0
  0
VERTEX
  5
6D3
  8
DEFAULT
 10
-12.99999999999419
 20
25.0000000000031
 30
0.0
  0
VERTEX
  5
6D4
  8
DEFAULT
 10
-12.99999999999419
 20
19.0000000000031
 30
0.0
  0
VERTEX
  5
6D5
  8
DEFAULT
 10
-18.99999999999419
 20
19.0000000000031
 30
0.0
  0
SEQEND
  5
6D0
  8
DEFAULT
  0
POLYLINE
  5
6D6
  8
DEFAULT
 66
     1
 10
0.0
 20
0.0
 30
0.0
  0
VERTEX
  5
6D8
  8
DEFAULT
 10
-18.99999999999419
 20
47.0000000000031
 30
0.0
  0
VERTEX
  5
6D9
  8
DEFAULT
 10
-18.99999999999419
 20
53.0000000000031
 30
0.0
  0
VERTEX
  5
6DA
  8
DEFAULT
 10
-12.99999999999419
 20
53.0000000000031
 30
0.0
  0
VERTEX
  5
6DB
  8
DEFAULT
 10
-12.99999999999419
 20
47.0000000000031
 30
0.0
  0
VERTEX
  5
6DC
  8
DEFAULT
 10
-18.99999999999419
 20
47.0000000000031
 30
0.0
  0
SEQEND
  5
6D7
  8
DEFAULT
  0
CIRCLE
  5
6DD
  8
DEFAULT
 10
-6.999999999994188
 20
-17.9999999999969
 30
0.0
 40
2.95
  0
CIRCLE
  5
6DE
  8
DEFAULT
 10
-15.99999999999419
 20
31.0000000000031
 30
0.0
 40
1.75
  0
CIRCLE
  5
6DF
  8
DEFAULT
 10
-13.49999999999714
 20
88.0000000000031
 30
0.0
 40
1.5
  0
CIRCLE
  5
6E0
  8
DEFAULT
 10
-5.399999999994193
 20
-10.9999999999969
 30
0.0
 40
0.5
  0
POLYLINE
  5
6E1
  8
DEFAULT
 66
     1
 10
0.0
 20
0.0
 30
0.0
  0
VERTEX
  5
6E3
  8
DEFAULT
 10
-33.99999999999419
 20
-10.9999999999969
 30
0.0
  0
VERTEX
  5
6E4
  8
DEFAULT
 10
-33.99999999999564
 20
207.0000000000014
 30
0.0
  0
VERTEX
  5
6E5
  8
DEFAULT
 10
-41.99999999999564
 20
207.0000000000069
 30
0.0
  0
VERTEX
  5
6E6
  8
DEFAULT
 10
-41.99999999999564
 20
215.9999999999983
 30
0.0
  0
VERTEX
  5
6E7
  8
DEFAULT
 10
-27.99999999999419
 20
216.0000000000031
 30
0.0
  0
VERTEX
  5
6E8
  8
DEFAULT
 10
-27.99999999999419
 20
213.0000000000049
 30
0.0
  0
VERTEX
  5
6E9
  8
DEFAULT
 10
-14.99999999999419
 20
213.0000000000031
 30
0.0
  0
VERTEX
  5
6EA
  8
DEFAULT
 10
-14.99999999999413
 20
216.0000000000033
 30
0.0
 42
-0.414213562373109
  0
VERTEX
  5
6EB
  8
DEFAULT
 10
-12.99999999999396
 20
218.0000000000031
 30
0.0
  0
VERTEX
  5
6EC
  8
DEFAULT
 10
-7.99999999999419
 20
218.0000000000031
 30
0.0
 42
-0.4142135623731131
  0
VERTEX
  5
6ED
  8
DEFAULT
 10
-5.999999999994188
 20
216.0000000000031
 30
0.0
  0
VERTEX
  5
6EE
  8
DEFAULT
 10
-5.999999999994188
 20
210.0000000000031
 30
0.0
  0
VERTEX
  5
6EF
  8
DEFAULT
 10
-7.999999999992383
 20
210.0000000000031
 30
0.0
  0
VERTEX
  5
6F0
  8
DEFAULT
 10
-7.999999999994188
 20
-5.499999999996902
 30
0.0
  0
VERTEX
  5
6F1
  8
DEFAULT
 10
-6.999999999994186
 20
-5.499999999996898
 30
0.0
 42
-0.4142135623730949
  0
VERTEX
  5
6F2
  8
DEFAULT
 10
-1.999999999994188
 20
-10.49999999999689
 30
0.0
  0
VERTEX
  5
6F3
  8
DEFAULT
 10
-1.999999999994181
 20
-18.99999999998815
 30
0.0
 42
-0.4142135623734151
  0
VERTEX
  5
6F4
  8
DEFAULT
 10
-5.999999999989797
 20
-22.9999999999969
 30
0.0
  0
VERTEX
  5
6F5
  8
DEFAULT
 10
-12.99999999999419
 20
-22.9999999999969
 30
0.0
 42
-0.414213562373093
  0
VERTEX
  5
6F6
  8
DEFAULT
 10
-14.99999999999419
 20
-20.9999999999969
 30
0.0
  0
VERTEX
  5
6F7
  8
DEFAULT
 10
-14.99999999999419
 20
-16.9999999999969
 30
0.0
  0
VERTEX
  5
6F8
  8
DEFAULT
 10
-27.99999999999712
 20
-16.99999999999713
 30
0.0
  0
VERTEX
  5
6F9
  8
DEFAULT
 10
-27.99999999999478
 20
-19.9999999999969
 30
0.0
  0
VERTEX
  5
6FA
  8
DEFAULT
 10
-41.99999999999427
 20
-19.9999999999969
 30
0.0
  0
VERTEX
  5
6FB
  8
DEFAULT
 10
-41.99999999999427
 20
-10.9999999999969
 30
0.0
  0
VERTEX
  5
6FC
  8
DEFAULT
 10
-33.99999999999419
 20
-10.9999999999969
 30
0.0
  0
SEQEND
  5
6E2
  8
DEFAULT
  0
CIRCLE
  5
6FD
  8
DEFAULT
 10
-85.50000000000006
 20
128.0000000000031
 30
0.0
 40
1.5
  0
POLYLINE
  5
6FE
  8
DEFAULT
 66
     1
 10
0.0
 20
0.0
 30
0.0
  0
VERTEX
  5
700
  8
DEFAULT
 10
-105.9999999999971
 20
-10.9999999999969
 30
0.0
  0
VERTEX
  5
701
  8
DEFAULT
 10
-105.9999999999986
 20
207.0000000000014
 30
0.0
  0
VERTEX
  5
702
  8
DEFAULT
 10
-113.9999999999986
 20
207.0000000000069
 30
0.0
  0
VERTEX
  5
703
  8
DEFAULT
 10
-113.9999999999986
 20
215.9999999999983
 30
0.0
  0
VERTEX
  5
704
  8
DEFAULT
 10
-99.9999999999971
 20
216.0000000000031
 30
0.0
  0
VERTEX
  5
705
  8
DEFAULT
 10
-99.9999999999971
 20
213.0000000000049
 30
0.0
  0
VERTEX
  5
706
  8
DEFAULT
 10
-86.9999999999971
 20
213.0000000000031
 30
0.0
  0
VERTEX
  5
707
  8
DEFAULT
 10
-86.99999999999704
 20
216.0000000000033
 30
0.0
 42
-0.4142135623731094
  0
VERTEX
  5
708
  8
DEFAULT
 10
-84.99999999999687
 20
218.0000000000031
 30
0.0
  0
VERTEX
  5
709
  8
DEFAULT
 10
-79.9999999999971
 20
218.0000000000031
 30
0.0
 42
-0.4142135623731117
  0
VERTEX
  5
70A
  8
DEFAULT
 10
-77.9999999999971
 20
216.0000000000031
 30
0.0
  0
VERTEX
  5
70B
  8
DEFAULT
 10
-77.9999999999971
 20
210.0000000000031
 30
0.0
  0
VERTEX
  5
70C
  8
DEFAULT
 10
-79.9999999999953
 20
210.0000000000031
 30
0.0
  0
VERTEX
  5
70D
  8
DEFAULT
 10
-79.9999999999971
 20
-5.499999999996902
 30
0.0
  0
VERTEX
  5
70E
  8
DEFAULT
 10
-78.9999999999971
 20
-5.499999999996898
 30
0.0
 42
-0.414213562373095
  0
VERTEX
  5
70F
  8
DEFAULT
 10
-73.9999999999971
 20
-10.49999999999689
 30
0.0
  0
VERTEX
  5
710
  8
DEFAULT
 10
-73.9999999999971
 20
-18.99999999998815
 30
0.0
 42
-0.4142135623734148
  0
VERTEX
  5
711
  8
DEFAULT
 10
-77.99999999999271
 20
-22.9999999999969
 30
0.0
  0
VERTEX
  5
712
  8
DEFAULT
 10
-84.9999999999971
 20
-22.9999999999969
 30
0.0
 42
-0.4142135623730929
  0
VERTEX
  5
713
  8
DEFAULT
 10
-86.9999999999971
 20
-20.9999999999969
 30
0.0
  0
VERTEX
  5
714
  8
DEFAULT
 10
-86.9999999999971
 20
-16.9999999999969
 30
0.0
  0
VERTEX
  5
715
  8
DEFAULT
 10
-100.0
 20
-16.99999999999713
 30
0.0
  0
VERTEX
  5
716
  8
DEFAULT
 10
-99.9999999999977
 20
-19.9999999999969
 30
0.0
  0
VERTEX
  5
717
  8
DEFAULT
 10
-113.9999999999972
 20
-19.9999999999969
 30
0.0
  0
VERTEX
  5
718
  8
DEFAULT
 10
-113.9999999999972
 20
-10.9999999999969
 30
0.0
  0
VERTEX
  5
719
  8
DEFAULT
 10
-105.9999999999971
 20
-10.9999999999969
 30
0.0
  0
SEQEND
  5
6FF
  8
DEFAULT
  0
CIRCLE
  5
71A
  8
DEFAULT
 10
-77.3999999999971
 20
-10.9999999999969
 30
0.0
 40
0.5
  0
CIRCLE
  5
71B
  8
DEFAULT
 10
-85.50000000000006
 20
88.0000000000031
 30
0.0
 40
1.5
  0
CIRCLE
  5
71C
  8
DEFAULT
 10
-87.9999999999971
 20
31.0000000000031
 30
0.0
 40
1.75
  0
CIRCLE
  5
71D
  8
DEFAULT
 10
-78.9999999999971
 20
-17.9999999999969
 30
0.0
 40
2.95
  0
POLYLINE
  5
71E
  8
DEFAULT
 66
     1
 10
0.0
 20
0.0
 30
0.0
  0
VERTEX
  5
720
  8
DEFAULT
 10
-90.9999999999971
 20
47.0000000000031
 30
0.0
  0
VERTEX
  5
721
  8
DEFAULT
 10
-90.9999999999971
 20
53.0000000000031
 30
0.0
  0
VERTEX
  5
722
  8
DEFAULT
 10
-84.9999999999971
 20
53.0000000000031
 30
0.0
  0
VERTEX
  5
723
  8
DEFAULT
 10
-84.9999999999971
 20
47.0000000000031
 30
0.0
  0
VERTEX
  5
724
  8
DEFAULT
 10
-90.9999999999971
 20
47.0000000000031
 30
0.0
  0
SEQEND
  5
71F
  8
DEFAULT
  0
POLYLINE
  5
725
  8
DEFAULT
 66
     1
 10
0.0
 20
0.0
 30
0.0
  0
VERTEX
  5
727
  8
DEFAULT
 10
-90.9999999999971
 20
19.0000000000031
 30
0.0
  0
VERTEX
  5
728
  8
DEFAULT
 10
-90.9999999999971
 20
25.0000000000031
 30
0.0
  0
VERTEX
  5
729
  8
DEFAULT
 10
-84.9999999999971
 20
25.0000000000031
 30
0.0
  0
VERTEX
  5
72A
  8
DEFAULT
 10
-84.9999999999971
 20
19.0000000000031
 30
0.0
  0
VERTEX
  5
72B
  8
DEFAULT
 10
-90.9999999999971
 20
19.0000000000031
 30
0.0
  0
SEQEND
  5
726
  8
DEFAULT
  0
CIRCLE
  5
72C
  8
DEFAULT
 10
-79.9999999999971
 20
216.0000000000031
 30
0.0
 40
0.95
  0
CIRCLE
  5
72D
  8
DEFAULT
 10
-134.499999999997
 20
137.0
 30
0.0
 40
1.5
  0
POLYLINE
  5
72E
  8
DEFAULT
 66
     1
 10
0.0
 20
0.0
 30
0.0
  0
VERTEX
  5
730
  8
DEFAULT
 10
-114.0
 20
-2.0
 30
0.0
  0
VERTEX
  5
731
  8
DEFAULT
 10
-113.9999999999986
 20
215.9999999999983
 30
0.0
  0
VERTEX
  5
732
  8
DEFAULT
 10
-105.9999999999986
 20
216.0000000000038
 30
0.0
  0
VERTEX
  5
733
  8
DEFAULT
 10
-105.9999999999986
 20
224.9999999999952
 30
0.0
  0
VERTEX
  5
734
  8
DEFAULT
 10
-120.0
 20
225.0
 30
0.0
  0
VERTEX
  5
735
  8
DEFAULT
 10
-120.0
 20
222.0000000000018
 30
0.0
  0
VERTEX
  5
736
  8
DEFAULT
 10
-133.0
 20
222.0
 30
0.0
  0
VERTEX
  5
737
  8
DEFAULT
 10
-133.0000000000001
 20
225.0000000000002
 30
0.0
 42
0.4142135623731064
  0
VERTEX
  5
738
  8
DEFAULT
 10
-135.0000000000002
 20
227.0
 30
0.0
  0
VERTEX
  5
739
  8
DEFAULT
 10
-140.0
 20
227.0
 30
0.0
 42
0.4142135623731117
  0
VERTEX
  5
73A
  8
DEFAULT
 10
-142.0
 20
225.0
 30
0.0
  0
VERTEX
  5
73B
  8
DEFAULT
 10
-142.0
 20
219.0
 30
0.0
  0
VERTEX
  5
73C
  8
DEFAULT
 10
-140.0000000000018
 20
219.0
 30
0.0
  0
VERTEX
  5
73D
  8
DEFAULT
 10
-140.0
 20
3.5
 30
0.0
  0
VERTEX
  5
73E
  8
DEFAULT
 10
-141.0
 20
3.500000000000003
 30
0.0
 42
0.4142135623730949
  0
VERTEX
  5
73F
  8
DEFAULT
 10
-146.0
 20
-1.499999999999994
 30
0.0
  0
VERTEX
  5
740
  8
DEFAULT
 10
-146.0
 20
-9.999999999991305
 30
0.0
 42
0.414213562373415
  0
VERTEX
  5
741
  8
DEFAULT
 10
-142.0000000000044
 20
-14.0
 30
0.0
  0
VERTEX
  5
742
  8
DEFAULT
 10
-135.0
 20
-14.0
 30
0.0
 42
0.4142135623730896
  0
VERTEX
  5
743
  8
DEFAULT
 10
-133.0
 20
-12.0
 30
0.0
  0
VERTEX
  5
744
  8
DEFAULT
 10
-133.0
 20
-8.0
 30
0.0
  0
VERTEX
  5
745
  8
DEFAULT
 10
-119.9999999999971
 20
-8.000000000000227
 30
0.0
  0
VERTEX
  5
746
  8
DEFAULT
 10
-119.9999999999994
 20
-11.0
 30
0.0
  0
VERTEX
  5
747
  8
DEFAULT
 10
-105.9999999999999
 20
-11.0
 30
0.0
  0
VERTEX
  5
748
  8
DEFAULT
 10
-105.9999999999999
 20
-2.0
 30
0.0
  0
VERTEX
  5
749
  8
DEFAULT
 10
-114.0
 20
-2.0
 30
0.0
  0
SEQEND
  5
72F
  8
DEFAULT
  0
CIRCLE
  5
74A
  8
DEFAULT
 10
-142.6
 20
-2.0
 30
0.0
 40
0.5
  0
CIRCLE
  5
74B
  8
DEFAULT
 10
-134.499999999997
 20
97.0
 30
0.0
 40
1.5
  0
CIRCLE
  5
74C
  8
DEFAULT
 10
-132.0
 20
40.0
 30
0.0
 40
1.75
  0
CIRCLE
  5
74D
  8
DEFAULT
 10
-141.0
 20
-9.0
 30
0.0
 40
2.95
  0
POLYLINE
  5
74E
  8
DEFAULT
 66
     1
 10
0.0
 20
0.0
 30
0.0
  0
VERTEX
  5
750
  8
DEFAULT
 10
-129.0
 20
56.0
 30
0.0
  0
VERTEX
  5
751
  8
DEFAULT
 10
-129.0
 20
62.0
 30
0.0
  0
VERTEX
  5
752
  8
DEFAULT
 10
-135.0
 20
62.0
 30
0.0
  0
VERTEX
  5
753
  8
DEFAULT
 10
-135.0
 20
56.0
 30
0.0
  0
VERTEX
  5
754
  8
DEFAULT
 10
-129.0
 20
56.0
 30
0.0
  0
SEQEND
  5
74F
  8
DEFAULT
  0
POLYLINE
  5
755
  8
DEFAULT
 66
     1
 10
0.0
 20
0.0
 30
0.0
  0
VERTEX
  5
757
  8
DEFAULT
 10
-129.0
 20
28.0
 30
0.0
  0
VERTEX
  5
758
  8
DEFAULT
 10
-129.0
 20
34.0
 30
0.0
  0
VERTEX
  5
759
  8
DEFAULT
 10
-135.0
 20
34.0
 30
0.0
  0
VERTEX
  5
75A
  8
DEFAULT
 10
-135.0
 20
28.0
 30
0.0
  0
VERTEX
  5
75B
  8
DEFAULT
 10
-129.0
 20
28.0
 30
0.0
  0
SEQEND
  5
756
  8
DEFAULT
  0
CIRCLE
  5
75C
  8
DEFAULT
 10
-140.0
 20
225.0
 30
0.0
 40
0.95
  0
ENDSEC
  0
EOF
